<?xml version="1.0" encoding="utf-8" standalone="no"?>
<!DOCTYPE svg PUBLIC "-//W3C//DTD SVG 1.1//EN"
  "http://www.w3.org/Graphics/SVG/1.1/DTD/svg11.dtd">
<svg xmlns:xlink="http://www.w3.org/1999/xlink" width="576pt" height="288pt" viewBox="0 0 576 288" xmlns="http://www.w3.org/2000/svg" version="1.1">
 <metadata>
  <rdf:RDF xmlns:dc="http://purl.org/dc/elements/1.1/" xmlns:cc="http://creativecommons.org/ns#" xmlns:rdf="http://www.w3.org/1999/02/22-rdf-syntax-ns#">
   <cc:Work>
    <dc:type rdf:resource="http://purl.org/dc/dcmitype/StillImage"/>
    <dc:date>2022-09-19T13:07:42.627248</dc:date>
    <dc:format>image/svg+xml</dc:format>
    <dc:creator>
     <cc:Agent>
      <dc:title>Matplotlib v3.5.1, https://matplotlib.org/</dc:title>
     </cc:Agent>
    </dc:creator>
   </cc:Work>
  </rdf:RDF>
 </metadata>
 <defs>
  <style type="text/css">*{stroke-linejoin: round; stroke-linecap: butt}</style>
 </defs>
 <g id="figure_1">
  <g id="patch_1">
   <path d="M 0 288 
L 576 288 
L 576 0 
L 0 0 
z
" style="fill: #ffffff"/>
  </g>
  <g id="axes_1">
   <g id="patch_2">
    <path d="M 55.37 231.505 
L 565.2 231.505 
L 565.2 15.66 
L 55.37 15.66 
z
" style="fill: #ffffff"/>
   </g>
   <g id="PolyCollection_1">
    <path d="M 55.37 66.529703 
L 55.37 129.7619 
L 64.639636 123.630171 
L 73.909273 147.947476 
L 83.178909 152.618385 
L 92.448545 158.461667 
L 101.718182 160.04807 
L 110.987818 155.148735 
L 120.257455 153.407662 
L 129.527091 151.169453 
L 138.796727 147.597738 
L 148.066364 148.843983 
L 157.336 146.471881 
L 166.605636 146.945124 
L 175.875273 139.633057 
L 185.144909 147.010686 
L 194.414545 144.528584 
L 203.684182 143.441856 
L 212.953818 150.034247 
L 222.223455 153.736624 
L 231.493091 156.673616 
L 240.762727 158.150712 
L 250.032364 155.863793 
L 259.302 151.553588 
L 268.571636 158.653734 
L 277.841273 158.992161 
L 287.110909 148.179596 
L 296.380545 152.30616 
L 305.650182 157.848875 
L 314.919818 159.5649 
L 324.189455 155.370928 
L 333.459091 154.991987 
L 342.728727 156.218726 
L 351.998364 157.550732 
L 361.268 160.836077 
L 370.537636 165.19049 
L 379.807273 168.105552 
L 389.076909 172.926745 
L 398.346545 176.16442 
L 407.616182 179.857678 
L 416.885818 179.945632 
L 426.155455 185.435482 
L 435.425091 181.520723 
L 444.694727 186.857866 
L 453.964364 190.145751 
L 463.234 189.230776 
L 472.503636 190.772509 
L 481.773273 193.338756 
L 491.042909 193.380655 
L 500.312545 189.359128 
L 509.582182 192.990749 
L 518.851818 197.999392 
L 528.121455 192.258146 
L 537.391091 193.78649 
L 546.660727 198.858271 
L 555.930364 201.53648 
L 565.2 198.836802 
L 574.469636 201.702923 
L 583.739273 204.377785 
L 593.008909 196.253241 
L 602.278545 203.417794 
L 611.548182 201.286354 
L 620.817818 201.573993 
L 630.087455 196.778194 
L 639.357091 200.092165 
L 648.626727 198.006895 
L 657.896364 197.587555 
L 667.166 203.091026 
L 676.435636 198.542006 
L 685.705273 194.848055 
L 694.974909 200.333288 
L 704.244545 203.602821 
L 713.514182 198.836455 
L 722.783818 195.934321 
L 732.053455 202.548181 
L 741.323091 202.854058 
L 750.592727 196.017773 
L 759.862364 195.978991 
L 769.132 199.21655 
L 778.401636 198.953958 
L 787.671273 196.227386 
L 796.940909 192.94758 
L 806.210545 201.103174 
L 815.480182 201.247225 
L 824.749818 203.37728 
L 834.019455 205.154019 
L 843.289091 204.530723 
L 852.558727 208.620467 
L 861.828364 209.485001 
L 871.098 206.897285 
L 880.367636 204.357009 
L 889.637273 211.103723 
L 898.906909 208.643667 
L 908.176545 206.452206 
L 917.446182 208.428976 
L 926.715818 210.744866 
L 935.985455 207.641431 
L 945.255091 205.633726 
L 954.524727 209.071202 
L 963.794364 207.883939 
L 973.064 205.484712 
L 982.333636 205.506527 
L 991.603273 207.466908 
L 1000.872909 205.487021 
L 1010.142545 201.599502 
L 1019.412182 203.316451 
L 1028.681818 205.845069 
L 1037.951455 202.215872 
L 1047.221091 200.1029 
L 1056.490727 201.414476 
L 1065.760364 201.536826 
L 1075.03 197.794513 
L 1084.299636 197.604292 
L 1093.569273 199.237327 
L 1102.838909 195.564268 
L 1112.108545 190.209927 
L 1121.378182 194.385431 
L 1130.647818 193.006101 
L 1139.917455 193.318672 
L 1149.187091 196.664154 
L 1158.456727 194.706313 
L 1167.726364 197.691553 
L 1176.996 196.533724 
L 1186.265636 199.516656 
L 1195.535273 201.524476 
L 1204.804909 197.49233 
L 1214.074545 204.058519 
L 1223.344182 205.952876 
L 1232.613818 202.210101 
L 1241.883455 199.785942 
L 1251.153091 207.503959 
L 1260.422727 206.768932 
L 1269.692364 206.11124 
L 1278.962 194.708391 
L 1288.231636 186.423406 
L 1297.501273 184.217631 
L 1297.501273 175.262949 
L 1297.501273 175.262949 
L 1288.231636 180.14197 
L 1278.962 187.786346 
L 1269.692364 203.897386 
L 1260.422727 204.885194 
L 1251.153091 206.036906 
L 1241.883455 198.18615 
L 1232.613818 201.506008 
L 1223.344182 204.380786 
L 1214.074545 202.118223 
L 1204.804909 196.299988 
L 1195.535273 199.893519 
L 1186.265636 196.822633 
L 1176.996 193.944738 
L 1167.726364 195.151046 
L 1158.456727 191.41208 
L 1149.187091 193.141379 
L 1139.917455 189.023703 
L 1130.647818 188.300218 
L 1121.378182 190.222047 
L 1112.108545 185.789144 
L 1102.838909 191.43782 
L 1093.569273 195.273628 
L 1084.299636 193.166196 
L 1075.03 193.973941 
L 1065.760364 198.489603 
L 1056.490727 197.837451 
L 1047.221091 196.284636 
L 1037.951455 199.443361 
L 1028.681818 203.056398 
L 1019.412182 199.396613 
L 1010.142545 198.561513 
L 1000.872909 203.053859 
L 991.603273 204.306568 
L 982.333636 201.965284 
L 973.064 202.560993 
L 963.794364 205.91594 
L 954.524727 205.594597 
L 945.255091 201.474958 
L 935.985455 204.644994 
L 926.715818 207.450633 
L 917.446182 204.093608 
L 908.176545 202.296901 
L 898.906909 205.580284 
L 889.637273 207.127327 
L 880.367636 200.032029 
L 871.098 203.098644 
L 861.828364 205.929907 
L 852.558727 204.343966 
L 843.289091 200.353488 
L 834.019455 202.0537 
L 824.749818 201.308862 
L 815.480182 198.642079 
L 806.210545 199.387957 
L 796.940909 190.867619 
L 787.671273 192.577643 
L 778.401636 195.810932 
L 769.132 197.503641 
L 759.862364 192.833656 
L 750.592727 192.695838 
L 741.323091 200.681757 
L 732.053455 200.619427 
L 722.783818 193.673143 
L 713.514182 195.55261 
L 704.244545 201.24584 
L 694.974909 198.012089 
L 685.705273 191.735039 
L 676.435636 195.450921 
L 667.166 199.919143 
L 657.896364 194.160583 
L 648.626727 194.078978 
L 639.357091 195.335496 
L 630.087455 191.981126 
L 620.817818 197.302109 
L 611.548182 196.416567 
L 602.278545 198.096696 
L 593.008909 191.343056 
L 583.739273 198.678092 
L 574.469636 195.222956 
L 565.2 192.27142 
L 555.930364 195.714436 
L 546.660727 192.811148 
L 537.391091 186.646291 
L 528.121455 185.68353 
L 518.851818 192.105785 
L 509.582182 187.063669 
L 500.312545 182.130052 
L 491.042909 187.03689 
L 481.773273 187.121958 
L 472.503636 183.916256 
L 463.234 182.024785 
L 453.964364 183.46379 
L 444.694727 179.641486 
L 435.425091 173.769925 
L 426.155455 177.551945 
L 416.885818 170.149501 
L 407.616182 171.133846 
L 398.346545 166.696096 
L 389.076909 163.34415 
L 379.807273 156.867761 
L 370.537636 154.475575 
L 361.268 151.28811 
L 351.998364 147.620707 
L 342.728727 148.305179 
L 333.459091 147.937203 
L 324.189455 148.594318 
L 314.919818 152.66594 
L 305.650182 150.529767 
L 296.380545 147.692617 
L 287.110909 139.818199 
L 277.841273 143.203157 
L 268.571636 140.946365 
L 259.302 135.253251 
L 250.032364 145.511313 
L 240.762727 149.555002 
L 231.493091 148.817782 
L 222.223455 141.851298 
L 212.953818 134.987427 
L 203.684182 131.17101 
L 194.414545 124.624674 
L 185.144909 121.771826 
L 175.875273 105.820419 
L 166.605636 110.872461 
L 157.336 108.412752 
L 148.066364 105.548015 
L 138.796727 109.58247 
L 129.527091 111.391644 
L 120.257455 113.206242 
L 110.987818 114.179738 
L 101.718182 113.688719 
L 92.448545 110.490981 
L 83.178909 92.352614 
L 73.909273 91.355687 
L 64.639636 61.417178 
L 55.37 66.529703 
z
" clip-path="url(#p1e22381fd9)" style="fill: #ffa500; fill-opacity: 0.3; stroke: #ffa500; stroke-opacity: 0.3"/>
   </g>
   <g id="PolyCollection_2">
    <path d="M 55.37 108.571808 
L 55.37 154.446373 
L 64.639636 158.273178 
L 73.909273 166.762119 
L 83.178909 169.171388 
L 92.448545 164.856335 
L 101.718182 167.806024 
L 110.987818 171.154276 
L 120.257455 162.309364 
L 129.527091 162.024264 
L 138.796727 163.583311 
L 148.066364 158.590828 
L 157.336 162.959784 
L 166.605636 172.494824 
L 175.875273 168.672059 
L 185.144909 169.452102 
L 194.414545 167.909099 
L 203.684182 160.320127 
L 212.953818 156.168747 
L 222.223455 158.866578 
L 231.493091 160.430704 
L 240.762727 162.281546 
L 250.032364 165.208959 
L 259.302 162.694653 
L 268.571636 162.950435 
L 277.841273 163.101411 
L 287.110909 167.570788 
L 296.380545 153.772059 
L 305.650182 157.266555 
L 314.919818 158.837376 
L 324.189455 155.980604 
L 333.459091 151.469328 
L 342.728727 151.603913 
L 351.998364 159.829801 
L 361.268 164.180059 
L 370.537636 168.326014 
L 379.807273 167.876433 
L 389.076909 178.584308 
L 398.346545 185.235681 
L 407.616182 190.347745 
L 416.885818 188.455696 
L 426.155455 193.389774 
L 435.425091 188.498057 
L 444.694727 193.044884 
L 453.964364 196.296756 
L 463.234 195.999652 
L 472.503636 198.99378 
L 481.773273 200.606038 
L 491.042909 199.757202 
L 500.312545 196.714826 
L 509.582182 199.9712 
L 518.851818 204.917628 
L 528.121455 198.454283 
L 537.391091 199.74462 
L 546.660727 206.930989 
L 555.930364 208.033299 
L 565.2 205.947682 
L 574.469636 209.064853 
L 583.739273 211.64726 
L 593.008909 203.167206 
L 602.278545 210.489546 
L 611.548182 209.338065 
L 620.817818 209.309208 
L 630.087455 204.392329 
L 639.357091 206.270526 
L 648.626727 205.752383 
L 657.896364 206.285647 
L 667.166 210.034078 
L 676.435636 205.29126 
L 685.705273 204.9466 
L 694.974909 207.575523 
L 704.244545 209.436292 
L 713.514182 205.247629 
L 722.783818 203.18175 
L 732.053455 207.755586 
L 741.323091 207.814222 
L 750.592727 203.236 
L 759.862364 200.42205 
L 769.132 205.514838 
L 778.401636 203.340344 
L 787.671273 202.133228 
L 796.940909 196.996348 
L 806.210545 206.221124 
L 815.480182 205.782855 
L 824.749818 208.876826 
L 834.019455 209.76837 
L 843.289091 209.538212 
L 852.558727 212.93425 
L 861.828364 214.546624 
L 871.098 212.703631 
L 880.367636 209.547908 
L 889.637273 216.04565 
L 898.906909 214.133287 
L 908.176545 212.978343 
L 917.446182 213.917903 
L 926.715818 215.936458 
L 935.985455 213.733108 
L 945.255091 211.762685 
L 954.524727 214.508534 
L 963.794364 212.26363 
L 973.064 211.026273 
L 982.333636 211.231152 
L 991.603273 211.802738 
L 1000.872909 209.635631 
L 1010.142545 206.44528 
L 1019.412182 206.006318 
L 1028.681818 208.204936 
L 1037.951455 205.451816 
L 1047.221091 203.129347 
L 1056.490727 202.453417 
L 1065.760364 202.902075 
L 1075.03 199.836845 
L 1084.299636 198.86208 
L 1093.569273 198.673821 
L 1102.838909 196.290754 
L 1112.108545 191.44613 
L 1121.378182 197.116967 
L 1130.647818 197.164176 
L 1139.917455 197.973075 
L 1149.187091 201.345105 
L 1158.456727 198.747347 
L 1167.726364 201.637708 
L 1176.996 199.031985 
L 1186.265636 202.400322 
L 1195.535273 205.312729 
L 1204.804909 200.083393 
L 1214.074545 204.010964 
L 1223.344182 207.001745 
L 1232.613818 204.866149 
L 1241.883455 200.023487 
L 1251.153091 207.108975 
L 1260.422727 208.184737 
L 1269.692364 208.067465 
L 1278.962 200.762208 
L 1288.231636 180.708823 
L 1297.501273 176.843927 
L 1297.501273 163.81243 
L 1297.501273 163.81243 
L 1288.231636 171.829167 
L 1278.962 191.707106 
L 1269.692364 203.129578 
L 1260.422727 204.436883 
L 1251.153091 205.068258 
L 1241.883455 197.524533 
L 1232.613818 201.531517 
L 1223.344182 204.009925 
L 1214.074545 201.043384 
L 1204.804909 196.573315 
L 1195.535273 201.602965 
L 1186.265636 198.403149 
L 1176.996 194.694309 
L 1167.726364 196.799086 
L 1158.456727 193.528977 
L 1149.187091 196.34258 
L 1139.917455 192.403813 
L 1130.647818 191.795753 
L 1121.378182 192.226404 
L 1112.108545 186.698694 
L 1102.838909 192.029258 
L 1093.569273 195.22261 
L 1084.299636 194.56711 
L 1075.03 195.509557 
L 1065.760364 199.391996 
L 1056.490727 198.972195 
L 1047.221091 198.793979 
L 1037.951455 201.832084 
L 1028.681818 205.267367 
L 1019.412182 202.506628 
L 1010.142545 202.951361 
L 1000.872909 206.566476 
L 991.603273 208.601999 
L 982.333636 207.352868 
L 973.064 207.545051 
L 963.794364 209.812 
L 954.524727 211.576735 
L 945.255091 208.789334 
L 935.985455 210.871719 
L 926.715818 213.719141 
L 917.446182 211.908352 
L 908.176545 210.321256 
L 898.906909 211.327302 
L 889.637273 214.298114 
L 880.367636 207.98736 
L 871.098 210.100794 
L 861.828364 211.957638 
L 852.558727 210.39836 
L 843.289091 207.275879 
L 834.019455 206.370254 
L 824.749818 205.245551 
L 815.480182 200.797644 
L 806.210545 200.872324 
L 796.940909 191.521734 
L 787.671273 197.047597 
L 778.401636 198.247787 
L 769.132 199.549667 
L 759.862364 195.24177 
L 750.592727 196.958027 
L 741.323091 202.902883 
L 732.053455 202.801539 
L 722.783818 195.183942 
L 713.514182 199.385186 
L 704.244545 205.326003 
L 694.974909 203.083177 
L 685.705273 199.881745 
L 676.435636 201.901223 
L 667.166 206.465133 
L 657.896364 202.30348 
L 648.626727 201.846396 
L 639.357091 202.455726 
L 630.087455 200.761054 
L 620.817818 205.577514 
L 611.548182 205.294722 
L 602.278545 207.586604 
L 593.008909 199.766782 
L 583.739273 207.977895 
L 574.469636 204.458236 
L 565.2 200.640435 
L 555.930364 202.678727 
L 546.660727 201.584497 
L 537.391091 194.512399 
L 528.121455 192.973897 
L 518.851818 199.032101 
L 509.582182 195.055243 
L 500.312545 191.437589 
L 491.042909 193.138724 
L 481.773273 194.268044 
L 472.503636 192.457254 
L 463.234 189.153787 
L 453.964364 189.552465 
L 444.694727 186.042041 
L 435.425091 181.378635 
L 426.155455 186.847477 
L 416.885818 179.765338 
L 407.616182 183.782363 
L 398.346545 177.431788 
L 389.076909 169.380307 
L 379.807273 159.394995 
L 370.537636 157.955066 
L 361.268 151.184343 
L 351.998364 145.341638 
L 342.728727 138.684378 
L 333.459091 137.661019 
L 324.189455 138.746477 
L 314.919818 138.543329 
L 305.650182 133.679429 
L 296.380545 132.133309 
L 287.110909 152.887556 
L 277.841273 150.434657 
L 268.571636 147.962481 
L 259.302 151.453399 
L 250.032364 156.475893 
L 240.762727 150.586672 
L 231.493091 143.549778 
L 222.223455 141.530877 
L 212.953818 129.315089 
L 203.684182 138.497851 
L 194.414545 138.102866 
L 185.144909 142.268329 
L 175.875273 135.702024 
L 166.605636 143.481562 
L 157.336 140.439187 
L 148.066364 136.832036 
L 138.796727 141.217383 
L 129.527091 139.08929 
L 120.257455 137.788448 
L 110.987818 146.208596 
L 101.718182 142.007352 
L 92.448545 136.970777 
L 83.178909 133.173751 
L 73.909273 127.690711 
L 64.639636 118.721601 
L 55.37 108.571808 
z
" clip-path="url(#p1e22381fd9)" style="fill-opacity: 0.3; stroke: #000000; stroke-opacity: 0.3"/>
   </g>
   <g id="matplotlib.axis_1">
    <g id="xtick_1">
     <g id="line2d_1">
      <defs>
       <path id="m6b6de842e2" d="M 0 0 
L 0 3.5 
" style="stroke: #000000; stroke-width: 0.8"/>
      </defs>
      <g>
       <use xlink:href="#m6b6de842e2" x="55.37" y="231.505" style="stroke: #000000; stroke-width: 0.8"/>
      </g>
     </g>
     <g id="text_1">
      <!-- A1 -->
      <g transform="translate(58.129375 253.201875)rotate(-90)scale(0.1 -0.1)">
       <defs>
        <path id="DejaVuSans-Bold-41" d="M 3419 850 
L 1538 850 
L 1241 0 
L 31 0 
L 1759 4666 
L 3194 4666 
L 4922 0 
L 3713 0 
L 3419 850 
z
M 1838 1716 
L 3116 1716 
L 2478 3572 
L 1838 1716 
z
" transform="scale(0.015625)"/>
        <path id="DejaVuSans-Bold-31" d="M 750 831 
L 1813 831 
L 1813 3847 
L 722 3622 
L 722 4441 
L 1806 4666 
L 2950 4666 
L 2950 831 
L 4013 831 
L 4013 0 
L 750 0 
L 750 831 
z
" transform="scale(0.015625)"/>
       </defs>
       <use xlink:href="#DejaVuSans-Bold-41"/>
       <use xlink:href="#DejaVuSans-Bold-31" x="77.392578"/>
      </g>
     </g>
    </g>
    <g id="xtick_2">
     <g id="line2d_2">
      <g>
       <use xlink:href="#m6b6de842e2" x="64.639636" y="231.505" style="stroke: #000000; stroke-width: 0.8"/>
      </g>
     </g>
     <g id="text_2">
      <!-- R2 -->
      <g transform="translate(67.399011 253.162812)rotate(-90)scale(0.1 -0.1)">
       <defs>
        <path id="DejaVuSans-Bold-52" d="M 2297 2597 
Q 2675 2597 2839 2737 
Q 3003 2878 3003 3200 
Q 3003 3519 2839 3656 
Q 2675 3794 2297 3794 
L 1791 3794 
L 1791 2597 
L 2297 2597 
z
M 1791 1766 
L 1791 0 
L 588 0 
L 588 4666 
L 2425 4666 
Q 3347 4666 3776 4356 
Q 4206 4047 4206 3378 
Q 4206 2916 3982 2619 
Q 3759 2322 3309 2181 
Q 3556 2125 3751 1926 
Q 3947 1728 4147 1325 
L 4800 0 
L 3519 0 
L 2950 1159 
Q 2778 1509 2601 1637 
Q 2425 1766 2131 1766 
L 1791 1766 
z
" transform="scale(0.015625)"/>
        <path id="DejaVuSans-Bold-32" d="M 1844 884 
L 3897 884 
L 3897 0 
L 506 0 
L 506 884 
L 2209 2388 
Q 2438 2594 2547 2791 
Q 2656 2988 2656 3200 
Q 2656 3528 2436 3728 
Q 2216 3928 1850 3928 
Q 1569 3928 1234 3808 
Q 900 3688 519 3450 
L 519 4475 
Q 925 4609 1322 4679 
Q 1719 4750 2100 4750 
Q 2938 4750 3402 4381 
Q 3866 4013 3866 3353 
Q 3866 2972 3669 2642 
Q 3472 2313 2841 1759 
L 1844 884 
z
" transform="scale(0.015625)"/>
       </defs>
       <use xlink:href="#DejaVuSans-Bold-52"/>
       <use xlink:href="#DejaVuSans-Bold-32" x="77.001953"/>
      </g>
     </g>
    </g>
    <g id="xtick_3">
     <g id="line2d_3">
      <g>
       <use xlink:href="#m6b6de842e2" x="73.909273" y="231.505" style="stroke: #000000; stroke-width: 0.8"/>
      </g>
     </g>
     <g id="text_3">
      <!-- T3 -->
      <g transform="translate(76.668648 252.284687)rotate(-90)scale(0.1 -0.1)">
       <defs>
        <path id="DejaVuSans-Bold-54" d="M 31 4666 
L 4331 4666 
L 4331 3756 
L 2784 3756 
L 2784 0 
L 1581 0 
L 1581 3756 
L 31 3756 
L 31 4666 
z
" transform="scale(0.015625)"/>
        <path id="DejaVuSans-Bold-33" d="M 2981 2516 
Q 3453 2394 3698 2092 
Q 3944 1791 3944 1325 
Q 3944 631 3412 270 
Q 2881 -91 1863 -91 
Q 1503 -91 1142 -33 
Q 781 25 428 141 
L 428 1069 
Q 766 900 1098 814 
Q 1431 728 1753 728 
Q 2231 728 2486 893 
Q 2741 1059 2741 1369 
Q 2741 1688 2480 1852 
Q 2219 2016 1709 2016 
L 1228 2016 
L 1228 2791 
L 1734 2791 
Q 2188 2791 2409 2933 
Q 2631 3075 2631 3366 
Q 2631 3634 2415 3781 
Q 2200 3928 1806 3928 
Q 1516 3928 1219 3862 
Q 922 3797 628 3669 
L 628 4550 
Q 984 4650 1334 4700 
Q 1684 4750 2022 4750 
Q 2931 4750 3382 4451 
Q 3834 4153 3834 3553 
Q 3834 3144 3618 2883 
Q 3403 2622 2981 2516 
z
" transform="scale(0.015625)"/>
       </defs>
       <use xlink:href="#DejaVuSans-Bold-54"/>
       <use xlink:href="#DejaVuSans-Bold-33" x="68.212891"/>
      </g>
     </g>
    </g>
    <g id="xtick_4">
     <g id="line2d_4">
      <g>
       <use xlink:href="#m6b6de842e2" x="83.178909" y="231.505" style="stroke: #000000; stroke-width: 0.8"/>
      </g>
     </g>
     <g id="text_4">
      <!-- K4 -->
      <g transform="translate(85.938284 253.21125)rotate(-90)scale(0.1 -0.1)">
       <defs>
        <path id="DejaVuSans-Bold-4b" d="M 588 4666 
L 1791 4666 
L 1791 2963 
L 3525 4666 
L 4922 4666 
L 2675 2456 
L 5153 0 
L 3647 0 
L 1791 1838 
L 1791 0 
L 588 0 
L 588 4666 
z
" transform="scale(0.015625)"/>
        <path id="DejaVuSans-Bold-34" d="M 2356 3675 
L 1038 1722 
L 2356 1722 
L 2356 3675 
z
M 2156 4666 
L 3494 4666 
L 3494 1722 
L 4159 1722 
L 4159 850 
L 3494 850 
L 3494 0 
L 2356 0 
L 2356 850 
L 288 850 
L 288 1881 
L 2156 4666 
z
" transform="scale(0.015625)"/>
       </defs>
       <use xlink:href="#DejaVuSans-Bold-4b"/>
       <use xlink:href="#DejaVuSans-Bold-34" x="77.490234"/>
      </g>
     </g>
    </g>
    <g id="xtick_5">
     <g id="line2d_5">
      <g>
       <use xlink:href="#m6b6de842e2" x="92.448545" y="231.505" style="stroke: #000000; stroke-width: 0.8"/>
      </g>
     </g>
     <g id="text_5">
      <!-- Q5 -->
      <g transform="translate(95.20792 253.964375)rotate(-90)scale(0.1 -0.1)">
       <defs>
        <path id="DejaVuSans-Bold-51" d="M 2847 -84 
L 2753 -84 
Q 1600 -84 959 553 
Q 319 1191 319 2328 
Q 319 3463 958 4106 
Q 1597 4750 2719 4750 
Q 3853 4750 4486 4112 
Q 5119 3475 5119 2328 
Q 5119 1541 4783 972 
Q 4447 403 3816 116 
L 4756 -934 
L 3609 -934 
L 2847 -84 
z
M 2719 3878 
Q 2169 3878 1866 3472 
Q 1563 3066 1563 2328 
Q 1563 1578 1859 1179 
Q 2156 781 2719 781 
Q 3272 781 3575 1187 
Q 3878 1594 3878 2328 
Q 3878 3066 3575 3472 
Q 3272 3878 2719 3878 
z
" transform="scale(0.015625)"/>
        <path id="DejaVuSans-Bold-35" d="M 678 4666 
L 3669 4666 
L 3669 3781 
L 1638 3781 
L 1638 3059 
Q 1775 3097 1914 3117 
Q 2053 3138 2203 3138 
Q 3056 3138 3531 2711 
Q 4006 2284 4006 1522 
Q 4006 766 3489 337 
Q 2972 -91 2053 -91 
Q 1656 -91 1267 -14 
Q 878 63 494 219 
L 494 1166 
Q 875 947 1217 837 
Q 1559 728 1863 728 
Q 2300 728 2551 942 
Q 2803 1156 2803 1522 
Q 2803 1891 2551 2103 
Q 2300 2316 1863 2316 
Q 1603 2316 1309 2248 
Q 1016 2181 678 2041 
L 678 4666 
z
" transform="scale(0.015625)"/>
       </defs>
       <use xlink:href="#DejaVuSans-Bold-51"/>
       <use xlink:href="#DejaVuSans-Bold-35" x="85.009766"/>
      </g>
     </g>
    </g>
    <g id="xtick_6">
     <g id="line2d_6">
      <g>
       <use xlink:href="#m6b6de842e2" x="101.718182" y="231.505" style="stroke: #000000; stroke-width: 0.8"/>
      </g>
     </g>
     <g id="text_6">
      <!-- T6 -->
      <g transform="translate(104.477557 252.284687)rotate(-90)scale(0.1 -0.1)">
       <defs>
        <path id="DejaVuSans-Bold-36" d="M 2316 2303 
Q 2000 2303 1842 2098 
Q 1684 1894 1684 1484 
Q 1684 1075 1842 870 
Q 2000 666 2316 666 
Q 2634 666 2792 870 
Q 2950 1075 2950 1484 
Q 2950 1894 2792 2098 
Q 2634 2303 2316 2303 
z
M 3803 4544 
L 3803 3681 
Q 3506 3822 3243 3889 
Q 2981 3956 2731 3956 
Q 2194 3956 1894 3657 
Q 1594 3359 1544 2772 
Q 1750 2925 1990 3001 
Q 2231 3078 2516 3078 
Q 3231 3078 3670 2659 
Q 4109 2241 4109 1563 
Q 4109 813 3618 361 
Q 3128 -91 2303 -91 
Q 1394 -91 895 523 
Q 397 1138 397 2266 
Q 397 3422 980 4083 
Q 1563 4744 2578 4744 
Q 2900 4744 3203 4694 
Q 3506 4644 3803 4544 
z
" transform="scale(0.015625)"/>
       </defs>
       <use xlink:href="#DejaVuSans-Bold-54"/>
       <use xlink:href="#DejaVuSans-Bold-36" x="68.212891"/>
      </g>
     </g>
    </g>
    <g id="xtick_7">
     <g id="line2d_7">
      <g>
       <use xlink:href="#m6b6de842e2" x="110.987818" y="231.505" style="stroke: #000000; stroke-width: 0.8"/>
      </g>
     </g>
     <g id="text_7">
      <!-- A7 -->
      <g transform="translate(113.747193 253.201875)rotate(-90)scale(0.1 -0.1)">
       <defs>
        <path id="DejaVuSans-Bold-37" d="M 428 4666 
L 3944 4666 
L 3944 3988 
L 2125 0 
L 953 0 
L 2675 3781 
L 428 3781 
L 428 4666 
z
" transform="scale(0.015625)"/>
       </defs>
       <use xlink:href="#DejaVuSans-Bold-41"/>
       <use xlink:href="#DejaVuSans-Bold-37" x="77.392578"/>
      </g>
     </g>
    </g>
    <g id="xtick_8">
     <g id="line2d_8">
      <g>
       <use xlink:href="#m6b6de842e2" x="120.257455" y="231.505" style="stroke: #000000; stroke-width: 0.8"/>
      </g>
     </g>
     <g id="text_8">
      <!-- R8 -->
      <g transform="translate(123.01683 253.162812)rotate(-90)scale(0.1 -0.1)">
       <defs>
        <path id="DejaVuSans-Bold-38" d="M 2228 2088 
Q 1891 2088 1709 1903 
Q 1528 1719 1528 1375 
Q 1528 1031 1709 848 
Q 1891 666 2228 666 
Q 2563 666 2741 848 
Q 2919 1031 2919 1375 
Q 2919 1722 2741 1905 
Q 2563 2088 2228 2088 
z
M 1350 2484 
Q 925 2613 709 2878 
Q 494 3144 494 3541 
Q 494 4131 934 4440 
Q 1375 4750 2228 4750 
Q 3075 4750 3515 4442 
Q 3956 4134 3956 3541 
Q 3956 3144 3739 2878 
Q 3522 2613 3097 2484 
Q 3572 2353 3814 2058 
Q 4056 1763 4056 1313 
Q 4056 619 3595 264 
Q 3134 -91 2228 -91 
Q 1319 -91 855 264 
Q 391 619 391 1313 
Q 391 1763 633 2058 
Q 875 2353 1350 2484 
z
M 1631 3419 
Q 1631 3141 1786 2991 
Q 1941 2841 2228 2841 
Q 2509 2841 2662 2991 
Q 2816 3141 2816 3419 
Q 2816 3697 2662 3845 
Q 2509 3994 2228 3994 
Q 1941 3994 1786 3844 
Q 1631 3694 1631 3419 
z
" transform="scale(0.015625)"/>
       </defs>
       <use xlink:href="#DejaVuSans-Bold-52"/>
       <use xlink:href="#DejaVuSans-Bold-38" x="77.001953"/>
      </g>
     </g>
    </g>
    <g id="xtick_9">
     <g id="line2d_9">
      <g>
       <use xlink:href="#m6b6de842e2" x="129.527091" y="231.505" style="stroke: #000000; stroke-width: 0.8"/>
      </g>
     </g>
     <g id="text_9">
      <!-- K9 -->
      <g transform="translate(132.286466 253.21125)rotate(-90)scale(0.1 -0.1)">
       <defs>
        <path id="DejaVuSans-Bold-39" d="M 641 103 
L 641 966 
Q 928 831 1190 764 
Q 1453 697 1709 697 
Q 2247 697 2547 995 
Q 2847 1294 2900 1881 
Q 2688 1725 2447 1647 
Q 2206 1569 1925 1569 
Q 1209 1569 770 1986 
Q 331 2403 331 3084 
Q 331 3838 820 4291 
Q 1309 4744 2131 4744 
Q 3044 4744 3544 4128 
Q 4044 3513 4044 2388 
Q 4044 1231 3459 570 
Q 2875 -91 1856 -91 
Q 1528 -91 1228 -42 
Q 928 6 641 103 
z
M 2125 2350 
Q 2441 2350 2600 2554 
Q 2759 2759 2759 3169 
Q 2759 3575 2600 3781 
Q 2441 3988 2125 3988 
Q 1809 3988 1650 3781 
Q 1491 3575 1491 3169 
Q 1491 2759 1650 2554 
Q 1809 2350 2125 2350 
z
" transform="scale(0.015625)"/>
       </defs>
       <use xlink:href="#DejaVuSans-Bold-4b"/>
       <use xlink:href="#DejaVuSans-Bold-39" x="77.490234"/>
      </g>
     </g>
    </g>
    <g id="xtick_10">
     <g id="line2d_10">
      <g>
       <use xlink:href="#m6b6de842e2" x="138.796727" y="231.505" style="stroke: #000000; stroke-width: 0.8"/>
      </g>
     </g>
     <g id="text_10">
      <!-- S10 -->
      <g transform="translate(141.556102 259.622187)rotate(-90)scale(0.1 -0.1)">
       <defs>
        <path id="DejaVuSans-Bold-53" d="M 3834 4519 
L 3834 3531 
Q 3450 3703 3084 3790 
Q 2719 3878 2394 3878 
Q 1963 3878 1756 3759 
Q 1550 3641 1550 3391 
Q 1550 3203 1689 3098 
Q 1828 2994 2194 2919 
L 2706 2816 
Q 3484 2659 3812 2340 
Q 4141 2022 4141 1434 
Q 4141 663 3683 286 
Q 3225 -91 2284 -91 
Q 1841 -91 1394 -6 
Q 947 78 500 244 
L 500 1259 
Q 947 1022 1364 901 
Q 1781 781 2169 781 
Q 2563 781 2772 912 
Q 2981 1044 2981 1288 
Q 2981 1506 2839 1625 
Q 2697 1744 2272 1838 
L 1806 1941 
Q 1106 2091 782 2419 
Q 459 2747 459 3303 
Q 459 4000 909 4375 
Q 1359 4750 2203 4750 
Q 2588 4750 2994 4692 
Q 3400 4634 3834 4519 
z
" transform="scale(0.015625)"/>
        <path id="DejaVuSans-Bold-30" d="M 2944 2338 
Q 2944 3213 2780 3570 
Q 2616 3928 2228 3928 
Q 1841 3928 1675 3570 
Q 1509 3213 1509 2338 
Q 1509 1453 1675 1090 
Q 1841 728 2228 728 
Q 2613 728 2778 1090 
Q 2944 1453 2944 2338 
z
M 4147 2328 
Q 4147 1169 3647 539 
Q 3147 -91 2228 -91 
Q 1306 -91 806 539 
Q 306 1169 306 2328 
Q 306 3491 806 4120 
Q 1306 4750 2228 4750 
Q 3147 4750 3647 4120 
Q 4147 3491 4147 2328 
z
" transform="scale(0.015625)"/>
       </defs>
       <use xlink:href="#DejaVuSans-Bold-53"/>
       <use xlink:href="#DejaVuSans-Bold-31" x="72.021484"/>
       <use xlink:href="#DejaVuSans-Bold-30" x="141.601562"/>
      </g>
     </g>
    </g>
    <g id="xtick_11">
     <g id="line2d_11">
      <g>
       <use xlink:href="#m6b6de842e2" x="148.066364" y="231.505" style="stroke: #000000; stroke-width: 0.8"/>
      </g>
     </g>
     <g id="text_11">
      <!-- T11 -->
      <g transform="translate(150.825739 259.2425)rotate(-90)scale(0.1 -0.1)">
       <use xlink:href="#DejaVuSans-Bold-54"/>
       <use xlink:href="#DejaVuSans-Bold-31" x="68.212891"/>
       <use xlink:href="#DejaVuSans-Bold-31" x="137.792969"/>
      </g>
     </g>
    </g>
    <g id="xtick_12">
     <g id="line2d_12">
      <g>
       <use xlink:href="#m6b6de842e2" x="157.336" y="231.505" style="stroke: #000000; stroke-width: 0.8"/>
      </g>
     </g>
     <g id="text_12">
      <!-- G12 -->
      <g transform="translate(160.095375 260.628437)rotate(-90)scale(0.1 -0.1)">
       <defs>
        <path id="DejaVuSans-Bold-47" d="M 4781 347 
Q 4331 128 3847 18 
Q 3363 -91 2847 -91 
Q 1681 -91 1000 561 
Q 319 1213 319 2328 
Q 319 3456 1012 4103 
Q 1706 4750 2913 4750 
Q 3378 4750 3804 4662 
Q 4231 4575 4609 4403 
L 4609 3438 
Q 4219 3659 3833 3768 
Q 3447 3878 3059 3878 
Q 2341 3878 1952 3476 
Q 1563 3075 1563 2328 
Q 1563 1588 1938 1184 
Q 2313 781 3003 781 
Q 3191 781 3352 804 
Q 3513 828 3641 878 
L 3641 1784 
L 2906 1784 
L 2906 2591 
L 4781 2591 
L 4781 347 
z
" transform="scale(0.015625)"/>
       </defs>
       <use xlink:href="#DejaVuSans-Bold-47"/>
       <use xlink:href="#DejaVuSans-Bold-31" x="82.080078"/>
       <use xlink:href="#DejaVuSans-Bold-32" x="151.660156"/>
      </g>
     </g>
    </g>
    <g id="xtick_13">
     <g id="line2d_13">
      <g>
       <use xlink:href="#m6b6de842e2" x="166.605636" y="231.505" style="stroke: #000000; stroke-width: 0.8"/>
      </g>
     </g>
     <g id="text_13">
      <!-- G13 -->
      <g transform="translate(169.365011 260.628437)rotate(-90)scale(0.1 -0.1)">
       <use xlink:href="#DejaVuSans-Bold-47"/>
       <use xlink:href="#DejaVuSans-Bold-31" x="82.080078"/>
       <use xlink:href="#DejaVuSans-Bold-33" x="151.660156"/>
      </g>
     </g>
    </g>
    <g id="xtick_14">
     <g id="line2d_14">
      <g>
       <use xlink:href="#m6b6de842e2" x="175.875273" y="231.505" style="stroke: #000000; stroke-width: 0.8"/>
      </g>
     </g>
     <g id="text_14">
      <!-- K14 -->
      <g transform="translate(178.634648 260.169062)rotate(-90)scale(0.1 -0.1)">
       <use xlink:href="#DejaVuSans-Bold-4b"/>
       <use xlink:href="#DejaVuSans-Bold-31" x="77.490234"/>
       <use xlink:href="#DejaVuSans-Bold-34" x="147.070312"/>
      </g>
     </g>
    </g>
    <g id="xtick_15">
     <g id="line2d_15">
      <g>
       <use xlink:href="#m6b6de842e2" x="185.144909" y="231.505" style="stroke: #000000; stroke-width: 0.8"/>
      </g>
     </g>
     <g id="text_15">
      <!-- A15 -->
      <g transform="translate(187.904284 260.159687)rotate(-90)scale(0.1 -0.1)">
       <use xlink:href="#DejaVuSans-Bold-41"/>
       <use xlink:href="#DejaVuSans-Bold-31" x="77.392578"/>
       <use xlink:href="#DejaVuSans-Bold-35" x="146.972656"/>
      </g>
     </g>
    </g>
    <g id="xtick_16">
     <g id="line2d_16">
      <g>
       <use xlink:href="#m6b6de842e2" x="194.414545" y="231.505" style="stroke: #000000; stroke-width: 0.8"/>
      </g>
     </g>
     <g id="text_16">
      <!-- P16 -->
      <g transform="translate(197.17392 259.750313)rotate(-90)scale(0.1 -0.1)">
       <defs>
        <path id="DejaVuSans-Bold-50" d="M 588 4666 
L 2584 4666 
Q 3475 4666 3951 4270 
Q 4428 3875 4428 3144 
Q 4428 2409 3951 2014 
Q 3475 1619 2584 1619 
L 1791 1619 
L 1791 0 
L 588 0 
L 588 4666 
z
M 1791 3794 
L 1791 2491 
L 2456 2491 
Q 2806 2491 2997 2661 
Q 3188 2831 3188 3144 
Q 3188 3456 2997 3625 
Q 2806 3794 2456 3794 
L 1791 3794 
z
" transform="scale(0.015625)"/>
       </defs>
       <use xlink:href="#DejaVuSans-Bold-50"/>
       <use xlink:href="#DejaVuSans-Bold-31" x="73.291016"/>
       <use xlink:href="#DejaVuSans-Bold-36" x="142.871094"/>
      </g>
     </g>
    </g>
    <g id="xtick_17">
     <g id="line2d_17">
      <g>
       <use xlink:href="#m6b6de842e2" x="203.684182" y="231.505" style="stroke: #000000; stroke-width: 0.8"/>
      </g>
     </g>
     <g id="text_17">
      <!-- R17 -->
      <g transform="translate(206.443557 260.120625)rotate(-90)scale(0.1 -0.1)">
       <use xlink:href="#DejaVuSans-Bold-52"/>
       <use xlink:href="#DejaVuSans-Bold-31" x="77.001953"/>
       <use xlink:href="#DejaVuSans-Bold-37" x="146.582031"/>
      </g>
     </g>
    </g>
    <g id="xtick_18">
     <g id="line2d_18">
      <g>
       <use xlink:href="#m6b6de842e2" x="212.953818" y="231.505" style="stroke: #000000; stroke-width: 0.8"/>
      </g>
     </g>
     <g id="text_18">
      <!-- K18 -->
      <g transform="translate(215.713193 260.169062)rotate(-90)scale(0.1 -0.1)">
       <use xlink:href="#DejaVuSans-Bold-4b"/>
       <use xlink:href="#DejaVuSans-Bold-31" x="77.490234"/>
       <use xlink:href="#DejaVuSans-Bold-38" x="147.070312"/>
      </g>
     </g>
    </g>
    <g id="xtick_19">
     <g id="line2d_19">
      <g>
       <use xlink:href="#m6b6de842e2" x="222.223455" y="231.505" style="stroke: #000000; stroke-width: 0.8"/>
      </g>
     </g>
     <g id="text_19">
      <!-- Q19 -->
      <g transform="translate(224.98283 260.922188)rotate(-90)scale(0.1 -0.1)">
       <use xlink:href="#DejaVuSans-Bold-51"/>
       <use xlink:href="#DejaVuSans-Bold-31" x="85.009766"/>
       <use xlink:href="#DejaVuSans-Bold-39" x="154.589844"/>
      </g>
     </g>
    </g>
    <g id="xtick_20">
     <g id="line2d_20">
      <g>
       <use xlink:href="#m6b6de842e2" x="231.493091" y="231.505" style="stroke: #000000; stroke-width: 0.8"/>
      </g>
     </g>
     <g id="text_20">
      <!-- L20 -->
      <g transform="translate(234.252466 258.7925)rotate(-90)scale(0.1 -0.1)">
       <defs>
        <path id="DejaVuSans-Bold-4c" d="M 588 4666 
L 1791 4666 
L 1791 909 
L 3903 909 
L 3903 0 
L 588 0 
L 588 4666 
z
" transform="scale(0.015625)"/>
       </defs>
       <use xlink:href="#DejaVuSans-Bold-4c"/>
       <use xlink:href="#DejaVuSans-Bold-32" x="63.720703"/>
       <use xlink:href="#DejaVuSans-Bold-30" x="133.300781"/>
      </g>
     </g>
    </g>
    <g id="xtick_21">
     <g id="line2d_21">
      <g>
       <use xlink:href="#m6b6de842e2" x="240.762727" y="231.505" style="stroke: #000000; stroke-width: 0.8"/>
      </g>
     </g>
     <g id="text_21">
      <!-- A21 -->
      <g transform="translate(243.522102 260.159687)rotate(-90)scale(0.1 -0.1)">
       <use xlink:href="#DejaVuSans-Bold-41"/>
       <use xlink:href="#DejaVuSans-Bold-32" x="77.392578"/>
       <use xlink:href="#DejaVuSans-Bold-31" x="146.972656"/>
      </g>
     </g>
    </g>
    <g id="xtick_22">
     <g id="line2d_22">
      <g>
       <use xlink:href="#m6b6de842e2" x="250.032364" y="231.505" style="stroke: #000000; stroke-width: 0.8"/>
      </g>
     </g>
     <g id="text_22">
      <!-- T22 -->
      <g transform="translate(252.791739 259.2425)rotate(-90)scale(0.1 -0.1)">
       <use xlink:href="#DejaVuSans-Bold-54"/>
       <use xlink:href="#DejaVuSans-Bold-32" x="68.212891"/>
       <use xlink:href="#DejaVuSans-Bold-32" x="137.792969"/>
      </g>
     </g>
    </g>
    <g id="xtick_23">
     <g id="line2d_23">
      <g>
       <use xlink:href="#m6b6de842e2" x="259.302" y="231.505" style="stroke: #000000; stroke-width: 0.8"/>
      </g>
     </g>
     <g id="text_23">
      <!-- K23 -->
      <g transform="translate(262.061375 260.169062)rotate(-90)scale(0.1 -0.1)">
       <use xlink:href="#DejaVuSans-Bold-4b"/>
       <use xlink:href="#DejaVuSans-Bold-32" x="77.490234"/>
       <use xlink:href="#DejaVuSans-Bold-33" x="147.070312"/>
      </g>
     </g>
    </g>
    <g id="xtick_24">
     <g id="line2d_24">
      <g>
       <use xlink:href="#m6b6de842e2" x="268.571636" y="231.505" style="stroke: #000000; stroke-width: 0.8"/>
      </g>
     </g>
     <g id="text_24">
      <!-- A24 -->
      <g transform="translate(271.331011 260.159687)rotate(-90)scale(0.1 -0.1)">
       <use xlink:href="#DejaVuSans-Bold-41"/>
       <use xlink:href="#DejaVuSans-Bold-32" x="77.392578"/>
       <use xlink:href="#DejaVuSans-Bold-34" x="146.972656"/>
      </g>
     </g>
    </g>
    <g id="xtick_25">
     <g id="line2d_25">
      <g>
       <use xlink:href="#m6b6de842e2" x="277.841273" y="231.505" style="stroke: #000000; stroke-width: 0.8"/>
      </g>
     </g>
     <g id="text_25">
      <!-- A25 -->
      <g transform="translate(280.600648 260.159687)rotate(-90)scale(0.1 -0.1)">
       <use xlink:href="#DejaVuSans-Bold-41"/>
       <use xlink:href="#DejaVuSans-Bold-32" x="77.392578"/>
       <use xlink:href="#DejaVuSans-Bold-35" x="146.972656"/>
      </g>
     </g>
    </g>
    <g id="xtick_26">
     <g id="line2d_26">
      <g>
       <use xlink:href="#m6b6de842e2" x="287.110909" y="231.505" style="stroke: #000000; stroke-width: 0.8"/>
      </g>
     </g>
     <g id="text_26">
      <!-- R26 -->
      <g transform="translate(289.870284 260.120625)rotate(-90)scale(0.1 -0.1)">
       <use xlink:href="#DejaVuSans-Bold-52"/>
       <use xlink:href="#DejaVuSans-Bold-32" x="77.001953"/>
       <use xlink:href="#DejaVuSans-Bold-36" x="146.582031"/>
      </g>
     </g>
    </g>
    <g id="xtick_27">
     <g id="line2d_27">
      <g>
       <use xlink:href="#m6b6de842e2" x="296.380545" y="231.505" style="stroke: #000000; stroke-width: 0.8"/>
      </g>
     </g>
     <g id="text_27">
      <!-- K27 -->
      <g transform="translate(299.13992 260.169062)rotate(-90)scale(0.1 -0.1)">
       <use xlink:href="#DejaVuSans-Bold-4b"/>
       <use xlink:href="#DejaVuSans-Bold-32" x="77.490234"/>
       <use xlink:href="#DejaVuSans-Bold-37" x="147.070312"/>
      </g>
     </g>
    </g>
    <g id="xtick_28">
     <g id="line2d_28">
      <g>
       <use xlink:href="#m6b6de842e2" x="305.650182" y="231.505" style="stroke: #000000; stroke-width: 0.8"/>
      </g>
     </g>
     <g id="text_28">
      <!-- S28 -->
      <g transform="translate(308.409557 259.622187)rotate(-90)scale(0.1 -0.1)">
       <use xlink:href="#DejaVuSans-Bold-53"/>
       <use xlink:href="#DejaVuSans-Bold-32" x="72.021484"/>
       <use xlink:href="#DejaVuSans-Bold-38" x="141.601562"/>
      </g>
     </g>
    </g>
    <g id="xtick_29">
     <g id="line2d_29">
      <g>
       <use xlink:href="#m6b6de842e2" x="314.919818" y="231.505" style="stroke: #000000; stroke-width: 0.8"/>
      </g>
     </g>
     <g id="text_29">
      <!-- A29 -->
      <g transform="translate(317.679193 260.159687)rotate(-90)scale(0.1 -0.1)">
       <use xlink:href="#DejaVuSans-Bold-41"/>
       <use xlink:href="#DejaVuSans-Bold-32" x="77.392578"/>
       <use xlink:href="#DejaVuSans-Bold-39" x="146.972656"/>
      </g>
     </g>
    </g>
    <g id="xtick_30">
     <g id="line2d_30">
      <g>
       <use xlink:href="#m6b6de842e2" x="324.189455" y="231.505" style="stroke: #000000; stroke-width: 0.8"/>
      </g>
     </g>
     <g id="text_30">
      <!-- P30 -->
      <g transform="translate(326.94883 259.750313)rotate(-90)scale(0.1 -0.1)">
       <use xlink:href="#DejaVuSans-Bold-50"/>
       <use xlink:href="#DejaVuSans-Bold-33" x="73.291016"/>
       <use xlink:href="#DejaVuSans-Bold-30" x="142.871094"/>
      </g>
     </g>
    </g>
    <g id="xtick_31">
     <g id="line2d_31">
      <g>
       <use xlink:href="#m6b6de842e2" x="333.459091" y="231.505" style="stroke: #000000; stroke-width: 0.8"/>
      </g>
     </g>
     <g id="text_31">
      <!-- A31 -->
      <g transform="translate(336.218466 260.159687)rotate(-90)scale(0.1 -0.1)">
       <use xlink:href="#DejaVuSans-Bold-41"/>
       <use xlink:href="#DejaVuSans-Bold-33" x="77.392578"/>
       <use xlink:href="#DejaVuSans-Bold-31" x="146.972656"/>
      </g>
     </g>
    </g>
    <g id="xtick_32">
     <g id="line2d_32">
      <g>
       <use xlink:href="#m6b6de842e2" x="342.728727" y="231.505" style="stroke: #000000; stroke-width: 0.8"/>
      </g>
     </g>
     <g id="text_32">
      <!-- T32 -->
      <g transform="translate(345.488102 259.2425)rotate(-90)scale(0.1 -0.1)">
       <use xlink:href="#DejaVuSans-Bold-54"/>
       <use xlink:href="#DejaVuSans-Bold-33" x="68.212891"/>
       <use xlink:href="#DejaVuSans-Bold-32" x="137.792969"/>
      </g>
     </g>
    </g>
    <g id="xtick_33">
     <g id="line2d_33">
      <g>
       <use xlink:href="#m6b6de842e2" x="351.998364" y="231.505" style="stroke: #000000; stroke-width: 0.8"/>
      </g>
     </g>
     <g id="text_33">
      <!-- G33 -->
      <g transform="translate(354.757739 260.628437)rotate(-90)scale(0.1 -0.1)">
       <use xlink:href="#DejaVuSans-Bold-47"/>
       <use xlink:href="#DejaVuSans-Bold-33" x="82.080078"/>
       <use xlink:href="#DejaVuSans-Bold-33" x="151.660156"/>
      </g>
     </g>
    </g>
    <g id="xtick_34">
     <g id="line2d_34">
      <g>
       <use xlink:href="#m6b6de842e2" x="361.268" y="231.505" style="stroke: #000000; stroke-width: 0.8"/>
      </g>
     </g>
     <g id="text_34">
      <!-- G34 -->
      <g transform="translate(364.027375 260.628437)rotate(-90)scale(0.1 -0.1)">
       <use xlink:href="#DejaVuSans-Bold-47"/>
       <use xlink:href="#DejaVuSans-Bold-33" x="82.080078"/>
       <use xlink:href="#DejaVuSans-Bold-34" x="151.660156"/>
      </g>
     </g>
    </g>
    <g id="xtick_35">
     <g id="line2d_35">
      <g>
       <use xlink:href="#m6b6de842e2" x="370.537636" y="231.505" style="stroke: #000000; stroke-width: 0.8"/>
      </g>
     </g>
     <g id="text_35">
      <!-- V35 -->
      <g transform="translate(373.297011 260.159687)rotate(-90)scale(0.1 -0.1)">
       <defs>
        <path id="DejaVuSans-Bold-56" d="M 31 4666 
L 1241 4666 
L 2478 1222 
L 3713 4666 
L 4922 4666 
L 3194 0 
L 1759 0 
L 31 4666 
z
" transform="scale(0.015625)"/>
       </defs>
       <use xlink:href="#DejaVuSans-Bold-56"/>
       <use xlink:href="#DejaVuSans-Bold-33" x="77.392578"/>
       <use xlink:href="#DejaVuSans-Bold-35" x="146.972656"/>
      </g>
     </g>
    </g>
    <g id="xtick_36">
     <g id="line2d_36">
      <g>
       <use xlink:href="#m6b6de842e2" x="379.807273" y="231.505" style="stroke: #000000; stroke-width: 0.8"/>
      </g>
     </g>
     <g id="text_36">
      <!-- K36 -->
      <g transform="translate(382.566648 260.169062)rotate(-90)scale(0.1 -0.1)">
       <use xlink:href="#DejaVuSans-Bold-4b"/>
       <use xlink:href="#DejaVuSans-Bold-33" x="77.490234"/>
       <use xlink:href="#DejaVuSans-Bold-36" x="147.070312"/>
      </g>
     </g>
    </g>
    <g id="xtick_37">
     <g id="line2d_37">
      <g>
       <use xlink:href="#m6b6de842e2" x="389.076909" y="231.505" style="stroke: #000000; stroke-width: 0.8"/>
      </g>
     </g>
     <g id="text_37">
      <!-- K37 -->
      <g transform="translate(391.836284 260.169062)rotate(-90)scale(0.1 -0.1)">
       <use xlink:href="#DejaVuSans-Bold-4b"/>
       <use xlink:href="#DejaVuSans-Bold-33" x="77.490234"/>
       <use xlink:href="#DejaVuSans-Bold-37" x="147.070312"/>
      </g>
     </g>
    </g>
    <g id="xtick_38">
     <g id="line2d_38">
      <g>
       <use xlink:href="#m6b6de842e2" x="398.346545" y="231.505" style="stroke: #000000; stroke-width: 0.8"/>
      </g>
     </g>
     <g id="text_38">
      <!-- P38 -->
      <g transform="translate(401.10592 259.750313)rotate(-90)scale(0.1 -0.1)">
       <use xlink:href="#DejaVuSans-Bold-50"/>
       <use xlink:href="#DejaVuSans-Bold-33" x="73.291016"/>
       <use xlink:href="#DejaVuSans-Bold-38" x="142.871094"/>
      </g>
     </g>
    </g>
    <g id="xtick_39">
     <g id="line2d_39">
      <g>
       <use xlink:href="#m6b6de842e2" x="407.616182" y="231.505" style="stroke: #000000; stroke-width: 0.8"/>
      </g>
     </g>
     <g id="text_39">
      <!-- H39 -->
      <g transform="translate(410.375557 260.789375)rotate(-90)scale(0.1 -0.1)">
       <defs>
        <path id="DejaVuSans-Bold-48" d="M 588 4666 
L 1791 4666 
L 1791 2888 
L 3566 2888 
L 3566 4666 
L 4769 4666 
L 4769 0 
L 3566 0 
L 3566 1978 
L 1791 1978 
L 1791 0 
L 588 0 
L 588 4666 
z
" transform="scale(0.015625)"/>
       </defs>
       <use xlink:href="#DejaVuSans-Bold-48"/>
       <use xlink:href="#DejaVuSans-Bold-33" x="83.691406"/>
       <use xlink:href="#DejaVuSans-Bold-39" x="153.271484"/>
      </g>
     </g>
    </g>
    <g id="xtick_40">
     <g id="line2d_40">
      <g>
       <use xlink:href="#m6b6de842e2" x="416.885818" y="231.505" style="stroke: #000000; stroke-width: 0.8"/>
      </g>
     </g>
     <g id="text_40">
      <!-- R40 -->
      <g transform="translate(419.645193 260.120625)rotate(-90)scale(0.1 -0.1)">
       <use xlink:href="#DejaVuSans-Bold-52"/>
       <use xlink:href="#DejaVuSans-Bold-34" x="77.001953"/>
       <use xlink:href="#DejaVuSans-Bold-30" x="146.582031"/>
      </g>
     </g>
    </g>
    <g id="xtick_41">
     <g id="line2d_41">
      <g>
       <use xlink:href="#m6b6de842e2" x="426.155455" y="231.505" style="stroke: #000000; stroke-width: 0.8"/>
      </g>
     </g>
     <g id="text_41">
      <!-- Y41 -->
      <g transform="translate(428.91483 259.66125)rotate(-90)scale(0.1 -0.1)">
       <defs>
        <path id="DejaVuSans-Bold-59" d="M -63 4666 
L 1253 4666 
L 2316 3003 
L 3378 4666 
L 4697 4666 
L 2919 1966 
L 2919 0 
L 1716 0 
L 1716 1966 
L -63 4666 
z
" transform="scale(0.015625)"/>
       </defs>
       <use xlink:href="#DejaVuSans-Bold-59"/>
       <use xlink:href="#DejaVuSans-Bold-34" x="72.412109"/>
       <use xlink:href="#DejaVuSans-Bold-31" x="141.992188"/>
      </g>
     </g>
    </g>
    <g id="xtick_42">
     <g id="line2d_42">
      <g>
       <use xlink:href="#m6b6de842e2" x="435.425091" y="231.505" style="stroke: #000000; stroke-width: 0.8"/>
      </g>
     </g>
     <g id="text_42">
      <!-- R42 -->
      <g transform="translate(438.184466 260.120625)rotate(-90)scale(0.1 -0.1)">
       <use xlink:href="#DejaVuSans-Bold-52"/>
       <use xlink:href="#DejaVuSans-Bold-34" x="77.001953"/>
       <use xlink:href="#DejaVuSans-Bold-32" x="146.582031"/>
      </g>
     </g>
    </g>
    <g id="xtick_43">
     <g id="line2d_43">
      <g>
       <use xlink:href="#m6b6de842e2" x="444.694727" y="231.505" style="stroke: #000000; stroke-width: 0.8"/>
      </g>
     </g>
     <g id="text_43">
      <!-- P43 -->
      <g transform="translate(447.454102 259.750313)rotate(-90)scale(0.1 -0.1)">
       <use xlink:href="#DejaVuSans-Bold-50"/>
       <use xlink:href="#DejaVuSans-Bold-34" x="73.291016"/>
       <use xlink:href="#DejaVuSans-Bold-33" x="142.871094"/>
      </g>
     </g>
    </g>
    <g id="xtick_44">
     <g id="line2d_44">
      <g>
       <use xlink:href="#m6b6de842e2" x="453.964364" y="231.505" style="stroke: #000000; stroke-width: 0.8"/>
      </g>
     </g>
     <g id="text_44">
      <!-- G44 -->
      <g transform="translate(456.723739 260.628437)rotate(-90)scale(0.1 -0.1)">
       <use xlink:href="#DejaVuSans-Bold-47"/>
       <use xlink:href="#DejaVuSans-Bold-34" x="82.080078"/>
       <use xlink:href="#DejaVuSans-Bold-34" x="151.660156"/>
      </g>
     </g>
    </g>
    <g id="xtick_45">
     <g id="line2d_45">
      <g>
       <use xlink:href="#m6b6de842e2" x="463.234" y="231.505" style="stroke: #000000; stroke-width: 0.8"/>
      </g>
     </g>
     <g id="text_45">
      <!-- T45 -->
      <g transform="translate(465.993375 259.2425)rotate(-90)scale(0.1 -0.1)">
       <use xlink:href="#DejaVuSans-Bold-54"/>
       <use xlink:href="#DejaVuSans-Bold-34" x="68.212891"/>
       <use xlink:href="#DejaVuSans-Bold-35" x="137.792969"/>
      </g>
     </g>
    </g>
    <g id="xtick_46">
     <g id="line2d_46">
      <g>
       <use xlink:href="#m6b6de842e2" x="472.503636" y="231.505" style="stroke: #000000; stroke-width: 0.8"/>
      </g>
     </g>
     <g id="text_46">
      <!-- V46 -->
      <g transform="translate(475.263011 260.159687)rotate(-90)scale(0.1 -0.1)">
       <use xlink:href="#DejaVuSans-Bold-56"/>
       <use xlink:href="#DejaVuSans-Bold-34" x="77.392578"/>
       <use xlink:href="#DejaVuSans-Bold-36" x="146.972656"/>
      </g>
     </g>
    </g>
    <g id="xtick_47">
     <g id="line2d_47">
      <g>
       <use xlink:href="#m6b6de842e2" x="481.773273" y="231.505" style="stroke: #000000; stroke-width: 0.8"/>
      </g>
     </g>
     <g id="text_47">
      <!-- A47 -->
      <g transform="translate(484.532648 260.159687)rotate(-90)scale(0.1 -0.1)">
       <use xlink:href="#DejaVuSans-Bold-41"/>
       <use xlink:href="#DejaVuSans-Bold-34" x="77.392578"/>
       <use xlink:href="#DejaVuSans-Bold-37" x="146.972656"/>
      </g>
     </g>
    </g>
    <g id="xtick_48">
     <g id="line2d_48">
      <g>
       <use xlink:href="#m6b6de842e2" x="491.042909" y="231.505" style="stroke: #000000; stroke-width: 0.8"/>
      </g>
     </g>
     <g id="text_48">
      <!-- L48 -->
      <g transform="translate(493.802284 258.7925)rotate(-90)scale(0.1 -0.1)">
       <use xlink:href="#DejaVuSans-Bold-4c"/>
       <use xlink:href="#DejaVuSans-Bold-34" x="63.720703"/>
       <use xlink:href="#DejaVuSans-Bold-38" x="133.300781"/>
      </g>
     </g>
    </g>
    <g id="xtick_49">
     <g id="line2d_49">
      <g>
       <use xlink:href="#m6b6de842e2" x="500.312545" y="231.505" style="stroke: #000000; stroke-width: 0.8"/>
      </g>
     </g>
     <g id="text_49">
      <!-- R49 -->
      <g transform="translate(503.07192 260.120625)rotate(-90)scale(0.1 -0.1)">
       <use xlink:href="#DejaVuSans-Bold-52"/>
       <use xlink:href="#DejaVuSans-Bold-34" x="77.001953"/>
       <use xlink:href="#DejaVuSans-Bold-39" x="146.582031"/>
      </g>
     </g>
    </g>
    <g id="xtick_50">
     <g id="line2d_50">
      <g>
       <use xlink:href="#m6b6de842e2" x="509.582182" y="231.505" style="stroke: #000000; stroke-width: 0.8"/>
      </g>
     </g>
     <g id="text_50">
      <!-- E50 -->
      <g transform="translate(512.341557 259.251875)rotate(-90)scale(0.1 -0.1)">
       <defs>
        <path id="DejaVuSans-Bold-45" d="M 588 4666 
L 3834 4666 
L 3834 3756 
L 1791 3756 
L 1791 2888 
L 3713 2888 
L 3713 1978 
L 1791 1978 
L 1791 909 
L 3903 909 
L 3903 0 
L 588 0 
L 588 4666 
z
" transform="scale(0.015625)"/>
       </defs>
       <use xlink:href="#DejaVuSans-Bold-45"/>
       <use xlink:href="#DejaVuSans-Bold-35" x="68.310547"/>
       <use xlink:href="#DejaVuSans-Bold-30" x="137.890625"/>
      </g>
     </g>
    </g>
    <g id="xtick_51">
     <g id="line2d_51">
      <g>
       <use xlink:href="#m6b6de842e2" x="518.851818" y="231.505" style="stroke: #000000; stroke-width: 0.8"/>
      </g>
     </g>
     <g id="text_51">
      <!-- I51 -->
      <g transform="translate(521.611193 256.140938)rotate(-90)scale(0.1 -0.1)">
       <defs>
        <path id="DejaVuSans-Bold-49" d="M 588 4666 
L 1791 4666 
L 1791 0 
L 588 0 
L 588 4666 
z
" transform="scale(0.015625)"/>
       </defs>
       <use xlink:href="#DejaVuSans-Bold-49"/>
       <use xlink:href="#DejaVuSans-Bold-35" x="37.207031"/>
       <use xlink:href="#DejaVuSans-Bold-31" x="106.787109"/>
      </g>
     </g>
    </g>
    <g id="xtick_52">
     <g id="line2d_52">
      <g>
       <use xlink:href="#m6b6de842e2" x="528.121455" y="231.505" style="stroke: #000000; stroke-width: 0.8"/>
      </g>
     </g>
     <g id="text_52">
      <!-- R52 -->
      <g transform="translate(530.88083 260.120625)rotate(-90)scale(0.1 -0.1)">
       <use xlink:href="#DejaVuSans-Bold-52"/>
       <use xlink:href="#DejaVuSans-Bold-35" x="77.001953"/>
       <use xlink:href="#DejaVuSans-Bold-32" x="146.582031"/>
      </g>
     </g>
    </g>
    <g id="xtick_53">
     <g id="line2d_53">
      <g>
       <use xlink:href="#m6b6de842e2" x="537.391091" y="231.505" style="stroke: #000000; stroke-width: 0.8"/>
      </g>
     </g>
     <g id="text_53">
      <!-- R53 -->
      <g transform="translate(540.150466 260.120625)rotate(-90)scale(0.1 -0.1)">
       <use xlink:href="#DejaVuSans-Bold-52"/>
       <use xlink:href="#DejaVuSans-Bold-35" x="77.001953"/>
       <use xlink:href="#DejaVuSans-Bold-33" x="146.582031"/>
      </g>
     </g>
    </g>
    <g id="xtick_54">
     <g id="line2d_54">
      <g>
       <use xlink:href="#m6b6de842e2" x="546.660727" y="231.505" style="stroke: #000000; stroke-width: 0.8"/>
      </g>
     </g>
     <g id="text_54">
      <!-- Y54 -->
      <g transform="translate(549.420102 259.66125)rotate(-90)scale(0.1 -0.1)">
       <use xlink:href="#DejaVuSans-Bold-59"/>
       <use xlink:href="#DejaVuSans-Bold-35" x="72.412109"/>
       <use xlink:href="#DejaVuSans-Bold-34" x="141.992188"/>
      </g>
     </g>
    </g>
    <g id="xtick_55">
     <g id="line2d_55">
      <g>
       <use xlink:href="#m6b6de842e2" x="555.930364" y="231.505" style="stroke: #000000; stroke-width: 0.8"/>
      </g>
     </g>
     <g id="text_55">
      <!-- Q55 -->
      <g transform="translate(558.689739 260.922188)rotate(-90)scale(0.1 -0.1)">
       <use xlink:href="#DejaVuSans-Bold-51"/>
       <use xlink:href="#DejaVuSans-Bold-35" x="85.009766"/>
       <use xlink:href="#DejaVuSans-Bold-35" x="154.589844"/>
      </g>
     </g>
    </g>
    <g id="text_56">
     <!-- Residue -->
     <g transform="translate(281.085781 274.800156)scale(0.13 -0.13)">
      <defs>
       <path id="DejaVuSans-Bold-65" d="M 4031 1759 
L 4031 1441 
L 1416 1441 
Q 1456 1047 1700 850 
Q 1944 653 2381 653 
Q 2734 653 3104 758 
Q 3475 863 3866 1075 
L 3866 213 
Q 3469 63 3072 -14 
Q 2675 -91 2278 -91 
Q 1328 -91 801 392 
Q 275 875 275 1747 
Q 275 2603 792 3093 
Q 1309 3584 2216 3584 
Q 3041 3584 3536 3087 
Q 4031 2591 4031 1759 
z
M 2881 2131 
Q 2881 2450 2695 2645 
Q 2509 2841 2209 2841 
Q 1884 2841 1681 2658 
Q 1478 2475 1428 2131 
L 2881 2131 
z
" transform="scale(0.015625)"/>
       <path id="DejaVuSans-Bold-73" d="M 3272 3391 
L 3272 2541 
Q 2913 2691 2578 2766 
Q 2244 2841 1947 2841 
Q 1628 2841 1473 2761 
Q 1319 2681 1319 2516 
Q 1319 2381 1436 2309 
Q 1553 2238 1856 2203 
L 2053 2175 
Q 2913 2066 3209 1816 
Q 3506 1566 3506 1031 
Q 3506 472 3093 190 
Q 2681 -91 1863 -91 
Q 1516 -91 1145 -36 
Q 775 19 384 128 
L 384 978 
Q 719 816 1070 734 
Q 1422 653 1784 653 
Q 2113 653 2278 743 
Q 2444 834 2444 1013 
Q 2444 1163 2330 1236 
Q 2216 1309 1875 1350 
L 1678 1375 
Q 931 1469 631 1722 
Q 331 1975 331 2491 
Q 331 3047 712 3315 
Q 1094 3584 1881 3584 
Q 2191 3584 2531 3537 
Q 2872 3491 3272 3391 
z
" transform="scale(0.015625)"/>
       <path id="DejaVuSans-Bold-69" d="M 538 3500 
L 1656 3500 
L 1656 0 
L 538 0 
L 538 3500 
z
M 538 4863 
L 1656 4863 
L 1656 3950 
L 538 3950 
L 538 4863 
z
" transform="scale(0.015625)"/>
       <path id="DejaVuSans-Bold-64" d="M 2919 2988 
L 2919 4863 
L 4044 4863 
L 4044 0 
L 2919 0 
L 2919 506 
Q 2688 197 2409 53 
Q 2131 -91 1766 -91 
Q 1119 -91 703 423 
Q 288 938 288 1747 
Q 288 2556 703 3070 
Q 1119 3584 1766 3584 
Q 2128 3584 2408 3439 
Q 2688 3294 2919 2988 
z
M 2181 722 
Q 2541 722 2730 984 
Q 2919 1247 2919 1747 
Q 2919 2247 2730 2509 
Q 2541 2772 2181 2772 
Q 1825 2772 1636 2509 
Q 1447 2247 1447 1747 
Q 1447 1247 1636 984 
Q 1825 722 2181 722 
z
" transform="scale(0.015625)"/>
       <path id="DejaVuSans-Bold-75" d="M 500 1363 
L 500 3500 
L 1625 3500 
L 1625 3150 
Q 1625 2866 1622 2436 
Q 1619 2006 1619 1863 
Q 1619 1441 1641 1255 
Q 1663 1069 1716 984 
Q 1784 875 1895 815 
Q 2006 756 2150 756 
Q 2500 756 2700 1025 
Q 2900 1294 2900 1772 
L 2900 3500 
L 4019 3500 
L 4019 0 
L 2900 0 
L 2900 506 
Q 2647 200 2364 54 
Q 2081 -91 1741 -91 
Q 1134 -91 817 281 
Q 500 653 500 1363 
z
" transform="scale(0.015625)"/>
      </defs>
      <use xlink:href="#DejaVuSans-Bold-52"/>
      <use xlink:href="#DejaVuSans-Bold-65" x="77.001953"/>
      <use xlink:href="#DejaVuSans-Bold-73" x="144.824219"/>
      <use xlink:href="#DejaVuSans-Bold-69" x="204.345703"/>
      <use xlink:href="#DejaVuSans-Bold-64" x="238.623047"/>
      <use xlink:href="#DejaVuSans-Bold-75" x="310.205078"/>
      <use xlink:href="#DejaVuSans-Bold-65" x="381.396484"/>
     </g>
    </g>
   </g>
   <g id="matplotlib.axis_2">
    <g id="ytick_1">
     <g id="line2d_56">
      <defs>
       <path id="m7f4414ede2" d="M 0 0 
L -3.5 0 
" style="stroke: #000000; stroke-width: 0.8"/>
      </defs>
      <g>
       <use xlink:href="#m7f4414ede2" x="55.37" y="218.808235" style="stroke: #000000; stroke-width: 0.8"/>
      </g>
     </g>
     <g id="text_57">
      <!-- 0 -->
      <g transform="translate(39.324844 223.74722)scale(0.13 -0.13)">
       <use xlink:href="#DejaVuSans-Bold-30"/>
      </g>
     </g>
    </g>
    <g id="ytick_2">
     <g id="line2d_57">
      <g>
       <use xlink:href="#m7f4414ede2" x="55.37" y="206.111471" style="stroke: #000000; stroke-width: 0.8"/>
      </g>
     </g>
     <g id="text_58">
      <!-- 1 -->
      <g transform="translate(39.324844 211.050455)scale(0.13 -0.13)">
       <use xlink:href="#DejaVuSans-Bold-31"/>
      </g>
     </g>
    </g>
    <g id="ytick_3">
     <g id="line2d_58">
      <g>
       <use xlink:href="#m7f4414ede2" x="55.37" y="193.414706" style="stroke: #000000; stroke-width: 0.8"/>
      </g>
     </g>
     <g id="text_59">
      <!-- 2 -->
      <g transform="translate(39.324844 198.35369)scale(0.13 -0.13)">
       <use xlink:href="#DejaVuSans-Bold-32"/>
      </g>
     </g>
    </g>
    <g id="ytick_4">
     <g id="line2d_59">
      <g>
       <use xlink:href="#m7f4414ede2" x="55.37" y="180.717941" style="stroke: #000000; stroke-width: 0.8"/>
      </g>
     </g>
     <g id="text_60">
      <!-- 3 -->
      <g transform="translate(39.324844 185.656926)scale(0.13 -0.13)">
       <use xlink:href="#DejaVuSans-Bold-33"/>
      </g>
     </g>
    </g>
    <g id="ytick_5">
     <g id="line2d_60">
      <g>
       <use xlink:href="#m7f4414ede2" x="55.37" y="168.021176" style="stroke: #000000; stroke-width: 0.8"/>
      </g>
     </g>
     <g id="text_61">
      <!-- 4 -->
      <g transform="translate(39.324844 172.960161)scale(0.13 -0.13)">
       <use xlink:href="#DejaVuSans-Bold-34"/>
      </g>
     </g>
    </g>
    <g id="ytick_6">
     <g id="line2d_61">
      <g>
       <use xlink:href="#m7f4414ede2" x="55.37" y="155.324412" style="stroke: #000000; stroke-width: 0.8"/>
      </g>
     </g>
     <g id="text_62">
      <!-- 5 -->
      <g transform="translate(39.324844 160.263396)scale(0.13 -0.13)">
       <use xlink:href="#DejaVuSans-Bold-35"/>
      </g>
     </g>
    </g>
    <g id="ytick_7">
     <g id="line2d_62">
      <g>
       <use xlink:href="#m7f4414ede2" x="55.37" y="142.627647" style="stroke: #000000; stroke-width: 0.8"/>
      </g>
     </g>
     <g id="text_63">
      <!-- 6 -->
      <g transform="translate(39.324844 147.566631)scale(0.13 -0.13)">
       <use xlink:href="#DejaVuSans-Bold-36"/>
      </g>
     </g>
    </g>
    <g id="ytick_8">
     <g id="line2d_63">
      <g>
       <use xlink:href="#m7f4414ede2" x="55.37" y="129.930882" style="stroke: #000000; stroke-width: 0.8"/>
      </g>
     </g>
     <g id="text_64">
      <!-- 7 -->
      <g transform="translate(39.324844 134.869867)scale(0.13 -0.13)">
       <use xlink:href="#DejaVuSans-Bold-37"/>
      </g>
     </g>
    </g>
    <g id="ytick_9">
     <g id="line2d_64">
      <g>
       <use xlink:href="#m7f4414ede2" x="55.37" y="117.234118" style="stroke: #000000; stroke-width: 0.8"/>
      </g>
     </g>
     <g id="text_65">
      <!-- 8 -->
      <g transform="translate(39.324844 122.173102)scale(0.13 -0.13)">
       <use xlink:href="#DejaVuSans-Bold-38"/>
      </g>
     </g>
    </g>
    <g id="ytick_10">
     <g id="line2d_65">
      <g>
       <use xlink:href="#m7f4414ede2" x="55.37" y="104.537353" style="stroke: #000000; stroke-width: 0.8"/>
      </g>
     </g>
     <g id="text_66">
      <!-- 9 -->
      <g transform="translate(39.324844 109.476337)scale(0.13 -0.13)">
       <use xlink:href="#DejaVuSans-Bold-39"/>
      </g>
     </g>
    </g>
    <g id="ytick_11">
     <g id="line2d_66">
      <g>
       <use xlink:href="#m7f4414ede2" x="55.37" y="91.840588" style="stroke: #000000; stroke-width: 0.8"/>
      </g>
     </g>
     <g id="text_67">
      <!-- 10 -->
      <g transform="translate(30.279688 96.779573)scale(0.13 -0.13)">
       <use xlink:href="#DejaVuSans-Bold-31"/>
       <use xlink:href="#DejaVuSans-Bold-30" x="69.580078"/>
      </g>
     </g>
    </g>
    <g id="ytick_12">
     <g id="line2d_67">
      <g>
       <use xlink:href="#m7f4414ede2" x="55.37" y="79.143824" style="stroke: #000000; stroke-width: 0.8"/>
      </g>
     </g>
     <g id="text_68">
      <!-- 11 -->
      <g transform="translate(30.279688 84.082808)scale(0.13 -0.13)">
       <use xlink:href="#DejaVuSans-Bold-31"/>
       <use xlink:href="#DejaVuSans-Bold-31" x="69.580078"/>
      </g>
     </g>
    </g>
    <g id="ytick_13">
     <g id="line2d_68">
      <g>
       <use xlink:href="#m7f4414ede2" x="55.37" y="66.447059" style="stroke: #000000; stroke-width: 0.8"/>
      </g>
     </g>
     <g id="text_69">
      <!-- 12 -->
      <g transform="translate(30.279688 71.386043)scale(0.13 -0.13)">
       <use xlink:href="#DejaVuSans-Bold-31"/>
       <use xlink:href="#DejaVuSans-Bold-32" x="69.580078"/>
      </g>
     </g>
    </g>
    <g id="ytick_14">
     <g id="line2d_69">
      <g>
       <use xlink:href="#m7f4414ede2" x="55.37" y="53.750294" style="stroke: #000000; stroke-width: 0.8"/>
      </g>
     </g>
     <g id="text_70">
      <!-- 13 -->
      <g transform="translate(30.279688 58.689278)scale(0.13 -0.13)">
       <use xlink:href="#DejaVuSans-Bold-31"/>
       <use xlink:href="#DejaVuSans-Bold-33" x="69.580078"/>
      </g>
     </g>
    </g>
    <g id="ytick_15">
     <g id="line2d_70">
      <g>
       <use xlink:href="#m7f4414ede2" x="55.37" y="41.053529" style="stroke: #000000; stroke-width: 0.8"/>
      </g>
     </g>
     <g id="text_71">
      <!-- 14 -->
      <g transform="translate(30.279688 45.992514)scale(0.13 -0.13)">
       <use xlink:href="#DejaVuSans-Bold-31"/>
       <use xlink:href="#DejaVuSans-Bold-34" x="69.580078"/>
      </g>
     </g>
    </g>
    <g id="ytick_16">
     <g id="line2d_71">
      <g>
       <use xlink:href="#m7f4414ede2" x="55.37" y="28.356765" style="stroke: #000000; stroke-width: 0.8"/>
      </g>
     </g>
     <g id="text_72">
      <!-- 15 -->
      <g transform="translate(30.279688 33.295749)scale(0.13 -0.13)">
       <use xlink:href="#DejaVuSans-Bold-31"/>
       <use xlink:href="#DejaVuSans-Bold-35" x="69.580078"/>
      </g>
     </g>
    </g>
    <g id="ytick_17">
     <g id="line2d_72">
      <g>
       <use xlink:href="#m7f4414ede2" x="55.37" y="15.66" style="stroke: #000000; stroke-width: 0.8"/>
      </g>
     </g>
     <g id="text_73">
      <!-- 16 -->
      <g transform="translate(30.279688 20.598984)scale(0.13 -0.13)">
       <use xlink:href="#DejaVuSans-Bold-31"/>
       <use xlink:href="#DejaVuSans-Bold-36" x="69.580078"/>
      </g>
     </g>
    </g>
    <g id="text_74">
     <!-- RMSF ($\mathrm{\AA}$) -->
     <g transform="translate(23.576094 156.8625)rotate(-90)scale(0.13 -0.13)">
      <defs>
       <path id="DejaVuSans-Bold-4d" d="M 588 4666 
L 2119 4666 
L 3181 2169 
L 4250 4666 
L 5778 4666 
L 5778 0 
L 4641 0 
L 4641 3413 
L 3566 897 
L 2803 897 
L 1728 3413 
L 1728 0 
L 588 0 
L 588 4666 
z
" transform="scale(0.015625)"/>
       <path id="DejaVuSans-Bold-46" d="M 588 4666 
L 3834 4666 
L 3834 3756 
L 1791 3756 
L 1791 2888 
L 3713 2888 
L 3713 1978 
L 1791 1978 
L 1791 0 
L 588 0 
L 588 4666 
z
" transform="scale(0.015625)"/>
       <path id="DejaVuSans-Bold-20" transform="scale(0.015625)"/>
       <path id="DejaVuSans-Bold-28" d="M 2413 -844 
L 1484 -844 
Q 1006 -72 778 623 
Q 550 1319 550 2003 
Q 550 2688 779 3389 
Q 1009 4091 1484 4856 
L 2413 4856 
Q 2013 4116 1813 3408 
Q 1613 2700 1613 2009 
Q 1613 1319 1811 609 
Q 2009 -100 2413 -844 
z
" transform="scale(0.015625)"/>
       <path id="DejaVuSans-c5" d="M 2663 5081 
Q 2663 5278 2523 5417 
Q 2384 5556 2188 5556 
Q 1988 5556 1852 5420 
Q 1716 5284 1716 5081 
Q 1716 4884 1853 4746 
Q 1991 4609 2188 4609 
Q 2384 4609 2523 4746 
Q 2663 4884 2663 5081 
z
M 2188 4044 
L 1338 1722 
L 3041 1722 
L 2188 4044 
z
M 1716 4366 
Q 1525 4494 1428 4673 
Q 1331 4853 1331 5081 
Q 1331 5441 1579 5691 
Q 1828 5941 2188 5941 
Q 2544 5941 2795 5689 
Q 3047 5438 3047 5081 
Q 3047 4863 2948 4678 
Q 2850 4494 2663 4366 
L 4325 0 
L 3669 0 
L 3244 1197 
L 1141 1197 
L 716 0 
L 50 0 
L 1716 4366 
z
" transform="scale(0.015625)"/>
       <path id="DejaVuSans-Bold-29" d="M 513 -844 
Q 913 -100 1113 609 
Q 1313 1319 1313 2009 
Q 1313 2700 1113 3408 
Q 913 4116 513 4856 
L 1441 4856 
Q 1916 4091 2145 3389 
Q 2375 2688 2375 2003 
Q 2375 1319 2147 623 
Q 1919 -72 1441 -844 
L 513 -844 
z
" transform="scale(0.015625)"/>
      </defs>
      <use xlink:href="#DejaVuSans-Bold-52" transform="translate(0 0.171875)"/>
      <use xlink:href="#DejaVuSans-Bold-4d" transform="translate(77.001953 0.171875)"/>
      <use xlink:href="#DejaVuSans-Bold-53" transform="translate(176.513672 0.171875)"/>
      <use xlink:href="#DejaVuSans-Bold-46" transform="translate(248.535156 0.171875)"/>
      <use xlink:href="#DejaVuSans-Bold-20" transform="translate(316.845703 0.171875)"/>
      <use xlink:href="#DejaVuSans-Bold-28" transform="translate(351.660156 0.171875)"/>
      <use xlink:href="#DejaVuSans-c5" transform="translate(397.363281 0.171875)"/>
      <use xlink:href="#DejaVuSans-Bold-29" transform="translate(465.771484 0.171875)"/>
     </g>
    </g>
   </g>
   <g id="line2d_73">
    <path d="M 55.37 98.145802 
L 64.639636 92.523674 
L 73.909273 119.651582 
L 83.178909 122.4855 
L 92.448545 134.476324 
L 101.718182 136.868395 
L 110.987818 134.664236 
L 120.257455 133.306952 
L 129.527091 131.280548 
L 138.796727 128.590104 
L 148.066364 127.195999 
L 157.336 127.442316 
L 166.605636 128.908793 
L 175.875273 122.726738 
L 185.144909 134.391256 
L 194.414545 134.576629 
L 203.684182 137.306433 
L 222.223455 147.793961 
L 231.493091 152.745699 
L 240.762727 153.852857 
L 250.032364 150.687553 
L 259.302 143.403419 
L 268.571636 149.800049 
L 277.841273 151.097659 
L 287.110909 143.998898 
L 296.380545 149.999389 
L 305.650182 154.189321 
L 314.919818 156.11542 
L 324.189455 151.982623 
L 333.459091 151.464595 
L 342.728727 152.261952 
L 351.998364 152.58572 
L 361.268 156.062094 
L 370.537636 159.833033 
L 379.807273 162.486657 
L 389.076909 168.135447 
L 398.346545 171.430258 
L 407.616182 175.495762 
L 416.885818 175.047566 
L 426.155455 181.493713 
L 435.425091 177.645324 
L 444.694727 183.249676 
L 453.964364 186.80477 
L 463.234 185.62778 
L 472.503636 187.344383 
L 481.773273 190.230357 
L 491.042909 190.208773 
L 500.312545 185.74459 
L 509.582182 190.027209 
L 518.851818 195.052589 
L 528.121455 188.970838 
L 537.391091 190.216391 
L 546.660727 195.834709 
L 555.930364 198.625458 
L 565.2 195.554111 
L 577 199.299603 
L 577 199.299603 
" clip-path="url(#p1e22381fd9)" style="fill: none; stroke: #ffa500; stroke-width: 1.5; stroke-linecap: square"/>
   </g>
   <g id="line2d_74">
    <path d="M 55.37 131.50909 
L 64.639636 138.497389 
L 73.909273 147.226415 
L 83.178909 151.17257 
L 92.448545 150.913556 
L 101.718182 154.906688 
L 110.987818 158.681436 
L 120.257455 150.048906 
L 129.527091 150.556777 
L 138.796727 152.400347 
L 148.066364 147.711432 
L 157.336 151.699485 
L 166.605636 157.988193 
L 175.875273 152.187041 
L 185.144909 155.860215 
L 194.414545 153.005983 
L 203.684182 149.408989 
L 212.953818 142.741918 
L 222.223455 150.198728 
L 231.493091 151.990241 
L 250.032364 160.842426 
L 259.302 157.074026 
L 268.571636 155.456458 
L 277.841273 156.768034 
L 287.110909 160.229172 
L 296.380545 142.952684 
L 305.650182 145.472992 
L 314.919818 148.690352 
L 324.189455 147.36354 
L 333.459091 144.565173 
L 342.728727 145.144146 
L 351.998364 152.58572 
L 361.268 157.682201 
L 370.537636 163.14054 
L 379.807273 163.635714 
L 389.076909 173.982307 
L 398.346545 181.333734 
L 407.616182 187.065054 
L 416.885818 184.110517 
L 426.155455 190.118626 
L 435.425091 184.938346 
L 444.694727 189.543462 
L 453.964364 192.924611 
L 463.234 192.576719 
L 472.503636 195.725517 
L 481.773273 197.437041 
L 491.042909 196.447963 
L 500.312545 194.076207 
L 509.582182 197.513222 
L 518.851818 201.974865 
L 528.121455 195.71409 
L 537.391091 197.12851 
L 546.660727 204.257743 
L 555.930364 205.356013 
L 565.2 203.294058 
L 577 207.594396 
L 577 207.594396 
" clip-path="url(#p1e22381fd9)" style="fill: none; stroke: #000000; stroke-width: 1.5; stroke-linecap: square"/>
   </g>
   <g id="line2d_75">
    <path d="M 389.076909 231.505 
L 389.076909 15.66 
" clip-path="url(#p1e22381fd9)" style="fill: none; stroke-dasharray: 5.55,2.4; stroke-dashoffset: 0; stroke: #000000; stroke-width: 1.5"/>
   </g>
   <g id="patch_3">
    <path d="M 55.37 231.505 
L 55.37 15.66 
" style="fill: none; stroke: #000000; stroke-width: 0.8; stroke-linejoin: miter; stroke-linecap: square"/>
   </g>
   <g id="patch_4">
    <path d="M 565.2 231.505 
L 565.2 15.66 
" style="fill: none; stroke: #000000; stroke-width: 0.8; stroke-linejoin: miter; stroke-linecap: square"/>
   </g>
   <g id="patch_5">
    <path d="M 55.37 231.505 
L 565.2 231.505 
" style="fill: none; stroke: #000000; stroke-width: 0.8; stroke-linejoin: miter; stroke-linecap: square"/>
   </g>
   <g id="patch_6">
    <path d="M 55.37 15.66 
L 565.2 15.66 
" style="fill: none; stroke: #000000; stroke-width: 0.8; stroke-linejoin: miter; stroke-linecap: square"/>
   </g>
   <g id="text_75">
    <g id="patch_7">
     <path d="M 352.031125 134.557187 
L 378.992219 134.557187 
L 378.992219 112.607812 
L 352.031125 112.607812 
L 352.031125 107.120469 
L 335.569094 123.5825 
L 352.031125 140.044531 
L 352.031125 134.557187 
z
" style="fill: #ffefd5; stroke: #000000; stroke-width: 2; stroke-linejoin: miter"/>
    </g>
    <!-- Tail  -->
    <g transform="translate(347.743781 127.445625)scale(0.14 -0.14)">
     <defs>
      <path id="DejaVuSans-54" d="M -19 4666 
L 3928 4666 
L 3928 4134 
L 2272 4134 
L 2272 0 
L 1638 0 
L 1638 4134 
L -19 4134 
L -19 4666 
z
" transform="scale(0.015625)"/>
      <path id="DejaVuSans-61" d="M 2194 1759 
Q 1497 1759 1228 1600 
Q 959 1441 959 1056 
Q 959 750 1161 570 
Q 1363 391 1709 391 
Q 2188 391 2477 730 
Q 2766 1069 2766 1631 
L 2766 1759 
L 2194 1759 
z
M 3341 1997 
L 3341 0 
L 2766 0 
L 2766 531 
Q 2569 213 2275 61 
Q 1981 -91 1556 -91 
Q 1019 -91 701 211 
Q 384 513 384 1019 
Q 384 1609 779 1909 
Q 1175 2209 1959 2209 
L 2766 2209 
L 2766 2266 
Q 2766 2663 2505 2880 
Q 2244 3097 1772 3097 
Q 1472 3097 1187 3025 
Q 903 2953 641 2809 
L 641 3341 
Q 956 3463 1253 3523 
Q 1550 3584 1831 3584 
Q 2591 3584 2966 3190 
Q 3341 2797 3341 1997 
z
" transform="scale(0.015625)"/>
      <path id="DejaVuSans-69" d="M 603 3500 
L 1178 3500 
L 1178 0 
L 603 0 
L 603 3500 
z
M 603 4863 
L 1178 4863 
L 1178 4134 
L 603 4134 
L 603 4863 
z
" transform="scale(0.015625)"/>
      <path id="DejaVuSans-6c" d="M 603 4863 
L 1178 4863 
L 1178 0 
L 603 0 
L 603 4863 
z
" transform="scale(0.015625)"/>
      <path id="DejaVuSans-20" transform="scale(0.015625)"/>
     </defs>
     <use xlink:href="#DejaVuSans-54"/>
     <use xlink:href="#DejaVuSans-61" x="44.583984"/>
     <use xlink:href="#DejaVuSans-69" x="105.863281"/>
     <use xlink:href="#DejaVuSans-6c" x="133.646484"/>
     <use xlink:href="#DejaVuSans-20" x="161.429688"/>
    </g>
   </g>
   <g id="text_76">
    <g id="patch_8">
     <path d="M 428.796912 134.557187 
L 396.487381 134.557187 
L 396.487381 112.607812 
L 428.796912 112.607812 
L 428.796912 107.120469 
L 445.258943 123.5825 
L 428.796912 140.044531 
L 428.796912 134.557187 
z
" style="fill: #ffefd5; stroke: #000000; stroke-width: 2; stroke-linejoin: miter"/>
    </g>
    <!-- Core -->
    <g transform="translate(400.687381 127.445625)scale(0.14 -0.14)">
     <defs>
      <path id="DejaVuSans-43" d="M 4122 4306 
L 4122 3641 
Q 3803 3938 3442 4084 
Q 3081 4231 2675 4231 
Q 1875 4231 1450 3742 
Q 1025 3253 1025 2328 
Q 1025 1406 1450 917 
Q 1875 428 2675 428 
Q 3081 428 3442 575 
Q 3803 722 4122 1019 
L 4122 359 
Q 3791 134 3420 21 
Q 3050 -91 2638 -91 
Q 1578 -91 968 557 
Q 359 1206 359 2328 
Q 359 3453 968 4101 
Q 1578 4750 2638 4750 
Q 3056 4750 3426 4639 
Q 3797 4528 4122 4306 
z
" transform="scale(0.015625)"/>
      <path id="DejaVuSans-6f" d="M 1959 3097 
Q 1497 3097 1228 2736 
Q 959 2375 959 1747 
Q 959 1119 1226 758 
Q 1494 397 1959 397 
Q 2419 397 2687 759 
Q 2956 1122 2956 1747 
Q 2956 2369 2687 2733 
Q 2419 3097 1959 3097 
z
M 1959 3584 
Q 2709 3584 3137 3096 
Q 3566 2609 3566 1747 
Q 3566 888 3137 398 
Q 2709 -91 1959 -91 
Q 1206 -91 779 398 
Q 353 888 353 1747 
Q 353 2609 779 3096 
Q 1206 3584 1959 3584 
z
" transform="scale(0.015625)"/>
      <path id="DejaVuSans-72" d="M 2631 2963 
Q 2534 3019 2420 3045 
Q 2306 3072 2169 3072 
Q 1681 3072 1420 2755 
Q 1159 2438 1159 1844 
L 1159 0 
L 581 0 
L 581 3500 
L 1159 3500 
L 1159 2956 
Q 1341 3275 1631 3429 
Q 1922 3584 2338 3584 
Q 2397 3584 2469 3576 
Q 2541 3569 2628 3553 
L 2631 2963 
z
" transform="scale(0.015625)"/>
      <path id="DejaVuSans-65" d="M 3597 1894 
L 3597 1613 
L 953 1613 
Q 991 1019 1311 708 
Q 1631 397 2203 397 
Q 2534 397 2845 478 
Q 3156 559 3463 722 
L 3463 178 
Q 3153 47 2828 -22 
Q 2503 -91 2169 -91 
Q 1331 -91 842 396 
Q 353 884 353 1716 
Q 353 2575 817 3079 
Q 1281 3584 2069 3584 
Q 2775 3584 3186 3129 
Q 3597 2675 3597 1894 
z
M 3022 2063 
Q 3016 2534 2758 2815 
Q 2500 3097 2075 3097 
Q 1594 3097 1305 2825 
Q 1016 2553 972 2059 
L 3022 2063 
z
" transform="scale(0.015625)"/>
     </defs>
     <use xlink:href="#DejaVuSans-43"/>
     <use xlink:href="#DejaVuSans-6f" x="69.824219"/>
     <use xlink:href="#DejaVuSans-72" x="131.005859"/>
     <use xlink:href="#DejaVuSans-65" x="169.869141"/>
    </g>
   </g>
   <g id="text_77">
    <!-- Nucleosome + BPTF (II) -->
    <g transform="translate(230.76625 9.66)scale(0.12 -0.12)">
     <defs>
      <path id="DejaVuSans-Bold-4e" d="M 588 4666 
L 1931 4666 
L 3628 1466 
L 3628 4666 
L 4769 4666 
L 4769 0 
L 3425 0 
L 1728 3200 
L 1728 0 
L 588 0 
L 588 4666 
z
" transform="scale(0.015625)"/>
      <path id="DejaVuSans-Bold-63" d="M 3366 3391 
L 3366 2478 
Q 3138 2634 2908 2709 
Q 2678 2784 2431 2784 
Q 1963 2784 1702 2511 
Q 1441 2238 1441 1747 
Q 1441 1256 1702 982 
Q 1963 709 2431 709 
Q 2694 709 2930 787 
Q 3166 866 3366 1019 
L 3366 103 
Q 3103 6 2833 -42 
Q 2563 -91 2291 -91 
Q 1344 -91 809 395 
Q 275 881 275 1747 
Q 275 2613 809 3098 
Q 1344 3584 2291 3584 
Q 2566 3584 2833 3536 
Q 3100 3488 3366 3391 
z
" transform="scale(0.015625)"/>
      <path id="DejaVuSans-Bold-6c" d="M 538 4863 
L 1656 4863 
L 1656 0 
L 538 0 
L 538 4863 
z
" transform="scale(0.015625)"/>
      <path id="DejaVuSans-Bold-6f" d="M 2203 2784 
Q 1831 2784 1636 2517 
Q 1441 2250 1441 1747 
Q 1441 1244 1636 976 
Q 1831 709 2203 709 
Q 2569 709 2762 976 
Q 2956 1244 2956 1747 
Q 2956 2250 2762 2517 
Q 2569 2784 2203 2784 
z
M 2203 3584 
Q 3106 3584 3614 3096 
Q 4122 2609 4122 1747 
Q 4122 884 3614 396 
Q 3106 -91 2203 -91 
Q 1297 -91 786 396 
Q 275 884 275 1747 
Q 275 2609 786 3096 
Q 1297 3584 2203 3584 
z
" transform="scale(0.015625)"/>
      <path id="DejaVuSans-Bold-6d" d="M 3781 2919 
Q 3994 3244 4286 3414 
Q 4578 3584 4928 3584 
Q 5531 3584 5847 3212 
Q 6163 2841 6163 2131 
L 6163 0 
L 5038 0 
L 5038 1825 
Q 5041 1866 5042 1909 
Q 5044 1953 5044 2034 
Q 5044 2406 4934 2573 
Q 4825 2741 4581 2741 
Q 4263 2741 4089 2478 
Q 3916 2216 3909 1719 
L 3909 0 
L 2784 0 
L 2784 1825 
Q 2784 2406 2684 2573 
Q 2584 2741 2328 2741 
Q 2006 2741 1831 2477 
Q 1656 2213 1656 1722 
L 1656 0 
L 531 0 
L 531 3500 
L 1656 3500 
L 1656 2988 
Q 1863 3284 2130 3434 
Q 2397 3584 2719 3584 
Q 3081 3584 3359 3409 
Q 3638 3234 3781 2919 
z
" transform="scale(0.015625)"/>
      <path id="DejaVuSans-Bold-2b" d="M 3053 4013 
L 3053 2375 
L 4684 2375 
L 4684 1638 
L 3053 1638 
L 3053 0 
L 2309 0 
L 2309 1638 
L 678 1638 
L 678 2375 
L 2309 2375 
L 2309 4013 
L 3053 4013 
z
" transform="scale(0.015625)"/>
      <path id="DejaVuSans-Bold-42" d="M 2456 2859 
Q 2741 2859 2887 2984 
Q 3034 3109 3034 3353 
Q 3034 3594 2887 3720 
Q 2741 3847 2456 3847 
L 1791 3847 
L 1791 2859 
L 2456 2859 
z
M 2497 819 
Q 2859 819 3042 972 
Q 3225 1125 3225 1434 
Q 3225 1738 3044 1889 
Q 2863 2041 2497 2041 
L 1791 2041 
L 1791 819 
L 2497 819 
z
M 3616 2497 
Q 4003 2384 4215 2081 
Q 4428 1778 4428 1338 
Q 4428 663 3972 331 
Q 3516 0 2584 0 
L 588 0 
L 588 4666 
L 2394 4666 
Q 3366 4666 3802 4372 
Q 4238 4078 4238 3431 
Q 4238 3091 4078 2852 
Q 3919 2613 3616 2497 
z
" transform="scale(0.015625)"/>
     </defs>
     <use xlink:href="#DejaVuSans-Bold-4e"/>
     <use xlink:href="#DejaVuSans-Bold-75" x="83.691406"/>
     <use xlink:href="#DejaVuSans-Bold-63" x="154.882812"/>
     <use xlink:href="#DejaVuSans-Bold-6c" x="214.160156"/>
     <use xlink:href="#DejaVuSans-Bold-65" x="248.4375"/>
     <use xlink:href="#DejaVuSans-Bold-6f" x="316.259766"/>
     <use xlink:href="#DejaVuSans-Bold-73" x="384.960938"/>
     <use xlink:href="#DejaVuSans-Bold-6f" x="444.482422"/>
     <use xlink:href="#DejaVuSans-Bold-6d" x="513.183594"/>
     <use xlink:href="#DejaVuSans-Bold-65" x="617.382812"/>
     <use xlink:href="#DejaVuSans-Bold-20" x="685.205078"/>
     <use xlink:href="#DejaVuSans-Bold-2b" x="720.019531"/>
     <use xlink:href="#DejaVuSans-Bold-20" x="803.808594"/>
     <use xlink:href="#DejaVuSans-Bold-42" x="838.623047"/>
     <use xlink:href="#DejaVuSans-Bold-50" x="914.84375"/>
     <use xlink:href="#DejaVuSans-Bold-54" x="988.134766"/>
     <use xlink:href="#DejaVuSans-Bold-46" x="1056.347656"/>
     <use xlink:href="#DejaVuSans-Bold-20" x="1124.658203"/>
     <use xlink:href="#DejaVuSans-Bold-28" x="1159.472656"/>
     <use xlink:href="#DejaVuSans-Bold-49" x="1205.175781"/>
     <use xlink:href="#DejaVuSans-Bold-49" x="1242.382812"/>
     <use xlink:href="#DejaVuSans-Bold-29" x="1279.589844"/>
    </g>
   </g>
   <g id="legend_1">
    <g id="patch_9">
     <path d="M 435.80625 43.01625 
L 558.2 43.01625 
Q 560.2 43.01625 560.2 41.01625 
L 560.2 22.66 
Q 560.2 20.66 558.2 20.66 
L 435.80625 20.66 
Q 433.80625 20.66 433.80625 22.66 
L 433.80625 41.01625 
Q 433.80625 43.01625 435.80625 43.01625 
z
" style="fill: #ffffff; opacity: 0.8; stroke: #cccccc; stroke-linejoin: miter"/>
    </g>
    <g id="line2d_76">
     <path d="M 434.80625 25.758437 
L 444.80625 25.758437 
L 454.80625 25.758437 
" style="fill: none; stroke: #ffa500; stroke-width: 1.5; stroke-linecap: square"/>
    </g>
    <g id="text_78">
     <!-- H3K4me3 (Tail 1) -->
     <g transform="translate(462.80625 29.258437)scale(0.1 -0.1)">
      <defs>
       <path id="DejaVuSans-Bold-61" d="M 2106 1575 
Q 1756 1575 1579 1456 
Q 1403 1338 1403 1106 
Q 1403 894 1545 773 
Q 1688 653 1941 653 
Q 2256 653 2472 879 
Q 2688 1106 2688 1447 
L 2688 1575 
L 2106 1575 
z
M 3816 1997 
L 3816 0 
L 2688 0 
L 2688 519 
Q 2463 200 2181 54 
Q 1900 -91 1497 -91 
Q 953 -91 614 226 
Q 275 544 275 1050 
Q 275 1666 698 1953 
Q 1122 2241 2028 2241 
L 2688 2241 
L 2688 2328 
Q 2688 2594 2478 2717 
Q 2269 2841 1825 2841 
Q 1466 2841 1156 2769 
Q 847 2697 581 2553 
L 581 3406 
Q 941 3494 1303 3539 
Q 1666 3584 2028 3584 
Q 2975 3584 3395 3211 
Q 3816 2838 3816 1997 
z
" transform="scale(0.015625)"/>
      </defs>
      <use xlink:href="#DejaVuSans-Bold-48"/>
      <use xlink:href="#DejaVuSans-Bold-33" x="83.691406"/>
      <use xlink:href="#DejaVuSans-Bold-4b" x="153.271484"/>
      <use xlink:href="#DejaVuSans-Bold-34" x="230.761719"/>
      <use xlink:href="#DejaVuSans-Bold-6d" x="300.341797"/>
      <use xlink:href="#DejaVuSans-Bold-65" x="404.541016"/>
      <use xlink:href="#DejaVuSans-Bold-33" x="472.363281"/>
      <use xlink:href="#DejaVuSans-Bold-20" x="541.943359"/>
      <use xlink:href="#DejaVuSans-Bold-28" x="576.757812"/>
      <use xlink:href="#DejaVuSans-Bold-54" x="622.460938"/>
      <use xlink:href="#DejaVuSans-Bold-61" x="677.798828"/>
      <use xlink:href="#DejaVuSans-Bold-69" x="745.279297"/>
      <use xlink:href="#DejaVuSans-Bold-6c" x="779.556641"/>
      <use xlink:href="#DejaVuSans-Bold-20" x="813.833984"/>
      <use xlink:href="#DejaVuSans-Bold-31" x="848.648438"/>
      <use xlink:href="#DejaVuSans-Bold-29" x="918.228516"/>
     </g>
    </g>
    <g id="line2d_77">
     <path d="M 434.80625 36.436562 
L 444.80625 36.436562 
L 454.80625 36.436562 
" style="fill: none; stroke: #000000; stroke-width: 1.5; stroke-linecap: square"/>
    </g>
    <g id="text_79">
     <!-- H (Tail 2) -->
     <g transform="translate(462.80625 39.936562)scale(0.1 -0.1)">
      <use xlink:href="#DejaVuSans-Bold-48"/>
      <use xlink:href="#DejaVuSans-Bold-20" x="83.691406"/>
      <use xlink:href="#DejaVuSans-Bold-28" x="118.505859"/>
      <use xlink:href="#DejaVuSans-Bold-54" x="164.208984"/>
      <use xlink:href="#DejaVuSans-Bold-61" x="219.546875"/>
      <use xlink:href="#DejaVuSans-Bold-69" x="287.027344"/>
      <use xlink:href="#DejaVuSans-Bold-6c" x="321.304688"/>
      <use xlink:href="#DejaVuSans-Bold-20" x="355.582031"/>
      <use xlink:href="#DejaVuSans-Bold-32" x="390.396484"/>
      <use xlink:href="#DejaVuSans-Bold-29" x="459.976562"/>
     </g>
    </g>
   </g>
  </g>
 </g>
 <defs>
  <clipPath id="p1e22381fd9">
   <rect x="55.37" y="15.66" width="509.83" height="215.845"/>
  </clipPath>
 </defs>
</svg>
