<?xml version="1.0" encoding="utf-8" standalone="no"?>
<!DOCTYPE svg PUBLIC "-//W3C//DTD SVG 1.1//EN"
  "http://www.w3.org/Graphics/SVG/1.1/DTD/svg11.dtd">
<svg xmlns:xlink="http://www.w3.org/1999/xlink" width="576pt" height="288pt" viewBox="0 0 576 288" xmlns="http://www.w3.org/2000/svg" version="1.1">
 <metadata>
  <rdf:RDF xmlns:dc="http://purl.org/dc/elements/1.1/" xmlns:cc="http://creativecommons.org/ns#" xmlns:rdf="http://www.w3.org/1999/02/22-rdf-syntax-ns#">
   <cc:Work>
    <dc:type rdf:resource="http://purl.org/dc/dcmitype/StillImage"/>
    <dc:date>2022-09-19T13:05:46.854285</dc:date>
    <dc:format>image/svg+xml</dc:format>
    <dc:creator>
     <cc:Agent>
      <dc:title>Matplotlib v3.5.1, https://matplotlib.org/</dc:title>
     </cc:Agent>
    </dc:creator>
   </cc:Work>
  </rdf:RDF>
 </metadata>
 <defs>
  <style type="text/css">*{stroke-linejoin: round; stroke-linecap: butt}</style>
 </defs>
 <g id="figure_1">
  <g id="patch_1">
   <path d="M 0 288 
L 576 288 
L 576 0 
L 0 0 
z
" style="fill: #ffffff"/>
  </g>
  <g id="axes_1">
   <g id="patch_2">
    <path d="M 55.37 231.505 
L 565.2 231.505 
L 565.2 15.66 
L 55.37 15.66 
z
" style="fill: #ffffff"/>
   </g>
   <g id="PolyCollection_1">
    <path d="M 55.37 85.778114 
L 55.37 144.429087 
L 64.639636 143.854385 
L 73.909273 149.666733 
L 83.178909 143.482255 
L 92.448545 150.475979 
L 101.718182 157.806976 
L 110.987818 160.9672 
L 120.257455 158.166294 
L 129.527091 160.678291 
L 138.796727 159.704911 
L 148.066364 154.961631 
L 157.336 158.719988 
L 166.605636 155.677613 
L 175.875273 147.108335 
L 185.144909 160.274188 
L 194.414545 161.086088 
L 203.684182 153.442636 
L 212.953818 156.543647 
L 222.223455 156.554267 
L 231.493091 164.292368 
L 240.762727 161.30251 
L 250.032364 160.230442 
L 259.302 152.498804 
L 268.571636 163.937897 
L 277.841273 163.219722 
L 287.110909 166.247092 
L 296.380545 158.222621 
L 305.650182 170.176741 
L 314.919818 172.091528 
L 324.189455 175.023673 
L 333.459091 176.355217 
L 342.728727 172.921551 
L 351.998364 174.542004 
L 361.268 181.536075 
L 370.537636 185.571222 
L 379.807273 192.98948 
L 389.076909 196.070177 
L 398.346545 202.142693 
L 407.616182 207.924799 
L 416.885818 207.94927 
L 426.155455 211.772612 
L 435.425091 204.819055 
L 444.694727 212.640032 
L 453.964364 213.83145 
L 463.234 213.434618 
L 472.503636 214.240978 
L 481.773273 215.365681 
L 491.042909 214.521808 
L 500.312545 205.262057 
L 509.582182 212.683662 
L 518.851818 217.107331 
L 528.121455 207.783404 
L 537.391091 208.271537 
L 546.660727 216.701957 
L 555.930364 217.678339 
L 565.2 213.045751 
L 574.469636 216.261149 
L 583.739273 216.629355 
L 593.008909 206.830685 
L 602.278545 216.776984 
L 611.548182 217.628706 
L 620.817818 217.517551 
L 630.087455 214.922564 
L 639.357091 214.240863 
L 648.626727 215.07908 
L 657.896364 215.408619 
L 667.166 217.06647 
L 676.435636 211.503902 
L 685.705273 211.617711 
L 694.974909 216.064695 
L 704.244545 216.915494 
L 713.514182 213.529498 
L 722.783818 211.465235 
L 732.053455 216.006983 
L 741.323091 215.712533 
L 750.592727 210.254079 
L 759.862364 208.620005 
L 769.132 210.380469 
L 778.401636 210.282012 
L 787.671273 210.097331 
L 796.940909 205.897011 
L 806.210545 214.35017 
L 815.480182 214.964463 
L 824.749818 215.280382 
L 834.019455 215.465523 
L 843.289091 214.314158 
L 852.558727 217.258076 
L 861.828364 219.078561 
L 871.098 218.075286 
L 880.367636 213.227199 
L 889.637273 219.677156 
L 898.906909 218.278088 
L 908.176545 218.781803 
L 917.446182 217.608391 
L 926.715818 220.403411 
L 935.985455 219.464312 
L 945.255091 218.610858 
L 954.524727 220.127775 
L 963.794364 219.131772 
L 973.064 219.052359 
L 982.333636 219.193524 
L 991.603273 219.855718 
L 1000.872909 219.127847 
L 1010.142545 216.481842 
L 1019.412182 214.619573 
L 1028.681818 218.20006 
L 1037.951455 218.739211 
L 1047.221091 217.661602 
L 1056.490727 216.703112 
L 1065.760364 218.130343 
L 1075.03 217.410091 
L 1084.299636 216.981979 
L 1093.569273 217.59985 
L 1102.838909 216.203667 
L 1112.108545 210.559494 
L 1121.378182 216.17331 
L 1130.647818 214.977506 
L 1139.917455 216.092166 
L 1149.187091 217.279776 
L 1158.456727 215.364873 
L 1167.726364 217.345799 
L 1176.996 214.623035 
L 1186.265636 217.022608 
L 1195.535273 218.004299 
L 1204.804909 212.086568 
L 1214.074545 218.285475 
L 1223.344182 218.667417 
L 1232.613818 212.824366 
L 1241.883455 210.597699 
L 1251.153091 218.002452 
L 1260.422727 216.538515 
L 1269.692364 214.577096 
L 1278.962 208.946081 
L 1288.231636 187.960291 
L 1297.501273 196.491132 
L 1297.501273 180.226576 
L 1297.501273 180.226576 
L 1288.231636 179.455767 
L 1278.962 204.173252 
L 1269.692364 212.572162 
L 1260.422727 214.89717 
L 1251.153091 216.945158 
L 1241.883455 209.222986 
L 1232.613818 211.544301 
L 1223.344182 217.425442 
L 1214.074545 216.984634 
L 1204.804909 210.093176 
L 1195.535273 216.031684 
L 1186.265636 215.159647 
L 1176.996 213.181375 
L 1167.726364 215.382417 
L 1158.456727 213.587326 
L 1149.187091 215.011672 
L 1139.917455 213.751345 
L 1130.647818 212.715173 
L 1121.378182 214.236477 
L 1112.108545 208.598421 
L 1102.838909 214.531157 
L 1093.569273 216.248221 
L 1084.299636 215.093624 
L 1075.03 215.640623 
L 1065.760364 216.647131 
L 1056.490727 215.103319 
L 1047.221091 215.538934 
L 1037.951455 216.901643 
L 1028.681818 216.600268 
L 1019.412182 212.816632 
L 1010.142545 214.354557 
L 1000.872909 217.08944 
L 991.603273 217.709965 
L 982.333636 216.64032 
L 973.064 216.596113 
L 963.794364 217.197247 
L 954.524727 217.493774 
L 945.255091 215.171189 
L 935.985455 216.803762 
L 926.715818 217.771718 
L 917.446182 214.624651 
L 908.176545 215.472564 
L 898.906909 215.712187 
L 889.637273 216.728044 
L 880.367636 210.443145 
L 871.098 214.932259 
L 861.828364 216.029029 
L 852.558727 214.13698 
L 843.289091 211.138812 
L 834.019455 212.780735 
L 824.749818 212.828752 
L 815.480182 211.476315 
L 806.210545 212.225194 
L 796.940909 204.426494 
L 787.671273 208.669522 
L 778.401636 208.57372 
L 769.132 209.231989 
L 759.862364 206.124514 
L 750.592727 207.466562 
L 741.323091 213.346318 
L 732.053455 213.435311 
L 722.783818 209.272157 
L 713.514182 210.417636 
L 704.244545 214.192615 
L 694.974909 212.996695 
L 685.705273 209.020646 
L 676.435636 208.535168 
L 667.166 213.858806 
L 657.896364 211.573042 
L 648.626727 210.861446 
L 639.357091 210.22176 
L 630.087455 210.761488 
L 620.817818 213.720065 
L 611.548182 213.591135 
L 602.278545 212.807513 
L 593.008909 202.94432 
L 583.739273 212.602172 
L 574.469636 211.967334 
L 565.2 209.273658 
L 555.930364 213.78274 
L 546.660727 212.539727 
L 537.391091 205.015394 
L 528.121455 204.490325 
L 518.851818 213.574167 
L 509.582182 208.868862 
L 500.312545 202.65922 
L 491.042909 211.106378 
L 481.773273 211.85214 
L 472.503636 210.338454 
L 463.234 209.732934 
L 453.964364 210.499126 
L 444.694727 208.942965 
L 435.425091 202.650217 
L 426.155455 207.207548 
L 416.885818 203.491551 
L 407.616182 201.492157 
L 398.346545 194.249922 
L 389.076909 183.359561 
L 379.807273 177.501735 
L 370.537636 167.337513 
L 361.268 162.068471 
L 351.998364 151.784785 
L 342.728727 148.468736 
L 333.459091 153.765364 
L 324.189455 155.957749 
L 314.919818 155.936627 
L 305.650182 150.515224 
L 296.380545 143.345476 
L 287.110909 154.051273 
L 277.841273 149.579934 
L 268.571636 155.32949 
L 259.302 146.13888 
L 250.032364 150.339662 
L 240.762727 151.471752 
L 231.493091 154.647443 
L 222.223455 145.257609 
L 212.953818 136.438898 
L 203.684182 134.966535 
L 194.414545 129.354565 
L 185.144909 124.176131 
L 175.875273 104.244058 
L 166.605636 118.315651 
L 157.336 121.426128 
L 148.066364 121.093588 
L 138.796727 123.851556 
L 129.527091 121.197124 
L 120.257455 117.162669 
L 110.987818 114.402393 
L 101.718182 107.395048 
L 92.448545 98.009485 
L 83.178909 105.127637 
L 73.909273 103.704445 
L 64.639636 86.698168 
L 55.37 85.778114 
z
" clip-path="url(#pe35f897c0f)" style="fill: #ffa500; fill-opacity: 0.3; stroke: #ffa500; stroke-opacity: 0.3"/>
   </g>
   <g id="PolyCollection_2">
    <path d="M 55.37 106.584302 
L 55.37 150.240396 
L 64.639636 160.636392 
L 73.909273 163.745714 
L 83.178909 154.615817 
L 92.448545 151.557743 
L 101.718182 156.788464 
L 110.987818 158.631342 
L 120.257455 160.72273 
L 129.527091 156.004958 
L 138.796727 160.308815 
L 148.066364 156.458464 
L 157.336 158.050407 
L 166.605636 155.009878 
L 175.875273 143.892591 
L 185.144909 157.206996 
L 194.414545 155.965483 
L 203.684182 145.935385 
L 212.953818 148.256815 
L 222.223455 149.351969 
L 231.493091 150.993314 
L 240.762727 155.013226 
L 250.032364 155.997802 
L 259.302 144.763127 
L 268.571636 154.608661 
L 277.841273 157.975035 
L 287.110909 150.068067 
L 296.380545 144.009286 
L 305.650182 151.118204 
L 314.919818 159.223704 
L 324.189455 158.032401 
L 333.459091 155.032617 
L 342.728727 154.047002 
L 351.998364 163.215797 
L 361.268 168.151838 
L 370.537636 174.290377 
L 379.807273 184.529279 
L 389.076909 197.545887 
L 398.346545 204.887156 
L 407.616182 210.535716 
L 416.885818 210.996031 
L 426.155455 214.555743 
L 435.425091 210.518864 
L 444.694727 216.164076 
L 453.964364 217.042692 
L 463.234 216.474916 
L 472.503636 218.114761 
L 481.773273 219.249506 
L 491.042909 216.715578 
L 500.312545 212.734449 
L 509.582182 215.956311 
L 518.851818 220.755919 
L 528.121455 210.789882 
L 537.391091 210.494163 
L 546.660727 220.148437 
L 555.930364 220.153284 
L 565.2 215.78756 
L 574.469636 218.875759 
L 583.739273 219.56981 
L 593.008909 210.045505 
L 602.278545 220.592246 
L 611.548182 222.212584 
L 620.817818 222.290958 
L 630.087455 218.150081 
L 639.357091 218.241152 
L 648.626727 219.603284 
L 657.896364 220.513295 
L 667.166 221.719026 
L 676.435636 215.079311 
L 685.705273 217.147037 
L 694.974909 220.733642 
L 704.244545 221.134283 
L 713.514182 216.691107 
L 722.783818 215.072501 
L 732.053455 219.686967 
L 741.323091 219.22492 
L 750.592727 213.691093 
L 759.862364 210.624478 
L 769.132 212.286254 
L 778.401636 213.802594 
L 787.671273 213.178605 
L 796.940909 210.137961 
L 806.210545 217.983407 
L 815.480182 217.362882 
L 824.749818 217.968056 
L 834.019455 217.083322 
L 843.289091 216.386962 
L 852.558727 219.948751 
L 861.828364 222.265333 
L 871.098 221.481481 
L 880.367636 216.131065 
L 889.637273 222.753466 
L 898.906909 221.406455 
L 908.176545 222.753697 
L 917.446182 220.568007 
L 926.715818 223.330477 
L 935.985455 222.769972 
L 945.255091 221.015048 
L 954.524727 223.095471 
L 963.794364 220.868574 
L 973.064 222.363445 
L 982.333636 222.015323 
L 991.603273 222.130863 
L 1000.872909 221.235741 
L 1010.142545 219.462465 
L 1019.412182 216.393311 
L 1028.681818 220.226926 
L 1037.951455 220.974303 
L 1047.221091 219.779884 
L 1056.490727 218.182977 
L 1065.760364 219.463273 
L 1075.03 219.201604 
L 1084.299636 218.091791 
L 1093.569273 217.88368 
L 1102.838909 217.255075 
L 1112.108545 212.330115 
L 1121.378182 218.123533 
L 1130.647818 217.783606 
L 1139.917455 218.860869 
L 1149.187091 220.14128 
L 1158.456727 217.728087 
L 1167.726364 219.264973 
L 1176.996 216.126679 
L 1186.265636 219.47874 
L 1195.535273 219.640566 
L 1204.804909 211.886652 
L 1214.074545 218.792884 
L 1223.344182 219.667691 
L 1232.613818 214.045448 
L 1241.883455 207.06569 
L 1251.153091 217.659524 
L 1260.422727 216.360184 
L 1269.692364 213.733338 
L 1278.962 203.049126 
L 1288.231636 186.820353 
L 1297.501273 182.08873 
L 1297.501273 170.195324 
L 1297.501273 170.195324 
L 1288.231636 181.685088 
L 1278.962 198.391722 
L 1269.692364 210.025883 
L 1260.422727 212.904355 
L 1251.153091 216.828463 
L 1241.883455 206.051103 
L 1232.613818 213.355206 
L 1223.344182 218.865486 
L 1214.074545 217.63517 
L 1204.804909 210.719704 
L 1195.535273 218.499011 
L 1186.265636 218.249462 
L 1176.996 215.136331 
L 1167.726364 218.077248 
L 1158.456727 216.668484 
L 1149.187091 218.793115 
L 1139.917455 217.539251 
L 1130.647818 216.374265 
L 1121.378182 216.846931 
L 1112.108545 210.636828 
L 1102.838909 215.864202 
L 1093.569273 216.457025 
L 1084.299636 217.005641 
L 1075.03 217.914614 
L 1065.760364 218.305559 
L 1056.490727 216.990636 
L 1047.221091 218.656798 
L 1037.951455 219.856988 
L 1028.681818 219.118844 
L 1019.412182 215.504537 
L 1010.142545 218.339378 
L 1000.872909 220.344659 
L 991.603273 221.04933 
L 982.333636 220.756034 
L 973.064 221.134167 
L 963.794364 219.75703 
L 954.524727 221.930831 
L 945.255091 219.836558 
L 935.985455 221.545311 
L 926.715818 222.257023 
L 917.446182 219.69193 
L 908.176545 221.584441 
L 898.906909 220.399948 
L 889.637273 221.871618 
L 880.367636 215.418892 
L 871.098 220.578857 
L 861.828364 221.308459 
L 852.558727 219.206567 
L 843.289091 215.053802 
L 834.019455 215.723614 
L 824.749818 216.984634 
L 815.480182 215.817339 
L 806.210545 216.430939 
L 796.940909 208.088011 
L 787.671273 210.578077 
L 778.401636 212.000807 
L 769.132 210.541026 
L 759.862364 208.87117 
L 750.592727 211.04324 
L 741.323091 217.477384 
L 732.053455 218.191057 
L 722.783818 214.138712 
L 713.514182 213.619645 
L 704.244545 219.724942 
L 694.974909 219.259663 
L 685.705273 216.134758 
L 676.435636 214.078575 
L 667.166 220.399717 
L 657.896364 218.69535 
L 648.626727 217.868444 
L 639.357091 216.587109 
L 630.087455 215.334862 
L 620.817818 220.79274 
L 611.548182 220.670504 
L 602.278545 219.147123 
L 593.008909 208.863552 
L 583.739273 218.689117 
L 574.469636 217.902725 
L 565.2 214.312426 
L 555.930364 219.01981 
L 546.660727 218.74025 
L 537.391091 208.750089 
L 528.121455 209.98306 
L 518.851818 219.321185 
L 509.582182 214.237631 
L 500.312545 209.491003 
L 491.042909 215.453981 
L 481.773273 217.95559 
L 472.503636 216.929345 
L 463.234 215.529584 
L 453.964364 216.063887 
L 444.694727 215.223361 
L 435.425091 209.611622 
L 426.155455 213.494986 
L 416.885818 210.198444 
L 407.616182 206.270757 
L 398.346545 199.928492 
L 389.076909 187.279975 
L 379.807273 177.185932 
L 370.537636 159.971889 
L 361.268 149.955065 
L 351.998364 140.266972 
L 342.728727 131.304788 
L 333.459091 132.462386 
L 324.189455 129.536244 
L 314.919818 129.820305 
L 305.650182 117.501789 
L 296.380545 112.335475 
L 287.110909 122.861208 
L 277.841273 130.959782 
L 268.571636 128.180922 
L 259.302 111.939682 
L 250.032364 128.924837 
L 240.762727 124.944978 
L 231.493091 120.60534 
L 222.223455 115.339645 
L 212.953818 110.637456 
L 203.684182 114.972593 
L 194.414545 118.710867 
L 185.144909 121.306316 
L 175.875273 104.336398 
L 166.605636 119.694404 
L 157.336 122.016989 
L 148.066364 116.620633 
L 138.796727 123.722511 
L 129.527091 119.831876 
L 120.257455 119.895706 
L 110.987818 124.173477 
L 101.718182 124.274358 
L 92.448545 119.748885 
L 83.178909 120.535392 
L 73.909273 130.039267 
L 64.639636 123.758062 
L 55.37 106.584302 
z
" clip-path="url(#pe35f897c0f)" style="fill-opacity: 0.3; stroke: #000000; stroke-opacity: 0.3"/>
   </g>
   <g id="matplotlib.axis_1">
    <g id="xtick_1">
     <g id="line2d_1">
      <defs>
       <path id="m88c30dd297" d="M 0 0 
L 0 3.5 
" style="stroke: #000000; stroke-width: 0.8"/>
      </defs>
      <g>
       <use xlink:href="#m88c30dd297" x="55.37" y="231.505" style="stroke: #000000; stroke-width: 0.8"/>
      </g>
     </g>
     <g id="text_1">
      <!-- A1 -->
      <g transform="translate(58.129375 253.201875)rotate(-90)scale(0.1 -0.1)">
       <defs>
        <path id="DejaVuSans-Bold-41" d="M 3419 850 
L 1538 850 
L 1241 0 
L 31 0 
L 1759 4666 
L 3194 4666 
L 4922 0 
L 3713 0 
L 3419 850 
z
M 1838 1716 
L 3116 1716 
L 2478 3572 
L 1838 1716 
z
" transform="scale(0.015625)"/>
        <path id="DejaVuSans-Bold-31" d="M 750 831 
L 1813 831 
L 1813 3847 
L 722 3622 
L 722 4441 
L 1806 4666 
L 2950 4666 
L 2950 831 
L 4013 831 
L 4013 0 
L 750 0 
L 750 831 
z
" transform="scale(0.015625)"/>
       </defs>
       <use xlink:href="#DejaVuSans-Bold-41"/>
       <use xlink:href="#DejaVuSans-Bold-31" x="77.392578"/>
      </g>
     </g>
    </g>
    <g id="xtick_2">
     <g id="line2d_2">
      <g>
       <use xlink:href="#m88c30dd297" x="64.639636" y="231.505" style="stroke: #000000; stroke-width: 0.8"/>
      </g>
     </g>
     <g id="text_2">
      <!-- R2 -->
      <g transform="translate(67.399011 253.162812)rotate(-90)scale(0.1 -0.1)">
       <defs>
        <path id="DejaVuSans-Bold-52" d="M 2297 2597 
Q 2675 2597 2839 2737 
Q 3003 2878 3003 3200 
Q 3003 3519 2839 3656 
Q 2675 3794 2297 3794 
L 1791 3794 
L 1791 2597 
L 2297 2597 
z
M 1791 1766 
L 1791 0 
L 588 0 
L 588 4666 
L 2425 4666 
Q 3347 4666 3776 4356 
Q 4206 4047 4206 3378 
Q 4206 2916 3982 2619 
Q 3759 2322 3309 2181 
Q 3556 2125 3751 1926 
Q 3947 1728 4147 1325 
L 4800 0 
L 3519 0 
L 2950 1159 
Q 2778 1509 2601 1637 
Q 2425 1766 2131 1766 
L 1791 1766 
z
" transform="scale(0.015625)"/>
        <path id="DejaVuSans-Bold-32" d="M 1844 884 
L 3897 884 
L 3897 0 
L 506 0 
L 506 884 
L 2209 2388 
Q 2438 2594 2547 2791 
Q 2656 2988 2656 3200 
Q 2656 3528 2436 3728 
Q 2216 3928 1850 3928 
Q 1569 3928 1234 3808 
Q 900 3688 519 3450 
L 519 4475 
Q 925 4609 1322 4679 
Q 1719 4750 2100 4750 
Q 2938 4750 3402 4381 
Q 3866 4013 3866 3353 
Q 3866 2972 3669 2642 
Q 3472 2313 2841 1759 
L 1844 884 
z
" transform="scale(0.015625)"/>
       </defs>
       <use xlink:href="#DejaVuSans-Bold-52"/>
       <use xlink:href="#DejaVuSans-Bold-32" x="77.001953"/>
      </g>
     </g>
    </g>
    <g id="xtick_3">
     <g id="line2d_3">
      <g>
       <use xlink:href="#m88c30dd297" x="73.909273" y="231.505" style="stroke: #000000; stroke-width: 0.8"/>
      </g>
     </g>
     <g id="text_3">
      <!-- T3 -->
      <g transform="translate(76.668648 252.284687)rotate(-90)scale(0.1 -0.1)">
       <defs>
        <path id="DejaVuSans-Bold-54" d="M 31 4666 
L 4331 4666 
L 4331 3756 
L 2784 3756 
L 2784 0 
L 1581 0 
L 1581 3756 
L 31 3756 
L 31 4666 
z
" transform="scale(0.015625)"/>
        <path id="DejaVuSans-Bold-33" d="M 2981 2516 
Q 3453 2394 3698 2092 
Q 3944 1791 3944 1325 
Q 3944 631 3412 270 
Q 2881 -91 1863 -91 
Q 1503 -91 1142 -33 
Q 781 25 428 141 
L 428 1069 
Q 766 900 1098 814 
Q 1431 728 1753 728 
Q 2231 728 2486 893 
Q 2741 1059 2741 1369 
Q 2741 1688 2480 1852 
Q 2219 2016 1709 2016 
L 1228 2016 
L 1228 2791 
L 1734 2791 
Q 2188 2791 2409 2933 
Q 2631 3075 2631 3366 
Q 2631 3634 2415 3781 
Q 2200 3928 1806 3928 
Q 1516 3928 1219 3862 
Q 922 3797 628 3669 
L 628 4550 
Q 984 4650 1334 4700 
Q 1684 4750 2022 4750 
Q 2931 4750 3382 4451 
Q 3834 4153 3834 3553 
Q 3834 3144 3618 2883 
Q 3403 2622 2981 2516 
z
" transform="scale(0.015625)"/>
       </defs>
       <use xlink:href="#DejaVuSans-Bold-54"/>
       <use xlink:href="#DejaVuSans-Bold-33" x="68.212891"/>
      </g>
     </g>
    </g>
    <g id="xtick_4">
     <g id="line2d_4">
      <g>
       <use xlink:href="#m88c30dd297" x="83.178909" y="231.505" style="stroke: #000000; stroke-width: 0.8"/>
      </g>
     </g>
     <g id="text_4">
      <!-- K4 -->
      <g transform="translate(85.938284 253.21125)rotate(-90)scale(0.1 -0.1)">
       <defs>
        <path id="DejaVuSans-Bold-4b" d="M 588 4666 
L 1791 4666 
L 1791 2963 
L 3525 4666 
L 4922 4666 
L 2675 2456 
L 5153 0 
L 3647 0 
L 1791 1838 
L 1791 0 
L 588 0 
L 588 4666 
z
" transform="scale(0.015625)"/>
        <path id="DejaVuSans-Bold-34" d="M 2356 3675 
L 1038 1722 
L 2356 1722 
L 2356 3675 
z
M 2156 4666 
L 3494 4666 
L 3494 1722 
L 4159 1722 
L 4159 850 
L 3494 850 
L 3494 0 
L 2356 0 
L 2356 850 
L 288 850 
L 288 1881 
L 2156 4666 
z
" transform="scale(0.015625)"/>
       </defs>
       <use xlink:href="#DejaVuSans-Bold-4b"/>
       <use xlink:href="#DejaVuSans-Bold-34" x="77.490234"/>
      </g>
     </g>
    </g>
    <g id="xtick_5">
     <g id="line2d_5">
      <g>
       <use xlink:href="#m88c30dd297" x="92.448545" y="231.505" style="stroke: #000000; stroke-width: 0.8"/>
      </g>
     </g>
     <g id="text_5">
      <!-- Q5 -->
      <g transform="translate(95.20792 253.964375)rotate(-90)scale(0.1 -0.1)">
       <defs>
        <path id="DejaVuSans-Bold-51" d="M 2847 -84 
L 2753 -84 
Q 1600 -84 959 553 
Q 319 1191 319 2328 
Q 319 3463 958 4106 
Q 1597 4750 2719 4750 
Q 3853 4750 4486 4112 
Q 5119 3475 5119 2328 
Q 5119 1541 4783 972 
Q 4447 403 3816 116 
L 4756 -934 
L 3609 -934 
L 2847 -84 
z
M 2719 3878 
Q 2169 3878 1866 3472 
Q 1563 3066 1563 2328 
Q 1563 1578 1859 1179 
Q 2156 781 2719 781 
Q 3272 781 3575 1187 
Q 3878 1594 3878 2328 
Q 3878 3066 3575 3472 
Q 3272 3878 2719 3878 
z
" transform="scale(0.015625)"/>
        <path id="DejaVuSans-Bold-35" d="M 678 4666 
L 3669 4666 
L 3669 3781 
L 1638 3781 
L 1638 3059 
Q 1775 3097 1914 3117 
Q 2053 3138 2203 3138 
Q 3056 3138 3531 2711 
Q 4006 2284 4006 1522 
Q 4006 766 3489 337 
Q 2972 -91 2053 -91 
Q 1656 -91 1267 -14 
Q 878 63 494 219 
L 494 1166 
Q 875 947 1217 837 
Q 1559 728 1863 728 
Q 2300 728 2551 942 
Q 2803 1156 2803 1522 
Q 2803 1891 2551 2103 
Q 2300 2316 1863 2316 
Q 1603 2316 1309 2248 
Q 1016 2181 678 2041 
L 678 4666 
z
" transform="scale(0.015625)"/>
       </defs>
       <use xlink:href="#DejaVuSans-Bold-51"/>
       <use xlink:href="#DejaVuSans-Bold-35" x="85.009766"/>
      </g>
     </g>
    </g>
    <g id="xtick_6">
     <g id="line2d_6">
      <g>
       <use xlink:href="#m88c30dd297" x="101.718182" y="231.505" style="stroke: #000000; stroke-width: 0.8"/>
      </g>
     </g>
     <g id="text_6">
      <!-- T6 -->
      <g transform="translate(104.477557 252.284687)rotate(-90)scale(0.1 -0.1)">
       <defs>
        <path id="DejaVuSans-Bold-36" d="M 2316 2303 
Q 2000 2303 1842 2098 
Q 1684 1894 1684 1484 
Q 1684 1075 1842 870 
Q 2000 666 2316 666 
Q 2634 666 2792 870 
Q 2950 1075 2950 1484 
Q 2950 1894 2792 2098 
Q 2634 2303 2316 2303 
z
M 3803 4544 
L 3803 3681 
Q 3506 3822 3243 3889 
Q 2981 3956 2731 3956 
Q 2194 3956 1894 3657 
Q 1594 3359 1544 2772 
Q 1750 2925 1990 3001 
Q 2231 3078 2516 3078 
Q 3231 3078 3670 2659 
Q 4109 2241 4109 1563 
Q 4109 813 3618 361 
Q 3128 -91 2303 -91 
Q 1394 -91 895 523 
Q 397 1138 397 2266 
Q 397 3422 980 4083 
Q 1563 4744 2578 4744 
Q 2900 4744 3203 4694 
Q 3506 4644 3803 4544 
z
" transform="scale(0.015625)"/>
       </defs>
       <use xlink:href="#DejaVuSans-Bold-54"/>
       <use xlink:href="#DejaVuSans-Bold-36" x="68.212891"/>
      </g>
     </g>
    </g>
    <g id="xtick_7">
     <g id="line2d_7">
      <g>
       <use xlink:href="#m88c30dd297" x="110.987818" y="231.505" style="stroke: #000000; stroke-width: 0.8"/>
      </g>
     </g>
     <g id="text_7">
      <!-- A7 -->
      <g transform="translate(113.747193 253.201875)rotate(-90)scale(0.1 -0.1)">
       <defs>
        <path id="DejaVuSans-Bold-37" d="M 428 4666 
L 3944 4666 
L 3944 3988 
L 2125 0 
L 953 0 
L 2675 3781 
L 428 3781 
L 428 4666 
z
" transform="scale(0.015625)"/>
       </defs>
       <use xlink:href="#DejaVuSans-Bold-41"/>
       <use xlink:href="#DejaVuSans-Bold-37" x="77.392578"/>
      </g>
     </g>
    </g>
    <g id="xtick_8">
     <g id="line2d_8">
      <g>
       <use xlink:href="#m88c30dd297" x="120.257455" y="231.505" style="stroke: #000000; stroke-width: 0.8"/>
      </g>
     </g>
     <g id="text_8">
      <!-- R8 -->
      <g transform="translate(123.01683 253.162812)rotate(-90)scale(0.1 -0.1)">
       <defs>
        <path id="DejaVuSans-Bold-38" d="M 2228 2088 
Q 1891 2088 1709 1903 
Q 1528 1719 1528 1375 
Q 1528 1031 1709 848 
Q 1891 666 2228 666 
Q 2563 666 2741 848 
Q 2919 1031 2919 1375 
Q 2919 1722 2741 1905 
Q 2563 2088 2228 2088 
z
M 1350 2484 
Q 925 2613 709 2878 
Q 494 3144 494 3541 
Q 494 4131 934 4440 
Q 1375 4750 2228 4750 
Q 3075 4750 3515 4442 
Q 3956 4134 3956 3541 
Q 3956 3144 3739 2878 
Q 3522 2613 3097 2484 
Q 3572 2353 3814 2058 
Q 4056 1763 4056 1313 
Q 4056 619 3595 264 
Q 3134 -91 2228 -91 
Q 1319 -91 855 264 
Q 391 619 391 1313 
Q 391 1763 633 2058 
Q 875 2353 1350 2484 
z
M 1631 3419 
Q 1631 3141 1786 2991 
Q 1941 2841 2228 2841 
Q 2509 2841 2662 2991 
Q 2816 3141 2816 3419 
Q 2816 3697 2662 3845 
Q 2509 3994 2228 3994 
Q 1941 3994 1786 3844 
Q 1631 3694 1631 3419 
z
" transform="scale(0.015625)"/>
       </defs>
       <use xlink:href="#DejaVuSans-Bold-52"/>
       <use xlink:href="#DejaVuSans-Bold-38" x="77.001953"/>
      </g>
     </g>
    </g>
    <g id="xtick_9">
     <g id="line2d_9">
      <g>
       <use xlink:href="#m88c30dd297" x="129.527091" y="231.505" style="stroke: #000000; stroke-width: 0.8"/>
      </g>
     </g>
     <g id="text_9">
      <!-- K9 -->
      <g transform="translate(132.286466 253.21125)rotate(-90)scale(0.1 -0.1)">
       <defs>
        <path id="DejaVuSans-Bold-39" d="M 641 103 
L 641 966 
Q 928 831 1190 764 
Q 1453 697 1709 697 
Q 2247 697 2547 995 
Q 2847 1294 2900 1881 
Q 2688 1725 2447 1647 
Q 2206 1569 1925 1569 
Q 1209 1569 770 1986 
Q 331 2403 331 3084 
Q 331 3838 820 4291 
Q 1309 4744 2131 4744 
Q 3044 4744 3544 4128 
Q 4044 3513 4044 2388 
Q 4044 1231 3459 570 
Q 2875 -91 1856 -91 
Q 1528 -91 1228 -42 
Q 928 6 641 103 
z
M 2125 2350 
Q 2441 2350 2600 2554 
Q 2759 2759 2759 3169 
Q 2759 3575 2600 3781 
Q 2441 3988 2125 3988 
Q 1809 3988 1650 3781 
Q 1491 3575 1491 3169 
Q 1491 2759 1650 2554 
Q 1809 2350 2125 2350 
z
" transform="scale(0.015625)"/>
       </defs>
       <use xlink:href="#DejaVuSans-Bold-4b"/>
       <use xlink:href="#DejaVuSans-Bold-39" x="77.490234"/>
      </g>
     </g>
    </g>
    <g id="xtick_10">
     <g id="line2d_10">
      <g>
       <use xlink:href="#m88c30dd297" x="138.796727" y="231.505" style="stroke: #000000; stroke-width: 0.8"/>
      </g>
     </g>
     <g id="text_10">
      <!-- S10 -->
      <g transform="translate(141.556102 259.622187)rotate(-90)scale(0.1 -0.1)">
       <defs>
        <path id="DejaVuSans-Bold-53" d="M 3834 4519 
L 3834 3531 
Q 3450 3703 3084 3790 
Q 2719 3878 2394 3878 
Q 1963 3878 1756 3759 
Q 1550 3641 1550 3391 
Q 1550 3203 1689 3098 
Q 1828 2994 2194 2919 
L 2706 2816 
Q 3484 2659 3812 2340 
Q 4141 2022 4141 1434 
Q 4141 663 3683 286 
Q 3225 -91 2284 -91 
Q 1841 -91 1394 -6 
Q 947 78 500 244 
L 500 1259 
Q 947 1022 1364 901 
Q 1781 781 2169 781 
Q 2563 781 2772 912 
Q 2981 1044 2981 1288 
Q 2981 1506 2839 1625 
Q 2697 1744 2272 1838 
L 1806 1941 
Q 1106 2091 782 2419 
Q 459 2747 459 3303 
Q 459 4000 909 4375 
Q 1359 4750 2203 4750 
Q 2588 4750 2994 4692 
Q 3400 4634 3834 4519 
z
" transform="scale(0.015625)"/>
        <path id="DejaVuSans-Bold-30" d="M 2944 2338 
Q 2944 3213 2780 3570 
Q 2616 3928 2228 3928 
Q 1841 3928 1675 3570 
Q 1509 3213 1509 2338 
Q 1509 1453 1675 1090 
Q 1841 728 2228 728 
Q 2613 728 2778 1090 
Q 2944 1453 2944 2338 
z
M 4147 2328 
Q 4147 1169 3647 539 
Q 3147 -91 2228 -91 
Q 1306 -91 806 539 
Q 306 1169 306 2328 
Q 306 3491 806 4120 
Q 1306 4750 2228 4750 
Q 3147 4750 3647 4120 
Q 4147 3491 4147 2328 
z
" transform="scale(0.015625)"/>
       </defs>
       <use xlink:href="#DejaVuSans-Bold-53"/>
       <use xlink:href="#DejaVuSans-Bold-31" x="72.021484"/>
       <use xlink:href="#DejaVuSans-Bold-30" x="141.601562"/>
      </g>
     </g>
    </g>
    <g id="xtick_11">
     <g id="line2d_11">
      <g>
       <use xlink:href="#m88c30dd297" x="148.066364" y="231.505" style="stroke: #000000; stroke-width: 0.8"/>
      </g>
     </g>
     <g id="text_11">
      <!-- T11 -->
      <g transform="translate(150.825739 259.2425)rotate(-90)scale(0.1 -0.1)">
       <use xlink:href="#DejaVuSans-Bold-54"/>
       <use xlink:href="#DejaVuSans-Bold-31" x="68.212891"/>
       <use xlink:href="#DejaVuSans-Bold-31" x="137.792969"/>
      </g>
     </g>
    </g>
    <g id="xtick_12">
     <g id="line2d_12">
      <g>
       <use xlink:href="#m88c30dd297" x="157.336" y="231.505" style="stroke: #000000; stroke-width: 0.8"/>
      </g>
     </g>
     <g id="text_12">
      <!-- G12 -->
      <g transform="translate(160.095375 260.628437)rotate(-90)scale(0.1 -0.1)">
       <defs>
        <path id="DejaVuSans-Bold-47" d="M 4781 347 
Q 4331 128 3847 18 
Q 3363 -91 2847 -91 
Q 1681 -91 1000 561 
Q 319 1213 319 2328 
Q 319 3456 1012 4103 
Q 1706 4750 2913 4750 
Q 3378 4750 3804 4662 
Q 4231 4575 4609 4403 
L 4609 3438 
Q 4219 3659 3833 3768 
Q 3447 3878 3059 3878 
Q 2341 3878 1952 3476 
Q 1563 3075 1563 2328 
Q 1563 1588 1938 1184 
Q 2313 781 3003 781 
Q 3191 781 3352 804 
Q 3513 828 3641 878 
L 3641 1784 
L 2906 1784 
L 2906 2591 
L 4781 2591 
L 4781 347 
z
" transform="scale(0.015625)"/>
       </defs>
       <use xlink:href="#DejaVuSans-Bold-47"/>
       <use xlink:href="#DejaVuSans-Bold-31" x="82.080078"/>
       <use xlink:href="#DejaVuSans-Bold-32" x="151.660156"/>
      </g>
     </g>
    </g>
    <g id="xtick_13">
     <g id="line2d_13">
      <g>
       <use xlink:href="#m88c30dd297" x="166.605636" y="231.505" style="stroke: #000000; stroke-width: 0.8"/>
      </g>
     </g>
     <g id="text_13">
      <!-- G13 -->
      <g transform="translate(169.365011 260.628437)rotate(-90)scale(0.1 -0.1)">
       <use xlink:href="#DejaVuSans-Bold-47"/>
       <use xlink:href="#DejaVuSans-Bold-31" x="82.080078"/>
       <use xlink:href="#DejaVuSans-Bold-33" x="151.660156"/>
      </g>
     </g>
    </g>
    <g id="xtick_14">
     <g id="line2d_14">
      <g>
       <use xlink:href="#m88c30dd297" x="175.875273" y="231.505" style="stroke: #000000; stroke-width: 0.8"/>
      </g>
     </g>
     <g id="text_14">
      <!-- K14 -->
      <g transform="translate(178.634648 260.169062)rotate(-90)scale(0.1 -0.1)">
       <use xlink:href="#DejaVuSans-Bold-4b"/>
       <use xlink:href="#DejaVuSans-Bold-31" x="77.490234"/>
       <use xlink:href="#DejaVuSans-Bold-34" x="147.070312"/>
      </g>
     </g>
    </g>
    <g id="xtick_15">
     <g id="line2d_15">
      <g>
       <use xlink:href="#m88c30dd297" x="185.144909" y="231.505" style="stroke: #000000; stroke-width: 0.8"/>
      </g>
     </g>
     <g id="text_15">
      <!-- A15 -->
      <g transform="translate(187.904284 260.159687)rotate(-90)scale(0.1 -0.1)">
       <use xlink:href="#DejaVuSans-Bold-41"/>
       <use xlink:href="#DejaVuSans-Bold-31" x="77.392578"/>
       <use xlink:href="#DejaVuSans-Bold-35" x="146.972656"/>
      </g>
     </g>
    </g>
    <g id="xtick_16">
     <g id="line2d_16">
      <g>
       <use xlink:href="#m88c30dd297" x="194.414545" y="231.505" style="stroke: #000000; stroke-width: 0.8"/>
      </g>
     </g>
     <g id="text_16">
      <!-- P16 -->
      <g transform="translate(197.17392 259.750313)rotate(-90)scale(0.1 -0.1)">
       <defs>
        <path id="DejaVuSans-Bold-50" d="M 588 4666 
L 2584 4666 
Q 3475 4666 3951 4270 
Q 4428 3875 4428 3144 
Q 4428 2409 3951 2014 
Q 3475 1619 2584 1619 
L 1791 1619 
L 1791 0 
L 588 0 
L 588 4666 
z
M 1791 3794 
L 1791 2491 
L 2456 2491 
Q 2806 2491 2997 2661 
Q 3188 2831 3188 3144 
Q 3188 3456 2997 3625 
Q 2806 3794 2456 3794 
L 1791 3794 
z
" transform="scale(0.015625)"/>
       </defs>
       <use xlink:href="#DejaVuSans-Bold-50"/>
       <use xlink:href="#DejaVuSans-Bold-31" x="73.291016"/>
       <use xlink:href="#DejaVuSans-Bold-36" x="142.871094"/>
      </g>
     </g>
    </g>
    <g id="xtick_17">
     <g id="line2d_17">
      <g>
       <use xlink:href="#m88c30dd297" x="203.684182" y="231.505" style="stroke: #000000; stroke-width: 0.8"/>
      </g>
     </g>
     <g id="text_17">
      <!-- R17 -->
      <g transform="translate(206.443557 260.120625)rotate(-90)scale(0.1 -0.1)">
       <use xlink:href="#DejaVuSans-Bold-52"/>
       <use xlink:href="#DejaVuSans-Bold-31" x="77.001953"/>
       <use xlink:href="#DejaVuSans-Bold-37" x="146.582031"/>
      </g>
     </g>
    </g>
    <g id="xtick_18">
     <g id="line2d_18">
      <g>
       <use xlink:href="#m88c30dd297" x="212.953818" y="231.505" style="stroke: #000000; stroke-width: 0.8"/>
      </g>
     </g>
     <g id="text_18">
      <!-- K18 -->
      <g transform="translate(215.713193 260.169062)rotate(-90)scale(0.1 -0.1)">
       <use xlink:href="#DejaVuSans-Bold-4b"/>
       <use xlink:href="#DejaVuSans-Bold-31" x="77.490234"/>
       <use xlink:href="#DejaVuSans-Bold-38" x="147.070312"/>
      </g>
     </g>
    </g>
    <g id="xtick_19">
     <g id="line2d_19">
      <g>
       <use xlink:href="#m88c30dd297" x="222.223455" y="231.505" style="stroke: #000000; stroke-width: 0.8"/>
      </g>
     </g>
     <g id="text_19">
      <!-- Q19 -->
      <g transform="translate(224.98283 260.922188)rotate(-90)scale(0.1 -0.1)">
       <use xlink:href="#DejaVuSans-Bold-51"/>
       <use xlink:href="#DejaVuSans-Bold-31" x="85.009766"/>
       <use xlink:href="#DejaVuSans-Bold-39" x="154.589844"/>
      </g>
     </g>
    </g>
    <g id="xtick_20">
     <g id="line2d_20">
      <g>
       <use xlink:href="#m88c30dd297" x="231.493091" y="231.505" style="stroke: #000000; stroke-width: 0.8"/>
      </g>
     </g>
     <g id="text_20">
      <!-- L20 -->
      <g transform="translate(234.252466 258.7925)rotate(-90)scale(0.1 -0.1)">
       <defs>
        <path id="DejaVuSans-Bold-4c" d="M 588 4666 
L 1791 4666 
L 1791 909 
L 3903 909 
L 3903 0 
L 588 0 
L 588 4666 
z
" transform="scale(0.015625)"/>
       </defs>
       <use xlink:href="#DejaVuSans-Bold-4c"/>
       <use xlink:href="#DejaVuSans-Bold-32" x="63.720703"/>
       <use xlink:href="#DejaVuSans-Bold-30" x="133.300781"/>
      </g>
     </g>
    </g>
    <g id="xtick_21">
     <g id="line2d_21">
      <g>
       <use xlink:href="#m88c30dd297" x="240.762727" y="231.505" style="stroke: #000000; stroke-width: 0.8"/>
      </g>
     </g>
     <g id="text_21">
      <!-- A21 -->
      <g transform="translate(243.522102 260.159687)rotate(-90)scale(0.1 -0.1)">
       <use xlink:href="#DejaVuSans-Bold-41"/>
       <use xlink:href="#DejaVuSans-Bold-32" x="77.392578"/>
       <use xlink:href="#DejaVuSans-Bold-31" x="146.972656"/>
      </g>
     </g>
    </g>
    <g id="xtick_22">
     <g id="line2d_22">
      <g>
       <use xlink:href="#m88c30dd297" x="250.032364" y="231.505" style="stroke: #000000; stroke-width: 0.8"/>
      </g>
     </g>
     <g id="text_22">
      <!-- T22 -->
      <g transform="translate(252.791739 259.2425)rotate(-90)scale(0.1 -0.1)">
       <use xlink:href="#DejaVuSans-Bold-54"/>
       <use xlink:href="#DejaVuSans-Bold-32" x="68.212891"/>
       <use xlink:href="#DejaVuSans-Bold-32" x="137.792969"/>
      </g>
     </g>
    </g>
    <g id="xtick_23">
     <g id="line2d_23">
      <g>
       <use xlink:href="#m88c30dd297" x="259.302" y="231.505" style="stroke: #000000; stroke-width: 0.8"/>
      </g>
     </g>
     <g id="text_23">
      <!-- K23 -->
      <g transform="translate(262.061375 260.169062)rotate(-90)scale(0.1 -0.1)">
       <use xlink:href="#DejaVuSans-Bold-4b"/>
       <use xlink:href="#DejaVuSans-Bold-32" x="77.490234"/>
       <use xlink:href="#DejaVuSans-Bold-33" x="147.070312"/>
      </g>
     </g>
    </g>
    <g id="xtick_24">
     <g id="line2d_24">
      <g>
       <use xlink:href="#m88c30dd297" x="268.571636" y="231.505" style="stroke: #000000; stroke-width: 0.8"/>
      </g>
     </g>
     <g id="text_24">
      <!-- A24 -->
      <g transform="translate(271.331011 260.159687)rotate(-90)scale(0.1 -0.1)">
       <use xlink:href="#DejaVuSans-Bold-41"/>
       <use xlink:href="#DejaVuSans-Bold-32" x="77.392578"/>
       <use xlink:href="#DejaVuSans-Bold-34" x="146.972656"/>
      </g>
     </g>
    </g>
    <g id="xtick_25">
     <g id="line2d_25">
      <g>
       <use xlink:href="#m88c30dd297" x="277.841273" y="231.505" style="stroke: #000000; stroke-width: 0.8"/>
      </g>
     </g>
     <g id="text_25">
      <!-- A25 -->
      <g transform="translate(280.600648 260.159687)rotate(-90)scale(0.1 -0.1)">
       <use xlink:href="#DejaVuSans-Bold-41"/>
       <use xlink:href="#DejaVuSans-Bold-32" x="77.392578"/>
       <use xlink:href="#DejaVuSans-Bold-35" x="146.972656"/>
      </g>
     </g>
    </g>
    <g id="xtick_26">
     <g id="line2d_26">
      <g>
       <use xlink:href="#m88c30dd297" x="287.110909" y="231.505" style="stroke: #000000; stroke-width: 0.8"/>
      </g>
     </g>
     <g id="text_26">
      <!-- R26 -->
      <g transform="translate(289.870284 260.120625)rotate(-90)scale(0.1 -0.1)">
       <use xlink:href="#DejaVuSans-Bold-52"/>
       <use xlink:href="#DejaVuSans-Bold-32" x="77.001953"/>
       <use xlink:href="#DejaVuSans-Bold-36" x="146.582031"/>
      </g>
     </g>
    </g>
    <g id="xtick_27">
     <g id="line2d_27">
      <g>
       <use xlink:href="#m88c30dd297" x="296.380545" y="231.505" style="stroke: #000000; stroke-width: 0.8"/>
      </g>
     </g>
     <g id="text_27">
      <!-- K27 -->
      <g transform="translate(299.13992 260.169062)rotate(-90)scale(0.1 -0.1)">
       <use xlink:href="#DejaVuSans-Bold-4b"/>
       <use xlink:href="#DejaVuSans-Bold-32" x="77.490234"/>
       <use xlink:href="#DejaVuSans-Bold-37" x="147.070312"/>
      </g>
     </g>
    </g>
    <g id="xtick_28">
     <g id="line2d_28">
      <g>
       <use xlink:href="#m88c30dd297" x="305.650182" y="231.505" style="stroke: #000000; stroke-width: 0.8"/>
      </g>
     </g>
     <g id="text_28">
      <!-- S28 -->
      <g transform="translate(308.409557 259.622187)rotate(-90)scale(0.1 -0.1)">
       <use xlink:href="#DejaVuSans-Bold-53"/>
       <use xlink:href="#DejaVuSans-Bold-32" x="72.021484"/>
       <use xlink:href="#DejaVuSans-Bold-38" x="141.601562"/>
      </g>
     </g>
    </g>
    <g id="xtick_29">
     <g id="line2d_29">
      <g>
       <use xlink:href="#m88c30dd297" x="314.919818" y="231.505" style="stroke: #000000; stroke-width: 0.8"/>
      </g>
     </g>
     <g id="text_29">
      <!-- A29 -->
      <g transform="translate(317.679193 260.159687)rotate(-90)scale(0.1 -0.1)">
       <use xlink:href="#DejaVuSans-Bold-41"/>
       <use xlink:href="#DejaVuSans-Bold-32" x="77.392578"/>
       <use xlink:href="#DejaVuSans-Bold-39" x="146.972656"/>
      </g>
     </g>
    </g>
    <g id="xtick_30">
     <g id="line2d_30">
      <g>
       <use xlink:href="#m88c30dd297" x="324.189455" y="231.505" style="stroke: #000000; stroke-width: 0.8"/>
      </g>
     </g>
     <g id="text_30">
      <!-- P30 -->
      <g transform="translate(326.94883 259.750313)rotate(-90)scale(0.1 -0.1)">
       <use xlink:href="#DejaVuSans-Bold-50"/>
       <use xlink:href="#DejaVuSans-Bold-33" x="73.291016"/>
       <use xlink:href="#DejaVuSans-Bold-30" x="142.871094"/>
      </g>
     </g>
    </g>
    <g id="xtick_31">
     <g id="line2d_31">
      <g>
       <use xlink:href="#m88c30dd297" x="333.459091" y="231.505" style="stroke: #000000; stroke-width: 0.8"/>
      </g>
     </g>
     <g id="text_31">
      <!-- A31 -->
      <g transform="translate(336.218466 260.159687)rotate(-90)scale(0.1 -0.1)">
       <use xlink:href="#DejaVuSans-Bold-41"/>
       <use xlink:href="#DejaVuSans-Bold-33" x="77.392578"/>
       <use xlink:href="#DejaVuSans-Bold-31" x="146.972656"/>
      </g>
     </g>
    </g>
    <g id="xtick_32">
     <g id="line2d_32">
      <g>
       <use xlink:href="#m88c30dd297" x="342.728727" y="231.505" style="stroke: #000000; stroke-width: 0.8"/>
      </g>
     </g>
     <g id="text_32">
      <!-- T32 -->
      <g transform="translate(345.488102 259.2425)rotate(-90)scale(0.1 -0.1)">
       <use xlink:href="#DejaVuSans-Bold-54"/>
       <use xlink:href="#DejaVuSans-Bold-33" x="68.212891"/>
       <use xlink:href="#DejaVuSans-Bold-32" x="137.792969"/>
      </g>
     </g>
    </g>
    <g id="xtick_33">
     <g id="line2d_33">
      <g>
       <use xlink:href="#m88c30dd297" x="351.998364" y="231.505" style="stroke: #000000; stroke-width: 0.8"/>
      </g>
     </g>
     <g id="text_33">
      <!-- G33 -->
      <g transform="translate(354.757739 260.628437)rotate(-90)scale(0.1 -0.1)">
       <use xlink:href="#DejaVuSans-Bold-47"/>
       <use xlink:href="#DejaVuSans-Bold-33" x="82.080078"/>
       <use xlink:href="#DejaVuSans-Bold-33" x="151.660156"/>
      </g>
     </g>
    </g>
    <g id="xtick_34">
     <g id="line2d_34">
      <g>
       <use xlink:href="#m88c30dd297" x="361.268" y="231.505" style="stroke: #000000; stroke-width: 0.8"/>
      </g>
     </g>
     <g id="text_34">
      <!-- G34 -->
      <g transform="translate(364.027375 260.628437)rotate(-90)scale(0.1 -0.1)">
       <use xlink:href="#DejaVuSans-Bold-47"/>
       <use xlink:href="#DejaVuSans-Bold-33" x="82.080078"/>
       <use xlink:href="#DejaVuSans-Bold-34" x="151.660156"/>
      </g>
     </g>
    </g>
    <g id="xtick_35">
     <g id="line2d_35">
      <g>
       <use xlink:href="#m88c30dd297" x="370.537636" y="231.505" style="stroke: #000000; stroke-width: 0.8"/>
      </g>
     </g>
     <g id="text_35">
      <!-- V35 -->
      <g transform="translate(373.297011 260.159687)rotate(-90)scale(0.1 -0.1)">
       <defs>
        <path id="DejaVuSans-Bold-56" d="M 31 4666 
L 1241 4666 
L 2478 1222 
L 3713 4666 
L 4922 4666 
L 3194 0 
L 1759 0 
L 31 4666 
z
" transform="scale(0.015625)"/>
       </defs>
       <use xlink:href="#DejaVuSans-Bold-56"/>
       <use xlink:href="#DejaVuSans-Bold-33" x="77.392578"/>
       <use xlink:href="#DejaVuSans-Bold-35" x="146.972656"/>
      </g>
     </g>
    </g>
    <g id="xtick_36">
     <g id="line2d_36">
      <g>
       <use xlink:href="#m88c30dd297" x="379.807273" y="231.505" style="stroke: #000000; stroke-width: 0.8"/>
      </g>
     </g>
     <g id="text_36">
      <!-- K36 -->
      <g transform="translate(382.566648 260.169062)rotate(-90)scale(0.1 -0.1)">
       <use xlink:href="#DejaVuSans-Bold-4b"/>
       <use xlink:href="#DejaVuSans-Bold-33" x="77.490234"/>
       <use xlink:href="#DejaVuSans-Bold-36" x="147.070312"/>
      </g>
     </g>
    </g>
    <g id="xtick_37">
     <g id="line2d_37">
      <g>
       <use xlink:href="#m88c30dd297" x="389.076909" y="231.505" style="stroke: #000000; stroke-width: 0.8"/>
      </g>
     </g>
     <g id="text_37">
      <!-- K37 -->
      <g transform="translate(391.836284 260.169062)rotate(-90)scale(0.1 -0.1)">
       <use xlink:href="#DejaVuSans-Bold-4b"/>
       <use xlink:href="#DejaVuSans-Bold-33" x="77.490234"/>
       <use xlink:href="#DejaVuSans-Bold-37" x="147.070312"/>
      </g>
     </g>
    </g>
    <g id="xtick_38">
     <g id="line2d_38">
      <g>
       <use xlink:href="#m88c30dd297" x="398.346545" y="231.505" style="stroke: #000000; stroke-width: 0.8"/>
      </g>
     </g>
     <g id="text_38">
      <!-- P38 -->
      <g transform="translate(401.10592 259.750313)rotate(-90)scale(0.1 -0.1)">
       <use xlink:href="#DejaVuSans-Bold-50"/>
       <use xlink:href="#DejaVuSans-Bold-33" x="73.291016"/>
       <use xlink:href="#DejaVuSans-Bold-38" x="142.871094"/>
      </g>
     </g>
    </g>
    <g id="xtick_39">
     <g id="line2d_39">
      <g>
       <use xlink:href="#m88c30dd297" x="407.616182" y="231.505" style="stroke: #000000; stroke-width: 0.8"/>
      </g>
     </g>
     <g id="text_39">
      <!-- H39 -->
      <g transform="translate(410.375557 260.789375)rotate(-90)scale(0.1 -0.1)">
       <defs>
        <path id="DejaVuSans-Bold-48" d="M 588 4666 
L 1791 4666 
L 1791 2888 
L 3566 2888 
L 3566 4666 
L 4769 4666 
L 4769 0 
L 3566 0 
L 3566 1978 
L 1791 1978 
L 1791 0 
L 588 0 
L 588 4666 
z
" transform="scale(0.015625)"/>
       </defs>
       <use xlink:href="#DejaVuSans-Bold-48"/>
       <use xlink:href="#DejaVuSans-Bold-33" x="83.691406"/>
       <use xlink:href="#DejaVuSans-Bold-39" x="153.271484"/>
      </g>
     </g>
    </g>
    <g id="xtick_40">
     <g id="line2d_40">
      <g>
       <use xlink:href="#m88c30dd297" x="416.885818" y="231.505" style="stroke: #000000; stroke-width: 0.8"/>
      </g>
     </g>
     <g id="text_40">
      <!-- R40 -->
      <g transform="translate(419.645193 260.120625)rotate(-90)scale(0.1 -0.1)">
       <use xlink:href="#DejaVuSans-Bold-52"/>
       <use xlink:href="#DejaVuSans-Bold-34" x="77.001953"/>
       <use xlink:href="#DejaVuSans-Bold-30" x="146.582031"/>
      </g>
     </g>
    </g>
    <g id="xtick_41">
     <g id="line2d_41">
      <g>
       <use xlink:href="#m88c30dd297" x="426.155455" y="231.505" style="stroke: #000000; stroke-width: 0.8"/>
      </g>
     </g>
     <g id="text_41">
      <!-- Y41 -->
      <g transform="translate(428.91483 259.66125)rotate(-90)scale(0.1 -0.1)">
       <defs>
        <path id="DejaVuSans-Bold-59" d="M -63 4666 
L 1253 4666 
L 2316 3003 
L 3378 4666 
L 4697 4666 
L 2919 1966 
L 2919 0 
L 1716 0 
L 1716 1966 
L -63 4666 
z
" transform="scale(0.015625)"/>
       </defs>
       <use xlink:href="#DejaVuSans-Bold-59"/>
       <use xlink:href="#DejaVuSans-Bold-34" x="72.412109"/>
       <use xlink:href="#DejaVuSans-Bold-31" x="141.992188"/>
      </g>
     </g>
    </g>
    <g id="xtick_42">
     <g id="line2d_42">
      <g>
       <use xlink:href="#m88c30dd297" x="435.425091" y="231.505" style="stroke: #000000; stroke-width: 0.8"/>
      </g>
     </g>
     <g id="text_42">
      <!-- R42 -->
      <g transform="translate(438.184466 260.120625)rotate(-90)scale(0.1 -0.1)">
       <use xlink:href="#DejaVuSans-Bold-52"/>
       <use xlink:href="#DejaVuSans-Bold-34" x="77.001953"/>
       <use xlink:href="#DejaVuSans-Bold-32" x="146.582031"/>
      </g>
     </g>
    </g>
    <g id="xtick_43">
     <g id="line2d_43">
      <g>
       <use xlink:href="#m88c30dd297" x="444.694727" y="231.505" style="stroke: #000000; stroke-width: 0.8"/>
      </g>
     </g>
     <g id="text_43">
      <!-- P43 -->
      <g transform="translate(447.454102 259.750313)rotate(-90)scale(0.1 -0.1)">
       <use xlink:href="#DejaVuSans-Bold-50"/>
       <use xlink:href="#DejaVuSans-Bold-34" x="73.291016"/>
       <use xlink:href="#DejaVuSans-Bold-33" x="142.871094"/>
      </g>
     </g>
    </g>
    <g id="xtick_44">
     <g id="line2d_44">
      <g>
       <use xlink:href="#m88c30dd297" x="453.964364" y="231.505" style="stroke: #000000; stroke-width: 0.8"/>
      </g>
     </g>
     <g id="text_44">
      <!-- G44 -->
      <g transform="translate(456.723739 260.628437)rotate(-90)scale(0.1 -0.1)">
       <use xlink:href="#DejaVuSans-Bold-47"/>
       <use xlink:href="#DejaVuSans-Bold-34" x="82.080078"/>
       <use xlink:href="#DejaVuSans-Bold-34" x="151.660156"/>
      </g>
     </g>
    </g>
    <g id="xtick_45">
     <g id="line2d_45">
      <g>
       <use xlink:href="#m88c30dd297" x="463.234" y="231.505" style="stroke: #000000; stroke-width: 0.8"/>
      </g>
     </g>
     <g id="text_45">
      <!-- T45 -->
      <g transform="translate(465.993375 259.2425)rotate(-90)scale(0.1 -0.1)">
       <use xlink:href="#DejaVuSans-Bold-54"/>
       <use xlink:href="#DejaVuSans-Bold-34" x="68.212891"/>
       <use xlink:href="#DejaVuSans-Bold-35" x="137.792969"/>
      </g>
     </g>
    </g>
    <g id="xtick_46">
     <g id="line2d_46">
      <g>
       <use xlink:href="#m88c30dd297" x="472.503636" y="231.505" style="stroke: #000000; stroke-width: 0.8"/>
      </g>
     </g>
     <g id="text_46">
      <!-- V46 -->
      <g transform="translate(475.263011 260.159687)rotate(-90)scale(0.1 -0.1)">
       <use xlink:href="#DejaVuSans-Bold-56"/>
       <use xlink:href="#DejaVuSans-Bold-34" x="77.392578"/>
       <use xlink:href="#DejaVuSans-Bold-36" x="146.972656"/>
      </g>
     </g>
    </g>
    <g id="xtick_47">
     <g id="line2d_47">
      <g>
       <use xlink:href="#m88c30dd297" x="481.773273" y="231.505" style="stroke: #000000; stroke-width: 0.8"/>
      </g>
     </g>
     <g id="text_47">
      <!-- A47 -->
      <g transform="translate(484.532648 260.159687)rotate(-90)scale(0.1 -0.1)">
       <use xlink:href="#DejaVuSans-Bold-41"/>
       <use xlink:href="#DejaVuSans-Bold-34" x="77.392578"/>
       <use xlink:href="#DejaVuSans-Bold-37" x="146.972656"/>
      </g>
     </g>
    </g>
    <g id="xtick_48">
     <g id="line2d_48">
      <g>
       <use xlink:href="#m88c30dd297" x="491.042909" y="231.505" style="stroke: #000000; stroke-width: 0.8"/>
      </g>
     </g>
     <g id="text_48">
      <!-- L48 -->
      <g transform="translate(493.802284 258.7925)rotate(-90)scale(0.1 -0.1)">
       <use xlink:href="#DejaVuSans-Bold-4c"/>
       <use xlink:href="#DejaVuSans-Bold-34" x="63.720703"/>
       <use xlink:href="#DejaVuSans-Bold-38" x="133.300781"/>
      </g>
     </g>
    </g>
    <g id="xtick_49">
     <g id="line2d_49">
      <g>
       <use xlink:href="#m88c30dd297" x="500.312545" y="231.505" style="stroke: #000000; stroke-width: 0.8"/>
      </g>
     </g>
     <g id="text_49">
      <!-- R49 -->
      <g transform="translate(503.07192 260.120625)rotate(-90)scale(0.1 -0.1)">
       <use xlink:href="#DejaVuSans-Bold-52"/>
       <use xlink:href="#DejaVuSans-Bold-34" x="77.001953"/>
       <use xlink:href="#DejaVuSans-Bold-39" x="146.582031"/>
      </g>
     </g>
    </g>
    <g id="xtick_50">
     <g id="line2d_50">
      <g>
       <use xlink:href="#m88c30dd297" x="509.582182" y="231.505" style="stroke: #000000; stroke-width: 0.8"/>
      </g>
     </g>
     <g id="text_50">
      <!-- E50 -->
      <g transform="translate(512.341557 259.251875)rotate(-90)scale(0.1 -0.1)">
       <defs>
        <path id="DejaVuSans-Bold-45" d="M 588 4666 
L 3834 4666 
L 3834 3756 
L 1791 3756 
L 1791 2888 
L 3713 2888 
L 3713 1978 
L 1791 1978 
L 1791 909 
L 3903 909 
L 3903 0 
L 588 0 
L 588 4666 
z
" transform="scale(0.015625)"/>
       </defs>
       <use xlink:href="#DejaVuSans-Bold-45"/>
       <use xlink:href="#DejaVuSans-Bold-35" x="68.310547"/>
       <use xlink:href="#DejaVuSans-Bold-30" x="137.890625"/>
      </g>
     </g>
    </g>
    <g id="xtick_51">
     <g id="line2d_51">
      <g>
       <use xlink:href="#m88c30dd297" x="518.851818" y="231.505" style="stroke: #000000; stroke-width: 0.8"/>
      </g>
     </g>
     <g id="text_51">
      <!-- I51 -->
      <g transform="translate(521.611193 256.140938)rotate(-90)scale(0.1 -0.1)">
       <defs>
        <path id="DejaVuSans-Bold-49" d="M 588 4666 
L 1791 4666 
L 1791 0 
L 588 0 
L 588 4666 
z
" transform="scale(0.015625)"/>
       </defs>
       <use xlink:href="#DejaVuSans-Bold-49"/>
       <use xlink:href="#DejaVuSans-Bold-35" x="37.207031"/>
       <use xlink:href="#DejaVuSans-Bold-31" x="106.787109"/>
      </g>
     </g>
    </g>
    <g id="xtick_52">
     <g id="line2d_52">
      <g>
       <use xlink:href="#m88c30dd297" x="528.121455" y="231.505" style="stroke: #000000; stroke-width: 0.8"/>
      </g>
     </g>
     <g id="text_52">
      <!-- R52 -->
      <g transform="translate(530.88083 260.120625)rotate(-90)scale(0.1 -0.1)">
       <use xlink:href="#DejaVuSans-Bold-52"/>
       <use xlink:href="#DejaVuSans-Bold-35" x="77.001953"/>
       <use xlink:href="#DejaVuSans-Bold-32" x="146.582031"/>
      </g>
     </g>
    </g>
    <g id="xtick_53">
     <g id="line2d_53">
      <g>
       <use xlink:href="#m88c30dd297" x="537.391091" y="231.505" style="stroke: #000000; stroke-width: 0.8"/>
      </g>
     </g>
     <g id="text_53">
      <!-- R53 -->
      <g transform="translate(540.150466 260.120625)rotate(-90)scale(0.1 -0.1)">
       <use xlink:href="#DejaVuSans-Bold-52"/>
       <use xlink:href="#DejaVuSans-Bold-35" x="77.001953"/>
       <use xlink:href="#DejaVuSans-Bold-33" x="146.582031"/>
      </g>
     </g>
    </g>
    <g id="xtick_54">
     <g id="line2d_54">
      <g>
       <use xlink:href="#m88c30dd297" x="546.660727" y="231.505" style="stroke: #000000; stroke-width: 0.8"/>
      </g>
     </g>
     <g id="text_54">
      <!-- Y54 -->
      <g transform="translate(549.420102 259.66125)rotate(-90)scale(0.1 -0.1)">
       <use xlink:href="#DejaVuSans-Bold-59"/>
       <use xlink:href="#DejaVuSans-Bold-35" x="72.412109"/>
       <use xlink:href="#DejaVuSans-Bold-34" x="141.992188"/>
      </g>
     </g>
    </g>
    <g id="xtick_55">
     <g id="line2d_55">
      <g>
       <use xlink:href="#m88c30dd297" x="555.930364" y="231.505" style="stroke: #000000; stroke-width: 0.8"/>
      </g>
     </g>
     <g id="text_55">
      <!-- Q55 -->
      <g transform="translate(558.689739 260.922188)rotate(-90)scale(0.1 -0.1)">
       <use xlink:href="#DejaVuSans-Bold-51"/>
       <use xlink:href="#DejaVuSans-Bold-35" x="85.009766"/>
       <use xlink:href="#DejaVuSans-Bold-35" x="154.589844"/>
      </g>
     </g>
    </g>
    <g id="text_56">
     <!-- Residue -->
     <g transform="translate(281.085781 274.800156)scale(0.13 -0.13)">
      <defs>
       <path id="DejaVuSans-Bold-65" d="M 4031 1759 
L 4031 1441 
L 1416 1441 
Q 1456 1047 1700 850 
Q 1944 653 2381 653 
Q 2734 653 3104 758 
Q 3475 863 3866 1075 
L 3866 213 
Q 3469 63 3072 -14 
Q 2675 -91 2278 -91 
Q 1328 -91 801 392 
Q 275 875 275 1747 
Q 275 2603 792 3093 
Q 1309 3584 2216 3584 
Q 3041 3584 3536 3087 
Q 4031 2591 4031 1759 
z
M 2881 2131 
Q 2881 2450 2695 2645 
Q 2509 2841 2209 2841 
Q 1884 2841 1681 2658 
Q 1478 2475 1428 2131 
L 2881 2131 
z
" transform="scale(0.015625)"/>
       <path id="DejaVuSans-Bold-73" d="M 3272 3391 
L 3272 2541 
Q 2913 2691 2578 2766 
Q 2244 2841 1947 2841 
Q 1628 2841 1473 2761 
Q 1319 2681 1319 2516 
Q 1319 2381 1436 2309 
Q 1553 2238 1856 2203 
L 2053 2175 
Q 2913 2066 3209 1816 
Q 3506 1566 3506 1031 
Q 3506 472 3093 190 
Q 2681 -91 1863 -91 
Q 1516 -91 1145 -36 
Q 775 19 384 128 
L 384 978 
Q 719 816 1070 734 
Q 1422 653 1784 653 
Q 2113 653 2278 743 
Q 2444 834 2444 1013 
Q 2444 1163 2330 1236 
Q 2216 1309 1875 1350 
L 1678 1375 
Q 931 1469 631 1722 
Q 331 1975 331 2491 
Q 331 3047 712 3315 
Q 1094 3584 1881 3584 
Q 2191 3584 2531 3537 
Q 2872 3491 3272 3391 
z
" transform="scale(0.015625)"/>
       <path id="DejaVuSans-Bold-69" d="M 538 3500 
L 1656 3500 
L 1656 0 
L 538 0 
L 538 3500 
z
M 538 4863 
L 1656 4863 
L 1656 3950 
L 538 3950 
L 538 4863 
z
" transform="scale(0.015625)"/>
       <path id="DejaVuSans-Bold-64" d="M 2919 2988 
L 2919 4863 
L 4044 4863 
L 4044 0 
L 2919 0 
L 2919 506 
Q 2688 197 2409 53 
Q 2131 -91 1766 -91 
Q 1119 -91 703 423 
Q 288 938 288 1747 
Q 288 2556 703 3070 
Q 1119 3584 1766 3584 
Q 2128 3584 2408 3439 
Q 2688 3294 2919 2988 
z
M 2181 722 
Q 2541 722 2730 984 
Q 2919 1247 2919 1747 
Q 2919 2247 2730 2509 
Q 2541 2772 2181 2772 
Q 1825 2772 1636 2509 
Q 1447 2247 1447 1747 
Q 1447 1247 1636 984 
Q 1825 722 2181 722 
z
" transform="scale(0.015625)"/>
       <path id="DejaVuSans-Bold-75" d="M 500 1363 
L 500 3500 
L 1625 3500 
L 1625 3150 
Q 1625 2866 1622 2436 
Q 1619 2006 1619 1863 
Q 1619 1441 1641 1255 
Q 1663 1069 1716 984 
Q 1784 875 1895 815 
Q 2006 756 2150 756 
Q 2500 756 2700 1025 
Q 2900 1294 2900 1772 
L 2900 3500 
L 4019 3500 
L 4019 0 
L 2900 0 
L 2900 506 
Q 2647 200 2364 54 
Q 2081 -91 1741 -91 
Q 1134 -91 817 281 
Q 500 653 500 1363 
z
" transform="scale(0.015625)"/>
      </defs>
      <use xlink:href="#DejaVuSans-Bold-52"/>
      <use xlink:href="#DejaVuSans-Bold-65" x="77.001953"/>
      <use xlink:href="#DejaVuSans-Bold-73" x="144.824219"/>
      <use xlink:href="#DejaVuSans-Bold-69" x="204.345703"/>
      <use xlink:href="#DejaVuSans-Bold-64" x="238.623047"/>
      <use xlink:href="#DejaVuSans-Bold-75" x="310.205078"/>
      <use xlink:href="#DejaVuSans-Bold-65" x="381.396484"/>
     </g>
    </g>
   </g>
   <g id="matplotlib.axis_2">
    <g id="ytick_1">
     <g id="line2d_56">
      <defs>
       <path id="ma89d18d027" d="M 0 0 
L -3.5 0 
" style="stroke: #000000; stroke-width: 0.8"/>
      </defs>
      <g>
       <use xlink:href="#ma89d18d027" x="55.37" y="218.808235" style="stroke: #000000; stroke-width: 0.8"/>
      </g>
     </g>
     <g id="text_57">
      <!-- 0 -->
      <g transform="translate(39.324844 223.74722)scale(0.13 -0.13)">
       <use xlink:href="#DejaVuSans-Bold-30"/>
      </g>
     </g>
    </g>
    <g id="ytick_2">
     <g id="line2d_57">
      <g>
       <use xlink:href="#ma89d18d027" x="55.37" y="206.111471" style="stroke: #000000; stroke-width: 0.8"/>
      </g>
     </g>
     <g id="text_58">
      <!-- 1 -->
      <g transform="translate(39.324844 211.050455)scale(0.13 -0.13)">
       <use xlink:href="#DejaVuSans-Bold-31"/>
      </g>
     </g>
    </g>
    <g id="ytick_3">
     <g id="line2d_58">
      <g>
       <use xlink:href="#ma89d18d027" x="55.37" y="193.414706" style="stroke: #000000; stroke-width: 0.8"/>
      </g>
     </g>
     <g id="text_59">
      <!-- 2 -->
      <g transform="translate(39.324844 198.35369)scale(0.13 -0.13)">
       <use xlink:href="#DejaVuSans-Bold-32"/>
      </g>
     </g>
    </g>
    <g id="ytick_4">
     <g id="line2d_59">
      <g>
       <use xlink:href="#ma89d18d027" x="55.37" y="180.717941" style="stroke: #000000; stroke-width: 0.8"/>
      </g>
     </g>
     <g id="text_60">
      <!-- 3 -->
      <g transform="translate(39.324844 185.656926)scale(0.13 -0.13)">
       <use xlink:href="#DejaVuSans-Bold-33"/>
      </g>
     </g>
    </g>
    <g id="ytick_5">
     <g id="line2d_60">
      <g>
       <use xlink:href="#ma89d18d027" x="55.37" y="168.021176" style="stroke: #000000; stroke-width: 0.8"/>
      </g>
     </g>
     <g id="text_61">
      <!-- 4 -->
      <g transform="translate(39.324844 172.960161)scale(0.13 -0.13)">
       <use xlink:href="#DejaVuSans-Bold-34"/>
      </g>
     </g>
    </g>
    <g id="ytick_6">
     <g id="line2d_61">
      <g>
       <use xlink:href="#ma89d18d027" x="55.37" y="155.324412" style="stroke: #000000; stroke-width: 0.8"/>
      </g>
     </g>
     <g id="text_62">
      <!-- 5 -->
      <g transform="translate(39.324844 160.263396)scale(0.13 -0.13)">
       <use xlink:href="#DejaVuSans-Bold-35"/>
      </g>
     </g>
    </g>
    <g id="ytick_7">
     <g id="line2d_62">
      <g>
       <use xlink:href="#ma89d18d027" x="55.37" y="142.627647" style="stroke: #000000; stroke-width: 0.8"/>
      </g>
     </g>
     <g id="text_63">
      <!-- 6 -->
      <g transform="translate(39.324844 147.566631)scale(0.13 -0.13)">
       <use xlink:href="#DejaVuSans-Bold-36"/>
      </g>
     </g>
    </g>
    <g id="ytick_8">
     <g id="line2d_63">
      <g>
       <use xlink:href="#ma89d18d027" x="55.37" y="129.930882" style="stroke: #000000; stroke-width: 0.8"/>
      </g>
     </g>
     <g id="text_64">
      <!-- 7 -->
      <g transform="translate(39.324844 134.869867)scale(0.13 -0.13)">
       <use xlink:href="#DejaVuSans-Bold-37"/>
      </g>
     </g>
    </g>
    <g id="ytick_9">
     <g id="line2d_64">
      <g>
       <use xlink:href="#ma89d18d027" x="55.37" y="117.234118" style="stroke: #000000; stroke-width: 0.8"/>
      </g>
     </g>
     <g id="text_65">
      <!-- 8 -->
      <g transform="translate(39.324844 122.173102)scale(0.13 -0.13)">
       <use xlink:href="#DejaVuSans-Bold-38"/>
      </g>
     </g>
    </g>
    <g id="ytick_10">
     <g id="line2d_65">
      <g>
       <use xlink:href="#ma89d18d027" x="55.37" y="104.537353" style="stroke: #000000; stroke-width: 0.8"/>
      </g>
     </g>
     <g id="text_66">
      <!-- 9 -->
      <g transform="translate(39.324844 109.476337)scale(0.13 -0.13)">
       <use xlink:href="#DejaVuSans-Bold-39"/>
      </g>
     </g>
    </g>
    <g id="ytick_11">
     <g id="line2d_66">
      <g>
       <use xlink:href="#ma89d18d027" x="55.37" y="91.840588" style="stroke: #000000; stroke-width: 0.8"/>
      </g>
     </g>
     <g id="text_67">
      <!-- 10 -->
      <g transform="translate(30.279688 96.779573)scale(0.13 -0.13)">
       <use xlink:href="#DejaVuSans-Bold-31"/>
       <use xlink:href="#DejaVuSans-Bold-30" x="69.580078"/>
      </g>
     </g>
    </g>
    <g id="ytick_12">
     <g id="line2d_67">
      <g>
       <use xlink:href="#ma89d18d027" x="55.37" y="79.143824" style="stroke: #000000; stroke-width: 0.8"/>
      </g>
     </g>
     <g id="text_68">
      <!-- 11 -->
      <g transform="translate(30.279688 84.082808)scale(0.13 -0.13)">
       <use xlink:href="#DejaVuSans-Bold-31"/>
       <use xlink:href="#DejaVuSans-Bold-31" x="69.580078"/>
      </g>
     </g>
    </g>
    <g id="ytick_13">
     <g id="line2d_68">
      <g>
       <use xlink:href="#ma89d18d027" x="55.37" y="66.447059" style="stroke: #000000; stroke-width: 0.8"/>
      </g>
     </g>
     <g id="text_69">
      <!-- 12 -->
      <g transform="translate(30.279688 71.386043)scale(0.13 -0.13)">
       <use xlink:href="#DejaVuSans-Bold-31"/>
       <use xlink:href="#DejaVuSans-Bold-32" x="69.580078"/>
      </g>
     </g>
    </g>
    <g id="ytick_14">
     <g id="line2d_69">
      <g>
       <use xlink:href="#ma89d18d027" x="55.37" y="53.750294" style="stroke: #000000; stroke-width: 0.8"/>
      </g>
     </g>
     <g id="text_70">
      <!-- 13 -->
      <g transform="translate(30.279688 58.689278)scale(0.13 -0.13)">
       <use xlink:href="#DejaVuSans-Bold-31"/>
       <use xlink:href="#DejaVuSans-Bold-33" x="69.580078"/>
      </g>
     </g>
    </g>
    <g id="ytick_15">
     <g id="line2d_70">
      <g>
       <use xlink:href="#ma89d18d027" x="55.37" y="41.053529" style="stroke: #000000; stroke-width: 0.8"/>
      </g>
     </g>
     <g id="text_71">
      <!-- 14 -->
      <g transform="translate(30.279688 45.992514)scale(0.13 -0.13)">
       <use xlink:href="#DejaVuSans-Bold-31"/>
       <use xlink:href="#DejaVuSans-Bold-34" x="69.580078"/>
      </g>
     </g>
    </g>
    <g id="ytick_16">
     <g id="line2d_71">
      <g>
       <use xlink:href="#ma89d18d027" x="55.37" y="28.356765" style="stroke: #000000; stroke-width: 0.8"/>
      </g>
     </g>
     <g id="text_72">
      <!-- 15 -->
      <g transform="translate(30.279688 33.295749)scale(0.13 -0.13)">
       <use xlink:href="#DejaVuSans-Bold-31"/>
       <use xlink:href="#DejaVuSans-Bold-35" x="69.580078"/>
      </g>
     </g>
    </g>
    <g id="ytick_17">
     <g id="line2d_72">
      <g>
       <use xlink:href="#ma89d18d027" x="55.37" y="15.66" style="stroke: #000000; stroke-width: 0.8"/>
      </g>
     </g>
     <g id="text_73">
      <!-- 16 -->
      <g transform="translate(30.279688 20.598984)scale(0.13 -0.13)">
       <use xlink:href="#DejaVuSans-Bold-31"/>
       <use xlink:href="#DejaVuSans-Bold-36" x="69.580078"/>
      </g>
     </g>
    </g>
    <g id="text_74">
     <!-- RMSF ($\mathrm{\AA}$) -->
     <g transform="translate(23.576094 156.8625)rotate(-90)scale(0.13 -0.13)">
      <defs>
       <path id="DejaVuSans-Bold-4d" d="M 588 4666 
L 2119 4666 
L 3181 2169 
L 4250 4666 
L 5778 4666 
L 5778 0 
L 4641 0 
L 4641 3413 
L 3566 897 
L 2803 897 
L 1728 3413 
L 1728 0 
L 588 0 
L 588 4666 
z
" transform="scale(0.015625)"/>
       <path id="DejaVuSans-Bold-46" d="M 588 4666 
L 3834 4666 
L 3834 3756 
L 1791 3756 
L 1791 2888 
L 3713 2888 
L 3713 1978 
L 1791 1978 
L 1791 0 
L 588 0 
L 588 4666 
z
" transform="scale(0.015625)"/>
       <path id="DejaVuSans-Bold-20" transform="scale(0.015625)"/>
       <path id="DejaVuSans-Bold-28" d="M 2413 -844 
L 1484 -844 
Q 1006 -72 778 623 
Q 550 1319 550 2003 
Q 550 2688 779 3389 
Q 1009 4091 1484 4856 
L 2413 4856 
Q 2013 4116 1813 3408 
Q 1613 2700 1613 2009 
Q 1613 1319 1811 609 
Q 2009 -100 2413 -844 
z
" transform="scale(0.015625)"/>
       <path id="DejaVuSans-c5" d="M 2663 5081 
Q 2663 5278 2523 5417 
Q 2384 5556 2188 5556 
Q 1988 5556 1852 5420 
Q 1716 5284 1716 5081 
Q 1716 4884 1853 4746 
Q 1991 4609 2188 4609 
Q 2384 4609 2523 4746 
Q 2663 4884 2663 5081 
z
M 2188 4044 
L 1338 1722 
L 3041 1722 
L 2188 4044 
z
M 1716 4366 
Q 1525 4494 1428 4673 
Q 1331 4853 1331 5081 
Q 1331 5441 1579 5691 
Q 1828 5941 2188 5941 
Q 2544 5941 2795 5689 
Q 3047 5438 3047 5081 
Q 3047 4863 2948 4678 
Q 2850 4494 2663 4366 
L 4325 0 
L 3669 0 
L 3244 1197 
L 1141 1197 
L 716 0 
L 50 0 
L 1716 4366 
z
" transform="scale(0.015625)"/>
       <path id="DejaVuSans-Bold-29" d="M 513 -844 
Q 913 -100 1113 609 
Q 1313 1319 1313 2009 
Q 1313 2700 1113 3408 
Q 913 4116 513 4856 
L 1441 4856 
Q 1916 4091 2145 3389 
Q 2375 2688 2375 2003 
Q 2375 1319 2147 623 
Q 1919 -72 1441 -844 
L 513 -844 
z
" transform="scale(0.015625)"/>
      </defs>
      <use xlink:href="#DejaVuSans-Bold-52" transform="translate(0 0.171875)"/>
      <use xlink:href="#DejaVuSans-Bold-4d" transform="translate(77.001953 0.171875)"/>
      <use xlink:href="#DejaVuSans-Bold-53" transform="translate(176.513672 0.171875)"/>
      <use xlink:href="#DejaVuSans-Bold-46" transform="translate(248.535156 0.171875)"/>
      <use xlink:href="#DejaVuSans-Bold-20" transform="translate(316.845703 0.171875)"/>
      <use xlink:href="#DejaVuSans-Bold-28" transform="translate(351.660156 0.171875)"/>
      <use xlink:href="#DejaVuSans-c5" transform="translate(397.363281 0.171875)"/>
      <use xlink:href="#DejaVuSans-Bold-29" transform="translate(465.771484 0.171875)"/>
     </g>
    </g>
   </g>
   <g id="line2d_73">
    <path d="M 55.37 115.103601 
L 64.639636 115.276277 
L 73.909273 126.685589 
L 83.178909 124.304946 
L 92.448545 124.242732 
L 101.718182 132.601012 
L 110.987818 137.684797 
L 120.257455 137.664482 
L 129.527091 140.937708 
L 138.796727 141.778233 
L 148.066364 138.027609 
L 157.336 140.073058 
L 166.605636 136.996632 
L 175.875273 125.676196 
L 185.144909 142.22516 
L 194.414545 145.220326 
L 203.684182 144.204585 
L 212.953818 146.491273 
L 222.223455 150.905938 
L 231.493091 159.469905 
L 240.762727 156.387131 
L 250.032364 155.285052 
L 259.302 149.318842 
L 268.571636 159.633694 
L 277.841273 156.399828 
L 287.110909 160.149182 
L 296.380545 150.784049 
L 305.650182 160.345982 
L 314.919818 164.014078 
L 324.189455 165.490711 
L 333.459091 165.060291 
L 342.728727 160.695143 
L 351.998364 163.163394 
L 361.268 171.802273 
L 370.537636 176.454368 
L 379.807273 185.245607 
L 389.076909 189.714869 
L 398.346545 198.196307 
L 407.616182 204.708478 
L 416.885818 205.72041 
L 426.155455 209.49008 
L 435.425091 203.734636 
L 444.694727 210.791498 
L 453.964364 212.165288 
L 463.234 211.583776 
L 472.503636 212.289716 
L 481.773273 213.60891 
L 491.042909 212.814093 
L 500.312545 203.960639 
L 509.582182 210.776262 
L 518.851818 215.340749 
L 528.121455 206.136864 
L 537.391091 206.643465 
L 546.660727 214.620842 
L 555.930364 215.73054 
L 565.2 211.159704 
L 574.469636 214.114241 
L 577 214.251144 
L 577 214.251144 
" clip-path="url(#pe35f897c0f)" style="fill: none; stroke: #ffa500; stroke-width: 1.5; stroke-linecap: square"/>
   </g>
   <g id="line2d_74">
    <path d="M 55.37 128.412349 
L 64.639636 142.197227 
L 73.909273 146.89249 
L 83.178909 137.575604 
L 92.448545 135.653314 
L 101.718182 140.531411 
L 110.987818 141.402409 
L 120.257455 140.309218 
L 129.527091 137.918417 
L 138.796727 142.015663 
L 148.066364 136.539548 
L 157.336 140.033698 
L 166.605636 137.352141 
L 175.875273 124.114494 
L 185.144909 139.256656 
L 194.414545 137.338175 
L 203.684182 130.453989 
L 212.953818 129.447136 
L 222.223455 132.345807 
L 231.493091 135.799327 
L 240.762727 139.979102 
L 250.032364 142.461319 
L 259.302 128.351405 
L 268.571636 141.394791 
L 277.841273 144.467408 
L 287.110909 136.464637 
L 296.380545 128.17238 
L 305.650182 134.309996 
L 314.919818 144.522004 
L 324.189455 143.784322 
L 333.459091 143.747502 
L 342.728727 142.675895 
L 351.998364 151.741385 
L 361.268 159.053452 
L 370.537636 167.131133 
L 379.807273 180.857606 
L 389.076909 192.412931 
L 398.346545 202.407824 
L 407.616182 208.403237 
L 416.885818 210.597238 
L 426.155455 214.025364 
L 435.425091 210.065243 
L 444.694727 215.693719 
L 453.964364 216.55329 
L 463.234 216.00225 
L 472.503636 217.522053 
L 481.773273 218.602548 
L 491.042909 216.084779 
L 500.312545 211.112726 
L 509.582182 215.096971 
L 518.851818 220.038552 
L 528.121455 210.386471 
L 537.391091 209.622126 
L 546.660727 219.444343 
L 555.930364 219.586547 
L 565.2 215.049993 
L 574.469636 218.389242 
L 577 218.591303 
L 577 218.591303 
" clip-path="url(#pe35f897c0f)" style="fill: none; stroke: #000000; stroke-width: 1.5; stroke-linecap: square"/>
   </g>
   <g id="line2d_75">
    <path d="M 389.076909 231.505 
L 389.076909 15.66 
" clip-path="url(#pe35f897c0f)" style="fill: none; stroke-dasharray: 5.55,2.4; stroke-dashoffset: 0; stroke: #000000; stroke-width: 1.5"/>
   </g>
   <g id="patch_3">
    <path d="M 55.37 231.505 
L 55.37 15.66 
" style="fill: none; stroke: #000000; stroke-width: 0.8; stroke-linejoin: miter; stroke-linecap: square"/>
   </g>
   <g id="patch_4">
    <path d="M 565.2 231.505 
L 565.2 15.66 
" style="fill: none; stroke: #000000; stroke-width: 0.8; stroke-linejoin: miter; stroke-linecap: square"/>
   </g>
   <g id="patch_5">
    <path d="M 55.37 231.505 
L 565.2 231.505 
" style="fill: none; stroke: #000000; stroke-width: 0.8; stroke-linejoin: miter; stroke-linecap: square"/>
   </g>
   <g id="patch_6">
    <path d="M 55.37 15.66 
L 565.2 15.66 
" style="fill: none; stroke: #000000; stroke-width: 0.8; stroke-linejoin: miter; stroke-linecap: square"/>
   </g>
   <g id="text_75">
    <g id="patch_7">
     <path d="M 352.031125 134.557187 
L 378.992219 134.557187 
L 378.992219 112.607812 
L 352.031125 112.607812 
L 352.031125 107.120469 
L 335.569094 123.5825 
L 352.031125 140.044531 
L 352.031125 134.557187 
z
" style="fill: #ffefd5; stroke: #000000; stroke-width: 2; stroke-linejoin: miter"/>
    </g>
    <!-- Tail  -->
    <g transform="translate(347.743781 127.445625)scale(0.14 -0.14)">
     <defs>
      <path id="DejaVuSans-54" d="M -19 4666 
L 3928 4666 
L 3928 4134 
L 2272 4134 
L 2272 0 
L 1638 0 
L 1638 4134 
L -19 4134 
L -19 4666 
z
" transform="scale(0.015625)"/>
      <path id="DejaVuSans-61" d="M 2194 1759 
Q 1497 1759 1228 1600 
Q 959 1441 959 1056 
Q 959 750 1161 570 
Q 1363 391 1709 391 
Q 2188 391 2477 730 
Q 2766 1069 2766 1631 
L 2766 1759 
L 2194 1759 
z
M 3341 1997 
L 3341 0 
L 2766 0 
L 2766 531 
Q 2569 213 2275 61 
Q 1981 -91 1556 -91 
Q 1019 -91 701 211 
Q 384 513 384 1019 
Q 384 1609 779 1909 
Q 1175 2209 1959 2209 
L 2766 2209 
L 2766 2266 
Q 2766 2663 2505 2880 
Q 2244 3097 1772 3097 
Q 1472 3097 1187 3025 
Q 903 2953 641 2809 
L 641 3341 
Q 956 3463 1253 3523 
Q 1550 3584 1831 3584 
Q 2591 3584 2966 3190 
Q 3341 2797 3341 1997 
z
" transform="scale(0.015625)"/>
      <path id="DejaVuSans-69" d="M 603 3500 
L 1178 3500 
L 1178 0 
L 603 0 
L 603 3500 
z
M 603 4863 
L 1178 4863 
L 1178 4134 
L 603 4134 
L 603 4863 
z
" transform="scale(0.015625)"/>
      <path id="DejaVuSans-6c" d="M 603 4863 
L 1178 4863 
L 1178 0 
L 603 0 
L 603 4863 
z
" transform="scale(0.015625)"/>
      <path id="DejaVuSans-20" transform="scale(0.015625)"/>
     </defs>
     <use xlink:href="#DejaVuSans-54"/>
     <use xlink:href="#DejaVuSans-61" x="44.583984"/>
     <use xlink:href="#DejaVuSans-69" x="105.863281"/>
     <use xlink:href="#DejaVuSans-6c" x="133.646484"/>
     <use xlink:href="#DejaVuSans-20" x="161.429688"/>
    </g>
   </g>
   <g id="text_76">
    <g id="patch_8">
     <path d="M 428.796912 134.557187 
L 396.487381 134.557187 
L 396.487381 112.607812 
L 428.796912 112.607812 
L 428.796912 107.120469 
L 445.258943 123.5825 
L 428.796912 140.044531 
L 428.796912 134.557187 
z
" style="fill: #ffefd5; stroke: #000000; stroke-width: 2; stroke-linejoin: miter"/>
    </g>
    <!-- Core -->
    <g transform="translate(400.687381 127.445625)scale(0.14 -0.14)">
     <defs>
      <path id="DejaVuSans-43" d="M 4122 4306 
L 4122 3641 
Q 3803 3938 3442 4084 
Q 3081 4231 2675 4231 
Q 1875 4231 1450 3742 
Q 1025 3253 1025 2328 
Q 1025 1406 1450 917 
Q 1875 428 2675 428 
Q 3081 428 3442 575 
Q 3803 722 4122 1019 
L 4122 359 
Q 3791 134 3420 21 
Q 3050 -91 2638 -91 
Q 1578 -91 968 557 
Q 359 1206 359 2328 
Q 359 3453 968 4101 
Q 1578 4750 2638 4750 
Q 3056 4750 3426 4639 
Q 3797 4528 4122 4306 
z
" transform="scale(0.015625)"/>
      <path id="DejaVuSans-6f" d="M 1959 3097 
Q 1497 3097 1228 2736 
Q 959 2375 959 1747 
Q 959 1119 1226 758 
Q 1494 397 1959 397 
Q 2419 397 2687 759 
Q 2956 1122 2956 1747 
Q 2956 2369 2687 2733 
Q 2419 3097 1959 3097 
z
M 1959 3584 
Q 2709 3584 3137 3096 
Q 3566 2609 3566 1747 
Q 3566 888 3137 398 
Q 2709 -91 1959 -91 
Q 1206 -91 779 398 
Q 353 888 353 1747 
Q 353 2609 779 3096 
Q 1206 3584 1959 3584 
z
" transform="scale(0.015625)"/>
      <path id="DejaVuSans-72" d="M 2631 2963 
Q 2534 3019 2420 3045 
Q 2306 3072 2169 3072 
Q 1681 3072 1420 2755 
Q 1159 2438 1159 1844 
L 1159 0 
L 581 0 
L 581 3500 
L 1159 3500 
L 1159 2956 
Q 1341 3275 1631 3429 
Q 1922 3584 2338 3584 
Q 2397 3584 2469 3576 
Q 2541 3569 2628 3553 
L 2631 2963 
z
" transform="scale(0.015625)"/>
      <path id="DejaVuSans-65" d="M 3597 1894 
L 3597 1613 
L 953 1613 
Q 991 1019 1311 708 
Q 1631 397 2203 397 
Q 2534 397 2845 478 
Q 3156 559 3463 722 
L 3463 178 
Q 3153 47 2828 -22 
Q 2503 -91 2169 -91 
Q 1331 -91 842 396 
Q 353 884 353 1716 
Q 353 2575 817 3079 
Q 1281 3584 2069 3584 
Q 2775 3584 3186 3129 
Q 3597 2675 3597 1894 
z
M 3022 2063 
Q 3016 2534 2758 2815 
Q 2500 3097 2075 3097 
Q 1594 3097 1305 2825 
Q 1016 2553 972 2059 
L 3022 2063 
z
" transform="scale(0.015625)"/>
     </defs>
     <use xlink:href="#DejaVuSans-43"/>
     <use xlink:href="#DejaVuSans-6f" x="69.824219"/>
     <use xlink:href="#DejaVuSans-72" x="131.005859"/>
     <use xlink:href="#DejaVuSans-65" x="169.869141"/>
    </g>
   </g>
   <g id="text_77">
    <!-- Nucleosome + PHD Finger (II) -->
    <g transform="translate(209.690312 9.66)scale(0.12 -0.12)">
     <defs>
      <path id="DejaVuSans-Bold-4e" d="M 588 4666 
L 1931 4666 
L 3628 1466 
L 3628 4666 
L 4769 4666 
L 4769 0 
L 3425 0 
L 1728 3200 
L 1728 0 
L 588 0 
L 588 4666 
z
" transform="scale(0.015625)"/>
      <path id="DejaVuSans-Bold-63" d="M 3366 3391 
L 3366 2478 
Q 3138 2634 2908 2709 
Q 2678 2784 2431 2784 
Q 1963 2784 1702 2511 
Q 1441 2238 1441 1747 
Q 1441 1256 1702 982 
Q 1963 709 2431 709 
Q 2694 709 2930 787 
Q 3166 866 3366 1019 
L 3366 103 
Q 3103 6 2833 -42 
Q 2563 -91 2291 -91 
Q 1344 -91 809 395 
Q 275 881 275 1747 
Q 275 2613 809 3098 
Q 1344 3584 2291 3584 
Q 2566 3584 2833 3536 
Q 3100 3488 3366 3391 
z
" transform="scale(0.015625)"/>
      <path id="DejaVuSans-Bold-6c" d="M 538 4863 
L 1656 4863 
L 1656 0 
L 538 0 
L 538 4863 
z
" transform="scale(0.015625)"/>
      <path id="DejaVuSans-Bold-6f" d="M 2203 2784 
Q 1831 2784 1636 2517 
Q 1441 2250 1441 1747 
Q 1441 1244 1636 976 
Q 1831 709 2203 709 
Q 2569 709 2762 976 
Q 2956 1244 2956 1747 
Q 2956 2250 2762 2517 
Q 2569 2784 2203 2784 
z
M 2203 3584 
Q 3106 3584 3614 3096 
Q 4122 2609 4122 1747 
Q 4122 884 3614 396 
Q 3106 -91 2203 -91 
Q 1297 -91 786 396 
Q 275 884 275 1747 
Q 275 2609 786 3096 
Q 1297 3584 2203 3584 
z
" transform="scale(0.015625)"/>
      <path id="DejaVuSans-Bold-6d" d="M 3781 2919 
Q 3994 3244 4286 3414 
Q 4578 3584 4928 3584 
Q 5531 3584 5847 3212 
Q 6163 2841 6163 2131 
L 6163 0 
L 5038 0 
L 5038 1825 
Q 5041 1866 5042 1909 
Q 5044 1953 5044 2034 
Q 5044 2406 4934 2573 
Q 4825 2741 4581 2741 
Q 4263 2741 4089 2478 
Q 3916 2216 3909 1719 
L 3909 0 
L 2784 0 
L 2784 1825 
Q 2784 2406 2684 2573 
Q 2584 2741 2328 2741 
Q 2006 2741 1831 2477 
Q 1656 2213 1656 1722 
L 1656 0 
L 531 0 
L 531 3500 
L 1656 3500 
L 1656 2988 
Q 1863 3284 2130 3434 
Q 2397 3584 2719 3584 
Q 3081 3584 3359 3409 
Q 3638 3234 3781 2919 
z
" transform="scale(0.015625)"/>
      <path id="DejaVuSans-Bold-2b" d="M 3053 4013 
L 3053 2375 
L 4684 2375 
L 4684 1638 
L 3053 1638 
L 3053 0 
L 2309 0 
L 2309 1638 
L 678 1638 
L 678 2375 
L 2309 2375 
L 2309 4013 
L 3053 4013 
z
" transform="scale(0.015625)"/>
      <path id="DejaVuSans-Bold-44" d="M 1791 3756 
L 1791 909 
L 2222 909 
Q 2959 909 3348 1275 
Q 3738 1641 3738 2338 
Q 3738 3031 3350 3393 
Q 2963 3756 2222 3756 
L 1791 3756 
z
M 588 4666 
L 1856 4666 
Q 2919 4666 3439 4514 
Q 3959 4363 4331 4000 
Q 4659 3684 4818 3271 
Q 4978 2859 4978 2338 
Q 4978 1809 4818 1395 
Q 4659 981 4331 666 
Q 3956 303 3431 151 
Q 2906 0 1856 0 
L 588 0 
L 588 4666 
z
" transform="scale(0.015625)"/>
      <path id="DejaVuSans-Bold-6e" d="M 4056 2131 
L 4056 0 
L 2931 0 
L 2931 347 
L 2931 1631 
Q 2931 2084 2911 2256 
Q 2891 2428 2841 2509 
Q 2775 2619 2662 2680 
Q 2550 2741 2406 2741 
Q 2056 2741 1856 2470 
Q 1656 2200 1656 1722 
L 1656 0 
L 538 0 
L 538 3500 
L 1656 3500 
L 1656 2988 
Q 1909 3294 2193 3439 
Q 2478 3584 2822 3584 
Q 3428 3584 3742 3212 
Q 4056 2841 4056 2131 
z
" transform="scale(0.015625)"/>
      <path id="DejaVuSans-Bold-67" d="M 2919 594 
Q 2688 288 2409 144 
Q 2131 0 1766 0 
Q 1125 0 706 504 
Q 288 1009 288 1791 
Q 288 2575 706 3076 
Q 1125 3578 1766 3578 
Q 2131 3578 2409 3434 
Q 2688 3291 2919 2981 
L 2919 3500 
L 4044 3500 
L 4044 353 
Q 4044 -491 3511 -936 
Q 2978 -1381 1966 -1381 
Q 1638 -1381 1331 -1331 
Q 1025 -1281 716 -1178 
L 716 -306 
Q 1009 -475 1290 -558 
Q 1572 -641 1856 -641 
Q 2406 -641 2662 -400 
Q 2919 -159 2919 353 
L 2919 594 
z
M 2181 2772 
Q 1834 2772 1640 2515 
Q 1447 2259 1447 1791 
Q 1447 1309 1634 1061 
Q 1822 813 2181 813 
Q 2531 813 2725 1069 
Q 2919 1325 2919 1791 
Q 2919 2259 2725 2515 
Q 2531 2772 2181 2772 
z
" transform="scale(0.015625)"/>
      <path id="DejaVuSans-Bold-72" d="M 3138 2547 
Q 2991 2616 2845 2648 
Q 2700 2681 2553 2681 
Q 2122 2681 1889 2404 
Q 1656 2128 1656 1613 
L 1656 0 
L 538 0 
L 538 3500 
L 1656 3500 
L 1656 2925 
Q 1872 3269 2151 3426 
Q 2431 3584 2822 3584 
Q 2878 3584 2943 3579 
Q 3009 3575 3134 3559 
L 3138 2547 
z
" transform="scale(0.015625)"/>
     </defs>
     <use xlink:href="#DejaVuSans-Bold-4e"/>
     <use xlink:href="#DejaVuSans-Bold-75" x="83.691406"/>
     <use xlink:href="#DejaVuSans-Bold-63" x="154.882812"/>
     <use xlink:href="#DejaVuSans-Bold-6c" x="214.160156"/>
     <use xlink:href="#DejaVuSans-Bold-65" x="248.4375"/>
     <use xlink:href="#DejaVuSans-Bold-6f" x="316.259766"/>
     <use xlink:href="#DejaVuSans-Bold-73" x="384.960938"/>
     <use xlink:href="#DejaVuSans-Bold-6f" x="444.482422"/>
     <use xlink:href="#DejaVuSans-Bold-6d" x="513.183594"/>
     <use xlink:href="#DejaVuSans-Bold-65" x="617.382812"/>
     <use xlink:href="#DejaVuSans-Bold-20" x="685.205078"/>
     <use xlink:href="#DejaVuSans-Bold-2b" x="720.019531"/>
     <use xlink:href="#DejaVuSans-Bold-20" x="803.808594"/>
     <use xlink:href="#DejaVuSans-Bold-50" x="838.623047"/>
     <use xlink:href="#DejaVuSans-Bold-48" x="911.914062"/>
     <use xlink:href="#DejaVuSans-Bold-44" x="995.605469"/>
     <use xlink:href="#DejaVuSans-Bold-20" x="1078.613281"/>
     <use xlink:href="#DejaVuSans-Bold-46" x="1113.427734"/>
     <use xlink:href="#DejaVuSans-Bold-69" x="1181.738281"/>
     <use xlink:href="#DejaVuSans-Bold-6e" x="1216.015625"/>
     <use xlink:href="#DejaVuSans-Bold-67" x="1287.207031"/>
     <use xlink:href="#DejaVuSans-Bold-65" x="1358.789062"/>
     <use xlink:href="#DejaVuSans-Bold-72" x="1426.611328"/>
     <use xlink:href="#DejaVuSans-Bold-20" x="1475.927734"/>
     <use xlink:href="#DejaVuSans-Bold-28" x="1510.742188"/>
     <use xlink:href="#DejaVuSans-Bold-49" x="1556.445312"/>
     <use xlink:href="#DejaVuSans-Bold-49" x="1593.652344"/>
     <use xlink:href="#DejaVuSans-Bold-29" x="1630.859375"/>
    </g>
   </g>
   <g id="legend_1">
    <g id="patch_9">
     <path d="M 439.2875 43.01625 
L 558.2 43.01625 
Q 560.2 43.01625 560.2 41.01625 
L 560.2 22.66 
Q 560.2 20.66 558.2 20.66 
L 439.2875 20.66 
Q 437.2875 20.66 437.2875 22.66 
L 437.2875 41.01625 
Q 437.2875 43.01625 439.2875 43.01625 
z
" style="fill: #ffffff; opacity: 0.8; stroke: #cccccc; stroke-linejoin: miter"/>
    </g>
    <g id="line2d_76">
     <path d="M 438.2875 25.758437 
L 448.2875 25.758437 
L 458.2875 25.758437 
" style="fill: none; stroke: #ffa500; stroke-width: 1.5; stroke-linecap: square"/>
    </g>
    <g id="text_78">
     <!-- H3K4me3 (Tail1) -->
     <g transform="translate(466.2875 29.258437)scale(0.1 -0.1)">
      <defs>
       <path id="DejaVuSans-Bold-61" d="M 2106 1575 
Q 1756 1575 1579 1456 
Q 1403 1338 1403 1106 
Q 1403 894 1545 773 
Q 1688 653 1941 653 
Q 2256 653 2472 879 
Q 2688 1106 2688 1447 
L 2688 1575 
L 2106 1575 
z
M 3816 1997 
L 3816 0 
L 2688 0 
L 2688 519 
Q 2463 200 2181 54 
Q 1900 -91 1497 -91 
Q 953 -91 614 226 
Q 275 544 275 1050 
Q 275 1666 698 1953 
Q 1122 2241 2028 2241 
L 2688 2241 
L 2688 2328 
Q 2688 2594 2478 2717 
Q 2269 2841 1825 2841 
Q 1466 2841 1156 2769 
Q 847 2697 581 2553 
L 581 3406 
Q 941 3494 1303 3539 
Q 1666 3584 2028 3584 
Q 2975 3584 3395 3211 
Q 3816 2838 3816 1997 
z
" transform="scale(0.015625)"/>
      </defs>
      <use xlink:href="#DejaVuSans-Bold-48"/>
      <use xlink:href="#DejaVuSans-Bold-33" x="83.691406"/>
      <use xlink:href="#DejaVuSans-Bold-4b" x="153.271484"/>
      <use xlink:href="#DejaVuSans-Bold-34" x="230.761719"/>
      <use xlink:href="#DejaVuSans-Bold-6d" x="300.341797"/>
      <use xlink:href="#DejaVuSans-Bold-65" x="404.541016"/>
      <use xlink:href="#DejaVuSans-Bold-33" x="472.363281"/>
      <use xlink:href="#DejaVuSans-Bold-20" x="541.943359"/>
      <use xlink:href="#DejaVuSans-Bold-28" x="576.757812"/>
      <use xlink:href="#DejaVuSans-Bold-54" x="622.460938"/>
      <use xlink:href="#DejaVuSans-Bold-61" x="677.798828"/>
      <use xlink:href="#DejaVuSans-Bold-69" x="745.279297"/>
      <use xlink:href="#DejaVuSans-Bold-6c" x="779.556641"/>
      <use xlink:href="#DejaVuSans-Bold-31" x="813.833984"/>
      <use xlink:href="#DejaVuSans-Bold-29" x="883.414062"/>
     </g>
    </g>
    <g id="line2d_77">
     <path d="M 438.2875 36.436562 
L 448.2875 36.436562 
L 458.2875 36.436562 
" style="fill: none; stroke: #000000; stroke-width: 1.5; stroke-linecap: square"/>
    </g>
    <g id="text_79">
     <!-- H3 (Tail2) -->
     <g transform="translate(466.2875 39.936562)scale(0.1 -0.1)">
      <use xlink:href="#DejaVuSans-Bold-48"/>
      <use xlink:href="#DejaVuSans-Bold-33" x="83.691406"/>
      <use xlink:href="#DejaVuSans-Bold-20" x="153.271484"/>
      <use xlink:href="#DejaVuSans-Bold-28" x="188.085938"/>
      <use xlink:href="#DejaVuSans-Bold-54" x="233.789062"/>
      <use xlink:href="#DejaVuSans-Bold-61" x="289.126953"/>
      <use xlink:href="#DejaVuSans-Bold-69" x="356.607422"/>
      <use xlink:href="#DejaVuSans-Bold-6c" x="390.884766"/>
      <use xlink:href="#DejaVuSans-Bold-32" x="425.162109"/>
      <use xlink:href="#DejaVuSans-Bold-29" x="494.742188"/>
     </g>
    </g>
   </g>
  </g>
 </g>
 <defs>
  <clipPath id="pe35f897c0f">
   <rect x="55.37" y="15.66" width="509.83" height="215.845"/>
  </clipPath>
 </defs>
</svg>
