<?xml version="1.0" encoding="utf-8" standalone="no"?>
<!DOCTYPE svg PUBLIC "-//W3C//DTD SVG 1.1//EN"
  "http://www.w3.org/Graphics/SVG/1.1/DTD/svg11.dtd">
<svg xmlns:xlink="http://www.w3.org/1999/xlink" width="576pt" height="288pt" viewBox="0 0 576 288" xmlns="http://www.w3.org/2000/svg" version="1.1">
 <metadata>
  <rdf:RDF xmlns:dc="http://purl.org/dc/elements/1.1/" xmlns:cc="http://creativecommons.org/ns#" xmlns:rdf="http://www.w3.org/1999/02/22-rdf-syntax-ns#">
   <cc:Work>
    <dc:type rdf:resource="http://purl.org/dc/dcmitype/StillImage"/>
    <dc:date>2024-10-10T12:06:00.476260</dc:date>
    <dc:format>image/svg+xml</dc:format>
    <dc:creator>
     <cc:Agent>
      <dc:title>Matplotlib v3.8.0, https://matplotlib.org/</dc:title>
     </cc:Agent>
    </dc:creator>
   </cc:Work>
  </rdf:RDF>
 </metadata>
 <defs>
  <style type="text/css">*{stroke-linejoin: round; stroke-linecap: butt}</style>
 </defs>
 <g id="figure_1">
  <g id="patch_1">
   <path d="M 0 288 
L 576 288 
L 576 0 
L 0 0 
z
" style="fill: #ffffff"/>
  </g>
  <g id="axes_1">
   <g id="patch_2">
    <path d="M 49.34 230.74 
L 565.2 230.74 
L 565.2 14.76 
L 49.34 14.76 
z
" style="fill: #ffffff"/>
   </g>
   <g id="PolyCollection_1">
    <path d="M 49.34 152.330482 
L 49.34 174.172182 
L 58.719273 180.123874 
L 68.098545 182.504852 
L 77.477818 177.761723 
L 86.857091 169.440487 
L 96.236364 168.385997 
L 105.615636 162.764742 
L 114.994909 152.117043 
L 124.374182 155.603099 
L 133.753455 161.581472 
L 143.132727 167.234257 
L 152.512 170.719966 
L 161.891273 168.435429 
L 171.270545 162.491359 
L 180.649818 167.374586 
L 190.029091 163.77338 
L 199.408364 158.178343 
L 208.787636 160.054481 
L 218.166909 155.66027 
L 227.546182 159.193564 
L 236.925455 164.354331 
L 246.304727 159.618941 
L 255.684 158.0789 
L 265.063273 163.301689 
L 274.442545 161.619355 
L 283.821818 154.145523 
L 293.201091 147.616921 
L 302.580364 148.726504 
L 311.959636 151.762466 
L 321.338909 151.79804 
L 330.718182 144.063415 
L 340.097455 150.579774 
L 349.476727 162.932906 
L 358.856 175.686005 
L 368.235273 187.82258 
L 377.614545 197.973178 
L 386.993818 204.972316 
L 396.373091 210.760811 
L 405.752364 214.003744 
L 415.131636 216.080271 
L 424.510909 218.65332 
L 433.890182 214.006978 
L 443.269455 219.962598 
L 452.648727 220.848347 
L 462.028 220.252496 
L 471.407273 221.091931 
L 480.786545 221.992348 
L 490.165818 219.706887 
L 499.545091 215.597146 
L 508.924364 217.491186 
L 518.303636 222.613608 
L 527.682909 212.156018 
L 537.062182 211.903195 
L 546.441455 221.37975 
L 555.820727 221.650129 
L 565.2 216.358504 
L 574.579273 220.097152 
L 583.958545 220.88623 
L 593.337818 211.174753 
L 602.717091 220.649807 
L 612.096364 222.584965 
L 621.475636 222.514742 
L 630.854909 218.606544 
L 640.234182 217.985053 
L 649.613455 220.546783 
L 658.992727 221.221172 
L 668.372 222.435511 
L 677.751273 216.563396 
L 687.130545 218.3804 
L 696.509818 221.454939 
L 705.889091 221.710419 
L 715.268364 216.948464 
L 724.647636 217.546625 
L 734.026909 220.188857 
L 743.406182 219.670274 
L 752.785455 214.96653 
L 762.164727 211.272926 
L 771.544 214.161629 
L 780.923273 213.821721 
L 790.302545 214.353355 
L 799.681818 212.38297 
L 809.061091 218.701598 
L 818.440364 219.486403 
L 827.819636 219.276428 
L 837.198909 218.780829 
L 846.578182 217.99718 
L 855.957455 220.740588 
L 865.336727 222.846913 
L 874.716 222.279821 
L 884.095273 216.64205 
L 893.474545 223.346785 
L 902.853818 222.334567 
L 912.233091 223.10528 
L 921.612364 220.336001 
L 930.991636 223.607001 
L 940.370909 223.145473 
L 949.750182 221.289085 
L 959.129455 223.336621 
L 968.508727 221.366814 
L 977.888 222.80568 
L 987.267273 222.520055 
L 996.646545 222.881793 
L 1006.025818 222.149771 
L 1015.405091 220.12903 
L 1024.784364 217.4503 
L 1034.163636 221.661564 
L 1043.542909 222.82081 
L 1052.922182 222.047787 
L 1062.301455 219.957516 
L 1071.680727 221.939681 
L 1081.06 222.14365 
L 1090.439273 221.282501 
L 1099.818545 221.151296 
L 1109.197818 220.437523 
L 1118.577091 214.203555 
L 1127.956364 221.191721 
L 1137.335636 220.008566 
L 1146.714909 221.884358 
L 1156.094182 222.68487 
L 1165.473455 220.332305 
L 1174.852727 221.53521 
L 1184.232 217.686261 
L 1193.611273 220.692195 
L 1202.990545 220.319254 
L 1212.369818 213.929711 
L 1221.749091 220.923998 
L 1231.128364 221.098399 
L 1240.507636 214.742581 
L 1249.886909 210.312219 
L 1259.266182 219.56136 
L 1268.645455 218.19572 
L 1278.024727 215.171307 
L 1287.404 204.630212 
L 1296.783273 183.032097 
L 1306.162545 175.347829 
L 1306.162545 168.024143 
L 1306.162545 168.024143 
L 1296.783273 175.36192 
L 1287.404 200.227454 
L 1278.024727 212.712369 
L 1268.645455 215.521957 
L 1259.266182 218.905335 
L 1249.886909 209.437904 
L 1240.507636 213.313879 
L 1231.128364 220.323412 
L 1221.749091 220.523222 
L 1212.369818 212.581857 
L 1202.990545 219.854954 
L 1193.611273 220.330688 
L 1184.232 217.185003 
L 1174.852727 220.717489 
L 1165.473455 219.379452 
L 1156.094182 221.547221 
L 1146.714909 220.757104 
L 1137.335636 219.377951 
L 1127.956364 220.237713 
L 1118.577091 213.428568 
L 1109.197818 219.556278 
L 1099.818545 220.252727 
L 1090.439273 220.428976 
L 1081.06 221.196571 
L 1071.680727 221.042267 
L 1062.301455 219.093596 
L 1052.922182 221.101864 
L 1043.542909 221.873732 
L 1034.163636 220.486956 
L 1024.784364 216.778106 
L 1015.405091 219.684365 
L 1006.025818 221.566509 
L 996.646545 222.150695 
L 987.267273 221.846706 
L 977.888 222.203939 
L 968.508727 220.446301 
L 959.129455 222.783389 
L 949.750182 220.973777 
L 940.370909 222.618806 
L 930.991636 223.074558 
L 921.612364 219.698456 
L 912.233091 222.498919 
L 902.853818 221.889902 
L 893.474545 222.895191 
L 884.095273 216.19392 
L 874.716 221.65498 
L 865.336727 222.434587 
L 855.957455 220.444915 
L 846.578182 217.209488 
L 837.198909 218.204498 
L 827.819636 218.57536 
L 818.440364 217.902934 
L 809.061091 217.480791 
L 799.681818 208.901881 
L 790.302545 212.674024 
L 780.923273 212.080021 
L 771.544 211.201433 
L 762.164727 209.793405 
L 752.785455 212.058307 
L 743.406182 218.918387 
L 734.026909 219.797321 
L 724.647636 215.866139 
L 715.268364 214.459497 
L 705.889091 221.182596 
L 696.509818 220.950216 
L 687.130545 217.164213 
L 677.751273 215.367999 
L 668.372 221.84994 
L 658.992727 220.69104 
L 649.613455 219.945042 
L 640.234182 217.170797 
L 630.854909 217.034625 
L 621.475636 221.862183 
L 612.096364 221.901221 
L 602.717091 220.30447 
L 593.337818 210.501404 
L 583.958545 220.200176 
L 574.579273 219.650178 
L 565.2 215.89305 
L 555.820727 221.110757 
L 546.441455 220.616313 
L 537.062182 211.03581 
L 527.682909 210.412009 
L 518.303636 221.66422 
L 508.924364 216.03592 
L 499.545091 212.634639 
L 490.165818 218.963084 
L 480.786545 220.966732 
L 471.407273 219.958902 
L 462.028 218.859599 
L 452.648727 219.658725 
L 443.269455 218.730242 
L 433.890182 211.917632 
L 424.510909 216.174748 
L 415.131636 212.324298 
L 405.752364 209.766148 
L 396.373091 206.547468 
L 386.993818 200.208051 
L 377.614545 189.789037 
L 368.235273 178.237456 
L 358.856 164.809622 
L 349.476727 151.152178 
L 340.097455 139.490875 
L 330.718182 135.309872 
L 321.338909 139.004401 
L 311.959636 138.206545 
L 302.580364 127.595113 
L 293.201091 123.655846 
L 283.821818 131.498807 
L 274.442545 138.05097 
L 265.063273 142.634597 
L 255.684 134.479331 
L 246.304727 134.550246 
L 236.925455 132.533663 
L 227.546182 123.444832 
L 218.166909 117.152307 
L 208.787636 116.305249 
L 199.408364 121.258468 
L 190.029091 128.947471 
L 180.649818 134.874794 
L 171.270545 128.298376 
L 161.891273 135.846704 
L 152.512 140.829258 
L 143.132727 144.6707 
L 133.753455 144.484402 
L 124.374182 140.43368 
L 114.994909 130.597581 
L 105.615636 149.005545 
L 96.236364 151.896443 
L 86.857091 151.883739 
L 77.477818 159.575514 
L 68.098545 167.567582 
L 58.719273 161.207722 
L 49.34 152.330482 
z
" clip-path="url(#p8798cec887)" style="fill-opacity: 0.3; stroke: #000000; stroke-opacity: 0.3"/>
   </g>
   <g id="PolyCollection_2">
    <path d="M 49.34 76.49667 
L 49.34 126.516252 
L 58.719273 131.327871 
L 68.098545 149.499065 
L 77.477818 155.450758 
L 86.857091 160.612795 
L 96.236364 172.593449 
L 105.615636 175.378667 
L 114.994909 174.52826 
L 124.374182 174.030813 
L 133.753455 172.400915 
L 143.132727 171.503616 
L 152.512 172.468827 
L 161.891273 175.830261 
L 171.270545 172.590908 
L 180.649818 183.851781 
L 190.029091 184.581609 
L 199.408364 183.347636 
L 208.787636 182.750976 
L 218.166909 171.982006 
L 227.546182 171.499342 
L 236.925455 170.969556 
L 246.304727 170.403042 
L 255.684 161.267434 
L 265.063273 158.914523 
L 274.442545 147.077548 
L 283.821818 130.250974 
L 293.201091 118.502817 
L 302.580364 123.59417 
L 311.959636 133.616335 
L 321.338909 135.005306 
L 330.718182 134.739546 
L 340.097455 145.068934 
L 349.476727 157.459949 
L 358.856 168.808486 
L 368.235273 175.712916 
L 377.614545 184.91736 
L 386.993818 194.697327 
L 396.373091 204.642571 
L 405.752364 210.406118 
L 415.131636 210.756653 
L 424.510909 214.33014 
L 433.890182 208.85984 
L 443.269455 215.156292 
L 452.648727 216.612829 
L 462.028 216.346954 
L 471.407273 217.477211 
L 480.786545 218.232564 
L 490.165818 216.76055 
L 499.545091 214.76672 
L 508.924364 215.313715 
L 518.303636 219.658147 
L 527.682909 209.571997 
L 537.062182 209.608725 
L 546.441455 219.05271 
L 555.820727 219.76325 
L 565.2 214.903584 
L 574.579273 218.67411 
L 583.958545 219.290635 
L 593.337818 210.477034 
L 602.717091 218.690972 
L 612.096364 220.135151 
L 621.475636 220.34732 
L 630.854909 217.282945 
L 640.234182 216.404356 
L 649.613455 217.807533 
L 658.992727 218.44993 
L 668.372 220.064582 
L 677.751273 213.05863 
L 687.130545 214.672012 
L 696.509818 218.340785 
L 705.889091 218.936173 
L 715.268364 215.010419 
L 724.647636 214.358321 
L 734.026909 217.263079 
L 743.406182 216.96371 
L 752.785455 211.832048 
L 762.164727 208.931333 
L 771.544 208.69491 
L 780.923273 211.554739 
L 790.302545 209.917796 
L 799.681818 206.032234 
L 809.061091 215.472524 
L 818.440364 214.395165 
L 827.819636 216.749231 
L 837.198909 216.171167 
L 846.578182 215.380704 
L 855.957455 218.819521 
L 865.336727 221.041112 
L 874.716 220.34397 
L 884.095273 215.320067 
L 893.474545 221.971558 
L 902.853818 221.121614 
L 912.233091 221.422831 
L 921.612364 219.072807 
L 930.991636 221.611784 
L 940.370909 220.652117 
L 949.750182 219.166359 
L 959.129455 220.709635 
L 968.508727 218.796883 
L 977.888 219.582843 
L 987.267273 219.621881 
L 996.646545 220.027854 
L 1006.025818 218.501672 
L 1015.405091 216.923632 
L 1024.784364 214.729992 
L 1034.163636 217.821047 
L 1043.542909 218.601116 
L 1052.922182 218.10875 
L 1062.301455 216.107297 
L 1071.680727 217.428818 
L 1081.06 216.9614 
L 1090.439273 216.560278 
L 1099.818545 216.044236 
L 1109.197818 214.972074 
L 1118.577091 209.634134 
L 1127.956364 215.653739 
L 1137.335636 215.609157 
L 1146.714909 216.471229 
L 1156.094182 217.714558 
L 1165.473455 215.344553 
L 1174.852727 216.515234 
L 1184.232 213.949576 
L 1193.611273 216.162043 
L 1202.990545 216.538333 
L 1212.369818 210.166346 
L 1221.749091 216.195884 
L 1231.128364 217.090526 
L 1240.507636 211.544113 
L 1249.886909 206.013408 
L 1259.266182 215.334043 
L 1268.645455 212.855355 
L 1278.024727 210.675458 
L 1287.404 202.610857 
L 1296.783273 182.646798 
L 1306.162545 177.871214 
L 1306.162545 172.152942 
L 1306.162545 172.152942 
L 1296.783273 181.029835 
L 1287.404 198.463348 
L 1278.024727 208.058289 
L 1268.645455 209.064732 
L 1259.266182 210.730319 
L 1249.886909 202.429526 
L 1240.507636 207.293812 
L 1231.128364 212.348206 
L 1221.749091 210.369044 
L 1212.369818 204.862709 
L 1202.990545 211.665501 
L 1193.611273 210.407966 
L 1184.232 207.434372 
L 1174.852727 210.761157 
L 1165.473455 209.070738 
L 1156.094182 211.960481 
L 1146.714909 209.786244 
L 1137.335636 208.808675 
L 1127.956364 208.118694 
L 1118.577091 201.842684 
L 1109.197818 206.826048 
L 1099.818545 208.061061 
L 1090.439273 208.950159 
L 1081.06 209.776311 
L 1071.680727 210.902064 
L 1062.301455 209.906246 
L 1052.922182 212.171033 
L 1043.542909 213.248969 
L 1034.163636 212.773813 
L 1024.784364 210.724544 
L 1015.405091 213.379019 
L 1006.025818 214.832322 
L 996.646545 216.492481 
L 987.267273 216.758702 
L 977.888 217.222077 
L 968.508727 216.851909 
L 959.129455 218.880157 
L 949.750182 218.144208 
L 940.370909 219.082508 
L 930.991636 220.127644 
L 921.612364 217.704163 
L 912.233091 219.412022 
L 902.853818 219.070381 
L 893.474545 220.060078 
L 884.095273 213.740064 
L 874.716 218.252314 
L 865.336727 218.942526 
L 855.957455 217.098611 
L 846.578182 212.751984 
L 837.198909 213.979028 
L 827.819636 214.302998 
L 818.440364 210.92216 
L 809.061091 212.571231 
L 799.681818 203.714203 
L 790.302545 206.948359 
L 780.923273 208.749309 
L 771.544 206.7534 
L 762.164727 205.721662 
L 752.785455 207.585212 
L 743.406182 213.814098 
L 734.026909 214.243979 
L 724.647636 211.202934 
L 715.268364 211.9636 
L 705.889091 216.2832 
L 696.509818 215.595413 
L 687.130545 212.035208 
L 677.751273 211.440512 
L 668.372 217.784665 
L 658.992727 215.918228 
L 649.613455 215.348595 
L 640.234182 214.302305 
L 630.854909 214.661155 
L 621.475636 218.386175 
L 612.096364 218.720309 
L 602.717091 217.587973 
L 593.337818 209.100305 
L 583.958545 217.577809 
L 574.579273 216.306415 
L 565.2 211.524132 
L 555.820727 215.471369 
L 546.441455 216.685015 
L 537.062182 207.191366 
L 527.682909 205.022557 
L 518.303636 215.208035 
L 508.924364 211.993167 
L 499.545091 210.606506 
L 490.165818 211.745656 
L 480.786545 213.61498 
L 471.407273 213.163386 
L 462.028 210.784603 
L 452.648727 211.031998 
L 443.269455 209.436865 
L 433.890182 203.508849 
L 424.510909 209.150085 
L 415.131636 206.523676 
L 405.752364 206.925029 
L 396.373091 202.379978 
L 386.993818 186.298361 
L 377.614545 170.714654 
L 368.235273 166.683335 
L 358.856 155.381922 
L 349.476727 142.278981 
L 340.097455 131.079898 
L 330.718182 124.933823 
L 321.338909 120.79567 
L 311.959636 113.5429 
L 302.580364 93.15254 
L 293.201091 87.579563 
L 283.821818 104.831167 
L 274.442545 118.998993 
L 265.063273 132.119143 
L 255.684 135.97121 
L 246.304727 147.132641 
L 236.925455 141.293673 
L 227.546182 133.946542 
L 218.166909 134.210915 
L 208.787636 141.190419 
L 199.408364 146.986767 
L 190.029091 145.991642 
L 180.649818 148.769469 
L 171.270545 138.56193 
L 161.891273 140.701749 
L 152.512 135.833075 
L 143.132727 123.732767 
L 133.753455 127.736944 
L 124.374182 134.014454 
L 114.994909 131.197128 
L 105.615636 130.887942 
L 96.236364 125.046664 
L 86.857091 110.319485 
L 77.477818 103.160499 
L 68.098545 102.706479 
L 58.719273 83.894274 
L 49.34 76.49667 
z
" clip-path="url(#p8798cec887)" style="fill: #ffa500; fill-opacity: 0.3; stroke: #ffa500; stroke-opacity: 0.3"/>
   </g>
   <g id="PolyCollection_3">
    <path d="M 49.34 77.73203 
L 49.34 161.707826 
L 58.719273 169.280523 
L 68.098545 169.420853 
L 77.477818 163.42735 
L 86.857091 164.210306 
L 96.236364 158.841182 
L 105.615636 159.362883 
L 114.994909 165.519699 
L 124.374182 155.968417 
L 133.753455 162.849401 
L 143.132727 167.290158 
L 152.512 170.414938 
L 161.891273 172.752373 
L 171.270545 175.989185 
L 180.649818 182.08294 
L 190.029091 183.067208 
L 199.408364 182.700735 
L 208.787636 182.721409 
L 218.166909 181.160001 
L 227.546182 186.59877 
L 236.925455 186.207003 
L 246.304727 182.795674 
L 255.684 180.61751 
L 265.063273 184.31816 
L 274.442545 184.65726 
L 283.821818 185.237518 
L 293.201091 182.203173 
L 302.580364 179.302919 
L 311.959636 179.512547 
L 321.338909 174.502966 
L 330.718182 168.19173 
L 340.097455 164.731084 
L 349.476727 170.652516 
L 358.856 175.798153 
L 368.235273 182.198668 
L 377.614545 184.681745 
L 386.993818 188.196675 
L 396.373091 192.520202 
L 405.752364 196.358525 
L 415.131636 196.302509 
L 424.510909 199.486193 
L 433.890182 196.276753 
L 443.269455 201.044251 
L 452.648727 203.067765 
L 462.028 202.199802 
L 471.407273 203.866891 
L 480.786545 205.511342 
L 490.165818 204.989871 
L 499.545091 202.080493 
L 508.924364 205.074646 
L 518.303636 208.405705 
L 527.682909 203.273003 
L 537.062182 203.707389 
L 546.441455 209.320443 
L 555.820727 210.48073 
L 565.2 208.582415 
L 574.579273 210.728818 
L 583.958545 212.280178 
L 593.337818 207.06455 
L 602.717091 212.125411 
L 612.096364 211.695415 
L 621.475636 212.150012 
L 630.854909 208.261217 
L 640.234182 210.216241 
L 649.613455 209.600293 
L 658.992727 210.426561 
L 668.372 213.405584 
L 677.751273 209.51598 
L 687.130545 208.932834 
L 696.509818 212.22139 
L 705.889091 213.355689 
L 715.268364 208.983307 
L 724.647636 209.328644 
L 734.026909 212.636487 
L 743.406182 212.052186 
L 752.785455 208.174825 
L 762.164727 207.092153 
L 771.544 209.825051 
L 780.923273 209.105272 
L 790.302545 207.771624 
L 799.681818 205.155148 
L 809.061091 210.50533 
L 818.440364 209.197554 
L 827.819636 211.956439 
L 837.198909 212.242295 
L 846.578182 211.566751 
L 855.957455 214.037932 
L 865.336727 215.430945 
L 874.716 214.371603 
L 884.095273 212.629673 
L 893.474545 216.735141 
L 902.853818 216.235499 
L 912.233091 214.672127 
L 921.612364 215.155599 
L 930.991636 217.218728 
L 940.370909 216.048278 
L 949.750182 214.115546 
L 959.129455 215.94306 
L 968.508727 215.441686 
L 977.888 214.099954 
L 987.267273 213.578945 
L 996.646545 214.031348 
L 1006.025818 213.140286 
L 1015.405091 210.923777 
L 1024.784364 209.905206 
L 1034.163636 211.638821 
L 1043.542909 210.186904 
L 1052.922182 208.447746 
L 1062.301455 207.885851 
L 1071.680727 208.07723 
L 1081.06 206.026806 
L 1090.439273 205.276651 
L 1099.818545 204.87472 
L 1109.197818 203.303148 
L 1118.577091 200.006392 
L 1127.956364 204.060349 
L 1137.335636 204.292036 
L 1146.714909 204.943557 
L 1156.094182 207.546173 
L 1165.473455 206.141841 
L 1174.852727 208.385031 
L 1184.232 206.479902 
L 1193.611273 208.185682 
L 1202.990545 210.465599 
L 1212.369818 207.057389 
L 1221.749091 208.944731 
L 1231.128364 210.91627 
L 1240.507636 209.95487 
L 1249.886909 205.490206 
L 1259.266182 209.530302 
L 1268.645455 211.666425 
L 1278.024727 210.333932 
L 1287.404 207.173348 
L 1296.783273 194.235453 
L 1306.162545 195.942619 
L 1306.162545 175.313642 
L 1306.162545 175.313642 
L 1296.783273 172.57162 
L 1287.404 192.536372 
L 1278.024727 197.087544 
L 1268.645455 198.847377 
L 1259.266182 195.571295 
L 1249.886909 188.761573 
L 1240.507636 195.034926 
L 1231.128364 196.802497 
L 1221.749091 193.120442 
L 1212.369818 189.427877 
L 1202.990545 194.859601 
L 1193.611273 191.358877 
L 1184.232 188.188591 
L 1174.852727 190.564948 
L 1165.473455 187.441669 
L 1156.094182 190.227349 
L 1146.714909 186.048194 
L 1137.335636 185.502931 
L 1127.956364 184.893567 
L 1118.577091 178.936215 
L 1109.197818 183.907682 
L 1099.818545 186.800544 
L 1090.439273 187.427694 
L 1081.06 188.367265 
L 1071.680727 191.825601 
L 1062.301455 192.024603 
L 1052.922182 192.529904 
L 1043.542909 195.029035 
L 1034.163636 197.988192 
L 1024.784364 196.164489 
L 1015.405091 196.375734 
L 1006.025818 199.81536 
L 996.646545 201.808266 
L 987.267273 200.934298 
L 977.888 201.051066 
L 968.508727 203.360666 
L 959.129455 204.704015 
L 949.750182 201.21334 
L 940.370909 203.940693 
L 930.991636 206.299611 
L 921.612364 203.641671 
L 912.233091 201.911983 
L 902.853818 204.480181 
L 893.474545 205.634693 
L 884.095273 199.573855 
L 874.716 201.432438 
L 865.336727 203.35108 
L 855.957455 201.539966 
L 846.578182 197.389454 
L 837.198909 198.731418 
L 827.819636 197.937373 
L 818.440364 193.792521 
L 809.061091 195.63043 
L 799.681818 187.264612 
L 790.302545 191.188518 
L 780.923273 194.001687 
L 771.544 194.265251 
L 762.164727 190.615305 
L 752.785455 191.76612 
L 743.406182 197.813676 
L 734.026909 198.128868 
L 724.647636 193.06431 
L 715.268364 193.52399 
L 705.889091 199.371273 
L 696.509818 197.110875 
L 687.130545 191.828835 
L 677.751273 193.987365 
L 668.372 199.275641 
L 658.992727 193.861935 
L 649.613455 192.492829 
L 640.234182 194.755769 
L 630.854909 191.331619 
L 621.475636 197.504951 
L 612.096364 197.080383 
L 602.717091 198.157165 
L 593.337818 190.467584 
L 583.958545 198.8155 
L 574.579273 196.169225 
L 565.2 192.956782 
L 555.820727 195.926911 
L 546.441455 193.654386 
L 537.062182 185.434557 
L 527.682909 185.116824 
L 518.303636 192.269573 
L 508.924364 186.819139 
L 499.545091 181.900801 
L 490.165818 186.665065 
L 480.786545 187.248904 
L 471.407273 184.400971 
L 462.028 181.789115 
L 452.648727 183.195295 
L 443.269455 179.565214 
L 433.890182 172.598646 
L 424.510909 177.349975 
L 415.131636 172.377238 
L 405.752364 171.304845 
L 396.373091 164.7558 
L 386.993818 157.850908 
L 377.614545 152.51574 
L 368.235273 147.874018 
L 358.856 138.401274 
L 349.476727 130.29082 
L 340.097455 119.813018 
L 330.718182 124.503711 
L 321.338909 136.954785 
L 311.959636 143.935906 
L 302.580364 142.430398 
L 293.201091 144.119084 
L 283.821818 144.35493 
L 274.442545 146.843435 
L 265.063273 146.443121 
L 255.684 137.144316 
L 246.304727 141.887676 
L 236.925455 148.96027 
L 227.546182 151.15264 
L 218.166909 141.053554 
L 208.787636 144.076004 
L 199.408364 148.647503 
L 190.029091 149.050936 
L 180.649818 148.848584 
L 171.270545 140.545366 
L 161.891273 135.879852 
L 152.512 129.367188 
L 143.132727 119.037685 
L 133.753455 110.979552 
L 124.374182 94.161178 
L 114.994909 102.884344 
L 105.615636 88.149542 
L 96.236364 81.653164 
L 86.857091 86.27502 
L 77.477818 75.575464 
L 68.098545 83.895083 
L 58.719273 90.15908 
L 49.34 77.73203 
z
" clip-path="url(#p8798cec887)" style="fill: #0000ff; fill-opacity: 0.3; stroke: #0000ff; stroke-opacity: 0.3"/>
   </g>
   <g id="matplotlib.axis_1">
    <g id="xtick_1">
     <g id="line2d_1">
      <defs>
       <path id="me9e112c585" d="M 0 0 
L 0 3.5 
" style="stroke: #000000; stroke-width: 0.8"/>
      </defs>
      <g>
       <use xlink:href="#me9e112c585" x="49.34" y="230.74" style="stroke: #000000; stroke-width: 0.8"/>
      </g>
     </g>
     <g id="text_1">
      <!-- A1 -->
      <g transform="translate(52.099375 252.436875) rotate(-90) scale(0.1 -0.1)">
       <defs>
        <path id="DejaVuSans-Bold-41" d="M 3419 850 
L 1538 850 
L 1241 0 
L 31 0 
L 1759 4666 
L 3194 4666 
L 4922 0 
L 3713 0 
L 3419 850 
z
M 1838 1716 
L 3116 1716 
L 2478 3572 
L 1838 1716 
z
" transform="scale(0.015625)"/>
        <path id="DejaVuSans-Bold-31" d="M 750 831 
L 1813 831 
L 1813 3847 
L 722 3622 
L 722 4441 
L 1806 4666 
L 2950 4666 
L 2950 831 
L 4013 831 
L 4013 0 
L 750 0 
L 750 831 
z
" transform="scale(0.015625)"/>
       </defs>
       <use xlink:href="#DejaVuSans-Bold-41"/>
       <use xlink:href="#DejaVuSans-Bold-31" x="77.392578"/>
      </g>
     </g>
    </g>
    <g id="xtick_2">
     <g id="line2d_2">
      <g>
       <use xlink:href="#me9e112c585" x="58.719273" y="230.74" style="stroke: #000000; stroke-width: 0.8"/>
      </g>
     </g>
     <g id="text_2">
      <!-- R2 -->
      <g transform="translate(61.478648 252.397812) rotate(-90) scale(0.1 -0.1)">
       <defs>
        <path id="DejaVuSans-Bold-52" d="M 2297 2597 
Q 2675 2597 2839 2737 
Q 3003 2878 3003 3200 
Q 3003 3519 2839 3656 
Q 2675 3794 2297 3794 
L 1791 3794 
L 1791 2597 
L 2297 2597 
z
M 1791 1766 
L 1791 0 
L 588 0 
L 588 4666 
L 2425 4666 
Q 3347 4666 3776 4356 
Q 4206 4047 4206 3378 
Q 4206 2916 3982 2619 
Q 3759 2322 3309 2181 
Q 3556 2125 3751 1926 
Q 3947 1728 4147 1325 
L 4800 0 
L 3519 0 
L 2950 1159 
Q 2778 1509 2601 1637 
Q 2425 1766 2131 1766 
L 1791 1766 
z
" transform="scale(0.015625)"/>
        <path id="DejaVuSans-Bold-32" d="M 1844 884 
L 3897 884 
L 3897 0 
L 506 0 
L 506 884 
L 2209 2388 
Q 2438 2594 2547 2791 
Q 2656 2988 2656 3200 
Q 2656 3528 2436 3728 
Q 2216 3928 1850 3928 
Q 1569 3928 1234 3808 
Q 900 3688 519 3450 
L 519 4475 
Q 925 4609 1322 4679 
Q 1719 4750 2100 4750 
Q 2938 4750 3402 4381 
Q 3866 4013 3866 3353 
Q 3866 2972 3669 2642 
Q 3472 2313 2841 1759 
L 1844 884 
z
" transform="scale(0.015625)"/>
       </defs>
       <use xlink:href="#DejaVuSans-Bold-52"/>
       <use xlink:href="#DejaVuSans-Bold-32" x="77.001953"/>
      </g>
     </g>
    </g>
    <g id="xtick_3">
     <g id="line2d_3">
      <g>
       <use xlink:href="#me9e112c585" x="68.098545" y="230.74" style="stroke: #000000; stroke-width: 0.8"/>
      </g>
     </g>
     <g id="text_3">
      <!-- T3 -->
      <g transform="translate(70.85792 251.519688) rotate(-90) scale(0.1 -0.1)">
       <defs>
        <path id="DejaVuSans-Bold-54" d="M 31 4666 
L 4331 4666 
L 4331 3756 
L 2784 3756 
L 2784 0 
L 1581 0 
L 1581 3756 
L 31 3756 
L 31 4666 
z
" transform="scale(0.015625)"/>
        <path id="DejaVuSans-Bold-33" d="M 2981 2516 
Q 3453 2394 3698 2092 
Q 3944 1791 3944 1325 
Q 3944 631 3412 270 
Q 2881 -91 1863 -91 
Q 1503 -91 1142 -33 
Q 781 25 428 141 
L 428 1069 
Q 766 900 1098 814 
Q 1431 728 1753 728 
Q 2231 728 2486 893 
Q 2741 1059 2741 1369 
Q 2741 1688 2480 1852 
Q 2219 2016 1709 2016 
L 1228 2016 
L 1228 2791 
L 1734 2791 
Q 2188 2791 2409 2933 
Q 2631 3075 2631 3366 
Q 2631 3634 2415 3781 
Q 2200 3928 1806 3928 
Q 1516 3928 1219 3862 
Q 922 3797 628 3669 
L 628 4550 
Q 984 4650 1334 4700 
Q 1684 4750 2022 4750 
Q 2931 4750 3382 4451 
Q 3834 4153 3834 3553 
Q 3834 3144 3618 2883 
Q 3403 2622 2981 2516 
z
" transform="scale(0.015625)"/>
       </defs>
       <use xlink:href="#DejaVuSans-Bold-54"/>
       <use xlink:href="#DejaVuSans-Bold-33" x="68.212891"/>
      </g>
     </g>
    </g>
    <g id="xtick_4">
     <g id="line2d_4">
      <g>
       <use xlink:href="#me9e112c585" x="77.477818" y="230.74" style="stroke: #000000; stroke-width: 0.8"/>
      </g>
     </g>
     <g id="text_4">
      <!-- K4 -->
      <g transform="translate(80.237193 252.44625) rotate(-90) scale(0.1 -0.1)">
       <defs>
        <path id="DejaVuSans-Bold-4b" d="M 588 4666 
L 1791 4666 
L 1791 2963 
L 3525 4666 
L 4922 4666 
L 2675 2456 
L 5153 0 
L 3647 0 
L 1791 1838 
L 1791 0 
L 588 0 
L 588 4666 
z
" transform="scale(0.015625)"/>
        <path id="DejaVuSans-Bold-34" d="M 2356 3675 
L 1038 1722 
L 2356 1722 
L 2356 3675 
z
M 2156 4666 
L 3494 4666 
L 3494 1722 
L 4159 1722 
L 4159 850 
L 3494 850 
L 3494 0 
L 2356 0 
L 2356 850 
L 288 850 
L 288 1881 
L 2156 4666 
z
" transform="scale(0.015625)"/>
       </defs>
       <use xlink:href="#DejaVuSans-Bold-4b"/>
       <use xlink:href="#DejaVuSans-Bold-34" x="77.490234"/>
      </g>
     </g>
    </g>
    <g id="xtick_5">
     <g id="line2d_5">
      <g>
       <use xlink:href="#me9e112c585" x="86.857091" y="230.74" style="stroke: #000000; stroke-width: 0.8"/>
      </g>
     </g>
     <g id="text_5">
      <!-- Q5 -->
      <g transform="translate(89.616466 253.199375) rotate(-90) scale(0.1 -0.1)">
       <defs>
        <path id="DejaVuSans-Bold-51" d="M 2847 -84 
L 2753 -84 
Q 1600 -84 959 553 
Q 319 1191 319 2328 
Q 319 3463 958 4106 
Q 1597 4750 2719 4750 
Q 3853 4750 4486 4112 
Q 5119 3475 5119 2328 
Q 5119 1541 4783 972 
Q 4447 403 3816 116 
L 4756 -934 
L 3609 -934 
L 2847 -84 
z
M 2719 3878 
Q 2169 3878 1866 3472 
Q 1563 3066 1563 2328 
Q 1563 1578 1859 1179 
Q 2156 781 2719 781 
Q 3272 781 3575 1187 
Q 3878 1594 3878 2328 
Q 3878 3066 3575 3472 
Q 3272 3878 2719 3878 
z
" transform="scale(0.015625)"/>
        <path id="DejaVuSans-Bold-35" d="M 678 4666 
L 3669 4666 
L 3669 3781 
L 1638 3781 
L 1638 3059 
Q 1775 3097 1914 3117 
Q 2053 3138 2203 3138 
Q 3056 3138 3531 2711 
Q 4006 2284 4006 1522 
Q 4006 766 3489 337 
Q 2972 -91 2053 -91 
Q 1656 -91 1267 -14 
Q 878 63 494 219 
L 494 1166 
Q 875 947 1217 837 
Q 1559 728 1863 728 
Q 2300 728 2551 942 
Q 2803 1156 2803 1522 
Q 2803 1891 2551 2103 
Q 2300 2316 1863 2316 
Q 1603 2316 1309 2248 
Q 1016 2181 678 2041 
L 678 4666 
z
" transform="scale(0.015625)"/>
       </defs>
       <use xlink:href="#DejaVuSans-Bold-51"/>
       <use xlink:href="#DejaVuSans-Bold-35" x="85.009766"/>
      </g>
     </g>
    </g>
    <g id="xtick_6">
     <g id="line2d_6">
      <g>
       <use xlink:href="#me9e112c585" x="96.236364" y="230.74" style="stroke: #000000; stroke-width: 0.8"/>
      </g>
     </g>
     <g id="text_6">
      <!-- T6 -->
      <g transform="translate(98.995739 251.519688) rotate(-90) scale(0.1 -0.1)">
       <defs>
        <path id="DejaVuSans-Bold-36" d="M 2316 2303 
Q 2000 2303 1842 2098 
Q 1684 1894 1684 1484 
Q 1684 1075 1842 870 
Q 2000 666 2316 666 
Q 2634 666 2792 870 
Q 2950 1075 2950 1484 
Q 2950 1894 2792 2098 
Q 2634 2303 2316 2303 
z
M 3803 4544 
L 3803 3681 
Q 3506 3822 3243 3889 
Q 2981 3956 2731 3956 
Q 2194 3956 1894 3657 
Q 1594 3359 1544 2772 
Q 1750 2925 1990 3001 
Q 2231 3078 2516 3078 
Q 3231 3078 3670 2659 
Q 4109 2241 4109 1563 
Q 4109 813 3618 361 
Q 3128 -91 2303 -91 
Q 1394 -91 895 523 
Q 397 1138 397 2266 
Q 397 3422 980 4083 
Q 1563 4744 2578 4744 
Q 2900 4744 3203 4694 
Q 3506 4644 3803 4544 
z
" transform="scale(0.015625)"/>
       </defs>
       <use xlink:href="#DejaVuSans-Bold-54"/>
       <use xlink:href="#DejaVuSans-Bold-36" x="68.212891"/>
      </g>
     </g>
    </g>
    <g id="xtick_7">
     <g id="line2d_7">
      <g>
       <use xlink:href="#me9e112c585" x="105.615636" y="230.74" style="stroke: #000000; stroke-width: 0.8"/>
      </g>
     </g>
     <g id="text_7">
      <!-- A7 -->
      <g transform="translate(108.375011 252.436875) rotate(-90) scale(0.1 -0.1)">
       <defs>
        <path id="DejaVuSans-Bold-37" d="M 428 4666 
L 3944 4666 
L 3944 3988 
L 2125 0 
L 953 0 
L 2675 3781 
L 428 3781 
L 428 4666 
z
" transform="scale(0.015625)"/>
       </defs>
       <use xlink:href="#DejaVuSans-Bold-41"/>
       <use xlink:href="#DejaVuSans-Bold-37" x="77.392578"/>
      </g>
     </g>
    </g>
    <g id="xtick_8">
     <g id="line2d_8">
      <g>
       <use xlink:href="#me9e112c585" x="114.994909" y="230.74" style="stroke: #000000; stroke-width: 0.8"/>
      </g>
     </g>
     <g id="text_8">
      <!-- R8 -->
      <g transform="translate(117.754284 252.397812) rotate(-90) scale(0.1 -0.1)">
       <defs>
        <path id="DejaVuSans-Bold-38" d="M 2228 2088 
Q 1891 2088 1709 1903 
Q 1528 1719 1528 1375 
Q 1528 1031 1709 848 
Q 1891 666 2228 666 
Q 2563 666 2741 848 
Q 2919 1031 2919 1375 
Q 2919 1722 2741 1905 
Q 2563 2088 2228 2088 
z
M 1350 2484 
Q 925 2613 709 2878 
Q 494 3144 494 3541 
Q 494 4131 934 4440 
Q 1375 4750 2228 4750 
Q 3075 4750 3515 4442 
Q 3956 4134 3956 3541 
Q 3956 3144 3739 2878 
Q 3522 2613 3097 2484 
Q 3572 2353 3814 2058 
Q 4056 1763 4056 1313 
Q 4056 619 3595 264 
Q 3134 -91 2228 -91 
Q 1319 -91 855 264 
Q 391 619 391 1313 
Q 391 1763 633 2058 
Q 875 2353 1350 2484 
z
M 1631 3419 
Q 1631 3141 1786 2991 
Q 1941 2841 2228 2841 
Q 2509 2841 2662 2991 
Q 2816 3141 2816 3419 
Q 2816 3697 2662 3845 
Q 2509 3994 2228 3994 
Q 1941 3994 1786 3844 
Q 1631 3694 1631 3419 
z
" transform="scale(0.015625)"/>
       </defs>
       <use xlink:href="#DejaVuSans-Bold-52"/>
       <use xlink:href="#DejaVuSans-Bold-38" x="77.001953"/>
      </g>
     </g>
    </g>
    <g id="xtick_9">
     <g id="line2d_9">
      <g>
       <use xlink:href="#me9e112c585" x="124.374182" y="230.74" style="stroke: #000000; stroke-width: 0.8"/>
      </g>
     </g>
     <g id="text_9">
      <!-- K9 -->
      <g transform="translate(127.133557 252.44625) rotate(-90) scale(0.1 -0.1)">
       <defs>
        <path id="DejaVuSans-Bold-39" d="M 641 103 
L 641 966 
Q 928 831 1190 764 
Q 1453 697 1709 697 
Q 2247 697 2547 995 
Q 2847 1294 2900 1881 
Q 2688 1725 2447 1647 
Q 2206 1569 1925 1569 
Q 1209 1569 770 1986 
Q 331 2403 331 3084 
Q 331 3838 820 4291 
Q 1309 4744 2131 4744 
Q 3044 4744 3544 4128 
Q 4044 3513 4044 2388 
Q 4044 1231 3459 570 
Q 2875 -91 1856 -91 
Q 1528 -91 1228 -42 
Q 928 6 641 103 
z
M 2125 2350 
Q 2441 2350 2600 2554 
Q 2759 2759 2759 3169 
Q 2759 3575 2600 3781 
Q 2441 3988 2125 3988 
Q 1809 3988 1650 3781 
Q 1491 3575 1491 3169 
Q 1491 2759 1650 2554 
Q 1809 2350 2125 2350 
z
" transform="scale(0.015625)"/>
       </defs>
       <use xlink:href="#DejaVuSans-Bold-4b"/>
       <use xlink:href="#DejaVuSans-Bold-39" x="77.490234"/>
      </g>
     </g>
    </g>
    <g id="xtick_10">
     <g id="line2d_10">
      <g>
       <use xlink:href="#me9e112c585" x="133.753455" y="230.74" style="stroke: #000000; stroke-width: 0.8"/>
      </g>
     </g>
     <g id="text_10">
      <!-- S10 -->
      <g transform="translate(136.51283 258.857188) rotate(-90) scale(0.1 -0.1)">
       <defs>
        <path id="DejaVuSans-Bold-53" d="M 3834 4519 
L 3834 3531 
Q 3450 3703 3084 3790 
Q 2719 3878 2394 3878 
Q 1963 3878 1756 3759 
Q 1550 3641 1550 3391 
Q 1550 3203 1689 3098 
Q 1828 2994 2194 2919 
L 2706 2816 
Q 3484 2659 3812 2340 
Q 4141 2022 4141 1434 
Q 4141 663 3683 286 
Q 3225 -91 2284 -91 
Q 1841 -91 1394 -6 
Q 947 78 500 244 
L 500 1259 
Q 947 1022 1364 901 
Q 1781 781 2169 781 
Q 2563 781 2772 912 
Q 2981 1044 2981 1288 
Q 2981 1506 2839 1625 
Q 2697 1744 2272 1838 
L 1806 1941 
Q 1106 2091 782 2419 
Q 459 2747 459 3303 
Q 459 4000 909 4375 
Q 1359 4750 2203 4750 
Q 2588 4750 2994 4692 
Q 3400 4634 3834 4519 
z
" transform="scale(0.015625)"/>
        <path id="DejaVuSans-Bold-30" d="M 2944 2338 
Q 2944 3213 2780 3570 
Q 2616 3928 2228 3928 
Q 1841 3928 1675 3570 
Q 1509 3213 1509 2338 
Q 1509 1453 1675 1090 
Q 1841 728 2228 728 
Q 2613 728 2778 1090 
Q 2944 1453 2944 2338 
z
M 4147 2328 
Q 4147 1169 3647 539 
Q 3147 -91 2228 -91 
Q 1306 -91 806 539 
Q 306 1169 306 2328 
Q 306 3491 806 4120 
Q 1306 4750 2228 4750 
Q 3147 4750 3647 4120 
Q 4147 3491 4147 2328 
z
" transform="scale(0.015625)"/>
       </defs>
       <use xlink:href="#DejaVuSans-Bold-53"/>
       <use xlink:href="#DejaVuSans-Bold-31" x="72.021484"/>
       <use xlink:href="#DejaVuSans-Bold-30" x="141.601562"/>
      </g>
     </g>
    </g>
    <g id="xtick_11">
     <g id="line2d_11">
      <g>
       <use xlink:href="#me9e112c585" x="143.132727" y="230.74" style="stroke: #000000; stroke-width: 0.8"/>
      </g>
     </g>
     <g id="text_11">
      <!-- T11 -->
      <g transform="translate(145.892102 258.4775) rotate(-90) scale(0.1 -0.1)">
       <use xlink:href="#DejaVuSans-Bold-54"/>
       <use xlink:href="#DejaVuSans-Bold-31" x="68.212891"/>
       <use xlink:href="#DejaVuSans-Bold-31" x="137.792969"/>
      </g>
     </g>
    </g>
    <g id="xtick_12">
     <g id="line2d_12">
      <g>
       <use xlink:href="#me9e112c585" x="152.512" y="230.74" style="stroke: #000000; stroke-width: 0.8"/>
      </g>
     </g>
     <g id="text_12">
      <!-- G12 -->
      <g transform="translate(155.271375 259.863438) rotate(-90) scale(0.1 -0.1)">
       <defs>
        <path id="DejaVuSans-Bold-47" d="M 4781 347 
Q 4331 128 3847 18 
Q 3363 -91 2847 -91 
Q 1681 -91 1000 561 
Q 319 1213 319 2328 
Q 319 3456 1012 4103 
Q 1706 4750 2913 4750 
Q 3378 4750 3804 4662 
Q 4231 4575 4609 4403 
L 4609 3438 
Q 4219 3659 3833 3768 
Q 3447 3878 3059 3878 
Q 2341 3878 1952 3476 
Q 1563 3075 1563 2328 
Q 1563 1588 1938 1184 
Q 2313 781 3003 781 
Q 3191 781 3352 804 
Q 3513 828 3641 878 
L 3641 1784 
L 2906 1784 
L 2906 2591 
L 4781 2591 
L 4781 347 
z
" transform="scale(0.015625)"/>
       </defs>
       <use xlink:href="#DejaVuSans-Bold-47"/>
       <use xlink:href="#DejaVuSans-Bold-31" x="82.080078"/>
       <use xlink:href="#DejaVuSans-Bold-32" x="151.660156"/>
      </g>
     </g>
    </g>
    <g id="xtick_13">
     <g id="line2d_13">
      <g>
       <use xlink:href="#me9e112c585" x="161.891273" y="230.74" style="stroke: #000000; stroke-width: 0.8"/>
      </g>
     </g>
     <g id="text_13">
      <!-- G13 -->
      <g transform="translate(164.650648 259.863438) rotate(-90) scale(0.1 -0.1)">
       <use xlink:href="#DejaVuSans-Bold-47"/>
       <use xlink:href="#DejaVuSans-Bold-31" x="82.080078"/>
       <use xlink:href="#DejaVuSans-Bold-33" x="151.660156"/>
      </g>
     </g>
    </g>
    <g id="xtick_14">
     <g id="line2d_14">
      <g>
       <use xlink:href="#me9e112c585" x="171.270545" y="230.74" style="stroke: #000000; stroke-width: 0.8"/>
      </g>
     </g>
     <g id="text_14">
      <!-- K14 -->
      <g transform="translate(174.02992 259.404063) rotate(-90) scale(0.1 -0.1)">
       <use xlink:href="#DejaVuSans-Bold-4b"/>
       <use xlink:href="#DejaVuSans-Bold-31" x="77.490234"/>
       <use xlink:href="#DejaVuSans-Bold-34" x="147.070312"/>
      </g>
     </g>
    </g>
    <g id="xtick_15">
     <g id="line2d_15">
      <g>
       <use xlink:href="#me9e112c585" x="180.649818" y="230.74" style="stroke: #000000; stroke-width: 0.8"/>
      </g>
     </g>
     <g id="text_15">
      <!-- A15 -->
      <g transform="translate(183.409193 259.394688) rotate(-90) scale(0.1 -0.1)">
       <use xlink:href="#DejaVuSans-Bold-41"/>
       <use xlink:href="#DejaVuSans-Bold-31" x="77.392578"/>
       <use xlink:href="#DejaVuSans-Bold-35" x="146.972656"/>
      </g>
     </g>
    </g>
    <g id="xtick_16">
     <g id="line2d_16">
      <g>
       <use xlink:href="#me9e112c585" x="190.029091" y="230.74" style="stroke: #000000; stroke-width: 0.8"/>
      </g>
     </g>
     <g id="text_16">
      <!-- P16 -->
      <g transform="translate(192.788466 258.985313) rotate(-90) scale(0.1 -0.1)">
       <defs>
        <path id="DejaVuSans-Bold-50" d="M 588 4666 
L 2584 4666 
Q 3475 4666 3951 4270 
Q 4428 3875 4428 3144 
Q 4428 2409 3951 2014 
Q 3475 1619 2584 1619 
L 1791 1619 
L 1791 0 
L 588 0 
L 588 4666 
z
M 1791 3794 
L 1791 2491 
L 2456 2491 
Q 2806 2491 2997 2661 
Q 3188 2831 3188 3144 
Q 3188 3456 2997 3625 
Q 2806 3794 2456 3794 
L 1791 3794 
z
" transform="scale(0.015625)"/>
       </defs>
       <use xlink:href="#DejaVuSans-Bold-50"/>
       <use xlink:href="#DejaVuSans-Bold-31" x="73.291016"/>
       <use xlink:href="#DejaVuSans-Bold-36" x="142.871094"/>
      </g>
     </g>
    </g>
    <g id="xtick_17">
     <g id="line2d_17">
      <g>
       <use xlink:href="#me9e112c585" x="199.408364" y="230.74" style="stroke: #000000; stroke-width: 0.8"/>
      </g>
     </g>
     <g id="text_17">
      <!-- R17 -->
      <g transform="translate(202.167739 259.355625) rotate(-90) scale(0.1 -0.1)">
       <use xlink:href="#DejaVuSans-Bold-52"/>
       <use xlink:href="#DejaVuSans-Bold-31" x="77.001953"/>
       <use xlink:href="#DejaVuSans-Bold-37" x="146.582031"/>
      </g>
     </g>
    </g>
    <g id="xtick_18">
     <g id="line2d_18">
      <g>
       <use xlink:href="#me9e112c585" x="208.787636" y="230.74" style="stroke: #000000; stroke-width: 0.8"/>
      </g>
     </g>
     <g id="text_18">
      <!-- K18 -->
      <g transform="translate(211.547011 259.404063) rotate(-90) scale(0.1 -0.1)">
       <use xlink:href="#DejaVuSans-Bold-4b"/>
       <use xlink:href="#DejaVuSans-Bold-31" x="77.490234"/>
       <use xlink:href="#DejaVuSans-Bold-38" x="147.070312"/>
      </g>
     </g>
    </g>
    <g id="xtick_19">
     <g id="line2d_19">
      <g>
       <use xlink:href="#me9e112c585" x="218.166909" y="230.74" style="stroke: #000000; stroke-width: 0.8"/>
      </g>
     </g>
     <g id="text_19">
      <!-- Q19 -->
      <g transform="translate(220.926284 260.157188) rotate(-90) scale(0.1 -0.1)">
       <use xlink:href="#DejaVuSans-Bold-51"/>
       <use xlink:href="#DejaVuSans-Bold-31" x="85.009766"/>
       <use xlink:href="#DejaVuSans-Bold-39" x="154.589844"/>
      </g>
     </g>
    </g>
    <g id="xtick_20">
     <g id="line2d_20">
      <g>
       <use xlink:href="#me9e112c585" x="227.546182" y="230.74" style="stroke: #000000; stroke-width: 0.8"/>
      </g>
     </g>
     <g id="text_20">
      <!-- L20 -->
      <g transform="translate(230.305557 258.0275) rotate(-90) scale(0.1 -0.1)">
       <defs>
        <path id="DejaVuSans-Bold-4c" d="M 588 4666 
L 1791 4666 
L 1791 909 
L 3903 909 
L 3903 0 
L 588 0 
L 588 4666 
z
" transform="scale(0.015625)"/>
       </defs>
       <use xlink:href="#DejaVuSans-Bold-4c"/>
       <use xlink:href="#DejaVuSans-Bold-32" x="63.720703"/>
       <use xlink:href="#DejaVuSans-Bold-30" x="133.300781"/>
      </g>
     </g>
    </g>
    <g id="xtick_21">
     <g id="line2d_21">
      <g>
       <use xlink:href="#me9e112c585" x="236.925455" y="230.74" style="stroke: #000000; stroke-width: 0.8"/>
      </g>
     </g>
     <g id="text_21">
      <!-- A21 -->
      <g transform="translate(239.68483 259.394688) rotate(-90) scale(0.1 -0.1)">
       <use xlink:href="#DejaVuSans-Bold-41"/>
       <use xlink:href="#DejaVuSans-Bold-32" x="77.392578"/>
       <use xlink:href="#DejaVuSans-Bold-31" x="146.972656"/>
      </g>
     </g>
    </g>
    <g id="xtick_22">
     <g id="line2d_22">
      <g>
       <use xlink:href="#me9e112c585" x="246.304727" y="230.74" style="stroke: #000000; stroke-width: 0.8"/>
      </g>
     </g>
     <g id="text_22">
      <!-- T22 -->
      <g transform="translate(249.064102 258.4775) rotate(-90) scale(0.1 -0.1)">
       <use xlink:href="#DejaVuSans-Bold-54"/>
       <use xlink:href="#DejaVuSans-Bold-32" x="68.212891"/>
       <use xlink:href="#DejaVuSans-Bold-32" x="137.792969"/>
      </g>
     </g>
    </g>
    <g id="xtick_23">
     <g id="line2d_23">
      <g>
       <use xlink:href="#me9e112c585" x="255.684" y="230.74" style="stroke: #000000; stroke-width: 0.8"/>
      </g>
     </g>
     <g id="text_23">
      <!-- K23 -->
      <g transform="translate(258.443375 259.404063) rotate(-90) scale(0.1 -0.1)">
       <use xlink:href="#DejaVuSans-Bold-4b"/>
       <use xlink:href="#DejaVuSans-Bold-32" x="77.490234"/>
       <use xlink:href="#DejaVuSans-Bold-33" x="147.070312"/>
      </g>
     </g>
    </g>
    <g id="xtick_24">
     <g id="line2d_24">
      <g>
       <use xlink:href="#me9e112c585" x="265.063273" y="230.74" style="stroke: #000000; stroke-width: 0.8"/>
      </g>
     </g>
     <g id="text_24">
      <!-- A24 -->
      <g transform="translate(267.822648 259.394688) rotate(-90) scale(0.1 -0.1)">
       <use xlink:href="#DejaVuSans-Bold-41"/>
       <use xlink:href="#DejaVuSans-Bold-32" x="77.392578"/>
       <use xlink:href="#DejaVuSans-Bold-34" x="146.972656"/>
      </g>
     </g>
    </g>
    <g id="xtick_25">
     <g id="line2d_25">
      <g>
       <use xlink:href="#me9e112c585" x="274.442545" y="230.74" style="stroke: #000000; stroke-width: 0.8"/>
      </g>
     </g>
     <g id="text_25">
      <!-- A25 -->
      <g transform="translate(277.20192 259.394688) rotate(-90) scale(0.1 -0.1)">
       <use xlink:href="#DejaVuSans-Bold-41"/>
       <use xlink:href="#DejaVuSans-Bold-32" x="77.392578"/>
       <use xlink:href="#DejaVuSans-Bold-35" x="146.972656"/>
      </g>
     </g>
    </g>
    <g id="xtick_26">
     <g id="line2d_26">
      <g>
       <use xlink:href="#me9e112c585" x="283.821818" y="230.74" style="stroke: #000000; stroke-width: 0.8"/>
      </g>
     </g>
     <g id="text_26">
      <!-- R26 -->
      <g transform="translate(286.581193 259.355625) rotate(-90) scale(0.1 -0.1)">
       <use xlink:href="#DejaVuSans-Bold-52"/>
       <use xlink:href="#DejaVuSans-Bold-32" x="77.001953"/>
       <use xlink:href="#DejaVuSans-Bold-36" x="146.582031"/>
      </g>
     </g>
    </g>
    <g id="xtick_27">
     <g id="line2d_27">
      <g>
       <use xlink:href="#me9e112c585" x="293.201091" y="230.74" style="stroke: #000000; stroke-width: 0.8"/>
      </g>
     </g>
     <g id="text_27">
      <!-- K27 -->
      <g transform="translate(295.960466 259.404063) rotate(-90) scale(0.1 -0.1)">
       <use xlink:href="#DejaVuSans-Bold-4b"/>
       <use xlink:href="#DejaVuSans-Bold-32" x="77.490234"/>
       <use xlink:href="#DejaVuSans-Bold-37" x="147.070312"/>
      </g>
     </g>
    </g>
    <g id="xtick_28">
     <g id="line2d_28">
      <g>
       <use xlink:href="#me9e112c585" x="302.580364" y="230.74" style="stroke: #000000; stroke-width: 0.8"/>
      </g>
     </g>
     <g id="text_28">
      <!-- S28 -->
      <g transform="translate(305.339739 258.857188) rotate(-90) scale(0.1 -0.1)">
       <use xlink:href="#DejaVuSans-Bold-53"/>
       <use xlink:href="#DejaVuSans-Bold-32" x="72.021484"/>
       <use xlink:href="#DejaVuSans-Bold-38" x="141.601562"/>
      </g>
     </g>
    </g>
    <g id="xtick_29">
     <g id="line2d_29">
      <g>
       <use xlink:href="#me9e112c585" x="311.959636" y="230.74" style="stroke: #000000; stroke-width: 0.8"/>
      </g>
     </g>
     <g id="text_29">
      <!-- A29 -->
      <g transform="translate(314.719011 259.394688) rotate(-90) scale(0.1 -0.1)">
       <use xlink:href="#DejaVuSans-Bold-41"/>
       <use xlink:href="#DejaVuSans-Bold-32" x="77.392578"/>
       <use xlink:href="#DejaVuSans-Bold-39" x="146.972656"/>
      </g>
     </g>
    </g>
    <g id="xtick_30">
     <g id="line2d_30">
      <g>
       <use xlink:href="#me9e112c585" x="321.338909" y="230.74" style="stroke: #000000; stroke-width: 0.8"/>
      </g>
     </g>
     <g id="text_30">
      <!-- P30 -->
      <g transform="translate(324.098284 258.985313) rotate(-90) scale(0.1 -0.1)">
       <use xlink:href="#DejaVuSans-Bold-50"/>
       <use xlink:href="#DejaVuSans-Bold-33" x="73.291016"/>
       <use xlink:href="#DejaVuSans-Bold-30" x="142.871094"/>
      </g>
     </g>
    </g>
    <g id="xtick_31">
     <g id="line2d_31">
      <g>
       <use xlink:href="#me9e112c585" x="330.718182" y="230.74" style="stroke: #000000; stroke-width: 0.8"/>
      </g>
     </g>
     <g id="text_31">
      <!-- A31 -->
      <g transform="translate(333.477557 259.394688) rotate(-90) scale(0.1 -0.1)">
       <use xlink:href="#DejaVuSans-Bold-41"/>
       <use xlink:href="#DejaVuSans-Bold-33" x="77.392578"/>
       <use xlink:href="#DejaVuSans-Bold-31" x="146.972656"/>
      </g>
     </g>
    </g>
    <g id="xtick_32">
     <g id="line2d_32">
      <g>
       <use xlink:href="#me9e112c585" x="340.097455" y="230.74" style="stroke: #000000; stroke-width: 0.8"/>
      </g>
     </g>
     <g id="text_32">
      <!-- T32 -->
      <g transform="translate(342.85683 258.4775) rotate(-90) scale(0.1 -0.1)">
       <use xlink:href="#DejaVuSans-Bold-54"/>
       <use xlink:href="#DejaVuSans-Bold-33" x="68.212891"/>
       <use xlink:href="#DejaVuSans-Bold-32" x="137.792969"/>
      </g>
     </g>
    </g>
    <g id="xtick_33">
     <g id="line2d_33">
      <g>
       <use xlink:href="#me9e112c585" x="349.476727" y="230.74" style="stroke: #000000; stroke-width: 0.8"/>
      </g>
     </g>
     <g id="text_33">
      <!-- G33 -->
      <g transform="translate(352.236102 259.863438) rotate(-90) scale(0.1 -0.1)">
       <use xlink:href="#DejaVuSans-Bold-47"/>
       <use xlink:href="#DejaVuSans-Bold-33" x="82.080078"/>
       <use xlink:href="#DejaVuSans-Bold-33" x="151.660156"/>
      </g>
     </g>
    </g>
    <g id="xtick_34">
     <g id="line2d_34">
      <g>
       <use xlink:href="#me9e112c585" x="358.856" y="230.74" style="stroke: #000000; stroke-width: 0.8"/>
      </g>
     </g>
     <g id="text_34">
      <!-- G34 -->
      <g transform="translate(361.615375 259.863438) rotate(-90) scale(0.1 -0.1)">
       <use xlink:href="#DejaVuSans-Bold-47"/>
       <use xlink:href="#DejaVuSans-Bold-33" x="82.080078"/>
       <use xlink:href="#DejaVuSans-Bold-34" x="151.660156"/>
      </g>
     </g>
    </g>
    <g id="xtick_35">
     <g id="line2d_35">
      <g>
       <use xlink:href="#me9e112c585" x="368.235273" y="230.74" style="stroke: #000000; stroke-width: 0.8"/>
      </g>
     </g>
     <g id="text_35">
      <!-- V35 -->
      <g transform="translate(370.994648 259.394688) rotate(-90) scale(0.1 -0.1)">
       <defs>
        <path id="DejaVuSans-Bold-56" d="M 31 4666 
L 1241 4666 
L 2478 1222 
L 3713 4666 
L 4922 4666 
L 3194 0 
L 1759 0 
L 31 4666 
z
" transform="scale(0.015625)"/>
       </defs>
       <use xlink:href="#DejaVuSans-Bold-56"/>
       <use xlink:href="#DejaVuSans-Bold-33" x="77.392578"/>
       <use xlink:href="#DejaVuSans-Bold-35" x="146.972656"/>
      </g>
     </g>
    </g>
    <g id="xtick_36">
     <g id="line2d_36">
      <g>
       <use xlink:href="#me9e112c585" x="377.614545" y="230.74" style="stroke: #000000; stroke-width: 0.8"/>
      </g>
     </g>
     <g id="text_36">
      <!-- K36 -->
      <g transform="translate(380.37392 259.404063) rotate(-90) scale(0.1 -0.1)">
       <use xlink:href="#DejaVuSans-Bold-4b"/>
       <use xlink:href="#DejaVuSans-Bold-33" x="77.490234"/>
       <use xlink:href="#DejaVuSans-Bold-36" x="147.070312"/>
      </g>
     </g>
    </g>
    <g id="xtick_37">
     <g id="line2d_37">
      <g>
       <use xlink:href="#me9e112c585" x="386.993818" y="230.74" style="stroke: #000000; stroke-width: 0.8"/>
      </g>
     </g>
     <g id="text_37">
      <!-- K37 -->
      <g transform="translate(389.753193 259.404063) rotate(-90) scale(0.1 -0.1)">
       <use xlink:href="#DejaVuSans-Bold-4b"/>
       <use xlink:href="#DejaVuSans-Bold-33" x="77.490234"/>
       <use xlink:href="#DejaVuSans-Bold-37" x="147.070312"/>
      </g>
     </g>
    </g>
    <g id="xtick_38">
     <g id="line2d_38">
      <g>
       <use xlink:href="#me9e112c585" x="396.373091" y="230.74" style="stroke: #000000; stroke-width: 0.8"/>
      </g>
     </g>
     <g id="text_38">
      <!-- P38 -->
      <g transform="translate(399.132466 258.985313) rotate(-90) scale(0.1 -0.1)">
       <use xlink:href="#DejaVuSans-Bold-50"/>
       <use xlink:href="#DejaVuSans-Bold-33" x="73.291016"/>
       <use xlink:href="#DejaVuSans-Bold-38" x="142.871094"/>
      </g>
     </g>
    </g>
    <g id="xtick_39">
     <g id="line2d_39">
      <g>
       <use xlink:href="#me9e112c585" x="405.752364" y="230.74" style="stroke: #000000; stroke-width: 0.8"/>
      </g>
     </g>
     <g id="text_39">
      <!-- H39 -->
      <g transform="translate(408.511739 260.024375) rotate(-90) scale(0.1 -0.1)">
       <defs>
        <path id="DejaVuSans-Bold-48" d="M 588 4666 
L 1791 4666 
L 1791 2888 
L 3566 2888 
L 3566 4666 
L 4769 4666 
L 4769 0 
L 3566 0 
L 3566 1978 
L 1791 1978 
L 1791 0 
L 588 0 
L 588 4666 
z
" transform="scale(0.015625)"/>
       </defs>
       <use xlink:href="#DejaVuSans-Bold-48"/>
       <use xlink:href="#DejaVuSans-Bold-33" x="83.691406"/>
       <use xlink:href="#DejaVuSans-Bold-39" x="153.271484"/>
      </g>
     </g>
    </g>
    <g id="xtick_40">
     <g id="line2d_40">
      <g>
       <use xlink:href="#me9e112c585" x="415.131636" y="230.74" style="stroke: #000000; stroke-width: 0.8"/>
      </g>
     </g>
     <g id="text_40">
      <!-- R40 -->
      <g transform="translate(417.891011 259.355625) rotate(-90) scale(0.1 -0.1)">
       <use xlink:href="#DejaVuSans-Bold-52"/>
       <use xlink:href="#DejaVuSans-Bold-34" x="77.001953"/>
       <use xlink:href="#DejaVuSans-Bold-30" x="146.582031"/>
      </g>
     </g>
    </g>
    <g id="xtick_41">
     <g id="line2d_41">
      <g>
       <use xlink:href="#me9e112c585" x="424.510909" y="230.74" style="stroke: #000000; stroke-width: 0.8"/>
      </g>
     </g>
     <g id="text_41">
      <!-- Y41 -->
      <g transform="translate(427.270284 258.89625) rotate(-90) scale(0.1 -0.1)">
       <defs>
        <path id="DejaVuSans-Bold-59" d="M -63 4666 
L 1253 4666 
L 2316 3003 
L 3378 4666 
L 4697 4666 
L 2919 1966 
L 2919 0 
L 1716 0 
L 1716 1966 
L -63 4666 
z
" transform="scale(0.015625)"/>
       </defs>
       <use xlink:href="#DejaVuSans-Bold-59"/>
       <use xlink:href="#DejaVuSans-Bold-34" x="72.412109"/>
       <use xlink:href="#DejaVuSans-Bold-31" x="141.992188"/>
      </g>
     </g>
    </g>
    <g id="xtick_42">
     <g id="line2d_42">
      <g>
       <use xlink:href="#me9e112c585" x="433.890182" y="230.74" style="stroke: #000000; stroke-width: 0.8"/>
      </g>
     </g>
     <g id="text_42">
      <!-- R42 -->
      <g transform="translate(436.649557 259.355625) rotate(-90) scale(0.1 -0.1)">
       <use xlink:href="#DejaVuSans-Bold-52"/>
       <use xlink:href="#DejaVuSans-Bold-34" x="77.001953"/>
       <use xlink:href="#DejaVuSans-Bold-32" x="146.582031"/>
      </g>
     </g>
    </g>
    <g id="xtick_43">
     <g id="line2d_43">
      <g>
       <use xlink:href="#me9e112c585" x="443.269455" y="230.74" style="stroke: #000000; stroke-width: 0.8"/>
      </g>
     </g>
     <g id="text_43">
      <!-- P43 -->
      <g transform="translate(446.02883 258.985313) rotate(-90) scale(0.1 -0.1)">
       <use xlink:href="#DejaVuSans-Bold-50"/>
       <use xlink:href="#DejaVuSans-Bold-34" x="73.291016"/>
       <use xlink:href="#DejaVuSans-Bold-33" x="142.871094"/>
      </g>
     </g>
    </g>
    <g id="xtick_44">
     <g id="line2d_44">
      <g>
       <use xlink:href="#me9e112c585" x="452.648727" y="230.74" style="stroke: #000000; stroke-width: 0.8"/>
      </g>
     </g>
     <g id="text_44">
      <!-- G44 -->
      <g transform="translate(455.408102 259.863438) rotate(-90) scale(0.1 -0.1)">
       <use xlink:href="#DejaVuSans-Bold-47"/>
       <use xlink:href="#DejaVuSans-Bold-34" x="82.080078"/>
       <use xlink:href="#DejaVuSans-Bold-34" x="151.660156"/>
      </g>
     </g>
    </g>
    <g id="xtick_45">
     <g id="line2d_45">
      <g>
       <use xlink:href="#me9e112c585" x="462.028" y="230.74" style="stroke: #000000; stroke-width: 0.8"/>
      </g>
     </g>
     <g id="text_45">
      <!-- T45 -->
      <g transform="translate(464.787375 258.4775) rotate(-90) scale(0.1 -0.1)">
       <use xlink:href="#DejaVuSans-Bold-54"/>
       <use xlink:href="#DejaVuSans-Bold-34" x="68.212891"/>
       <use xlink:href="#DejaVuSans-Bold-35" x="137.792969"/>
      </g>
     </g>
    </g>
    <g id="xtick_46">
     <g id="line2d_46">
      <g>
       <use xlink:href="#me9e112c585" x="471.407273" y="230.74" style="stroke: #000000; stroke-width: 0.8"/>
      </g>
     </g>
     <g id="text_46">
      <!-- V46 -->
      <g transform="translate(474.166648 259.394688) rotate(-90) scale(0.1 -0.1)">
       <use xlink:href="#DejaVuSans-Bold-56"/>
       <use xlink:href="#DejaVuSans-Bold-34" x="77.392578"/>
       <use xlink:href="#DejaVuSans-Bold-36" x="146.972656"/>
      </g>
     </g>
    </g>
    <g id="xtick_47">
     <g id="line2d_47">
      <g>
       <use xlink:href="#me9e112c585" x="480.786545" y="230.74" style="stroke: #000000; stroke-width: 0.8"/>
      </g>
     </g>
     <g id="text_47">
      <!-- A47 -->
      <g transform="translate(483.54592 259.394688) rotate(-90) scale(0.1 -0.1)">
       <use xlink:href="#DejaVuSans-Bold-41"/>
       <use xlink:href="#DejaVuSans-Bold-34" x="77.392578"/>
       <use xlink:href="#DejaVuSans-Bold-37" x="146.972656"/>
      </g>
     </g>
    </g>
    <g id="xtick_48">
     <g id="line2d_48">
      <g>
       <use xlink:href="#me9e112c585" x="490.165818" y="230.74" style="stroke: #000000; stroke-width: 0.8"/>
      </g>
     </g>
     <g id="text_48">
      <!-- L48 -->
      <g transform="translate(492.925193 258.0275) rotate(-90) scale(0.1 -0.1)">
       <use xlink:href="#DejaVuSans-Bold-4c"/>
       <use xlink:href="#DejaVuSans-Bold-34" x="63.720703"/>
       <use xlink:href="#DejaVuSans-Bold-38" x="133.300781"/>
      </g>
     </g>
    </g>
    <g id="xtick_49">
     <g id="line2d_49">
      <g>
       <use xlink:href="#me9e112c585" x="499.545091" y="230.74" style="stroke: #000000; stroke-width: 0.8"/>
      </g>
     </g>
     <g id="text_49">
      <!-- R49 -->
      <g transform="translate(502.304466 259.355625) rotate(-90) scale(0.1 -0.1)">
       <use xlink:href="#DejaVuSans-Bold-52"/>
       <use xlink:href="#DejaVuSans-Bold-34" x="77.001953"/>
       <use xlink:href="#DejaVuSans-Bold-39" x="146.582031"/>
      </g>
     </g>
    </g>
    <g id="xtick_50">
     <g id="line2d_50">
      <g>
       <use xlink:href="#me9e112c585" x="508.924364" y="230.74" style="stroke: #000000; stroke-width: 0.8"/>
      </g>
     </g>
     <g id="text_50">
      <!-- E50 -->
      <g transform="translate(511.683739 258.486875) rotate(-90) scale(0.1 -0.1)">
       <defs>
        <path id="DejaVuSans-Bold-45" d="M 588 4666 
L 3834 4666 
L 3834 3756 
L 1791 3756 
L 1791 2888 
L 3713 2888 
L 3713 1978 
L 1791 1978 
L 1791 909 
L 3903 909 
L 3903 0 
L 588 0 
L 588 4666 
z
" transform="scale(0.015625)"/>
       </defs>
       <use xlink:href="#DejaVuSans-Bold-45"/>
       <use xlink:href="#DejaVuSans-Bold-35" x="68.310547"/>
       <use xlink:href="#DejaVuSans-Bold-30" x="137.890625"/>
      </g>
     </g>
    </g>
    <g id="xtick_51">
     <g id="line2d_51">
      <g>
       <use xlink:href="#me9e112c585" x="518.303636" y="230.74" style="stroke: #000000; stroke-width: 0.8"/>
      </g>
     </g>
     <g id="text_51">
      <!-- I51 -->
      <g transform="translate(521.063011 255.375938) rotate(-90) scale(0.1 -0.1)">
       <defs>
        <path id="DejaVuSans-Bold-49" d="M 588 4666 
L 1791 4666 
L 1791 0 
L 588 0 
L 588 4666 
z
" transform="scale(0.015625)"/>
       </defs>
       <use xlink:href="#DejaVuSans-Bold-49"/>
       <use xlink:href="#DejaVuSans-Bold-35" x="37.207031"/>
       <use xlink:href="#DejaVuSans-Bold-31" x="106.787109"/>
      </g>
     </g>
    </g>
    <g id="xtick_52">
     <g id="line2d_52">
      <g>
       <use xlink:href="#me9e112c585" x="527.682909" y="230.74" style="stroke: #000000; stroke-width: 0.8"/>
      </g>
     </g>
     <g id="text_52">
      <!-- R52 -->
      <g transform="translate(530.442284 259.355625) rotate(-90) scale(0.1 -0.1)">
       <use xlink:href="#DejaVuSans-Bold-52"/>
       <use xlink:href="#DejaVuSans-Bold-35" x="77.001953"/>
       <use xlink:href="#DejaVuSans-Bold-32" x="146.582031"/>
      </g>
     </g>
    </g>
    <g id="xtick_53">
     <g id="line2d_53">
      <g>
       <use xlink:href="#me9e112c585" x="537.062182" y="230.74" style="stroke: #000000; stroke-width: 0.8"/>
      </g>
     </g>
     <g id="text_53">
      <!-- R53 -->
      <g transform="translate(539.821557 259.355625) rotate(-90) scale(0.1 -0.1)">
       <use xlink:href="#DejaVuSans-Bold-52"/>
       <use xlink:href="#DejaVuSans-Bold-35" x="77.001953"/>
       <use xlink:href="#DejaVuSans-Bold-33" x="146.582031"/>
      </g>
     </g>
    </g>
    <g id="xtick_54">
     <g id="line2d_54">
      <g>
       <use xlink:href="#me9e112c585" x="546.441455" y="230.74" style="stroke: #000000; stroke-width: 0.8"/>
      </g>
     </g>
     <g id="text_54">
      <!-- Y54 -->
      <g transform="translate(549.20083 258.89625) rotate(-90) scale(0.1 -0.1)">
       <use xlink:href="#DejaVuSans-Bold-59"/>
       <use xlink:href="#DejaVuSans-Bold-35" x="72.412109"/>
       <use xlink:href="#DejaVuSans-Bold-34" x="141.992188"/>
      </g>
     </g>
    </g>
    <g id="xtick_55">
     <g id="line2d_55">
      <g>
       <use xlink:href="#me9e112c585" x="555.820727" y="230.74" style="stroke: #000000; stroke-width: 0.8"/>
      </g>
     </g>
     <g id="text_55">
      <!-- Q55 -->
      <g transform="translate(558.580102 260.157188) rotate(-90) scale(0.1 -0.1)">
       <use xlink:href="#DejaVuSans-Bold-51"/>
       <use xlink:href="#DejaVuSans-Bold-35" x="85.009766"/>
       <use xlink:href="#DejaVuSans-Bold-35" x="154.589844"/>
      </g>
     </g>
    </g>
    <g id="text_56">
     <!-- Residue -->
     <g transform="translate(278.070781 274.035156) scale(0.13 -0.13)">
      <defs>
       <path id="DejaVuSans-Bold-65" d="M 4031 1759 
L 4031 1441 
L 1416 1441 
Q 1456 1047 1700 850 
Q 1944 653 2381 653 
Q 2734 653 3104 758 
Q 3475 863 3866 1075 
L 3866 213 
Q 3469 63 3072 -14 
Q 2675 -91 2278 -91 
Q 1328 -91 801 392 
Q 275 875 275 1747 
Q 275 2603 792 3093 
Q 1309 3584 2216 3584 
Q 3041 3584 3536 3087 
Q 4031 2591 4031 1759 
z
M 2881 2131 
Q 2881 2450 2695 2645 
Q 2509 2841 2209 2841 
Q 1884 2841 1681 2658 
Q 1478 2475 1428 2131 
L 2881 2131 
z
" transform="scale(0.015625)"/>
       <path id="DejaVuSans-Bold-73" d="M 3272 3391 
L 3272 2541 
Q 2913 2691 2578 2766 
Q 2244 2841 1947 2841 
Q 1628 2841 1473 2761 
Q 1319 2681 1319 2516 
Q 1319 2381 1436 2309 
Q 1553 2238 1856 2203 
L 2053 2175 
Q 2913 2066 3209 1816 
Q 3506 1566 3506 1031 
Q 3506 472 3093 190 
Q 2681 -91 1863 -91 
Q 1516 -91 1145 -36 
Q 775 19 384 128 
L 384 978 
Q 719 816 1070 734 
Q 1422 653 1784 653 
Q 2113 653 2278 743 
Q 2444 834 2444 1013 
Q 2444 1163 2330 1236 
Q 2216 1309 1875 1350 
L 1678 1375 
Q 931 1469 631 1722 
Q 331 1975 331 2491 
Q 331 3047 712 3315 
Q 1094 3584 1881 3584 
Q 2191 3584 2531 3537 
Q 2872 3491 3272 3391 
z
" transform="scale(0.015625)"/>
       <path id="DejaVuSans-Bold-69" d="M 538 3500 
L 1656 3500 
L 1656 0 
L 538 0 
L 538 3500 
z
M 538 4863 
L 1656 4863 
L 1656 3950 
L 538 3950 
L 538 4863 
z
" transform="scale(0.015625)"/>
       <path id="DejaVuSans-Bold-64" d="M 2919 2988 
L 2919 4863 
L 4044 4863 
L 4044 0 
L 2919 0 
L 2919 506 
Q 2688 197 2409 53 
Q 2131 -91 1766 -91 
Q 1119 -91 703 423 
Q 288 938 288 1747 
Q 288 2556 703 3070 
Q 1119 3584 1766 3584 
Q 2128 3584 2408 3439 
Q 2688 3294 2919 2988 
z
M 2181 722 
Q 2541 722 2730 984 
Q 2919 1247 2919 1747 
Q 2919 2247 2730 2509 
Q 2541 2772 2181 2772 
Q 1825 2772 1636 2509 
Q 1447 2247 1447 1747 
Q 1447 1247 1636 984 
Q 1825 722 2181 722 
z
" transform="scale(0.015625)"/>
       <path id="DejaVuSans-Bold-75" d="M 500 1363 
L 500 3500 
L 1625 3500 
L 1625 3150 
Q 1625 2866 1622 2436 
Q 1619 2006 1619 1863 
Q 1619 1441 1641 1255 
Q 1663 1069 1716 984 
Q 1784 875 1895 815 
Q 2006 756 2150 756 
Q 2500 756 2700 1025 
Q 2900 1294 2900 1772 
L 2900 3500 
L 4019 3500 
L 4019 0 
L 2900 0 
L 2900 506 
Q 2647 200 2364 54 
Q 2081 -91 1741 -91 
Q 1134 -91 817 281 
Q 500 653 500 1363 
z
" transform="scale(0.015625)"/>
      </defs>
      <use xlink:href="#DejaVuSans-Bold-52"/>
      <use xlink:href="#DejaVuSans-Bold-65" x="77.001953"/>
      <use xlink:href="#DejaVuSans-Bold-73" x="144.824219"/>
      <use xlink:href="#DejaVuSans-Bold-69" x="204.345703"/>
      <use xlink:href="#DejaVuSans-Bold-64" x="238.623047"/>
      <use xlink:href="#DejaVuSans-Bold-75" x="310.205078"/>
      <use xlink:href="#DejaVuSans-Bold-65" x="381.396484"/>
     </g>
    </g>
   </g>
   <g id="matplotlib.axis_2">
    <g id="ytick_1">
     <g id="line2d_56">
      <defs>
       <path id="m85ca919b57" d="M 0 0 
L -3.5 0 
" style="stroke: #000000; stroke-width: 0.8"/>
      </defs>
      <g>
       <use xlink:href="#m85ca919b57" x="49.34" y="218.035294" style="stroke: #000000; stroke-width: 0.8"/>
      </g>
     </g>
     <g id="text_57">
      <!-- 0 -->
      <g transform="translate(35.382188 221.834513) scale(0.1 -0.1)">
       <use xlink:href="#DejaVuSans-Bold-30"/>
      </g>
     </g>
    </g>
    <g id="ytick_2">
     <g id="line2d_57">
      <g>
       <use xlink:href="#m85ca919b57" x="49.34" y="205.330588" style="stroke: #000000; stroke-width: 0.8"/>
      </g>
     </g>
     <g id="text_58">
      <!-- 1 -->
      <g transform="translate(35.382188 209.129807) scale(0.1 -0.1)">
       <use xlink:href="#DejaVuSans-Bold-31"/>
      </g>
     </g>
    </g>
    <g id="ytick_3">
     <g id="line2d_58">
      <g>
       <use xlink:href="#m85ca919b57" x="49.34" y="192.625882" style="stroke: #000000; stroke-width: 0.8"/>
      </g>
     </g>
     <g id="text_59">
      <!-- 2 -->
      <g transform="translate(35.382188 196.425101) scale(0.1 -0.1)">
       <use xlink:href="#DejaVuSans-Bold-32"/>
      </g>
     </g>
    </g>
    <g id="ytick_4">
     <g id="line2d_59">
      <g>
       <use xlink:href="#m85ca919b57" x="49.34" y="179.921176" style="stroke: #000000; stroke-width: 0.8"/>
      </g>
     </g>
     <g id="text_60">
      <!-- 3 -->
      <g transform="translate(35.382188 183.720395) scale(0.1 -0.1)">
       <use xlink:href="#DejaVuSans-Bold-33"/>
      </g>
     </g>
    </g>
    <g id="ytick_5">
     <g id="line2d_60">
      <g>
       <use xlink:href="#m85ca919b57" x="49.34" y="167.216471" style="stroke: #000000; stroke-width: 0.8"/>
      </g>
     </g>
     <g id="text_61">
      <!-- 4 -->
      <g transform="translate(35.382188 171.015689) scale(0.1 -0.1)">
       <use xlink:href="#DejaVuSans-Bold-34"/>
      </g>
     </g>
    </g>
    <g id="ytick_6">
     <g id="line2d_61">
      <g>
       <use xlink:href="#m85ca919b57" x="49.34" y="154.511765" style="stroke: #000000; stroke-width: 0.8"/>
      </g>
     </g>
     <g id="text_62">
      <!-- 5 -->
      <g transform="translate(35.382188 158.310983) scale(0.1 -0.1)">
       <use xlink:href="#DejaVuSans-Bold-35"/>
      </g>
     </g>
    </g>
    <g id="ytick_7">
     <g id="line2d_62">
      <g>
       <use xlink:href="#m85ca919b57" x="49.34" y="141.807059" style="stroke: #000000; stroke-width: 0.8"/>
      </g>
     </g>
     <g id="text_63">
      <!-- 6 -->
      <g transform="translate(35.382188 145.606278) scale(0.1 -0.1)">
       <use xlink:href="#DejaVuSans-Bold-36"/>
      </g>
     </g>
    </g>
    <g id="ytick_8">
     <g id="line2d_63">
      <g>
       <use xlink:href="#m85ca919b57" x="49.34" y="129.102353" style="stroke: #000000; stroke-width: 0.8"/>
      </g>
     </g>
     <g id="text_64">
      <!-- 7 -->
      <g transform="translate(35.382188 132.901572) scale(0.1 -0.1)">
       <use xlink:href="#DejaVuSans-Bold-37"/>
      </g>
     </g>
    </g>
    <g id="ytick_9">
     <g id="line2d_64">
      <g>
       <use xlink:href="#m85ca919b57" x="49.34" y="116.397647" style="stroke: #000000; stroke-width: 0.8"/>
      </g>
     </g>
     <g id="text_65">
      <!-- 8 -->
      <g transform="translate(35.382188 120.196866) scale(0.1 -0.1)">
       <use xlink:href="#DejaVuSans-Bold-38"/>
      </g>
     </g>
    </g>
    <g id="ytick_10">
     <g id="line2d_65">
      <g>
       <use xlink:href="#m85ca919b57" x="49.34" y="103.692941" style="stroke: #000000; stroke-width: 0.8"/>
      </g>
     </g>
     <g id="text_66">
      <!-- 9 -->
      <g transform="translate(35.382188 107.49216) scale(0.1 -0.1)">
       <use xlink:href="#DejaVuSans-Bold-39"/>
      </g>
     </g>
    </g>
    <g id="ytick_11">
     <g id="line2d_66">
      <g>
       <use xlink:href="#m85ca919b57" x="49.34" y="90.988235" style="stroke: #000000; stroke-width: 0.8"/>
      </g>
     </g>
     <g id="text_67">
      <!-- 10 -->
      <g transform="translate(28.424375 94.787454) scale(0.1 -0.1)">
       <use xlink:href="#DejaVuSans-Bold-31"/>
       <use xlink:href="#DejaVuSans-Bold-30" x="69.580078"/>
      </g>
     </g>
    </g>
    <g id="ytick_12">
     <g id="line2d_67">
      <g>
       <use xlink:href="#m85ca919b57" x="49.34" y="78.283529" style="stroke: #000000; stroke-width: 0.8"/>
      </g>
     </g>
     <g id="text_68">
      <!-- 11 -->
      <g transform="translate(28.424375 82.082748) scale(0.1 -0.1)">
       <use xlink:href="#DejaVuSans-Bold-31"/>
       <use xlink:href="#DejaVuSans-Bold-31" x="69.580078"/>
      </g>
     </g>
    </g>
    <g id="ytick_13">
     <g id="line2d_68">
      <g>
       <use xlink:href="#m85ca919b57" x="49.34" y="65.578824" style="stroke: #000000; stroke-width: 0.8"/>
      </g>
     </g>
     <g id="text_69">
      <!-- 12 -->
      <g transform="translate(28.424375 69.378042) scale(0.1 -0.1)">
       <use xlink:href="#DejaVuSans-Bold-31"/>
       <use xlink:href="#DejaVuSans-Bold-32" x="69.580078"/>
      </g>
     </g>
    </g>
    <g id="ytick_14">
     <g id="line2d_69">
      <g>
       <use xlink:href="#m85ca919b57" x="49.34" y="52.874118" style="stroke: #000000; stroke-width: 0.8"/>
      </g>
     </g>
     <g id="text_70">
      <!-- 13 -->
      <g transform="translate(28.424375 56.673336) scale(0.1 -0.1)">
       <use xlink:href="#DejaVuSans-Bold-31"/>
       <use xlink:href="#DejaVuSans-Bold-33" x="69.580078"/>
      </g>
     </g>
    </g>
    <g id="ytick_15">
     <g id="line2d_70">
      <g>
       <use xlink:href="#m85ca919b57" x="49.34" y="40.169412" style="stroke: #000000; stroke-width: 0.8"/>
      </g>
     </g>
     <g id="text_71">
      <!-- 14 -->
      <g transform="translate(28.424375 43.968631) scale(0.1 -0.1)">
       <use xlink:href="#DejaVuSans-Bold-31"/>
       <use xlink:href="#DejaVuSans-Bold-34" x="69.580078"/>
      </g>
     </g>
    </g>
    <g id="ytick_16">
     <g id="line2d_71">
      <g>
       <use xlink:href="#m85ca919b57" x="49.34" y="27.464706" style="stroke: #000000; stroke-width: 0.8"/>
      </g>
     </g>
     <g id="text_72">
      <!-- 15 -->
      <g transform="translate(28.424375 31.263925) scale(0.1 -0.1)">
       <use xlink:href="#DejaVuSans-Bold-31"/>
       <use xlink:href="#DejaVuSans-Bold-35" x="69.580078"/>
      </g>
     </g>
    </g>
    <g id="ytick_17">
     <g id="line2d_72">
      <g>
       <use xlink:href="#m85ca919b57" x="49.34" y="14.76" style="stroke: #000000; stroke-width: 0.8"/>
      </g>
     </g>
     <g id="text_73">
      <!-- 16 -->
      <g transform="translate(28.424375 18.559219) scale(0.1 -0.1)">
       <use xlink:href="#DejaVuSans-Bold-31"/>
       <use xlink:href="#DejaVuSans-Bold-36" x="69.580078"/>
      </g>
     </g>
    </g>
    <g id="text_74">
     <!-- RMSF ($\mathrm{\AA}$) -->
     <g transform="translate(22.344688 148.35) rotate(-90) scale(0.1 -0.1)">
      <defs>
       <path id="DejaVuSans-Bold-4d" d="M 588 4666 
L 2119 4666 
L 3181 2169 
L 4250 4666 
L 5778 4666 
L 5778 0 
L 4641 0 
L 4641 3413 
L 3566 897 
L 2803 897 
L 1728 3413 
L 1728 0 
L 588 0 
L 588 4666 
z
" transform="scale(0.015625)"/>
       <path id="DejaVuSans-Bold-46" d="M 588 4666 
L 3834 4666 
L 3834 3756 
L 1791 3756 
L 1791 2888 
L 3713 2888 
L 3713 1978 
L 1791 1978 
L 1791 0 
L 588 0 
L 588 4666 
z
" transform="scale(0.015625)"/>
       <path id="DejaVuSans-Bold-20" transform="scale(0.015625)"/>
       <path id="DejaVuSans-Bold-28" d="M 2413 -844 
L 1484 -844 
Q 1006 -72 778 623 
Q 550 1319 550 2003 
Q 550 2688 779 3389 
Q 1009 4091 1484 4856 
L 2413 4856 
Q 2013 4116 1813 3408 
Q 1613 2700 1613 2009 
Q 1613 1319 1811 609 
Q 2009 -100 2413 -844 
z
" transform="scale(0.015625)"/>
       <path id="DejaVuSans-c5" d="M 2663 5081 
Q 2663 5278 2523 5417 
Q 2384 5556 2188 5556 
Q 1988 5556 1852 5420 
Q 1716 5284 1716 5081 
Q 1716 4884 1853 4746 
Q 1991 4609 2188 4609 
Q 2384 4609 2523 4746 
Q 2663 4884 2663 5081 
z
M 2188 4044 
L 1338 1722 
L 3041 1722 
L 2188 4044 
z
M 1716 4366 
Q 1525 4494 1428 4673 
Q 1331 4853 1331 5081 
Q 1331 5441 1579 5691 
Q 1828 5941 2188 5941 
Q 2544 5941 2795 5689 
Q 3047 5438 3047 5081 
Q 3047 4863 2948 4678 
Q 2850 4494 2663 4366 
L 4325 0 
L 3669 0 
L 3244 1197 
L 1141 1197 
L 716 0 
L 50 0 
L 1716 4366 
z
" transform="scale(0.015625)"/>
       <path id="DejaVuSans-Bold-29" d="M 513 -844 
Q 913 -100 1113 609 
Q 1313 1319 1313 2009 
Q 1313 2700 1113 3408 
Q 913 4116 513 4856 
L 1441 4856 
Q 1916 4091 2145 3389 
Q 2375 2688 2375 2003 
Q 2375 1319 2147 623 
Q 1919 -72 1441 -844 
L 513 -844 
z
" transform="scale(0.015625)"/>
      </defs>
      <use xlink:href="#DejaVuSans-Bold-52" transform="translate(0 0.171875)"/>
      <use xlink:href="#DejaVuSans-Bold-4d" transform="translate(77.001953 0.171875)"/>
      <use xlink:href="#DejaVuSans-Bold-53" transform="translate(176.513672 0.171875)"/>
      <use xlink:href="#DejaVuSans-Bold-46" transform="translate(248.535156 0.171875)"/>
      <use xlink:href="#DejaVuSans-Bold-20" transform="translate(316.845703 0.171875)"/>
      <use xlink:href="#DejaVuSans-Bold-28" transform="translate(351.660156 0.171875)"/>
      <use xlink:href="#DejaVuSans-c5" transform="translate(397.363281 0.171875)"/>
      <use xlink:href="#DejaVuSans-Bold-29" transform="translate(465.771484 0.171875)"/>
     </g>
    </g>
   </g>
   <g id="line2d_73">
    <path d="M 49.34 163.251332 
L 58.719273 170.665798 
L 68.098545 175.036217 
L 77.477818 168.668618 
L 86.857091 160.662113 
L 96.236364 160.14122 
L 105.615636 155.885143 
L 114.994909 141.357312 
L 124.374182 148.01839 
L 133.753455 153.032937 
L 143.132727 155.952478 
L 152.512 155.774612 
L 161.891273 152.141067 
L 171.270545 145.394868 
L 180.649818 151.12469 
L 190.029091 146.360425 
L 199.408364 139.718405 
L 208.787636 138.179865 
L 218.166909 136.406288 
L 227.546182 141.319198 
L 236.925455 148.443997 
L 246.304727 147.084594 
L 255.684 146.279115 
L 265.063273 152.968143 
L 274.442545 149.835162 
L 283.821818 142.822165 
L 293.201091 135.636383 
L 302.580364 138.160808 
L 311.959636 144.984506 
L 321.338909 145.40122 
L 330.718182 139.686643 
L 340.097455 145.035325 
L 349.476727 157.042542 
L 358.856 170.247813 
L 368.235273 183.030018 
L 377.614545 193.881107 
L 386.993818 202.590183 
L 396.373091 208.654139 
L 405.752364 211.884946 
L 415.131636 214.202284 
L 424.510909 217.414034 
L 433.890182 212.962305 
L 443.269455 219.34642 
L 452.648727 220.253536 
L 462.028 219.556047 
L 480.786545 221.47954 
L 490.165818 219.334986 
L 499.545091 214.115892 
L 508.924364 216.763553 
L 518.303636 222.138914 
L 527.682909 211.284013 
L 537.062182 211.469502 
L 546.441455 220.998032 
L 555.820727 221.380443 
L 565.2 216.125777 
L 574.579273 219.873665 
L 577 220.046468 
L 577 220.046468 
" clip-path="url(#p8798cec887)" style="fill: none; stroke: #000000; stroke-width: 1.5; stroke-linecap: square"/>
   </g>
   <g id="line2d_74">
    <path d="M 49.34 101.506461 
L 58.719273 107.611072 
L 68.098545 126.102772 
L 77.477818 129.305628 
L 86.857091 135.46614 
L 96.236364 148.820056 
L 105.615636 153.133304 
L 114.994909 152.862694 
L 124.374182 154.022634 
L 133.753455 150.068929 
L 143.132727 147.618191 
L 152.512 154.150951 
L 161.891273 158.266005 
L 171.270545 155.576419 
L 180.649818 166.310625 
L 190.029091 165.286626 
L 199.408364 165.167202 
L 208.787636 161.970698 
L 218.166909 153.09646 
L 227.546182 152.722942 
L 236.925455 156.131615 
L 246.304727 158.767841 
L 255.684 148.619322 
L 265.063273 145.516833 
L 274.442545 133.038271 
L 283.821818 117.541071 
L 293.201091 103.04119 
L 302.580364 108.373355 
L 311.959636 123.579617 
L 321.338909 127.900488 
L 330.718182 129.836685 
L 340.097455 138.074416 
L 349.476727 149.869465 
L 358.856 162.095204 
L 368.235273 171.198125 
L 377.614545 177.816007 
L 386.993818 190.497844 
L 396.373091 203.511274 
L 405.752364 208.665574 
L 415.131636 208.640164 
L 424.510909 211.740112 
L 433.890182 206.184344 
L 443.269455 212.296578 
L 452.648727 213.822414 
L 462.028 213.565779 
L 471.407273 215.320298 
L 480.786545 215.923772 
L 499.545091 212.686613 
L 508.924364 213.653441 
L 518.303636 217.433091 
L 527.682909 207.297277 
L 537.062182 208.400045 
L 546.441455 217.868862 
L 555.820727 217.617309 
L 565.2 213.213858 
L 574.579273 217.490262 
L 577 217.733892 
L 577 217.733892 
" clip-path="url(#p8798cec887)" style="fill: none; stroke: #ffa500; stroke-width: 1.5; stroke-linecap: square"/>
   </g>
   <g id="line2d_75">
    <path d="M 49.34 119.719928 
L 58.719273 129.719802 
L 68.098545 126.657968 
L 77.477818 119.501407 
L 86.857091 125.242663 
L 96.236364 120.247173 
L 105.615636 123.756213 
L 114.994909 134.202022 
L 124.374182 125.064797 
L 133.753455 136.914477 
L 143.132727 143.163921 
L 152.512 149.891063 
L 161.891273 154.316112 
L 171.270545 158.267276 
L 180.649818 165.465762 
L 190.029091 166.059072 
L 199.408364 165.674119 
L 218.166909 161.106778 
L 227.546182 168.875705 
L 236.925455 167.583637 
L 246.304727 162.341675 
L 255.684 158.880913 
L 265.063273 165.380641 
L 274.442545 165.750348 
L 283.821818 164.796224 
L 293.201091 163.161128 
L 302.580364 160.866659 
L 311.959636 161.724226 
L 321.338909 155.728876 
L 330.718182 146.347721 
L 340.097455 142.272051 
L 349.476727 150.471668 
L 358.856 157.099713 
L 368.235273 165.036343 
L 377.614545 168.598743 
L 386.993818 173.023792 
L 396.373091 178.638001 
L 405.752364 183.831685 
L 415.131636 184.339873 
L 424.510909 188.418084 
L 433.890182 184.437699 
L 443.269455 190.304733 
L 452.648727 193.13153 
L 462.028 191.994458 
L 480.786545 196.380123 
L 490.165818 195.827468 
L 499.545091 191.990647 
L 508.924364 195.946892 
L 518.303636 200.337639 
L 527.682909 194.194914 
L 537.062182 194.570973 
L 546.441455 201.487415 
L 555.820727 203.20382 
L 565.2 200.769599 
L 574.579273 203.449021 
L 577 203.990712 
L 577 203.990712 
" clip-path="url(#p8798cec887)" style="fill: none; stroke: #0000ff; stroke-width: 1.5; stroke-linecap: square"/>
   </g>
   <g id="line2d_76">
    <path d="M 386.993818 230.74 
L 386.993818 14.76 
" clip-path="url(#p8798cec887)" style="fill: none; stroke-dasharray: 5.55,2.4; stroke-dashoffset: 0; stroke: #000000; stroke-width: 1.5"/>
   </g>
   <g id="patch_3">
    <path d="M 49.34 230.74 
L 49.34 14.76 
" style="fill: none; stroke: #000000; stroke-width: 0.8; stroke-linejoin: miter; stroke-linecap: square"/>
   </g>
   <g id="patch_4">
    <path d="M 565.2 230.74 
L 565.2 14.76 
" style="fill: none; stroke: #000000; stroke-width: 0.8; stroke-linejoin: miter; stroke-linecap: square"/>
   </g>
   <g id="patch_5">
    <path d="M 49.34 230.74 
L 565.2 230.74 
" style="fill: none; stroke: #000000; stroke-width: 0.8; stroke-linejoin: miter; stroke-linecap: square"/>
   </g>
   <g id="patch_6">
    <path d="M 49.34 14.76 
L 565.2 14.76 
" style="fill: none; stroke: #000000; stroke-width: 0.8; stroke-linejoin: miter; stroke-linecap: square"/>
   </g>
   <g id="text_75">
    <g id="patch_7">
     <path d="M 349.619125 133.724687 
L 376.580219 133.724687 
L 376.580219 111.775312 
L 349.619125 111.775312 
L 349.619125 106.287969 
L 333.157094 122.75 
L 349.619125 139.212031 
L 349.619125 133.724687 
z
" style="fill: #ffefd5; stroke: #000000; stroke-width: 2; stroke-linejoin: miter"/>
    </g>
    <!-- Tail  -->
    <g transform="translate(345.331781 126.613125) scale(0.14 -0.14)">
     <defs>
      <path id="DejaVuSans-54" d="M -19 4666 
L 3928 4666 
L 3928 4134 
L 2272 4134 
L 2272 0 
L 1638 0 
L 1638 4134 
L -19 4134 
L -19 4666 
z
" transform="scale(0.015625)"/>
      <path id="DejaVuSans-61" d="M 2194 1759 
Q 1497 1759 1228 1600 
Q 959 1441 959 1056 
Q 959 750 1161 570 
Q 1363 391 1709 391 
Q 2188 391 2477 730 
Q 2766 1069 2766 1631 
L 2766 1759 
L 2194 1759 
z
M 3341 1997 
L 3341 0 
L 2766 0 
L 2766 531 
Q 2569 213 2275 61 
Q 1981 -91 1556 -91 
Q 1019 -91 701 211 
Q 384 513 384 1019 
Q 384 1609 779 1909 
Q 1175 2209 1959 2209 
L 2766 2209 
L 2766 2266 
Q 2766 2663 2505 2880 
Q 2244 3097 1772 3097 
Q 1472 3097 1187 3025 
Q 903 2953 641 2809 
L 641 3341 
Q 956 3463 1253 3523 
Q 1550 3584 1831 3584 
Q 2591 3584 2966 3190 
Q 3341 2797 3341 1997 
z
" transform="scale(0.015625)"/>
      <path id="DejaVuSans-69" d="M 603 3500 
L 1178 3500 
L 1178 0 
L 603 0 
L 603 3500 
z
M 603 4863 
L 1178 4863 
L 1178 4134 
L 603 4134 
L 603 4863 
z
" transform="scale(0.015625)"/>
      <path id="DejaVuSans-6c" d="M 603 4863 
L 1178 4863 
L 1178 0 
L 603 0 
L 603 4863 
z
" transform="scale(0.015625)"/>
      <path id="DejaVuSans-20" transform="scale(0.015625)"/>
     </defs>
     <use xlink:href="#DejaVuSans-54"/>
     <use xlink:href="#DejaVuSans-61" x="44.583984"/>
     <use xlink:href="#DejaVuSans-69" x="105.863281"/>
     <use xlink:href="#DejaVuSans-6c" x="133.646484"/>
     <use xlink:href="#DejaVuSans-20" x="161.429688"/>
    </g>
   </g>
   <g id="text_76">
    <g id="patch_8">
     <path d="M 427.04273 133.724687 
L 394.733199 133.724687 
L 394.733199 111.775312 
L 427.04273 111.775312 
L 427.04273 106.287969 
L 443.504761 122.75 
L 427.04273 139.212031 
L 427.04273 133.724687 
z
" style="fill: #ffefd5; stroke: #000000; stroke-width: 2; stroke-linejoin: miter"/>
    </g>
    <!-- Core -->
    <g transform="translate(398.933199 126.613125) scale(0.14 -0.14)">
     <defs>
      <path id="DejaVuSans-43" d="M 4122 4306 
L 4122 3641 
Q 3803 3938 3442 4084 
Q 3081 4231 2675 4231 
Q 1875 4231 1450 3742 
Q 1025 3253 1025 2328 
Q 1025 1406 1450 917 
Q 1875 428 2675 428 
Q 3081 428 3442 575 
Q 3803 722 4122 1019 
L 4122 359 
Q 3791 134 3420 21 
Q 3050 -91 2638 -91 
Q 1578 -91 968 557 
Q 359 1206 359 2328 
Q 359 3453 968 4101 
Q 1578 4750 2638 4750 
Q 3056 4750 3426 4639 
Q 3797 4528 4122 4306 
z
" transform="scale(0.015625)"/>
      <path id="DejaVuSans-6f" d="M 1959 3097 
Q 1497 3097 1228 2736 
Q 959 2375 959 1747 
Q 959 1119 1226 758 
Q 1494 397 1959 397 
Q 2419 397 2687 759 
Q 2956 1122 2956 1747 
Q 2956 2369 2687 2733 
Q 2419 3097 1959 3097 
z
M 1959 3584 
Q 2709 3584 3137 3096 
Q 3566 2609 3566 1747 
Q 3566 888 3137 398 
Q 2709 -91 1959 -91 
Q 1206 -91 779 398 
Q 353 888 353 1747 
Q 353 2609 779 3096 
Q 1206 3584 1959 3584 
z
" transform="scale(0.015625)"/>
      <path id="DejaVuSans-72" d="M 2631 2963 
Q 2534 3019 2420 3045 
Q 2306 3072 2169 3072 
Q 1681 3072 1420 2755 
Q 1159 2438 1159 1844 
L 1159 0 
L 581 0 
L 581 3500 
L 1159 3500 
L 1159 2956 
Q 1341 3275 1631 3429 
Q 1922 3584 2338 3584 
Q 2397 3584 2469 3576 
Q 2541 3569 2628 3553 
L 2631 2963 
z
" transform="scale(0.015625)"/>
      <path id="DejaVuSans-65" d="M 3597 1894 
L 3597 1613 
L 953 1613 
Q 991 1019 1311 708 
Q 1631 397 2203 397 
Q 2534 397 2845 478 
Q 3156 559 3463 722 
L 3463 178 
Q 3153 47 2828 -22 
Q 2503 -91 2169 -91 
Q 1331 -91 842 396 
Q 353 884 353 1716 
Q 353 2575 817 3079 
Q 1281 3584 2069 3584 
Q 2775 3584 3186 3129 
Q 3597 2675 3597 1894 
z
M 3022 2063 
Q 3016 2534 2758 2815 
Q 2500 3097 2075 3097 
Q 1594 3097 1305 2825 
Q 1016 2553 972 2059 
L 3022 2063 
z
" transform="scale(0.015625)"/>
     </defs>
     <use xlink:href="#DejaVuSans-43"/>
     <use xlink:href="#DejaVuSans-6f" x="69.824219"/>
     <use xlink:href="#DejaVuSans-72" x="131.005859"/>
     <use xlink:href="#DejaVuSans-65" x="169.869141"/>
    </g>
   </g>
   <g id="text_77">
    <!-- Nucleosome H3 1-55 Fluctuations (No PTM) -->
    <g transform="translate(160.3525 8.76) scale(0.12 -0.12)">
     <defs>
      <path id="DejaVuSans-Bold-4e" d="M 588 4666 
L 1931 4666 
L 3628 1466 
L 3628 4666 
L 4769 4666 
L 4769 0 
L 3425 0 
L 1728 3200 
L 1728 0 
L 588 0 
L 588 4666 
z
" transform="scale(0.015625)"/>
      <path id="DejaVuSans-Bold-63" d="M 3366 3391 
L 3366 2478 
Q 3138 2634 2908 2709 
Q 2678 2784 2431 2784 
Q 1963 2784 1702 2511 
Q 1441 2238 1441 1747 
Q 1441 1256 1702 982 
Q 1963 709 2431 709 
Q 2694 709 2930 787 
Q 3166 866 3366 1019 
L 3366 103 
Q 3103 6 2833 -42 
Q 2563 -91 2291 -91 
Q 1344 -91 809 395 
Q 275 881 275 1747 
Q 275 2613 809 3098 
Q 1344 3584 2291 3584 
Q 2566 3584 2833 3536 
Q 3100 3488 3366 3391 
z
" transform="scale(0.015625)"/>
      <path id="DejaVuSans-Bold-6c" d="M 538 4863 
L 1656 4863 
L 1656 0 
L 538 0 
L 538 4863 
z
" transform="scale(0.015625)"/>
      <path id="DejaVuSans-Bold-6f" d="M 2203 2784 
Q 1831 2784 1636 2517 
Q 1441 2250 1441 1747 
Q 1441 1244 1636 976 
Q 1831 709 2203 709 
Q 2569 709 2762 976 
Q 2956 1244 2956 1747 
Q 2956 2250 2762 2517 
Q 2569 2784 2203 2784 
z
M 2203 3584 
Q 3106 3584 3614 3096 
Q 4122 2609 4122 1747 
Q 4122 884 3614 396 
Q 3106 -91 2203 -91 
Q 1297 -91 786 396 
Q 275 884 275 1747 
Q 275 2609 786 3096 
Q 1297 3584 2203 3584 
z
" transform="scale(0.015625)"/>
      <path id="DejaVuSans-Bold-6d" d="M 3781 2919 
Q 3994 3244 4286 3414 
Q 4578 3584 4928 3584 
Q 5531 3584 5847 3212 
Q 6163 2841 6163 2131 
L 6163 0 
L 5038 0 
L 5038 1825 
Q 5041 1866 5042 1909 
Q 5044 1953 5044 2034 
Q 5044 2406 4934 2573 
Q 4825 2741 4581 2741 
Q 4263 2741 4089 2478 
Q 3916 2216 3909 1719 
L 3909 0 
L 2784 0 
L 2784 1825 
Q 2784 2406 2684 2573 
Q 2584 2741 2328 2741 
Q 2006 2741 1831 2477 
Q 1656 2213 1656 1722 
L 1656 0 
L 531 0 
L 531 3500 
L 1656 3500 
L 1656 2988 
Q 1863 3284 2130 3434 
Q 2397 3584 2719 3584 
Q 3081 3584 3359 3409 
Q 3638 3234 3781 2919 
z
" transform="scale(0.015625)"/>
      <path id="DejaVuSans-Bold-2d" d="M 347 2297 
L 2309 2297 
L 2309 1388 
L 347 1388 
L 347 2297 
z
" transform="scale(0.015625)"/>
      <path id="DejaVuSans-Bold-74" d="M 1759 4494 
L 1759 3500 
L 2913 3500 
L 2913 2700 
L 1759 2700 
L 1759 1216 
Q 1759 972 1856 886 
Q 1953 800 2241 800 
L 2816 800 
L 2816 0 
L 1856 0 
Q 1194 0 917 276 
Q 641 553 641 1216 
L 641 2700 
L 84 2700 
L 84 3500 
L 641 3500 
L 641 4494 
L 1759 4494 
z
" transform="scale(0.015625)"/>
      <path id="DejaVuSans-Bold-61" d="M 2106 1575 
Q 1756 1575 1579 1456 
Q 1403 1338 1403 1106 
Q 1403 894 1545 773 
Q 1688 653 1941 653 
Q 2256 653 2472 879 
Q 2688 1106 2688 1447 
L 2688 1575 
L 2106 1575 
z
M 3816 1997 
L 3816 0 
L 2688 0 
L 2688 519 
Q 2463 200 2181 54 
Q 1900 -91 1497 -91 
Q 953 -91 614 226 
Q 275 544 275 1050 
Q 275 1666 698 1953 
Q 1122 2241 2028 2241 
L 2688 2241 
L 2688 2328 
Q 2688 2594 2478 2717 
Q 2269 2841 1825 2841 
Q 1466 2841 1156 2769 
Q 847 2697 581 2553 
L 581 3406 
Q 941 3494 1303 3539 
Q 1666 3584 2028 3584 
Q 2975 3584 3395 3211 
Q 3816 2838 3816 1997 
z
" transform="scale(0.015625)"/>
      <path id="DejaVuSans-Bold-6e" d="M 4056 2131 
L 4056 0 
L 2931 0 
L 2931 347 
L 2931 1631 
Q 2931 2084 2911 2256 
Q 2891 2428 2841 2509 
Q 2775 2619 2662 2680 
Q 2550 2741 2406 2741 
Q 2056 2741 1856 2470 
Q 1656 2200 1656 1722 
L 1656 0 
L 538 0 
L 538 3500 
L 1656 3500 
L 1656 2988 
Q 1909 3294 2193 3439 
Q 2478 3584 2822 3584 
Q 3428 3584 3742 3212 
Q 4056 2841 4056 2131 
z
" transform="scale(0.015625)"/>
     </defs>
     <use xlink:href="#DejaVuSans-Bold-4e"/>
     <use xlink:href="#DejaVuSans-Bold-75" x="83.691406"/>
     <use xlink:href="#DejaVuSans-Bold-63" x="154.882812"/>
     <use xlink:href="#DejaVuSans-Bold-6c" x="214.160156"/>
     <use xlink:href="#DejaVuSans-Bold-65" x="248.4375"/>
     <use xlink:href="#DejaVuSans-Bold-6f" x="316.259766"/>
     <use xlink:href="#DejaVuSans-Bold-73" x="384.960938"/>
     <use xlink:href="#DejaVuSans-Bold-6f" x="444.482422"/>
     <use xlink:href="#DejaVuSans-Bold-6d" x="513.183594"/>
     <use xlink:href="#DejaVuSans-Bold-65" x="617.382812"/>
     <use xlink:href="#DejaVuSans-Bold-20" x="685.205078"/>
     <use xlink:href="#DejaVuSans-Bold-48" x="720.019531"/>
     <use xlink:href="#DejaVuSans-Bold-33" x="803.710938"/>
     <use xlink:href="#DejaVuSans-Bold-20" x="873.291016"/>
     <use xlink:href="#DejaVuSans-Bold-31" x="908.105469"/>
     <use xlink:href="#DejaVuSans-Bold-2d" x="977.685547"/>
     <use xlink:href="#DejaVuSans-Bold-35" x="1019.189453"/>
     <use xlink:href="#DejaVuSans-Bold-35" x="1088.769531"/>
     <use xlink:href="#DejaVuSans-Bold-20" x="1158.349609"/>
     <use xlink:href="#DejaVuSans-Bold-46" x="1193.164062"/>
     <use xlink:href="#DejaVuSans-Bold-6c" x="1261.474609"/>
     <use xlink:href="#DejaVuSans-Bold-75" x="1295.751953"/>
     <use xlink:href="#DejaVuSans-Bold-63" x="1366.943359"/>
     <use xlink:href="#DejaVuSans-Bold-74" x="1426.220703"/>
     <use xlink:href="#DejaVuSans-Bold-75" x="1474.023438"/>
     <use xlink:href="#DejaVuSans-Bold-61" x="1545.214844"/>
     <use xlink:href="#DejaVuSans-Bold-74" x="1612.695312"/>
     <use xlink:href="#DejaVuSans-Bold-69" x="1660.498047"/>
     <use xlink:href="#DejaVuSans-Bold-6f" x="1694.775391"/>
     <use xlink:href="#DejaVuSans-Bold-6e" x="1763.476562"/>
     <use xlink:href="#DejaVuSans-Bold-73" x="1834.667969"/>
     <use xlink:href="#DejaVuSans-Bold-20" x="1894.189453"/>
     <use xlink:href="#DejaVuSans-Bold-28" x="1929.003906"/>
     <use xlink:href="#DejaVuSans-Bold-4e" x="1974.707031"/>
     <use xlink:href="#DejaVuSans-Bold-6f" x="2058.398438"/>
     <use xlink:href="#DejaVuSans-Bold-20" x="2127.099609"/>
     <use xlink:href="#DejaVuSans-Bold-50" x="2161.914062"/>
     <use xlink:href="#DejaVuSans-Bold-54" x="2235.205078"/>
     <use xlink:href="#DejaVuSans-Bold-4d" x="2303.417969"/>
     <use xlink:href="#DejaVuSans-Bold-29" x="2402.929688"/>
    </g>
   </g>
   <g id="legend_1">
    <g id="patch_9">
     <path d="M 465.215625 52.794375 
L 558.2 52.794375 
Q 560.2 52.794375 560.2 50.794375 
L 560.2 21.76 
Q 560.2 19.76 558.2 19.76 
L 465.215625 19.76 
Q 463.215625 19.76 463.215625 21.76 
L 463.215625 50.794375 
Q 463.215625 52.794375 465.215625 52.794375 
z
" style="fill: #ffffff; opacity: 0.8; stroke: #cccccc; stroke-linejoin: miter"/>
    </g>
    <g id="line2d_77">
     <path d="M 464.215625 24.858437 
L 474.215625 24.858437 
L 484.215625 24.858437 
" style="fill: none; stroke: #000000; stroke-width: 1.5; stroke-linecap: square"/>
    </g>
    <g id="text_78">
     <!-- NCP -->
     <g transform="translate(492.215625 28.358437) scale(0.1 -0.1)">
      <defs>
       <path id="DejaVuSans-Bold-43" d="M 4288 256 
Q 3956 84 3597 -3 
Q 3238 -91 2847 -91 
Q 1681 -91 1000 561 
Q 319 1213 319 2328 
Q 319 3447 1000 4098 
Q 1681 4750 2847 4750 
Q 3238 4750 3597 4662 
Q 3956 4575 4288 4403 
L 4288 3438 
Q 3953 3666 3628 3772 
Q 3303 3878 2944 3878 
Q 2300 3878 1931 3465 
Q 1563 3053 1563 2328 
Q 1563 1606 1931 1193 
Q 2300 781 2944 781 
Q 3303 781 3628 887 
Q 3953 994 4288 1222 
L 4288 256 
z
" transform="scale(0.015625)"/>
      </defs>
      <use xlink:href="#DejaVuSans-Bold-4e"/>
      <use xlink:href="#DejaVuSans-Bold-43" x="83.691406"/>
      <use xlink:href="#DejaVuSans-Bold-50" x="157.080078"/>
     </g>
    </g>
    <g id="line2d_78">
     <path d="M 464.215625 35.536562 
L 474.215625 35.536562 
L 484.215625 35.536562 
" style="fill: none; stroke: #ffa500; stroke-width: 1.5; stroke-linecap: square"/>
    </g>
    <g id="text_79">
     <!-- PHD + NCP -->
     <g transform="translate(492.215625 39.036562) scale(0.1 -0.1)">
      <defs>
       <path id="DejaVuSans-Bold-44" d="M 1791 3756 
L 1791 909 
L 2222 909 
Q 2959 909 3348 1275 
Q 3738 1641 3738 2338 
Q 3738 3031 3350 3393 
Q 2963 3756 2222 3756 
L 1791 3756 
z
M 588 4666 
L 1856 4666 
Q 2919 4666 3439 4514 
Q 3959 4363 4331 4000 
Q 4659 3684 4818 3271 
Q 4978 2859 4978 2338 
Q 4978 1809 4818 1395 
Q 4659 981 4331 666 
Q 3956 303 3431 151 
Q 2906 0 1856 0 
L 588 0 
L 588 4666 
z
" transform="scale(0.015625)"/>
       <path id="DejaVuSans-Bold-2b" d="M 3053 4013 
L 3053 2375 
L 4684 2375 
L 4684 1638 
L 3053 1638 
L 3053 0 
L 2309 0 
L 2309 1638 
L 678 1638 
L 678 2375 
L 2309 2375 
L 2309 4013 
L 3053 4013 
z
" transform="scale(0.015625)"/>
      </defs>
      <use xlink:href="#DejaVuSans-Bold-50"/>
      <use xlink:href="#DejaVuSans-Bold-48" x="73.291016"/>
      <use xlink:href="#DejaVuSans-Bold-44" x="156.982422"/>
      <use xlink:href="#DejaVuSans-Bold-20" x="239.990234"/>
      <use xlink:href="#DejaVuSans-Bold-2b" x="274.804688"/>
      <use xlink:href="#DejaVuSans-Bold-20" x="358.59375"/>
      <use xlink:href="#DejaVuSans-Bold-4e" x="393.408203"/>
      <use xlink:href="#DejaVuSans-Bold-43" x="477.099609"/>
      <use xlink:href="#DejaVuSans-Bold-50" x="550.488281"/>
     </g>
    </g>
    <g id="line2d_79">
     <path d="M 464.215625 46.214687 
L 474.215625 46.214687 
L 484.215625 46.214687 
" style="fill: none; stroke: #0000ff; stroke-width: 1.5; stroke-linecap: square"/>
    </g>
    <g id="text_80">
     <!-- BPTF + NCP -->
     <g transform="translate(492.215625 49.714687) scale(0.1 -0.1)">
      <defs>
       <path id="DejaVuSans-Bold-42" d="M 2456 2859 
Q 2741 2859 2887 2984 
Q 3034 3109 3034 3353 
Q 3034 3594 2887 3720 
Q 2741 3847 2456 3847 
L 1791 3847 
L 1791 2859 
L 2456 2859 
z
M 2497 819 
Q 2859 819 3042 972 
Q 3225 1125 3225 1434 
Q 3225 1738 3044 1889 
Q 2863 2041 2497 2041 
L 1791 2041 
L 1791 819 
L 2497 819 
z
M 3616 2497 
Q 4003 2384 4215 2081 
Q 4428 1778 4428 1338 
Q 4428 663 3972 331 
Q 3516 0 2584 0 
L 588 0 
L 588 4666 
L 2394 4666 
Q 3366 4666 3802 4372 
Q 4238 4078 4238 3431 
Q 4238 3091 4078 2852 
Q 3919 2613 3616 2497 
z
" transform="scale(0.015625)"/>
      </defs>
      <use xlink:href="#DejaVuSans-Bold-42"/>
      <use xlink:href="#DejaVuSans-Bold-50" x="76.220703"/>
      <use xlink:href="#DejaVuSans-Bold-54" x="149.511719"/>
      <use xlink:href="#DejaVuSans-Bold-46" x="217.724609"/>
      <use xlink:href="#DejaVuSans-Bold-20" x="286.035156"/>
      <use xlink:href="#DejaVuSans-Bold-2b" x="320.849609"/>
      <use xlink:href="#DejaVuSans-Bold-20" x="404.638672"/>
      <use xlink:href="#DejaVuSans-Bold-4e" x="439.453125"/>
      <use xlink:href="#DejaVuSans-Bold-43" x="523.144531"/>
      <use xlink:href="#DejaVuSans-Bold-50" x="596.533203"/>
     </g>
    </g>
   </g>
  </g>
 </g>
 <defs>
  <clipPath id="p8798cec887">
   <rect x="49.34" y="14.76" width="515.86" height="215.98"/>
  </clipPath>
 </defs>
</svg>
