<?xml version="1.0" encoding="utf-8" standalone="no"?>
<!DOCTYPE svg PUBLIC "-//W3C//DTD SVG 1.1//EN"
  "http://www.w3.org/Graphics/SVG/1.1/DTD/svg11.dtd">
<svg xmlns:xlink="http://www.w3.org/1999/xlink" width="576pt" height="288pt" viewBox="0 0 576 288" xmlns="http://www.w3.org/2000/svg" version="1.1">
 <metadata>
  <rdf:RDF xmlns:dc="http://purl.org/dc/elements/1.1/" xmlns:cc="http://creativecommons.org/ns#" xmlns:rdf="http://www.w3.org/1999/02/22-rdf-syntax-ns#">
   <cc:Work>
    <dc:type rdf:resource="http://purl.org/dc/dcmitype/StillImage"/>
    <dc:date>2024-08-16T13:59:59.212139</dc:date>
    <dc:format>image/svg+xml</dc:format>
    <dc:creator>
     <cc:Agent>
      <dc:title>Matplotlib v3.8.0, https://matplotlib.org/</dc:title>
     </cc:Agent>
    </dc:creator>
   </cc:Work>
  </rdf:RDF>
 </metadata>
 <defs>
  <style type="text/css">*{stroke-linejoin: round; stroke-linecap: butt}</style>
 </defs>
 <g id="figure_1">
  <g id="patch_1">
   <path d="M 0 288 
L 576 288 
L 576 0 
L 0 0 
z
" style="fill: #ffffff"/>
  </g>
  <g id="axes_1">
   <g id="patch_2">
    <path d="M 47.54 218.05 
L 565.2 218.05 
L 565.2 14.76 
L 47.54 14.76 
z
" style="fill: #ffffff"/>
   </g>
   <g id="PolyCollection_1">
    <path d="M 47.54 98.528091 
L 47.54 133.028686 
L 56.952 141.417823 
L 66.364 145.54548 
L 75.776 142.664741 
L 85.188 145.229891 
L 94.6 155.151096 
L 104.012 156.235273 
L 113.424 145.114223 
L 122.836 149.346568 
L 132.248 152.343846 
L 141.66 148.290439 
L 151.072 153.763723 
L 160.484 159.901668 
L 169.896 159.774584 
L 179.308 172.882006 
L 188.72 170.490576 
L 198.132 164.774322 
L 207.544 155.951863 
L 216.956 150.891463 
L 226.368 156.675336 
L 235.78 151.635701 
L 245.192 155.217083 
L 254.604 153.897546 
L 264.016 164.044326 
L 273.428 165.373865 
L 282.84 155.057387 
L 292.252 157.442511 
L 301.664 160.0094 
L 311.076 155.173055 
L 320.488 151.350225 
L 329.9 155.020099 
L 339.312 154.678745 
L 348.724 159.210264 
L 358.136 166.914955 
L 367.548 173.513944 
L 376.96 182.476098 
L 386.372 185.010048 
L 395.784 193.280038 
L 405.196 195.222816 
L 414.608 201.835503 
L 424.02 204.484795 
L 433.432 200.455848 
L 442.844 207.236059 
L 452.256 207.995516 
L 461.668 207.343683 
L 471.08 207.966816 
L 480.492 209.006204 
L 489.904 207.167027 
L 499.316 198.80833 
L 508.728 204.055821 
L 518.14 209.789903 
L 527.552 200.01285 
L 536.964 198.940414 
L 546.376 208.817047 
L 555.788 209.339621 
L 565.2 203.925585 
L 574.612 207.797444 
L 584.024 208.307626 
L 593.436 199.835433 
L 602.848 208.429491 
L 612.26 210.214638 
L 621.672 210.198658 
L 631.084 208.563641 
L 640.496 206.676305 
L 649.908 207.952466 
L 659.32 208.790521 
L 668.732 209.718806 
L 678.144 203.283319 
L 687.556 205.320024 
L 696.968 208.510481 
L 706.38 208.929128 
L 715.792 206.260267 
L 725.204 202.689864 
L 734.616 207.364664 
L 744.028 206.842959 
L 753.44 202.043902 
L 762.852 198.796806 
L 772.264 203.063287 
L 781.676 201.535134 
L 791.088 201.526763 
L 800.5 196.632474 
L 809.912 205.849447 
L 819.324 205.865971 
L 828.736 206.766318 
L 838.148 205.99849 
L 847.56 205.382424 
L 856.972 208.073462 
L 866.384 210.015805 
L 875.796 209.376909 
L 885.208 203.929063 
L 894.62 210.642308 
L 904.032 209.965907 
L 913.444 210.486307 
L 922.856 208.0078 
L 932.268 211.098026 
L 941.68 210.611543 
L 951.092 210.723515 
L 960.504 210.944199 
L 969.916 208.572011 
L 979.328 210.49033 
L 988.74 210.177241 
L 998.152 210.549577 
L 1007.564 209.8585 
L 1016.976 208.216743 
L 1026.388 204.845717 
L 1035.8 209.587266 
L 1045.212 210.487177 
L 1054.624 209.731091 
L 1064.036 207.768201 
L 1073.448 209.711523 
L 1082.86 209.887743 
L 1092.272 209.191774 
L 1101.684 209.041318 
L 1111.096 208.291971 
L 1120.508 202.778573 
L 1129.92 208.947391 
L 1139.332 207.200511 
L 1148.744 209.343426 
L 1158.156 210.209094 
L 1167.568 207.891479 
L 1176.98 209.316683 
L 1186.392 206.213413 
L 1195.804 209.784576 
L 1205.216 208.773018 
L 1214.628 202.634965 
L 1224.04 209.102305 
L 1233.452 209.173511 
L 1242.864 204.611335 
L 1252.276 199.10772 
L 1261.688 207.568933 
L 1271.1 204.122026 
L 1280.512 201.923233 
L 1289.924 192.683539 
L 1299.336 171.373094 
L 1308.748 171.628239 
L 1308.748 166.667746 
L 1308.748 166.667746 
L 1299.336 169.489128 
L 1289.924 189.322188 
L 1280.512 200.406711 
L 1271.1 201.59449 
L 1261.688 206.989502 
L 1252.276 197.568369 
L 1242.864 202.279479 
L 1233.452 208.577773 
L 1224.04 208.445689 
L 1214.628 201.708745 
L 1205.216 207.988123 
L 1195.804 208.854008 
L 1186.392 205.011066 
L 1176.98 208.630715 
L 1167.568 206.982653 
L 1158.156 209.422025 
L 1148.744 208.486782 
L 1139.332 206.427574 
L 1129.92 208.086398 
L 1120.508 202.177399 
L 1111.096 207.476637 
L 1101.684 208.253161 
L 1092.272 208.411228 
L 1082.86 209.047406 
L 1073.448 208.922279 
L 1064.036 207.13224 
L 1054.624 208.998377 
L 1045.212 209.772944 
L 1035.8 208.309909 
L 1026.388 204.642427 
L 1016.976 207.582957 
L 1007.564 209.35408 
L 998.152 209.99515 
L 988.74 209.494535 
L 979.328 209.851108 
L 969.916 207.808859 
L 960.504 210.40173 
L 951.092 210.024502 
L 941.68 210.076684 
L 932.268 210.534901 
L 922.856 207.021789 
L 913.444 209.611182 
L 904.032 208.919018 
L 894.62 209.849803 
L 885.208 203.043067 
L 875.796 208.305017 
L 866.384 209.034143 
L 856.972 207.06136 
L 847.56 203.811547 
L 838.148 204.958124 
L 828.736 205.787917 
L 819.324 203.801545 
L 809.912 204.590571 
L 800.5 194.318012 
L 791.088 198.335001 
L 781.676 191.335846 
L 772.264 200.024808 
L 762.852 197.365079 
L 753.44 199.604422 
L 744.028 205.328612 
L 734.616 206.80154 
L 725.204 202.299591 
L 715.792 204.38065 
L 706.38 208.34861 
L 696.968 207.98758 
L 687.556 204.187253 
L 678.144 202.229907 
L 668.732 208.991528 
L 659.32 208.092595 
L 649.908 207.330638 
L 640.496 205.966421 
L 631.084 207.609156 
L 621.672 209.430069 
L 612.26 209.466705 
L 602.848 207.709823 
L 593.436 199.194037 
L 584.024 207.374883 
L 574.612 206.694025 
L 565.2 202.970013 
L 555.788 208.371004 
L 546.376 207.932137 
L 536.964 197.558694 
L 527.552 198.794197 
L 518.14 208.953914 
L 508.728 203.145908 
L 499.316 197.583154 
L 489.904 206.477798 
L 480.492 208.233267 
L 471.08 207.141698 
L 461.668 206.169602 
L 452.256 206.979066 
L 442.844 206.109811 
L 433.432 199.22415 
L 424.02 201.643084 
L 414.608 198.660048 
L 405.196 187.160791 
L 395.784 185.501749 
L 386.372 172.741986 
L 376.96 168.4143 
L 367.548 157.119204 
L 358.136 146.194595 
L 348.724 137.09079 
L 339.312 128.27931 
L 329.9 124.266779 
L 320.488 120.909993 
L 311.076 126.785292 
L 301.664 126.679624 
L 292.252 125.04439 
L 282.84 125.540113 
L 273.428 133.813908 
L 264.016 134.880365 
L 254.604 124.800986 
L 245.192 131.955054 
L 235.78 127.06044 
L 226.368 132.216396 
L 216.956 123.042908 
L 207.544 135.498932 
L 198.132 146.299936 
L 188.72 155.572134 
L 179.308 159.334412 
L 169.896 144.086467 
L 160.484 141.73276 
L 151.072 137.596189 
L 141.66 132.589276 
L 132.248 136.909025 
L 122.836 136.268607 
L 113.424 129.088013 
L 104.012 131.955707 
L 94.6 120.919016 
L 85.188 113.412289 
L 75.776 103.383025 
L 66.364 107.088882 
L 56.952 110.047024 
L 47.54 98.528091 
z
" clip-path="url(#p90bf9049ec)" style="fill-opacity: 0.3; stroke: #000000; stroke-opacity: 0.3"/>
   </g>
   <g id="PolyCollection_2">
    <path d="M 47.54 58.270039 
L 47.54 96.947755 
L 56.952 104.492206 
L 66.364 113.24683 
L 75.776 111.408251 
L 85.188 109.796879 
L 94.6 102.624928 
L 104.012 101.763337 
L 113.424 98.576467 
L 122.836 106.450965 
L 132.248 116.567632 
L 141.66 112.38225 
L 151.072 117.906356 
L 160.484 115.975101 
L 169.896 110.186718 
L 179.308 118.69859 
L 188.72 116.062397 
L 198.132 107.26831 
L 207.544 107.389686 
L 216.956 100.636273 
L 226.368 103.799824 
L 235.78 100.996814 
L 245.192 100.816244 
L 254.604 87.547985 
L 264.016 95.913368 
L 273.428 93.645489 
L 282.84 91.535458 
L 292.252 96.715168 
L 301.664 102.491593 
L 311.076 106.747529 
L 320.488 114.293774 
L 329.9 112.533521 
L 339.312 118.813986 
L 348.724 130.402712 
L 358.136 138.278406 
L 367.548 137.880197 
L 376.96 142.473953 
L 386.372 151.449206 
L 395.784 155.850435 
L 405.196 158.913537 
L 414.608 162.059749 
L 424.02 164.578153 
L 433.432 162.131498 
L 442.844 166.006564 
L 452.256 166.771293 
L 461.668 166.192515 
L 471.08 166.518975 
L 480.492 167.232283 
L 489.904 166.447823 
L 499.316 163.829567 
L 508.728 165.571882 
L 518.14 167.78595 
L 527.552 163.335692 
L 536.964 161.275288 
L 546.376 167.185048 
L 555.788 168.060989 
L 565.2 165.461867 
L 574.612 166.941698 
L 584.024 167.002685 
L 593.436 160.924314 
L 602.848 166.474131 
L 612.26 167.241252 
L 621.672 166.907019 
L 631.084 165.363809 
L 640.496 164.535103 
L 649.908 164.825688 
L 659.32 165.534812 
L 668.732 166.539901 
L 678.144 163.45946 
L 687.556 164.36709 
L 696.968 165.916877 
L 706.38 166.107013 
L 715.792 164.374863 
L 725.204 163.762601 
L 734.616 165.517472 
L 744.028 164.915375 
L 753.44 161.814605 
L 762.852 160.277972 
L 772.264 161.944352 
L 781.676 161.264526 
L 791.088 161.31774 
L 800.5 159.736264 
L 809.912 164.165594 
L 819.324 163.190998 
L 828.736 165.177261 
L 838.148 164.790412 
L 847.56 164.237941 
L 856.972 166.010152 
L 866.384 166.908813 
L 875.796 166.554251 
L 885.208 164.293547 
L 894.62 168.001796 
L 904.032 167.384153 
L 913.444 167.418832 
L 922.856 167.341103 
L 932.268 168.776091 
L 941.68 168.176386 
L 951.092 168.061587 
L 960.504 168.939321 
L 969.916 168.311514 
L 979.328 168.364728 
L 988.74 168.204488 
L 998.152 169.013462 
L 1007.564 168.990742 
L 1016.976 167.769806 
L 1026.388 166.654701 
L 1035.8 169.132447 
L 1045.212 169.283121 
L 1054.624 168.868768 
L 1064.036 168.548287 
L 1073.448 169.488204 
L 1082.86 169.149188 
L 1092.272 168.891488 
L 1101.684 169.476844 
L 1111.096 168.918394 
L 1120.508 166.206865 
L 1129.92 168.611666 
L 1139.332 167.488787 
L 1148.744 168.114203 
L 1158.156 168.499856 
L 1167.568 168.052618 
L 1176.98 168.457404 
L 1186.392 168.019733 
L 1195.804 169.39792 
L 1205.216 168.847841 
L 1214.628 165.61254 
L 1224.04 169.690896 
L 1233.452 169.601808 
L 1242.864 167.018231 
L 1252.276 163.821197 
L 1261.688 168.863985 
L 1271.1 168.364728 
L 1280.512 166.137507 
L 1289.924 157.772721 
L 1299.336 147.611211 
L 1308.748 146.146925 
L 1308.748 127.177576 
L 1308.748 127.177576 
L 1299.336 124.589216 
L 1289.924 128.622131 
L 1280.512 135.432346 
L 1271.1 137.682288 
L 1261.688 137.546562 
L 1252.276 134.847588 
L 1242.864 137.407249 
L 1233.452 138.645524 
L 1224.04 138.845824 
L 1214.628 136.990504 
L 1205.216 139.074227 
L 1195.804 139.87782 
L 1186.392 139.400089 
L 1176.98 139.529238 
L 1167.568 140.111006 
L 1158.156 140.419528 
L 1148.744 140.874539 
L 1139.332 140.715494 
L 1129.92 140.728649 
L 1120.508 139.555546 
L 1111.096 140.503236 
L 1101.684 140.234175 
L 1092.272 140.580366 
L 1082.86 140.470949 
L 1073.448 139.868851 
L 1064.036 139.600987 
L 1054.624 140.222815 
L 1045.212 139.796504 
L 1035.8 139.172284 
L 1026.388 138.543281 
L 1016.976 139.209953 
L 1007.564 138.9672 
L 998.152 138.834464 
L 988.74 139.038352 
L 979.328 138.782446 
L 969.916 137.905309 
L 960.504 138.368093 
L 951.092 138.339393 
L 941.68 137.832364 
L 932.268 137.667938 
L 922.856 137.340283 
L 913.444 137.559118 
L 904.032 136.673013 
L 894.62 136.827872 
L 885.208 135.575845 
L 875.796 136.357316 
L 866.384 135.878388 
L 856.972 135.349236 
L 847.56 134.842207 
L 838.148 134.320828 
L 828.736 134.728006 
L 819.324 132.571936 
L 809.912 133.307368 
L 800.5 131.020953 
L 791.088 131.403019 
L 781.676 131.767147 
L 772.264 132.11573 
L 762.852 132.146223 
L 753.44 132.606615 
L 744.028 134.317839 
L 734.616 135.25357 
L 725.204 134.631144 
L 715.792 134.126507 
L 706.38 135.984219 
L 696.968 136.415911 
L 687.556 135.789299 
L 678.144 134.44639 
L 668.732 137.189609 
L 659.32 137.156724 
L 649.908 136.849397 
L 640.496 136.905601 
L 631.084 137.499925 
L 621.672 138.286179 
L 612.26 138.939697 
L 602.848 137.862857 
L 593.436 135.092134 
L 584.024 138.264654 
L 574.612 138.91877 
L 565.2 138.270035 
L 555.788 139.693663 
L 546.376 139.696653 
L 536.964 137.0204 
L 527.552 137.85628 
L 518.14 140.451815 
L 508.728 139.652407 
L 499.316 138.424297 
L 489.904 140.646735 
L 480.492 141.266171 
L 471.08 141.223719 
L 461.668 141.322973 
L 452.256 141.602796 
L 442.844 141.508923 
L 433.432 139.144182 
L 424.02 140.335223 
L 414.608 139.151357 
L 405.196 136.129511 
L 395.784 135.004839 
L 386.372 132.917529 
L 376.96 126.849323 
L 367.548 125.363512 
L 358.136 124.276508 
L 348.724 118.570038 
L 339.312 111.788523 
L 329.9 105.601332 
L 320.488 104.699681 
L 311.076 94.28944 
L 301.664 81.95452 
L 292.252 70.204956 
L 282.84 67.855761 
L 273.428 70.069828 
L 264.016 71.946673 
L 254.604 63.302662 
L 245.192 74.142205 
L 235.78 69.324232 
L 226.368 66.399247 
L 216.956 54.729804 
L 207.544 67.554413 
L 198.132 61.148984 
L 188.72 66.793271 
L 179.308 67.620183 
L 169.896 54.064328 
L 160.484 60.619234 
L 151.072 61.304441 
L 141.66 59.565116 
L 132.248 63.250644 
L 122.836 57.24761 
L 113.424 49.420945 
L 104.012 54.970762 
L 94.6 61.549585 
L 85.188 69.00973 
L 75.776 77.089312 
L 66.364 74.911119 
L 56.952 66.029738 
L 47.54 58.270039 
z
" clip-path="url(#p90bf9049ec)" style="fill: #ffc0cb; fill-opacity: 0.3; stroke: #ffc0cb; stroke-opacity: 0.3"/>
   </g>
   <g id="PolyCollection_3">
    <path d="M 47.54 47.322927 
L 47.54 124.741629 
L 56.952 127.423862 
L 66.364 132.31902 
L 75.776 136.532449 
L 85.188 132.95335 
L 94.6 133.357212 
L 104.012 126.814318 
L 113.424 119.917895 
L 122.836 120.273163 
L 132.248 126.774529 
L 141.66 129.995317 
L 151.072 135.039518 
L 160.484 139.33035 
L 169.896 141.53197 
L 179.308 149.559099 
L 188.72 147.138752 
L 198.132 143.945468 
L 207.544 145.968149 
L 216.956 145.303054 
L 226.368 145.3785 
L 235.78 139.681161 
L 245.192 134.836554 
L 254.604 136.458961 
L 264.016 142.998811 
L 273.428 149.091206 
L 282.84 148.752461 
L 292.252 154.849857 
L 301.664 158.446133 
L 311.076 160.70787 
L 320.488 159.4291 
L 329.9 161.273169 
L 339.312 160.285744 
L 348.724 161.473958 
L 358.136 162.922427 
L 367.548 162.978413 
L 376.96 160.874959 
L 386.372 164.776388 
L 395.784 169.94702 
L 405.196 174.586815 
L 414.608 176.730927 
L 424.02 179.332387 
L 433.432 177.276875 
L 442.844 181.900472 
L 452.256 184.060564 
L 461.668 182.922684 
L 471.08 183.317849 
L 480.492 185.653075 
L 489.904 185.787225 
L 499.316 181.568794 
L 508.728 184.512368 
L 518.14 188.498048 
L 527.552 184.603251 
L 536.964 183.972726 
L 546.376 188.221704 
L 555.788 190.360597 
L 565.2 187.350275 
L 574.612 188.925283 
L 584.024 190.789898 
L 593.436 186.94076 
L 602.848 191.070591 
L 612.26 190.396581 
L 621.672 191.212676 
L 631.084 187.717827 
L 640.496 190.194161 
L 649.908 190.198835 
L 659.32 190.60498 
L 668.732 193.954591 
L 678.144 192.104652 
L 687.556 190.485615 
L 696.968 194.191038 
L 706.38 196.127946 
L 715.792 194.023405 
L 725.204 191.464016 
L 734.616 196.613124 
L 744.028 197.426936 
L 753.44 193.998945 
L 762.852 194.373346 
L 772.264 195.975967 
L 781.676 196.571814 
L 791.088 194.291161 
L 800.5 191.668502 
L 809.912 196.402224 
L 819.324 194.937014 
L 828.736 196.393527 
L 838.148 196.009668 
L 847.56 193.295475 
L 856.972 195.849754 
L 866.384 197.723609 
L 875.796 195.908566 
L 885.208 193.089793 
L 894.62 197.757201 
L 904.032 197.647294 
L 913.444 194.54935 
L 922.856 195.324678 
L 932.268 198.086161 
L 941.68 196.803151 
L 951.092 193.806635 
L 960.504 196.611276 
L 969.916 197.878849 
L 979.328 195.313264 
L 988.74 194.676325 
L 998.152 196.483431 
L 1007.564 196.110334 
L 1016.976 193.203831 
L 1026.388 193.771847 
L 1035.8 195.985099 
L 1045.212 194.313229 
L 1054.624 192.491446 
L 1064.036 194.122767 
L 1073.448 194.561634 
L 1082.86 192.011051 
L 1092.272 191.763081 
L 1101.684 193.844792 
L 1111.096 191.250725 
L 1120.508 188.128212 
L 1129.92 189.927383 
L 1139.332 188.278343 
L 1148.744 188.574798 
L 1158.156 190.666402 
L 1167.568 190.261127 
L 1176.98 192.252825 
L 1186.392 191.963871 
L 1195.804 193.543227 
L 1205.216 194.91799 
L 1214.628 193.033915 
L 1224.04 196.450166 
L 1233.452 197.615007 
L 1242.864 195.563191 
L 1252.276 194.659583 
L 1261.688 199.000966 
L 1271.1 198.659939 
L 1280.512 198.380442 
L 1289.924 192.172053 
L 1299.336 179.0293 
L 1308.748 177.758574 
L 1308.748 151.236295 
L 1308.748 151.236295 
L 1299.336 154.184435 
L 1289.924 174.766298 
L 1280.512 185.141589 
L 1271.1 185.617853 
L 1261.688 186.489391 
L 1252.276 179.805281 
L 1242.864 181.011106 
L 1233.452 183.764109 
L 1224.04 181.771975 
L 1214.628 176.458714 
L 1205.216 178.85808 
L 1195.804 176.57123 
L 1186.392 174.017821 
L 1176.98 174.130663 
L 1167.568 170.894221 
L 1158.156 171.620195 
L 1148.744 167.959888 
L 1139.332 167.474274 
L 1129.92 170.187598 
L 1120.508 167.323057 
L 1111.096 172.339319 
L 1101.684 176.446647 
L 1092.272 173.11367 
L 1082.86 173.741042 
L 1073.448 178.19081 
L 1064.036 177.512778 
L 1054.624 174.764993 
L 1045.212 177.984802 
L 1035.8 181.213417 
L 1026.388 177.641275 
L 1016.976 176.284015 
L 1007.564 181.009257 
L 998.152 181.765018 
L 988.74 178.757739 
L 979.328 179.32619 
L 969.916 183.4333 
L 960.504 181.496066 
L 951.092 176.590037 
L 941.68 180.885653 
L 932.268 183.027481 
L 922.856 178.549448 
L 913.444 176.521767 
L 904.032 180.950336 
L 894.62 181.261359 
L 885.208 173.937048 
L 875.796 177.214583 
L 866.384 179.862354 
L 856.972 177.139464 
L 847.56 172.815366 
L 838.148 176.324238 
L 828.736 176.755931 
L 819.324 173.637223 
L 809.912 176.555902 
L 800.5 169.620778 
L 791.088 173.742564 
L 781.676 177.618011 
L 772.264 178.665878 
L 762.852 174.966218 
L 753.44 173.621025 
L 744.028 178.810138 
L 734.616 178.174612 
L 725.204 170.85128 
L 715.792 172.783405 
L 706.38 177.110003 
L 696.968 174.509957 
L 687.556 168.278085 
L 678.144 170.899439 
L 668.732 174.746404 
L 659.32 169.098638 
L 649.908 167.959779 
L 640.496 169.045478 
L 631.084 166.047331 
L 621.672 171.55225 
L 612.26 170.725284 
L 602.848 171.689552 
L 593.436 166.075813 
L 584.024 171.97742 
L 574.612 169.17354 
L 565.2 166.90278 
L 555.788 171.524203 
L 546.376 167.839436 
L 536.964 161.40971 
L 527.552 162.489212 
L 518.14 168.237536 
L 508.728 162.39833 
L 499.316 157.731683 
L 489.904 163.591653 
L 480.492 163.357489 
L 471.08 159.472041 
L 461.668 158.5518 
L 452.256 160.408262 
L 442.844 156.625111 
L 433.432 150.125158 
L 424.02 152.752491 
L 414.608 147.97572 
L 405.196 145.723984 
L 395.784 140.079697 
L 386.372 132.208678 
L 376.96 125.519893 
L 367.548 128.448465 
L 358.136 126.878131 
L 348.724 123.545697 
L 339.312 120.751819 
L 329.9 122.797003 
L 320.488 122.612955 
L 311.076 124.785331 
L 301.664 119.298132 
L 292.252 109.367252 
L 282.84 99.038816 
L 273.428 95.521573 
L 264.016 82.344467 
L 254.604 64.829131 
L 245.192 59.446403 
L 235.78 54.348281 
L 226.368 52.066215 
L 216.956 51.761389 
L 207.544 48.616156 
L 198.132 56.424231 
L 188.72 59.303339 
L 179.308 63.756586 
L 169.896 54.88912 
L 160.484 54.239896 
L 151.072 49.095681 
L 141.66 43.760134 
L 132.248 40.721981 
L 122.836 32.182279 
L 113.424 35.519931 
L 104.012 41.509703 
L 94.6 51.340024 
L 85.188 52.628796 
L 75.776 62.079389 
L 66.364 56.958221 
L 56.952 53.951377 
L 47.54 47.322927 
z
" clip-path="url(#p90bf9049ec)" style="fill: #808000; fill-opacity: 0.3; stroke: #808000; stroke-opacity: 0.3"/>
   </g>
   <g id="matplotlib.axis_1">
    <g id="xtick_1">
     <g id="line2d_1">
      <defs>
       <path id="m0c42d46c3d" d="M 0 0 
L 0 3.5 
" style="stroke: #000000; stroke-width: 0.8"/>
      </defs>
      <g>
       <use xlink:href="#m0c42d46c3d" x="47.54" y="218.05" style="stroke: #000000; stroke-width: 0.8"/>
      </g>
     </g>
     <g id="text_1">
      <!-- A1 -->
      <g transform="translate(50.299375 238.253125) rotate(-90) scale(0.1 -0.1)">
       <defs>
        <path id="DejaVuSans-41" d="M 2188 4044 
L 1331 1722 
L 3047 1722 
L 2188 4044 
z
M 1831 4666 
L 2547 4666 
L 4325 0 
L 3669 0 
L 3244 1197 
L 1141 1197 
L 716 0 
L 50 0 
L 1831 4666 
z
" transform="scale(0.015625)"/>
        <path id="DejaVuSans-31" d="M 794 531 
L 1825 531 
L 1825 4091 
L 703 3866 
L 703 4441 
L 1819 4666 
L 2450 4666 
L 2450 531 
L 3481 531 
L 3481 0 
L 794 0 
L 794 531 
z
" transform="scale(0.015625)"/>
       </defs>
       <use xlink:href="#DejaVuSans-41"/>
       <use xlink:href="#DejaVuSans-31" x="68.408203"/>
      </g>
     </g>
    </g>
    <g id="xtick_2">
     <g id="line2d_2">
      <g>
       <use xlink:href="#m0c42d46c3d" x="56.952" y="218.05" style="stroke: #000000; stroke-width: 0.8"/>
      </g>
     </g>
     <g id="text_2">
      <!-- R2 -->
      <g transform="translate(59.711375 238.360938) rotate(-90) scale(0.1 -0.1)">
       <defs>
        <path id="DejaVuSans-52" d="M 2841 2188 
Q 3044 2119 3236 1894 
Q 3428 1669 3622 1275 
L 4263 0 
L 3584 0 
L 2988 1197 
Q 2756 1666 2539 1819 
Q 2322 1972 1947 1972 
L 1259 1972 
L 1259 0 
L 628 0 
L 628 4666 
L 2053 4666 
Q 2853 4666 3247 4331 
Q 3641 3997 3641 3322 
Q 3641 2881 3436 2590 
Q 3231 2300 2841 2188 
z
M 1259 4147 
L 1259 2491 
L 2053 2491 
Q 2509 2491 2742 2702 
Q 2975 2913 2975 3322 
Q 2975 3731 2742 3939 
Q 2509 4147 2053 4147 
L 1259 4147 
z
" transform="scale(0.015625)"/>
        <path id="DejaVuSans-32" d="M 1228 531 
L 3431 531 
L 3431 0 
L 469 0 
L 469 531 
Q 828 903 1448 1529 
Q 2069 2156 2228 2338 
Q 2531 2678 2651 2914 
Q 2772 3150 2772 3378 
Q 2772 3750 2511 3984 
Q 2250 4219 1831 4219 
Q 1534 4219 1204 4116 
Q 875 4013 500 3803 
L 500 4441 
Q 881 4594 1212 4672 
Q 1544 4750 1819 4750 
Q 2544 4750 2975 4387 
Q 3406 4025 3406 3419 
Q 3406 3131 3298 2873 
Q 3191 2616 2906 2266 
Q 2828 2175 2409 1742 
Q 1991 1309 1228 531 
z
" transform="scale(0.015625)"/>
       </defs>
       <use xlink:href="#DejaVuSans-52"/>
       <use xlink:href="#DejaVuSans-32" x="69.482422"/>
      </g>
     </g>
    </g>
    <g id="xtick_3">
     <g id="line2d_3">
      <g>
       <use xlink:href="#m0c42d46c3d" x="66.364" y="218.05" style="stroke: #000000; stroke-width: 0.8"/>
      </g>
     </g>
     <g id="text_3">
      <!-- T3 -->
      <g transform="translate(69.123375 237.520312) rotate(-90) scale(0.1 -0.1)">
       <defs>
        <path id="DejaVuSans-54" d="M -19 4666 
L 3928 4666 
L 3928 4134 
L 2272 4134 
L 2272 0 
L 1638 0 
L 1638 4134 
L -19 4134 
L -19 4666 
z
" transform="scale(0.015625)"/>
        <path id="DejaVuSans-33" d="M 2597 2516 
Q 3050 2419 3304 2112 
Q 3559 1806 3559 1356 
Q 3559 666 3084 287 
Q 2609 -91 1734 -91 
Q 1441 -91 1130 -33 
Q 819 25 488 141 
L 488 750 
Q 750 597 1062 519 
Q 1375 441 1716 441 
Q 2309 441 2620 675 
Q 2931 909 2931 1356 
Q 2931 1769 2642 2001 
Q 2353 2234 1838 2234 
L 1294 2234 
L 1294 2753 
L 1863 2753 
Q 2328 2753 2575 2939 
Q 2822 3125 2822 3475 
Q 2822 3834 2567 4026 
Q 2313 4219 1838 4219 
Q 1578 4219 1281 4162 
Q 984 4106 628 3988 
L 628 4550 
Q 988 4650 1302 4700 
Q 1616 4750 1894 4750 
Q 2613 4750 3031 4423 
Q 3450 4097 3450 3541 
Q 3450 3153 3228 2886 
Q 3006 2619 2597 2516 
z
" transform="scale(0.015625)"/>
       </defs>
       <use xlink:href="#DejaVuSans-54"/>
       <use xlink:href="#DejaVuSans-33" x="61.083984"/>
      </g>
     </g>
    </g>
    <g id="xtick_4">
     <g id="line2d_4">
      <g>
       <use xlink:href="#m0c42d46c3d" x="75.776" y="218.05" style="stroke: #000000; stroke-width: 0.8"/>
      </g>
     </g>
     <g id="text_4">
      <!-- K4me3 -->
      <g transform="translate(78.535375 260.226562) rotate(-90) scale(0.1 -0.1)">
       <defs>
        <path id="DejaVuSans-4b" d="M 628 4666 
L 1259 4666 
L 1259 2694 
L 3353 4666 
L 4166 4666 
L 1850 2491 
L 4331 0 
L 3500 0 
L 1259 2247 
L 1259 0 
L 628 0 
L 628 4666 
z
" transform="scale(0.015625)"/>
        <path id="DejaVuSans-34" d="M 2419 4116 
L 825 1625 
L 2419 1625 
L 2419 4116 
z
M 2253 4666 
L 3047 4666 
L 3047 1625 
L 3713 1625 
L 3713 1100 
L 3047 1100 
L 3047 0 
L 2419 0 
L 2419 1100 
L 313 1100 
L 313 1709 
L 2253 4666 
z
" transform="scale(0.015625)"/>
        <path id="DejaVuSans-6d" d="M 3328 2828 
Q 3544 3216 3844 3400 
Q 4144 3584 4550 3584 
Q 5097 3584 5394 3201 
Q 5691 2819 5691 2113 
L 5691 0 
L 5113 0 
L 5113 2094 
Q 5113 2597 4934 2840 
Q 4756 3084 4391 3084 
Q 3944 3084 3684 2787 
Q 3425 2491 3425 1978 
L 3425 0 
L 2847 0 
L 2847 2094 
Q 2847 2600 2669 2842 
Q 2491 3084 2119 3084 
Q 1678 3084 1418 2786 
Q 1159 2488 1159 1978 
L 1159 0 
L 581 0 
L 581 3500 
L 1159 3500 
L 1159 2956 
Q 1356 3278 1631 3431 
Q 1906 3584 2284 3584 
Q 2666 3584 2933 3390 
Q 3200 3197 3328 2828 
z
" transform="scale(0.015625)"/>
        <path id="DejaVuSans-65" d="M 3597 1894 
L 3597 1613 
L 953 1613 
Q 991 1019 1311 708 
Q 1631 397 2203 397 
Q 2534 397 2845 478 
Q 3156 559 3463 722 
L 3463 178 
Q 3153 47 2828 -22 
Q 2503 -91 2169 -91 
Q 1331 -91 842 396 
Q 353 884 353 1716 
Q 353 2575 817 3079 
Q 1281 3584 2069 3584 
Q 2775 3584 3186 3129 
Q 3597 2675 3597 1894 
z
M 3022 2063 
Q 3016 2534 2758 2815 
Q 2500 3097 2075 3097 
Q 1594 3097 1305 2825 
Q 1016 2553 972 2059 
L 3022 2063 
z
" transform="scale(0.015625)"/>
       </defs>
       <use xlink:href="#DejaVuSans-4b"/>
       <use xlink:href="#DejaVuSans-34" x="65.576172"/>
       <use xlink:href="#DejaVuSans-6d" x="129.199219"/>
       <use xlink:href="#DejaVuSans-65" x="226.611328"/>
       <use xlink:href="#DejaVuSans-33" x="288.134766"/>
      </g>
     </g>
    </g>
    <g id="xtick_5">
     <g id="line2d_5">
      <g>
       <use xlink:href="#m0c42d46c3d" x="85.188" y="218.05" style="stroke: #000000; stroke-width: 0.8"/>
      </g>
     </g>
     <g id="text_5">
      <!-- Q5 -->
      <g transform="translate(87.947375 239.284375) rotate(-90) scale(0.1 -0.1)">
       <defs>
        <path id="DejaVuSans-51" d="M 2522 4238 
Q 1834 4238 1429 3725 
Q 1025 3213 1025 2328 
Q 1025 1447 1429 934 
Q 1834 422 2522 422 
Q 3209 422 3611 934 
Q 4013 1447 4013 2328 
Q 4013 3213 3611 3725 
Q 3209 4238 2522 4238 
z
M 3406 84 
L 4238 -825 
L 3475 -825 
L 2784 -78 
Q 2681 -84 2626 -87 
Q 2572 -91 2522 -91 
Q 1538 -91 948 567 
Q 359 1225 359 2328 
Q 359 3434 948 4092 
Q 1538 4750 2522 4750 
Q 3503 4750 4090 4092 
Q 4678 3434 4678 2328 
Q 4678 1516 4351 937 
Q 4025 359 3406 84 
z
" transform="scale(0.015625)"/>
        <path id="DejaVuSans-35" d="M 691 4666 
L 3169 4666 
L 3169 4134 
L 1269 4134 
L 1269 2991 
Q 1406 3038 1543 3061 
Q 1681 3084 1819 3084 
Q 2600 3084 3056 2656 
Q 3513 2228 3513 1497 
Q 3513 744 3044 326 
Q 2575 -91 1722 -91 
Q 1428 -91 1123 -41 
Q 819 9 494 109 
L 494 744 
Q 775 591 1075 516 
Q 1375 441 1709 441 
Q 2250 441 2565 725 
Q 2881 1009 2881 1497 
Q 2881 1984 2565 2268 
Q 2250 2553 1709 2553 
Q 1456 2553 1204 2497 
Q 953 2441 691 2322 
L 691 4666 
z
" transform="scale(0.015625)"/>
       </defs>
       <use xlink:href="#DejaVuSans-51"/>
       <use xlink:href="#DejaVuSans-35" x="78.710938"/>
      </g>
     </g>
    </g>
    <g id="xtick_6">
     <g id="line2d_6">
      <g>
       <use xlink:href="#m0c42d46c3d" x="94.6" y="218.05" style="stroke: #000000; stroke-width: 0.8"/>
      </g>
     </g>
     <g id="text_6">
      <!-- T6 -->
      <g transform="translate(97.359375 237.520312) rotate(-90) scale(0.1 -0.1)">
       <defs>
        <path id="DejaVuSans-36" d="M 2113 2584 
Q 1688 2584 1439 2293 
Q 1191 2003 1191 1497 
Q 1191 994 1439 701 
Q 1688 409 2113 409 
Q 2538 409 2786 701 
Q 3034 994 3034 1497 
Q 3034 2003 2786 2293 
Q 2538 2584 2113 2584 
z
M 3366 4563 
L 3366 3988 
Q 3128 4100 2886 4159 
Q 2644 4219 2406 4219 
Q 1781 4219 1451 3797 
Q 1122 3375 1075 2522 
Q 1259 2794 1537 2939 
Q 1816 3084 2150 3084 
Q 2853 3084 3261 2657 
Q 3669 2231 3669 1497 
Q 3669 778 3244 343 
Q 2819 -91 2113 -91 
Q 1303 -91 875 529 
Q 447 1150 447 2328 
Q 447 3434 972 4092 
Q 1497 4750 2381 4750 
Q 2619 4750 2861 4703 
Q 3103 4656 3366 4563 
z
" transform="scale(0.015625)"/>
       </defs>
       <use xlink:href="#DejaVuSans-54"/>
       <use xlink:href="#DejaVuSans-36" x="61.083984"/>
      </g>
     </g>
    </g>
    <g id="xtick_7">
     <g id="line2d_7">
      <g>
       <use xlink:href="#m0c42d46c3d" x="104.012" y="218.05" style="stroke: #000000; stroke-width: 0.8"/>
      </g>
     </g>
     <g id="text_7">
      <!-- A7 -->
      <g transform="translate(106.771375 238.253125) rotate(-90) scale(0.1 -0.1)">
       <defs>
        <path id="DejaVuSans-37" d="M 525 4666 
L 3525 4666 
L 3525 4397 
L 1831 0 
L 1172 0 
L 2766 4134 
L 525 4134 
L 525 4666 
z
" transform="scale(0.015625)"/>
       </defs>
       <use xlink:href="#DejaVuSans-41"/>
       <use xlink:href="#DejaVuSans-37" x="68.408203"/>
      </g>
     </g>
    </g>
    <g id="xtick_8">
     <g id="line2d_8">
      <g>
       <use xlink:href="#m0c42d46c3d" x="113.424" y="218.05" style="stroke: #000000; stroke-width: 0.8"/>
      </g>
     </g>
     <g id="text_8">
      <!-- R8 -->
      <g transform="translate(116.183375 238.360938) rotate(-90) scale(0.1 -0.1)">
       <defs>
        <path id="DejaVuSans-38" d="M 2034 2216 
Q 1584 2216 1326 1975 
Q 1069 1734 1069 1313 
Q 1069 891 1326 650 
Q 1584 409 2034 409 
Q 2484 409 2743 651 
Q 3003 894 3003 1313 
Q 3003 1734 2745 1975 
Q 2488 2216 2034 2216 
z
M 1403 2484 
Q 997 2584 770 2862 
Q 544 3141 544 3541 
Q 544 4100 942 4425 
Q 1341 4750 2034 4750 
Q 2731 4750 3128 4425 
Q 3525 4100 3525 3541 
Q 3525 3141 3298 2862 
Q 3072 2584 2669 2484 
Q 3125 2378 3379 2068 
Q 3634 1759 3634 1313 
Q 3634 634 3220 271 
Q 2806 -91 2034 -91 
Q 1263 -91 848 271 
Q 434 634 434 1313 
Q 434 1759 690 2068 
Q 947 2378 1403 2484 
z
M 1172 3481 
Q 1172 3119 1398 2916 
Q 1625 2713 2034 2713 
Q 2441 2713 2670 2916 
Q 2900 3119 2900 3481 
Q 2900 3844 2670 4047 
Q 2441 4250 2034 4250 
Q 1625 4250 1398 4047 
Q 1172 3844 1172 3481 
z
" transform="scale(0.015625)"/>
       </defs>
       <use xlink:href="#DejaVuSans-52"/>
       <use xlink:href="#DejaVuSans-38" x="69.482422"/>
      </g>
     </g>
    </g>
    <g id="xtick_9">
     <g id="line2d_9">
      <g>
       <use xlink:href="#m0c42d46c3d" x="122.836" y="218.05" style="stroke: #000000; stroke-width: 0.8"/>
      </g>
     </g>
     <g id="text_9">
      <!-- K9 -->
      <g transform="translate(125.595375 237.970313) rotate(-90) scale(0.1 -0.1)">
       <defs>
        <path id="DejaVuSans-39" d="M 703 97 
L 703 672 
Q 941 559 1184 500 
Q 1428 441 1663 441 
Q 2288 441 2617 861 
Q 2947 1281 2994 2138 
Q 2813 1869 2534 1725 
Q 2256 1581 1919 1581 
Q 1219 1581 811 2004 
Q 403 2428 403 3163 
Q 403 3881 828 4315 
Q 1253 4750 1959 4750 
Q 2769 4750 3195 4129 
Q 3622 3509 3622 2328 
Q 3622 1225 3098 567 
Q 2575 -91 1691 -91 
Q 1453 -91 1209 -44 
Q 966 3 703 97 
z
M 1959 2075 
Q 2384 2075 2632 2365 
Q 2881 2656 2881 3163 
Q 2881 3666 2632 3958 
Q 2384 4250 1959 4250 
Q 1534 4250 1286 3958 
Q 1038 3666 1038 3163 
Q 1038 2656 1286 2365 
Q 1534 2075 1959 2075 
z
" transform="scale(0.015625)"/>
       </defs>
       <use xlink:href="#DejaVuSans-4b"/>
       <use xlink:href="#DejaVuSans-39" x="65.576172"/>
      </g>
     </g>
    </g>
    <g id="xtick_10">
     <g id="line2d_10">
      <g>
       <use xlink:href="#m0c42d46c3d" x="132.248" y="218.05" style="stroke: #000000; stroke-width: 0.8"/>
      </g>
     </g>
     <g id="text_10">
      <!-- S10 -->
      <g transform="translate(135.007375 244.123437) rotate(-90) scale(0.1 -0.1)">
       <defs>
        <path id="DejaVuSans-53" d="M 3425 4513 
L 3425 3897 
Q 3066 4069 2747 4153 
Q 2428 4238 2131 4238 
Q 1616 4238 1336 4038 
Q 1056 3838 1056 3469 
Q 1056 3159 1242 3001 
Q 1428 2844 1947 2747 
L 2328 2669 
Q 3034 2534 3370 2195 
Q 3706 1856 3706 1288 
Q 3706 609 3251 259 
Q 2797 -91 1919 -91 
Q 1588 -91 1214 -16 
Q 841 59 441 206 
L 441 856 
Q 825 641 1194 531 
Q 1563 422 1919 422 
Q 2459 422 2753 634 
Q 3047 847 3047 1241 
Q 3047 1584 2836 1778 
Q 2625 1972 2144 2069 
L 1759 2144 
Q 1053 2284 737 2584 
Q 422 2884 422 3419 
Q 422 4038 858 4394 
Q 1294 4750 2059 4750 
Q 2388 4750 2728 4690 
Q 3069 4631 3425 4513 
z
" transform="scale(0.015625)"/>
        <path id="DejaVuSans-30" d="M 2034 4250 
Q 1547 4250 1301 3770 
Q 1056 3291 1056 2328 
Q 1056 1369 1301 889 
Q 1547 409 2034 409 
Q 2525 409 2770 889 
Q 3016 1369 3016 2328 
Q 3016 3291 2770 3770 
Q 2525 4250 2034 4250 
z
M 2034 4750 
Q 2819 4750 3233 4129 
Q 3647 3509 3647 2328 
Q 3647 1150 3233 529 
Q 2819 -91 2034 -91 
Q 1250 -91 836 529 
Q 422 1150 422 2328 
Q 422 3509 836 4129 
Q 1250 4750 2034 4750 
z
" transform="scale(0.015625)"/>
       </defs>
       <use xlink:href="#DejaVuSans-53"/>
       <use xlink:href="#DejaVuSans-31" x="63.476562"/>
       <use xlink:href="#DejaVuSans-30" x="127.099609"/>
      </g>
     </g>
    </g>
    <g id="xtick_11">
     <g id="line2d_11">
      <g>
       <use xlink:href="#m0c42d46c3d" x="141.66" y="218.05" style="stroke: #000000; stroke-width: 0.8"/>
      </g>
     </g>
     <g id="text_11">
      <!-- T11 -->
      <g transform="translate(144.419375 243.882812) rotate(-90) scale(0.1 -0.1)">
       <use xlink:href="#DejaVuSans-54"/>
       <use xlink:href="#DejaVuSans-31" x="61.083984"/>
       <use xlink:href="#DejaVuSans-31" x="124.707031"/>
      </g>
     </g>
    </g>
    <g id="xtick_12">
     <g id="line2d_12">
      <g>
       <use xlink:href="#m0c42d46c3d" x="151.072" y="218.05" style="stroke: #000000; stroke-width: 0.8"/>
      </g>
     </g>
     <g id="text_12">
      <!-- G12 -->
      <g transform="translate(153.831375 245.523438) rotate(-90) scale(0.1 -0.1)">
       <defs>
        <path id="DejaVuSans-47" d="M 3809 666 
L 3809 1919 
L 2778 1919 
L 2778 2438 
L 4434 2438 
L 4434 434 
Q 4069 175 3628 42 
Q 3188 -91 2688 -91 
Q 1594 -91 976 548 
Q 359 1188 359 2328 
Q 359 3472 976 4111 
Q 1594 4750 2688 4750 
Q 3144 4750 3555 4637 
Q 3966 4525 4313 4306 
L 4313 3634 
Q 3963 3931 3569 4081 
Q 3175 4231 2741 4231 
Q 1884 4231 1454 3753 
Q 1025 3275 1025 2328 
Q 1025 1384 1454 906 
Q 1884 428 2741 428 
Q 3075 428 3337 486 
Q 3600 544 3809 666 
z
" transform="scale(0.015625)"/>
       </defs>
       <use xlink:href="#DejaVuSans-47"/>
       <use xlink:href="#DejaVuSans-31" x="77.490234"/>
       <use xlink:href="#DejaVuSans-32" x="141.113281"/>
      </g>
     </g>
    </g>
    <g id="xtick_13">
     <g id="line2d_13">
      <g>
       <use xlink:href="#m0c42d46c3d" x="160.484" y="218.05" style="stroke: #000000; stroke-width: 0.8"/>
      </g>
     </g>
     <g id="text_13">
      <!-- G13 -->
      <g transform="translate(163.243375 245.523438) rotate(-90) scale(0.1 -0.1)">
       <use xlink:href="#DejaVuSans-47"/>
       <use xlink:href="#DejaVuSans-31" x="77.490234"/>
       <use xlink:href="#DejaVuSans-33" x="141.113281"/>
      </g>
     </g>
    </g>
    <g id="xtick_14">
     <g id="line2d_14">
      <g>
       <use xlink:href="#m0c42d46c3d" x="169.896" y="218.05" style="stroke: #000000; stroke-width: 0.8"/>
      </g>
     </g>
     <g id="text_14">
      <!-- K14 -->
      <g transform="translate(172.655375 244.332812) rotate(-90) scale(0.1 -0.1)">
       <use xlink:href="#DejaVuSans-4b"/>
       <use xlink:href="#DejaVuSans-31" x="65.576172"/>
       <use xlink:href="#DejaVuSans-34" x="129.199219"/>
      </g>
     </g>
    </g>
    <g id="xtick_15">
     <g id="line2d_15">
      <g>
       <use xlink:href="#m0c42d46c3d" x="179.308" y="218.05" style="stroke: #000000; stroke-width: 0.8"/>
      </g>
     </g>
     <g id="text_15">
      <!-- A15 -->
      <g transform="translate(182.067375 244.615625) rotate(-90) scale(0.1 -0.1)">
       <use xlink:href="#DejaVuSans-41"/>
       <use xlink:href="#DejaVuSans-31" x="68.408203"/>
       <use xlink:href="#DejaVuSans-35" x="132.03125"/>
      </g>
     </g>
    </g>
    <g id="xtick_16">
     <g id="line2d_16">
      <g>
       <use xlink:href="#m0c42d46c3d" x="188.72" y="218.05" style="stroke: #000000; stroke-width: 0.8"/>
      </g>
     </g>
     <g id="text_16">
      <!-- P16 -->
      <g transform="translate(191.479375 243.804688) rotate(-90) scale(0.1 -0.1)">
       <defs>
        <path id="DejaVuSans-50" d="M 1259 4147 
L 1259 2394 
L 2053 2394 
Q 2494 2394 2734 2622 
Q 2975 2850 2975 3272 
Q 2975 3691 2734 3919 
Q 2494 4147 2053 4147 
L 1259 4147 
z
M 628 4666 
L 2053 4666 
Q 2838 4666 3239 4311 
Q 3641 3956 3641 3272 
Q 3641 2581 3239 2228 
Q 2838 1875 2053 1875 
L 1259 1875 
L 1259 0 
L 628 0 
L 628 4666 
z
" transform="scale(0.015625)"/>
       </defs>
       <use xlink:href="#DejaVuSans-50"/>
       <use xlink:href="#DejaVuSans-31" x="60.302734"/>
       <use xlink:href="#DejaVuSans-36" x="123.925781"/>
      </g>
     </g>
    </g>
    <g id="xtick_17">
     <g id="line2d_17">
      <g>
       <use xlink:href="#m0c42d46c3d" x="198.132" y="218.05" style="stroke: #000000; stroke-width: 0.8"/>
      </g>
     </g>
     <g id="text_17">
      <!-- R17 -->
      <g transform="translate(200.891375 244.723437) rotate(-90) scale(0.1 -0.1)">
       <use xlink:href="#DejaVuSans-52"/>
       <use xlink:href="#DejaVuSans-31" x="69.482422"/>
       <use xlink:href="#DejaVuSans-37" x="133.105469"/>
      </g>
     </g>
    </g>
    <g id="xtick_18">
     <g id="line2d_18">
      <g>
       <use xlink:href="#m0c42d46c3d" x="207.544" y="218.05" style="stroke: #000000; stroke-width: 0.8"/>
      </g>
     </g>
     <g id="text_18">
      <!-- K18 -->
      <g transform="translate(210.303375 244.332812) rotate(-90) scale(0.1 -0.1)">
       <use xlink:href="#DejaVuSans-4b"/>
       <use xlink:href="#DejaVuSans-31" x="65.576172"/>
       <use xlink:href="#DejaVuSans-38" x="129.199219"/>
      </g>
     </g>
    </g>
    <g id="xtick_19">
     <g id="line2d_19">
      <g>
       <use xlink:href="#m0c42d46c3d" x="216.956" y="218.05" style="stroke: #000000; stroke-width: 0.8"/>
      </g>
     </g>
     <g id="text_19">
      <!-- Q19 -->
      <g transform="translate(219.715375 245.646875) rotate(-90) scale(0.1 -0.1)">
       <use xlink:href="#DejaVuSans-51"/>
       <use xlink:href="#DejaVuSans-31" x="78.710938"/>
       <use xlink:href="#DejaVuSans-39" x="142.333984"/>
      </g>
     </g>
    </g>
    <g id="xtick_20">
     <g id="line2d_20">
      <g>
       <use xlink:href="#m0c42d46c3d" x="226.368" y="218.05" style="stroke: #000000; stroke-width: 0.8"/>
      </g>
     </g>
     <g id="text_20">
      <!-- L20 -->
      <g transform="translate(229.127375 243.346875) rotate(-90) scale(0.1 -0.1)">
       <defs>
        <path id="DejaVuSans-4c" d="M 628 4666 
L 1259 4666 
L 1259 531 
L 3531 531 
L 3531 0 
L 628 0 
L 628 4666 
z
" transform="scale(0.015625)"/>
       </defs>
       <use xlink:href="#DejaVuSans-4c"/>
       <use xlink:href="#DejaVuSans-32" x="55.712891"/>
       <use xlink:href="#DejaVuSans-30" x="119.335938"/>
      </g>
     </g>
    </g>
    <g id="xtick_21">
     <g id="line2d_21">
      <g>
       <use xlink:href="#m0c42d46c3d" x="235.78" y="218.05" style="stroke: #000000; stroke-width: 0.8"/>
      </g>
     </g>
     <g id="text_21">
      <!-- A21 -->
      <g transform="translate(238.539375 244.615625) rotate(-90) scale(0.1 -0.1)">
       <use xlink:href="#DejaVuSans-41"/>
       <use xlink:href="#DejaVuSans-32" x="68.408203"/>
       <use xlink:href="#DejaVuSans-31" x="132.03125"/>
      </g>
     </g>
    </g>
    <g id="xtick_22">
     <g id="line2d_22">
      <g>
       <use xlink:href="#m0c42d46c3d" x="245.192" y="218.05" style="stroke: #000000; stroke-width: 0.8"/>
      </g>
     </g>
     <g id="text_22">
      <!-- T22 -->
      <g transform="translate(247.951375 243.882812) rotate(-90) scale(0.1 -0.1)">
       <use xlink:href="#DejaVuSans-54"/>
       <use xlink:href="#DejaVuSans-32" x="61.083984"/>
       <use xlink:href="#DejaVuSans-32" x="124.707031"/>
      </g>
     </g>
    </g>
    <g id="xtick_23">
     <g id="line2d_23">
      <g>
       <use xlink:href="#m0c42d46c3d" x="254.604" y="218.05" style="stroke: #000000; stroke-width: 0.8"/>
      </g>
     </g>
     <g id="text_23">
      <!-- K23 -->
      <g transform="translate(257.363375 244.332812) rotate(-90) scale(0.1 -0.1)">
       <use xlink:href="#DejaVuSans-4b"/>
       <use xlink:href="#DejaVuSans-32" x="65.576172"/>
       <use xlink:href="#DejaVuSans-33" x="129.199219"/>
      </g>
     </g>
    </g>
    <g id="xtick_24">
     <g id="line2d_24">
      <g>
       <use xlink:href="#m0c42d46c3d" x="264.016" y="218.05" style="stroke: #000000; stroke-width: 0.8"/>
      </g>
     </g>
     <g id="text_24">
      <!-- A24 -->
      <g transform="translate(266.775375 244.615625) rotate(-90) scale(0.1 -0.1)">
       <use xlink:href="#DejaVuSans-41"/>
       <use xlink:href="#DejaVuSans-32" x="68.408203"/>
       <use xlink:href="#DejaVuSans-34" x="132.03125"/>
      </g>
     </g>
    </g>
    <g id="xtick_25">
     <g id="line2d_25">
      <g>
       <use xlink:href="#m0c42d46c3d" x="273.428" y="218.05" style="stroke: #000000; stroke-width: 0.8"/>
      </g>
     </g>
     <g id="text_25">
      <!-- A25 -->
      <g transform="translate(276.187375 244.615625) rotate(-90) scale(0.1 -0.1)">
       <use xlink:href="#DejaVuSans-41"/>
       <use xlink:href="#DejaVuSans-32" x="68.408203"/>
       <use xlink:href="#DejaVuSans-35" x="132.03125"/>
      </g>
     </g>
    </g>
    <g id="xtick_26">
     <g id="line2d_26">
      <g>
       <use xlink:href="#m0c42d46c3d" x="282.84" y="218.05" style="stroke: #000000; stroke-width: 0.8"/>
      </g>
     </g>
     <g id="text_26">
      <!-- R26 -->
      <g transform="translate(285.599375 244.723437) rotate(-90) scale(0.1 -0.1)">
       <use xlink:href="#DejaVuSans-52"/>
       <use xlink:href="#DejaVuSans-32" x="69.482422"/>
       <use xlink:href="#DejaVuSans-36" x="133.105469"/>
      </g>
     </g>
    </g>
    <g id="xtick_27">
     <g id="line2d_27">
      <g>
       <use xlink:href="#m0c42d46c3d" x="292.252" y="218.05" style="stroke: #000000; stroke-width: 0.8"/>
      </g>
     </g>
     <g id="text_27">
      <!-- K27 -->
      <g transform="translate(295.011375 244.332812) rotate(-90) scale(0.1 -0.1)">
       <use xlink:href="#DejaVuSans-4b"/>
       <use xlink:href="#DejaVuSans-32" x="65.576172"/>
       <use xlink:href="#DejaVuSans-37" x="129.199219"/>
      </g>
     </g>
    </g>
    <g id="xtick_28">
     <g id="line2d_28">
      <g>
       <use xlink:href="#m0c42d46c3d" x="301.664" y="218.05" style="stroke: #000000; stroke-width: 0.8"/>
      </g>
     </g>
     <g id="text_28">
      <!-- S28 -->
      <g transform="translate(304.423375 244.123437) rotate(-90) scale(0.1 -0.1)">
       <use xlink:href="#DejaVuSans-53"/>
       <use xlink:href="#DejaVuSans-32" x="63.476562"/>
       <use xlink:href="#DejaVuSans-38" x="127.099609"/>
      </g>
     </g>
    </g>
    <g id="xtick_29">
     <g id="line2d_29">
      <g>
       <use xlink:href="#m0c42d46c3d" x="311.076" y="218.05" style="stroke: #000000; stroke-width: 0.8"/>
      </g>
     </g>
     <g id="text_29">
      <!-- A29 -->
      <g transform="translate(313.835375 244.615625) rotate(-90) scale(0.1 -0.1)">
       <use xlink:href="#DejaVuSans-41"/>
       <use xlink:href="#DejaVuSans-32" x="68.408203"/>
       <use xlink:href="#DejaVuSans-39" x="132.03125"/>
      </g>
     </g>
    </g>
    <g id="xtick_30">
     <g id="line2d_30">
      <g>
       <use xlink:href="#m0c42d46c3d" x="320.488" y="218.05" style="stroke: #000000; stroke-width: 0.8"/>
      </g>
     </g>
     <g id="text_30">
      <!-- P30 -->
      <g transform="translate(323.247375 243.804688) rotate(-90) scale(0.1 -0.1)">
       <use xlink:href="#DejaVuSans-50"/>
       <use xlink:href="#DejaVuSans-33" x="60.302734"/>
       <use xlink:href="#DejaVuSans-30" x="123.925781"/>
      </g>
     </g>
    </g>
    <g id="xtick_31">
     <g id="line2d_31">
      <g>
       <use xlink:href="#m0c42d46c3d" x="329.9" y="218.05" style="stroke: #000000; stroke-width: 0.8"/>
      </g>
     </g>
     <g id="text_31">
      <!-- A31 -->
      <g transform="translate(332.659375 244.615625) rotate(-90) scale(0.1 -0.1)">
       <use xlink:href="#DejaVuSans-41"/>
       <use xlink:href="#DejaVuSans-33" x="68.408203"/>
       <use xlink:href="#DejaVuSans-31" x="132.03125"/>
      </g>
     </g>
    </g>
    <g id="xtick_32">
     <g id="line2d_32">
      <g>
       <use xlink:href="#m0c42d46c3d" x="339.312" y="218.05" style="stroke: #000000; stroke-width: 0.8"/>
      </g>
     </g>
     <g id="text_32">
      <!-- T32 -->
      <g transform="translate(342.071375 243.882812) rotate(-90) scale(0.1 -0.1)">
       <use xlink:href="#DejaVuSans-54"/>
       <use xlink:href="#DejaVuSans-33" x="61.083984"/>
       <use xlink:href="#DejaVuSans-32" x="124.707031"/>
      </g>
     </g>
    </g>
    <g id="xtick_33">
     <g id="line2d_33">
      <g>
       <use xlink:href="#m0c42d46c3d" x="348.724" y="218.05" style="stroke: #000000; stroke-width: 0.8"/>
      </g>
     </g>
     <g id="text_33">
      <!-- G33 -->
      <g transform="translate(351.483375 245.523438) rotate(-90) scale(0.1 -0.1)">
       <use xlink:href="#DejaVuSans-47"/>
       <use xlink:href="#DejaVuSans-33" x="77.490234"/>
       <use xlink:href="#DejaVuSans-33" x="141.113281"/>
      </g>
     </g>
    </g>
    <g id="xtick_34">
     <g id="line2d_34">
      <g>
       <use xlink:href="#m0c42d46c3d" x="358.136" y="218.05" style="stroke: #000000; stroke-width: 0.8"/>
      </g>
     </g>
     <g id="text_34">
      <!-- G34 -->
      <g transform="translate(360.895375 245.523438) rotate(-90) scale(0.1 -0.1)">
       <use xlink:href="#DejaVuSans-47"/>
       <use xlink:href="#DejaVuSans-33" x="77.490234"/>
       <use xlink:href="#DejaVuSans-34" x="141.113281"/>
      </g>
     </g>
    </g>
    <g id="xtick_35">
     <g id="line2d_35">
      <g>
       <use xlink:href="#m0c42d46c3d" x="367.548" y="218.05" style="stroke: #000000; stroke-width: 0.8"/>
      </g>
     </g>
     <g id="text_35">
      <!-- V35 -->
      <g transform="translate(370.307375 244.615625) rotate(-90) scale(0.1 -0.1)">
       <defs>
        <path id="DejaVuSans-56" d="M 1831 0 
L 50 4666 
L 709 4666 
L 2188 738 
L 3669 4666 
L 4325 4666 
L 2547 0 
L 1831 0 
z
" transform="scale(0.015625)"/>
       </defs>
       <use xlink:href="#DejaVuSans-56"/>
       <use xlink:href="#DejaVuSans-33" x="68.408203"/>
       <use xlink:href="#DejaVuSans-35" x="132.03125"/>
      </g>
     </g>
    </g>
    <g id="xtick_36">
     <g id="line2d_36">
      <g>
       <use xlink:href="#m0c42d46c3d" x="376.96" y="218.05" style="stroke: #000000; stroke-width: 0.8"/>
      </g>
     </g>
     <g id="text_36">
      <!-- K36 -->
      <g transform="translate(379.719375 244.332812) rotate(-90) scale(0.1 -0.1)">
       <use xlink:href="#DejaVuSans-4b"/>
       <use xlink:href="#DejaVuSans-33" x="65.576172"/>
       <use xlink:href="#DejaVuSans-36" x="129.199219"/>
      </g>
     </g>
    </g>
    <g id="xtick_37">
     <g id="line2d_37">
      <g>
       <use xlink:href="#m0c42d46c3d" x="386.372" y="218.05" style="stroke: #000000; stroke-width: 0.8"/>
      </g>
     </g>
     <g id="text_37">
      <!-- K37 -->
      <g transform="translate(389.131375 244.332812) rotate(-90) scale(0.1 -0.1)">
       <use xlink:href="#DejaVuSans-4b"/>
       <use xlink:href="#DejaVuSans-33" x="65.576172"/>
       <use xlink:href="#DejaVuSans-37" x="129.199219"/>
      </g>
     </g>
    </g>
    <g id="xtick_38">
     <g id="line2d_38">
      <g>
       <use xlink:href="#m0c42d46c3d" x="395.784" y="218.05" style="stroke: #000000; stroke-width: 0.8"/>
      </g>
     </g>
     <g id="text_38">
      <!-- P38 -->
      <g transform="translate(398.543375 243.804688) rotate(-90) scale(0.1 -0.1)">
       <use xlink:href="#DejaVuSans-50"/>
       <use xlink:href="#DejaVuSans-33" x="60.302734"/>
       <use xlink:href="#DejaVuSans-38" x="123.925781"/>
      </g>
     </g>
    </g>
    <g id="xtick_39">
     <g id="line2d_39">
      <g>
       <use xlink:href="#m0c42d46c3d" x="405.196" y="218.05" style="stroke: #000000; stroke-width: 0.8"/>
      </g>
     </g>
     <g id="text_39">
      <!-- H39 -->
      <g transform="translate(407.955375 245.295312) rotate(-90) scale(0.1 -0.1)">
       <defs>
        <path id="DejaVuSans-48" d="M 628 4666 
L 1259 4666 
L 1259 2753 
L 3553 2753 
L 3553 4666 
L 4184 4666 
L 4184 0 
L 3553 0 
L 3553 2222 
L 1259 2222 
L 1259 0 
L 628 0 
L 628 4666 
z
" transform="scale(0.015625)"/>
       </defs>
       <use xlink:href="#DejaVuSans-48"/>
       <use xlink:href="#DejaVuSans-33" x="75.195312"/>
       <use xlink:href="#DejaVuSans-39" x="138.818359"/>
      </g>
     </g>
    </g>
    <g id="xtick_40">
     <g id="line2d_40">
      <g>
       <use xlink:href="#m0c42d46c3d" x="414.608" y="218.05" style="stroke: #000000; stroke-width: 0.8"/>
      </g>
     </g>
     <g id="text_40">
      <!-- R40 -->
      <g transform="translate(417.367375 244.723437) rotate(-90) scale(0.1 -0.1)">
       <use xlink:href="#DejaVuSans-52"/>
       <use xlink:href="#DejaVuSans-34" x="69.482422"/>
       <use xlink:href="#DejaVuSans-30" x="133.105469"/>
      </g>
     </g>
    </g>
    <g id="xtick_41">
     <g id="line2d_41">
      <g>
       <use xlink:href="#m0c42d46c3d" x="424.02" y="218.05" style="stroke: #000000; stroke-width: 0.8"/>
      </g>
     </g>
     <g id="text_41">
      <!-- Y41 -->
      <g transform="translate(426.779375 243.882812) rotate(-90) scale(0.1 -0.1)">
       <defs>
        <path id="DejaVuSans-59" d="M -13 4666 
L 666 4666 
L 1959 2747 
L 3244 4666 
L 3922 4666 
L 2272 2222 
L 2272 0 
L 1638 0 
L 1638 2222 
L -13 4666 
z
" transform="scale(0.015625)"/>
       </defs>
       <use xlink:href="#DejaVuSans-59"/>
       <use xlink:href="#DejaVuSans-34" x="61.083984"/>
       <use xlink:href="#DejaVuSans-31" x="124.707031"/>
      </g>
     </g>
    </g>
    <g id="xtick_42">
     <g id="line2d_42">
      <g>
       <use xlink:href="#m0c42d46c3d" x="433.432" y="218.05" style="stroke: #000000; stroke-width: 0.8"/>
      </g>
     </g>
     <g id="text_42">
      <!-- R42 -->
      <g transform="translate(436.191375 244.723437) rotate(-90) scale(0.1 -0.1)">
       <use xlink:href="#DejaVuSans-52"/>
       <use xlink:href="#DejaVuSans-34" x="69.482422"/>
       <use xlink:href="#DejaVuSans-32" x="133.105469"/>
      </g>
     </g>
    </g>
    <g id="xtick_43">
     <g id="line2d_43">
      <g>
       <use xlink:href="#m0c42d46c3d" x="442.844" y="218.05" style="stroke: #000000; stroke-width: 0.8"/>
      </g>
     </g>
     <g id="text_43">
      <!-- P43 -->
      <g transform="translate(445.603375 243.804688) rotate(-90) scale(0.1 -0.1)">
       <use xlink:href="#DejaVuSans-50"/>
       <use xlink:href="#DejaVuSans-34" x="60.302734"/>
       <use xlink:href="#DejaVuSans-33" x="123.925781"/>
      </g>
     </g>
    </g>
    <g id="xtick_44">
     <g id="line2d_44">
      <g>
       <use xlink:href="#m0c42d46c3d" x="452.256" y="218.05" style="stroke: #000000; stroke-width: 0.8"/>
      </g>
     </g>
     <g id="text_44">
      <!-- G44 -->
      <g transform="translate(455.015375 245.523438) rotate(-90) scale(0.1 -0.1)">
       <use xlink:href="#DejaVuSans-47"/>
       <use xlink:href="#DejaVuSans-34" x="77.490234"/>
       <use xlink:href="#DejaVuSans-34" x="141.113281"/>
      </g>
     </g>
    </g>
    <g id="xtick_45">
     <g id="line2d_45">
      <g>
       <use xlink:href="#m0c42d46c3d" x="461.668" y="218.05" style="stroke: #000000; stroke-width: 0.8"/>
      </g>
     </g>
     <g id="text_45">
      <!-- T45 -->
      <g transform="translate(464.427375 243.882812) rotate(-90) scale(0.1 -0.1)">
       <use xlink:href="#DejaVuSans-54"/>
       <use xlink:href="#DejaVuSans-34" x="61.083984"/>
       <use xlink:href="#DejaVuSans-35" x="124.707031"/>
      </g>
     </g>
    </g>
    <g id="xtick_46">
     <g id="line2d_46">
      <g>
       <use xlink:href="#m0c42d46c3d" x="471.08" y="218.05" style="stroke: #000000; stroke-width: 0.8"/>
      </g>
     </g>
     <g id="text_46">
      <!-- V46 -->
      <g transform="translate(473.839375 244.615625) rotate(-90) scale(0.1 -0.1)">
       <use xlink:href="#DejaVuSans-56"/>
       <use xlink:href="#DejaVuSans-34" x="68.408203"/>
       <use xlink:href="#DejaVuSans-36" x="132.03125"/>
      </g>
     </g>
    </g>
    <g id="xtick_47">
     <g id="line2d_47">
      <g>
       <use xlink:href="#m0c42d46c3d" x="480.492" y="218.05" style="stroke: #000000; stroke-width: 0.8"/>
      </g>
     </g>
     <g id="text_47">
      <!-- A47 -->
      <g transform="translate(483.251375 244.615625) rotate(-90) scale(0.1 -0.1)">
       <use xlink:href="#DejaVuSans-41"/>
       <use xlink:href="#DejaVuSans-34" x="68.408203"/>
       <use xlink:href="#DejaVuSans-37" x="132.03125"/>
      </g>
     </g>
    </g>
    <g id="xtick_48">
     <g id="line2d_48">
      <g>
       <use xlink:href="#m0c42d46c3d" x="489.904" y="218.05" style="stroke: #000000; stroke-width: 0.8"/>
      </g>
     </g>
     <g id="text_48">
      <!-- L48 -->
      <g transform="translate(492.663375 243.346875) rotate(-90) scale(0.1 -0.1)">
       <use xlink:href="#DejaVuSans-4c"/>
       <use xlink:href="#DejaVuSans-34" x="55.712891"/>
       <use xlink:href="#DejaVuSans-38" x="119.335938"/>
      </g>
     </g>
    </g>
    <g id="xtick_49">
     <g id="line2d_49">
      <g>
       <use xlink:href="#m0c42d46c3d" x="499.316" y="218.05" style="stroke: #000000; stroke-width: 0.8"/>
      </g>
     </g>
     <g id="text_49">
      <!-- R49 -->
      <g transform="translate(502.075375 244.723437) rotate(-90) scale(0.1 -0.1)">
       <use xlink:href="#DejaVuSans-52"/>
       <use xlink:href="#DejaVuSans-34" x="69.482422"/>
       <use xlink:href="#DejaVuSans-39" x="133.105469"/>
      </g>
     </g>
    </g>
    <g id="xtick_50">
     <g id="line2d_50">
      <g>
       <use xlink:href="#m0c42d46c3d" x="508.728" y="218.05" style="stroke: #000000; stroke-width: 0.8"/>
      </g>
     </g>
     <g id="text_50">
      <!-- E50 -->
      <g transform="translate(511.487375 244.09375) rotate(-90) scale(0.1 -0.1)">
       <defs>
        <path id="DejaVuSans-45" d="M 628 4666 
L 3578 4666 
L 3578 4134 
L 1259 4134 
L 1259 2753 
L 3481 2753 
L 3481 2222 
L 1259 2222 
L 1259 531 
L 3634 531 
L 3634 0 
L 628 0 
L 628 4666 
z
" transform="scale(0.015625)"/>
       </defs>
       <use xlink:href="#DejaVuSans-45"/>
       <use xlink:href="#DejaVuSans-35" x="63.183594"/>
       <use xlink:href="#DejaVuSans-30" x="126.806641"/>
      </g>
     </g>
    </g>
    <g id="xtick_51">
     <g id="line2d_51">
      <g>
       <use xlink:href="#m0c42d46c3d" x="518.14" y="218.05" style="stroke: #000000; stroke-width: 0.8"/>
      </g>
     </g>
     <g id="text_51">
      <!-- I51 -->
      <g transform="translate(520.899375 240.725) rotate(-90) scale(0.1 -0.1)">
       <defs>
        <path id="DejaVuSans-49" d="M 628 4666 
L 1259 4666 
L 1259 0 
L 628 0 
L 628 4666 
z
" transform="scale(0.015625)"/>
       </defs>
       <use xlink:href="#DejaVuSans-49"/>
       <use xlink:href="#DejaVuSans-35" x="29.492188"/>
       <use xlink:href="#DejaVuSans-31" x="93.115234"/>
      </g>
     </g>
    </g>
    <g id="xtick_52">
     <g id="line2d_52">
      <g>
       <use xlink:href="#m0c42d46c3d" x="527.552" y="218.05" style="stroke: #000000; stroke-width: 0.8"/>
      </g>
     </g>
     <g id="text_52">
      <!-- R52 -->
      <g transform="translate(530.311375 244.723437) rotate(-90) scale(0.1 -0.1)">
       <use xlink:href="#DejaVuSans-52"/>
       <use xlink:href="#DejaVuSans-35" x="69.482422"/>
       <use xlink:href="#DejaVuSans-32" x="133.105469"/>
      </g>
     </g>
    </g>
    <g id="xtick_53">
     <g id="line2d_53">
      <g>
       <use xlink:href="#m0c42d46c3d" x="536.964" y="218.05" style="stroke: #000000; stroke-width: 0.8"/>
      </g>
     </g>
     <g id="text_53">
      <!-- R53 -->
      <g transform="translate(539.723375 244.723437) rotate(-90) scale(0.1 -0.1)">
       <use xlink:href="#DejaVuSans-52"/>
       <use xlink:href="#DejaVuSans-35" x="69.482422"/>
       <use xlink:href="#DejaVuSans-33" x="133.105469"/>
      </g>
     </g>
    </g>
    <g id="xtick_54">
     <g id="line2d_54">
      <g>
       <use xlink:href="#m0c42d46c3d" x="546.376" y="218.05" style="stroke: #000000; stroke-width: 0.8"/>
      </g>
     </g>
     <g id="text_54">
      <!-- Y54 -->
      <g transform="translate(549.135375 243.882812) rotate(-90) scale(0.1 -0.1)">
       <use xlink:href="#DejaVuSans-59"/>
       <use xlink:href="#DejaVuSans-35" x="61.083984"/>
       <use xlink:href="#DejaVuSans-34" x="124.707031"/>
      </g>
     </g>
    </g>
    <g id="xtick_55">
     <g id="line2d_55">
      <g>
       <use xlink:href="#m0c42d46c3d" x="555.788" y="218.05" style="stroke: #000000; stroke-width: 0.8"/>
      </g>
     </g>
     <g id="text_55">
      <!-- Q55 -->
      <g transform="translate(558.547375 245.646875) rotate(-90) scale(0.1 -0.1)">
       <use xlink:href="#DejaVuSans-51"/>
       <use xlink:href="#DejaVuSans-35" x="78.710938"/>
       <use xlink:href="#DejaVuSans-35" x="142.333984"/>
      </g>
     </g>
    </g>
    <g id="text_56">
     <!-- Residue -->
     <g transform="translate(280.709219 274.104531) scale(0.13 -0.13)">
      <defs>
       <path id="DejaVuSans-73" d="M 2834 3397 
L 2834 2853 
Q 2591 2978 2328 3040 
Q 2066 3103 1784 3103 
Q 1356 3103 1142 2972 
Q 928 2841 928 2578 
Q 928 2378 1081 2264 
Q 1234 2150 1697 2047 
L 1894 2003 
Q 2506 1872 2764 1633 
Q 3022 1394 3022 966 
Q 3022 478 2636 193 
Q 2250 -91 1575 -91 
Q 1294 -91 989 -36 
Q 684 19 347 128 
L 347 722 
Q 666 556 975 473 
Q 1284 391 1588 391 
Q 1994 391 2212 530 
Q 2431 669 2431 922 
Q 2431 1156 2273 1281 
Q 2116 1406 1581 1522 
L 1381 1569 
Q 847 1681 609 1914 
Q 372 2147 372 2553 
Q 372 3047 722 3315 
Q 1072 3584 1716 3584 
Q 2034 3584 2315 3537 
Q 2597 3491 2834 3397 
z
" transform="scale(0.015625)"/>
       <path id="DejaVuSans-69" d="M 603 3500 
L 1178 3500 
L 1178 0 
L 603 0 
L 603 3500 
z
M 603 4863 
L 1178 4863 
L 1178 4134 
L 603 4134 
L 603 4863 
z
" transform="scale(0.015625)"/>
       <path id="DejaVuSans-64" d="M 2906 2969 
L 2906 4863 
L 3481 4863 
L 3481 0 
L 2906 0 
L 2906 525 
Q 2725 213 2448 61 
Q 2172 -91 1784 -91 
Q 1150 -91 751 415 
Q 353 922 353 1747 
Q 353 2572 751 3078 
Q 1150 3584 1784 3584 
Q 2172 3584 2448 3432 
Q 2725 3281 2906 2969 
z
M 947 1747 
Q 947 1113 1208 752 
Q 1469 391 1925 391 
Q 2381 391 2643 752 
Q 2906 1113 2906 1747 
Q 2906 2381 2643 2742 
Q 2381 3103 1925 3103 
Q 1469 3103 1208 2742 
Q 947 2381 947 1747 
z
" transform="scale(0.015625)"/>
       <path id="DejaVuSans-75" d="M 544 1381 
L 544 3500 
L 1119 3500 
L 1119 1403 
Q 1119 906 1312 657 
Q 1506 409 1894 409 
Q 2359 409 2629 706 
Q 2900 1003 2900 1516 
L 2900 3500 
L 3475 3500 
L 3475 0 
L 2900 0 
L 2900 538 
Q 2691 219 2414 64 
Q 2138 -91 1772 -91 
Q 1169 -91 856 284 
Q 544 659 544 1381 
z
M 1991 3584 
L 1991 3584 
z
" transform="scale(0.015625)"/>
      </defs>
      <use xlink:href="#DejaVuSans-52"/>
      <use xlink:href="#DejaVuSans-65" x="64.982422"/>
      <use xlink:href="#DejaVuSans-73" x="126.505859"/>
      <use xlink:href="#DejaVuSans-69" x="178.605469"/>
      <use xlink:href="#DejaVuSans-64" x="206.388672"/>
      <use xlink:href="#DejaVuSans-75" x="269.865234"/>
      <use xlink:href="#DejaVuSans-65" x="333.244141"/>
     </g>
    </g>
   </g>
   <g id="matplotlib.axis_2">
    <g id="ytick_1">
     <g id="line2d_56">
      <defs>
       <path id="m68d65450a1" d="M 0 0 
L -3.5 0 
" style="stroke: #000000; stroke-width: 0.8"/>
      </defs>
      <g>
       <use xlink:href="#m68d65450a1" x="47.54" y="206.091765" style="stroke: #000000; stroke-width: 0.8"/>
      </g>
     </g>
     <g id="text_57">
      <!-- 0 -->
      <g transform="translate(34.1775 209.890983) scale(0.1 -0.1)">
       <use xlink:href="#DejaVuSans-30"/>
      </g>
     </g>
    </g>
    <g id="ytick_2">
     <g id="line2d_57">
      <g>
       <use xlink:href="#m68d65450a1" x="47.54" y="194.133529" style="stroke: #000000; stroke-width: 0.8"/>
      </g>
     </g>
     <g id="text_58">
      <!-- 1 -->
      <g transform="translate(34.1775 197.932748) scale(0.1 -0.1)">
       <use xlink:href="#DejaVuSans-31"/>
      </g>
     </g>
    </g>
    <g id="ytick_3">
     <g id="line2d_58">
      <g>
       <use xlink:href="#m68d65450a1" x="47.54" y="182.175294" style="stroke: #000000; stroke-width: 0.8"/>
      </g>
     </g>
     <g id="text_59">
      <!-- 2 -->
      <g transform="translate(34.1775 185.974513) scale(0.1 -0.1)">
       <use xlink:href="#DejaVuSans-32"/>
      </g>
     </g>
    </g>
    <g id="ytick_4">
     <g id="line2d_59">
      <g>
       <use xlink:href="#m68d65450a1" x="47.54" y="170.217059" style="stroke: #000000; stroke-width: 0.8"/>
      </g>
     </g>
     <g id="text_60">
      <!-- 3 -->
      <g transform="translate(34.1775 174.016278) scale(0.1 -0.1)">
       <use xlink:href="#DejaVuSans-33"/>
      </g>
     </g>
    </g>
    <g id="ytick_5">
     <g id="line2d_60">
      <g>
       <use xlink:href="#m68d65450a1" x="47.54" y="158.258824" style="stroke: #000000; stroke-width: 0.8"/>
      </g>
     </g>
     <g id="text_61">
      <!-- 4 -->
      <g transform="translate(34.1775 162.058042) scale(0.1 -0.1)">
       <use xlink:href="#DejaVuSans-34"/>
      </g>
     </g>
    </g>
    <g id="ytick_6">
     <g id="line2d_61">
      <g>
       <use xlink:href="#m68d65450a1" x="47.54" y="146.300588" style="stroke: #000000; stroke-width: 0.8"/>
      </g>
     </g>
     <g id="text_62">
      <!-- 5 -->
      <g transform="translate(34.1775 150.099807) scale(0.1 -0.1)">
       <use xlink:href="#DejaVuSans-35"/>
      </g>
     </g>
    </g>
    <g id="ytick_7">
     <g id="line2d_62">
      <g>
       <use xlink:href="#m68d65450a1" x="47.54" y="134.342353" style="stroke: #000000; stroke-width: 0.8"/>
      </g>
     </g>
     <g id="text_63">
      <!-- 6 -->
      <g transform="translate(34.1775 138.141572) scale(0.1 -0.1)">
       <use xlink:href="#DejaVuSans-36"/>
      </g>
     </g>
    </g>
    <g id="ytick_8">
     <g id="line2d_63">
      <g>
       <use xlink:href="#m68d65450a1" x="47.54" y="122.384118" style="stroke: #000000; stroke-width: 0.8"/>
      </g>
     </g>
     <g id="text_64">
      <!-- 7 -->
      <g transform="translate(34.1775 126.183336) scale(0.1 -0.1)">
       <use xlink:href="#DejaVuSans-37"/>
      </g>
     </g>
    </g>
    <g id="ytick_9">
     <g id="line2d_64">
      <g>
       <use xlink:href="#m68d65450a1" x="47.54" y="110.425882" style="stroke: #000000; stroke-width: 0.8"/>
      </g>
     </g>
     <g id="text_65">
      <!-- 8 -->
      <g transform="translate(34.1775 114.225101) scale(0.1 -0.1)">
       <use xlink:href="#DejaVuSans-38"/>
      </g>
     </g>
    </g>
    <g id="ytick_10">
     <g id="line2d_65">
      <g>
       <use xlink:href="#m68d65450a1" x="47.54" y="98.467647" style="stroke: #000000; stroke-width: 0.8"/>
      </g>
     </g>
     <g id="text_66">
      <!-- 9 -->
      <g transform="translate(34.1775 102.266866) scale(0.1 -0.1)">
       <use xlink:href="#DejaVuSans-39"/>
      </g>
     </g>
    </g>
    <g id="ytick_11">
     <g id="line2d_66">
      <g>
       <use xlink:href="#m68d65450a1" x="47.54" y="86.509412" style="stroke: #000000; stroke-width: 0.8"/>
      </g>
     </g>
     <g id="text_67">
      <!-- 10 -->
      <g transform="translate(27.815 90.308631) scale(0.1 -0.1)">
       <use xlink:href="#DejaVuSans-31"/>
       <use xlink:href="#DejaVuSans-30" x="63.623047"/>
      </g>
     </g>
    </g>
    <g id="ytick_12">
     <g id="line2d_67">
      <g>
       <use xlink:href="#m68d65450a1" x="47.54" y="74.551176" style="stroke: #000000; stroke-width: 0.8"/>
      </g>
     </g>
     <g id="text_68">
      <!-- 11 -->
      <g transform="translate(27.815 78.350395) scale(0.1 -0.1)">
       <use xlink:href="#DejaVuSans-31"/>
       <use xlink:href="#DejaVuSans-31" x="63.623047"/>
      </g>
     </g>
    </g>
    <g id="ytick_13">
     <g id="line2d_68">
      <g>
       <use xlink:href="#m68d65450a1" x="47.54" y="62.592941" style="stroke: #000000; stroke-width: 0.8"/>
      </g>
     </g>
     <g id="text_69">
      <!-- 12 -->
      <g transform="translate(27.815 66.39216) scale(0.1 -0.1)">
       <use xlink:href="#DejaVuSans-31"/>
       <use xlink:href="#DejaVuSans-32" x="63.623047"/>
      </g>
     </g>
    </g>
    <g id="ytick_14">
     <g id="line2d_69">
      <g>
       <use xlink:href="#m68d65450a1" x="47.54" y="50.634706" style="stroke: #000000; stroke-width: 0.8"/>
      </g>
     </g>
     <g id="text_70">
      <!-- 13 -->
      <g transform="translate(27.815 54.433925) scale(0.1 -0.1)">
       <use xlink:href="#DejaVuSans-31"/>
       <use xlink:href="#DejaVuSans-33" x="63.623047"/>
      </g>
     </g>
    </g>
    <g id="ytick_15">
     <g id="line2d_70">
      <g>
       <use xlink:href="#m68d65450a1" x="47.54" y="38.676471" style="stroke: #000000; stroke-width: 0.8"/>
      </g>
     </g>
     <g id="text_71">
      <!-- 14 -->
      <g transform="translate(27.815 42.475689) scale(0.1 -0.1)">
       <use xlink:href="#DejaVuSans-31"/>
       <use xlink:href="#DejaVuSans-34" x="63.623047"/>
      </g>
     </g>
    </g>
    <g id="ytick_16">
     <g id="line2d_71">
      <g>
       <use xlink:href="#m68d65450a1" x="47.54" y="26.718235" style="stroke: #000000; stroke-width: 0.8"/>
      </g>
     </g>
     <g id="text_72">
      <!-- 15 -->
      <g transform="translate(27.815 30.517454) scale(0.1 -0.1)">
       <use xlink:href="#DejaVuSans-31"/>
       <use xlink:href="#DejaVuSans-35" x="63.623047"/>
      </g>
     </g>
    </g>
    <g id="ytick_17">
     <g id="line2d_72">
      <g>
       <use xlink:href="#m68d65450a1" x="47.54" y="14.76" style="stroke: #000000; stroke-width: 0.8"/>
      </g>
     </g>
     <g id="text_73">
      <!-- 16 -->
      <g transform="translate(27.815 18.559219) scale(0.1 -0.1)">
       <use xlink:href="#DejaVuSans-31"/>
       <use xlink:href="#DejaVuSans-36" x="63.623047"/>
      </g>
     </g>
    </g>
    <g id="text_74">
     <!-- RMSF ($\mathrm{\AA}$) -->
     <g transform="translate(21.735313 139.155) rotate(-90) scale(0.1 -0.1)">
      <defs>
       <path id="DejaVuSans-4d" d="M 628 4666 
L 1569 4666 
L 2759 1491 
L 3956 4666 
L 4897 4666 
L 4897 0 
L 4281 0 
L 4281 4097 
L 3078 897 
L 2444 897 
L 1241 4097 
L 1241 0 
L 628 0 
L 628 4666 
z
" transform="scale(0.015625)"/>
       <path id="DejaVuSans-46" d="M 628 4666 
L 3309 4666 
L 3309 4134 
L 1259 4134 
L 1259 2759 
L 3109 2759 
L 3109 2228 
L 1259 2228 
L 1259 0 
L 628 0 
L 628 4666 
z
" transform="scale(0.015625)"/>
       <path id="DejaVuSans-20" transform="scale(0.015625)"/>
       <path id="DejaVuSans-28" d="M 1984 4856 
Q 1566 4138 1362 3434 
Q 1159 2731 1159 2009 
Q 1159 1288 1364 580 
Q 1569 -128 1984 -844 
L 1484 -844 
Q 1016 -109 783 600 
Q 550 1309 550 2009 
Q 550 2706 781 3412 
Q 1013 4119 1484 4856 
L 1984 4856 
z
" transform="scale(0.015625)"/>
       <path id="DejaVuSans-c5" d="M 2663 5081 
Q 2663 5278 2523 5417 
Q 2384 5556 2188 5556 
Q 1988 5556 1852 5420 
Q 1716 5284 1716 5081 
Q 1716 4884 1853 4746 
Q 1991 4609 2188 4609 
Q 2384 4609 2523 4746 
Q 2663 4884 2663 5081 
z
M 2188 4044 
L 1338 1722 
L 3041 1722 
L 2188 4044 
z
M 1716 4366 
Q 1525 4494 1428 4673 
Q 1331 4853 1331 5081 
Q 1331 5441 1579 5691 
Q 1828 5941 2188 5941 
Q 2544 5941 2795 5689 
Q 3047 5438 3047 5081 
Q 3047 4863 2948 4678 
Q 2850 4494 2663 4366 
L 4325 0 
L 3669 0 
L 3244 1197 
L 1141 1197 
L 716 0 
L 50 0 
L 1716 4366 
z
" transform="scale(0.015625)"/>
       <path id="DejaVuSans-29" d="M 513 4856 
L 1013 4856 
Q 1481 4119 1714 3412 
Q 1947 2706 1947 2009 
Q 1947 1309 1714 600 
Q 1481 -109 1013 -844 
L 513 -844 
Q 928 -128 1133 580 
Q 1338 1288 1338 2009 
Q 1338 2731 1133 3434 
Q 928 4138 513 4856 
z
" transform="scale(0.015625)"/>
      </defs>
      <use xlink:href="#DejaVuSans-52" transform="translate(0 0.171875)"/>
      <use xlink:href="#DejaVuSans-4d" transform="translate(69.482422 0.171875)"/>
      <use xlink:href="#DejaVuSans-53" transform="translate(155.761719 0.171875)"/>
      <use xlink:href="#DejaVuSans-46" transform="translate(219.238281 0.171875)"/>
      <use xlink:href="#DejaVuSans-20" transform="translate(276.757812 0.171875)"/>
      <use xlink:href="#DejaVuSans-28" transform="translate(308.544922 0.171875)"/>
      <use xlink:href="#DejaVuSans-c5" transform="translate(347.558594 0.171875)"/>
      <use xlink:href="#DejaVuSans-29" transform="translate(415.966797 0.171875)"/>
     </g>
    </g>
   </g>
   <g id="line2d_73">
    <path d="M 47.54 115.778388 
L 56.952 125.732424 
L 66.364 126.317181 
L 75.776 123.023883 
L 85.188 129.32109 
L 94.6 138.035056 
L 104.012 144.09549 
L 113.424 137.101118 
L 122.836 142.807588 
L 132.248 144.626435 
L 141.66 140.439857 
L 160.484 150.817214 
L 169.896 151.930525 
L 179.308 166.108209 
L 188.72 163.031355 
L 198.132 155.537129 
L 207.544 145.725397 
L 216.956 136.967186 
L 226.368 144.445866 
L 235.78 139.34807 
L 245.192 143.586069 
L 254.604 139.349266 
L 264.016 149.462346 
L 273.428 149.593886 
L 282.84 140.29875 
L 292.252 141.243451 
L 301.664 143.344512 
L 311.076 140.979174 
L 320.488 136.130109 
L 329.9 139.643439 
L 339.312 141.479028 
L 348.724 148.150527 
L 358.136 156.554775 
L 367.548 165.316574 
L 376.96 175.445199 
L 386.372 178.876017 
L 395.784 189.390893 
L 405.196 191.191804 
L 414.608 200.247775 
L 424.02 203.06394 
L 433.432 199.839999 
L 442.844 206.672935 
L 452.256 207.487291 
L 461.668 206.756643 
L 471.08 207.554257 
L 480.492 208.619736 
L 489.904 206.822413 
L 499.316 198.195742 
L 508.728 203.600864 
L 518.14 209.371909 
L 527.552 199.403524 
L 536.964 198.249554 
L 546.376 208.374592 
L 555.788 208.855313 
L 565.2 203.447799 
L 574.612 207.245734 
L 577 207.396829 
L 577 207.396829 
" clip-path="url(#p90bf9049ec)" style="fill: none; stroke: #000000; stroke-width: 1.5; stroke-linecap: square"/>
   </g>
   <g id="line2d_74">
    <path d="M 47.54 77.608897 
L 56.952 85.260972 
L 66.364 94.078975 
L 75.776 94.248782 
L 85.188 89.403305 
L 94.6 82.087256 
L 104.012 78.367049 
L 113.424 73.998706 
L 122.836 81.849287 
L 132.248 89.909138 
L 141.66 85.973683 
L 151.072 89.605399 
L 160.484 88.297168 
L 169.896 82.125523 
L 179.308 93.159386 
L 188.72 91.427834 
L 198.132 84.208647 
L 207.544 87.47205 
L 216.956 77.683038 
L 226.368 85.099536 
L 235.78 85.160523 
L 245.192 87.479225 
L 254.604 75.425323 
L 264.016 83.93002 
L 282.84 79.695609 
L 292.252 83.460062 
L 301.664 92.223057 
L 311.076 100.518484 
L 320.488 109.496727 
L 329.9 109.067427 
L 339.312 115.301255 
L 348.724 124.486375 
L 358.136 131.277457 
L 367.548 131.621854 
L 376.96 134.661638 
L 386.372 142.183368 
L 395.784 145.427637 
L 405.196 147.521524 
L 414.608 150.605553 
L 424.02 152.456688 
L 433.432 150.63784 
L 442.844 153.757744 
L 452.256 154.187044 
L 461.668 153.757744 
L 471.08 153.871347 
L 480.492 154.249227 
L 489.904 153.547279 
L 499.316 151.126932 
L 518.14 154.118882 
L 527.552 150.595986 
L 536.964 149.147844 
L 546.376 153.440851 
L 555.788 153.877326 
L 565.2 151.865951 
L 574.612 152.930234 
L 577 152.85499 
L 577 152.85499 
" clip-path="url(#p90bf9049ec)" style="fill: none; stroke: #ffc0cb; stroke-width: 1.5; stroke-linecap: square"/>
   </g>
   <g id="line2d_75">
    <path d="M 47.54 86.032278 
L 56.952 90.687619 
L 66.364 94.63862 
L 75.776 99.305919 
L 85.188 92.791073 
L 94.6 92.348618 
L 104.012 84.16201 
L 113.424 77.718913 
L 122.836 76.227721 
L 132.248 83.748255 
L 141.66 86.877725 
L 151.072 92.0676 
L 160.484 96.785123 
L 169.896 98.210545 
L 179.308 106.657842 
L 188.72 103.221046 
L 198.132 100.18485 
L 207.544 97.292153 
L 216.956 98.532222 
L 226.368 98.722357 
L 235.78 97.014721 
L 245.192 97.141479 
L 254.604 100.644046 
L 264.016 112.671639 
L 273.428 122.306389 
L 282.84 123.895639 
L 292.252 132.108555 
L 301.664 138.872132 
L 311.076 142.746601 
L 320.488 141.021027 
L 329.9 142.035086 
L 339.312 140.518781 
L 348.724 142.509828 
L 358.136 144.900279 
L 367.548 145.713439 
L 376.96 143.197426 
L 386.372 148.492533 
L 395.784 155.013358 
L 405.196 160.1554 
L 414.608 162.353323 
L 424.02 166.042439 
L 433.432 163.701016 
L 442.844 169.262792 
L 452.256 172.234413 
L 461.668 170.737242 
L 471.08 171.394945 
L 480.492 174.505282 
L 489.904 174.689439 
L 499.316 169.650238 
L 508.728 173.455349 
L 518.14 178.367792 
L 527.552 173.546232 
L 536.964 172.691218 
L 546.376 178.03057 
L 555.788 180.9424 
L 565.2 177.126527 
L 577 179.641654 
L 577 179.641654 
" clip-path="url(#p90bf9049ec)" style="fill: none; stroke: #808000; stroke-width: 1.5; stroke-linecap: square"/>
   </g>
   <g id="line2d_76">
    <path d="M 386.372 218.05 
L 386.372 14.76 
" clip-path="url(#p90bf9049ec)" style="fill: none; stroke-dasharray: 5.55,2.4; stroke-dashoffset: 0; stroke: #000000; stroke-width: 1.5"/>
   </g>
   <g id="patch_3">
    <path d="M 47.54 218.05 
L 47.54 14.76 
" style="fill: none; stroke: #000000; stroke-width: 0.8; stroke-linejoin: miter; stroke-linecap: square"/>
   </g>
   <g id="patch_4">
    <path d="M 565.2 218.05 
L 565.2 14.76 
" style="fill: none; stroke: #000000; stroke-width: 0.8; stroke-linejoin: miter; stroke-linecap: square"/>
   </g>
   <g id="patch_5">
    <path d="M 47.54 218.05 
L 565.2 218.05 
" style="fill: none; stroke: #000000; stroke-width: 0.8; stroke-linejoin: miter; stroke-linecap: square"/>
   </g>
   <g id="patch_6">
    <path d="M 47.54 14.76 
L 565.2 14.76 
" style="fill: none; stroke: #000000; stroke-width: 0.8; stroke-linejoin: miter; stroke-linecap: square"/>
   </g>
   <g id="text_75">
    <g id="patch_7">
     <path d="M 348.899125 127.379687 
L 375.860219 127.379687 
L 375.860219 105.430312 
L 348.899125 105.430312 
L 348.899125 99.942969 
L 332.437094 116.405 
L 348.899125 132.867031 
L 348.899125 127.379687 
z
" style="fill: #ffefd5; stroke: #000000; stroke-width: 2; stroke-linejoin: miter"/>
    </g>
    <!-- Tail  -->
    <g transform="translate(344.611781 120.268125) scale(0.14 -0.14)">
     <defs>
      <path id="DejaVuSans-61" d="M 2194 1759 
Q 1497 1759 1228 1600 
Q 959 1441 959 1056 
Q 959 750 1161 570 
Q 1363 391 1709 391 
Q 2188 391 2477 730 
Q 2766 1069 2766 1631 
L 2766 1759 
L 2194 1759 
z
M 3341 1997 
L 3341 0 
L 2766 0 
L 2766 531 
Q 2569 213 2275 61 
Q 1981 -91 1556 -91 
Q 1019 -91 701 211 
Q 384 513 384 1019 
Q 384 1609 779 1909 
Q 1175 2209 1959 2209 
L 2766 2209 
L 2766 2266 
Q 2766 2663 2505 2880 
Q 2244 3097 1772 3097 
Q 1472 3097 1187 3025 
Q 903 2953 641 2809 
L 641 3341 
Q 956 3463 1253 3523 
Q 1550 3584 1831 3584 
Q 2591 3584 2966 3190 
Q 3341 2797 3341 1997 
z
" transform="scale(0.015625)"/>
      <path id="DejaVuSans-6c" d="M 603 4863 
L 1178 4863 
L 1178 0 
L 603 0 
L 603 4863 
z
" transform="scale(0.015625)"/>
     </defs>
     <use xlink:href="#DejaVuSans-54"/>
     <use xlink:href="#DejaVuSans-61" x="44.583984"/>
     <use xlink:href="#DejaVuSans-69" x="105.863281"/>
     <use xlink:href="#DejaVuSans-6c" x="133.646484"/>
     <use xlink:href="#DejaVuSans-20" x="161.429688"/>
    </g>
   </g>
   <g id="text_76">
    <g id="patch_8">
     <path d="M 426.519094 127.379687 
L 394.209563 127.379687 
L 394.209563 105.430312 
L 426.519094 105.430312 
L 426.519094 99.942969 
L 442.981125 116.405 
L 426.519094 132.867031 
L 426.519094 127.379687 
z
" style="fill: #ffefd5; stroke: #000000; stroke-width: 2; stroke-linejoin: miter"/>
    </g>
    <!-- Core -->
    <g transform="translate(398.409562 120.268125) scale(0.14 -0.14)">
     <defs>
      <path id="DejaVuSans-43" d="M 4122 4306 
L 4122 3641 
Q 3803 3938 3442 4084 
Q 3081 4231 2675 4231 
Q 1875 4231 1450 3742 
Q 1025 3253 1025 2328 
Q 1025 1406 1450 917 
Q 1875 428 2675 428 
Q 3081 428 3442 575 
Q 3803 722 4122 1019 
L 4122 359 
Q 3791 134 3420 21 
Q 3050 -91 2638 -91 
Q 1578 -91 968 557 
Q 359 1206 359 2328 
Q 359 3453 968 4101 
Q 1578 4750 2638 4750 
Q 3056 4750 3426 4639 
Q 3797 4528 4122 4306 
z
" transform="scale(0.015625)"/>
      <path id="DejaVuSans-6f" d="M 1959 3097 
Q 1497 3097 1228 2736 
Q 959 2375 959 1747 
Q 959 1119 1226 758 
Q 1494 397 1959 397 
Q 2419 397 2687 759 
Q 2956 1122 2956 1747 
Q 2956 2369 2687 2733 
Q 2419 3097 1959 3097 
z
M 1959 3584 
Q 2709 3584 3137 3096 
Q 3566 2609 3566 1747 
Q 3566 888 3137 398 
Q 2709 -91 1959 -91 
Q 1206 -91 779 398 
Q 353 888 353 1747 
Q 353 2609 779 3096 
Q 1206 3584 1959 3584 
z
" transform="scale(0.015625)"/>
      <path id="DejaVuSans-72" d="M 2631 2963 
Q 2534 3019 2420 3045 
Q 2306 3072 2169 3072 
Q 1681 3072 1420 2755 
Q 1159 2438 1159 1844 
L 1159 0 
L 581 0 
L 581 3500 
L 1159 3500 
L 1159 2956 
Q 1341 3275 1631 3429 
Q 1922 3584 2338 3584 
Q 2397 3584 2469 3576 
Q 2541 3569 2628 3553 
L 2631 2963 
z
" transform="scale(0.015625)"/>
     </defs>
     <use xlink:href="#DejaVuSans-43"/>
     <use xlink:href="#DejaVuSans-6f" x="69.824219"/>
     <use xlink:href="#DejaVuSans-72" x="131.005859"/>
     <use xlink:href="#DejaVuSans-65" x="169.869141"/>
    </g>
   </g>
   <g id="text_77">
    <!-- Nucleosome H3K4me3 1-55 Fluctuations -->
    <g transform="translate(169.399375 8.76) scale(0.12 -0.12)">
     <defs>
      <path id="DejaVuSans-Bold-4e" d="M 588 4666 
L 1931 4666 
L 3628 1466 
L 3628 4666 
L 4769 4666 
L 4769 0 
L 3425 0 
L 1728 3200 
L 1728 0 
L 588 0 
L 588 4666 
z
" transform="scale(0.015625)"/>
      <path id="DejaVuSans-Bold-75" d="M 500 1363 
L 500 3500 
L 1625 3500 
L 1625 3150 
Q 1625 2866 1622 2436 
Q 1619 2006 1619 1863 
Q 1619 1441 1641 1255 
Q 1663 1069 1716 984 
Q 1784 875 1895 815 
Q 2006 756 2150 756 
Q 2500 756 2700 1025 
Q 2900 1294 2900 1772 
L 2900 3500 
L 4019 3500 
L 4019 0 
L 2900 0 
L 2900 506 
Q 2647 200 2364 54 
Q 2081 -91 1741 -91 
Q 1134 -91 817 281 
Q 500 653 500 1363 
z
" transform="scale(0.015625)"/>
      <path id="DejaVuSans-Bold-63" d="M 3366 3391 
L 3366 2478 
Q 3138 2634 2908 2709 
Q 2678 2784 2431 2784 
Q 1963 2784 1702 2511 
Q 1441 2238 1441 1747 
Q 1441 1256 1702 982 
Q 1963 709 2431 709 
Q 2694 709 2930 787 
Q 3166 866 3366 1019 
L 3366 103 
Q 3103 6 2833 -42 
Q 2563 -91 2291 -91 
Q 1344 -91 809 395 
Q 275 881 275 1747 
Q 275 2613 809 3098 
Q 1344 3584 2291 3584 
Q 2566 3584 2833 3536 
Q 3100 3488 3366 3391 
z
" transform="scale(0.015625)"/>
      <path id="DejaVuSans-Bold-6c" d="M 538 4863 
L 1656 4863 
L 1656 0 
L 538 0 
L 538 4863 
z
" transform="scale(0.015625)"/>
      <path id="DejaVuSans-Bold-65" d="M 4031 1759 
L 4031 1441 
L 1416 1441 
Q 1456 1047 1700 850 
Q 1944 653 2381 653 
Q 2734 653 3104 758 
Q 3475 863 3866 1075 
L 3866 213 
Q 3469 63 3072 -14 
Q 2675 -91 2278 -91 
Q 1328 -91 801 392 
Q 275 875 275 1747 
Q 275 2603 792 3093 
Q 1309 3584 2216 3584 
Q 3041 3584 3536 3087 
Q 4031 2591 4031 1759 
z
M 2881 2131 
Q 2881 2450 2695 2645 
Q 2509 2841 2209 2841 
Q 1884 2841 1681 2658 
Q 1478 2475 1428 2131 
L 2881 2131 
z
" transform="scale(0.015625)"/>
      <path id="DejaVuSans-Bold-6f" d="M 2203 2784 
Q 1831 2784 1636 2517 
Q 1441 2250 1441 1747 
Q 1441 1244 1636 976 
Q 1831 709 2203 709 
Q 2569 709 2762 976 
Q 2956 1244 2956 1747 
Q 2956 2250 2762 2517 
Q 2569 2784 2203 2784 
z
M 2203 3584 
Q 3106 3584 3614 3096 
Q 4122 2609 4122 1747 
Q 4122 884 3614 396 
Q 3106 -91 2203 -91 
Q 1297 -91 786 396 
Q 275 884 275 1747 
Q 275 2609 786 3096 
Q 1297 3584 2203 3584 
z
" transform="scale(0.015625)"/>
      <path id="DejaVuSans-Bold-73" d="M 3272 3391 
L 3272 2541 
Q 2913 2691 2578 2766 
Q 2244 2841 1947 2841 
Q 1628 2841 1473 2761 
Q 1319 2681 1319 2516 
Q 1319 2381 1436 2309 
Q 1553 2238 1856 2203 
L 2053 2175 
Q 2913 2066 3209 1816 
Q 3506 1566 3506 1031 
Q 3506 472 3093 190 
Q 2681 -91 1863 -91 
Q 1516 -91 1145 -36 
Q 775 19 384 128 
L 384 978 
Q 719 816 1070 734 
Q 1422 653 1784 653 
Q 2113 653 2278 743 
Q 2444 834 2444 1013 
Q 2444 1163 2330 1236 
Q 2216 1309 1875 1350 
L 1678 1375 
Q 931 1469 631 1722 
Q 331 1975 331 2491 
Q 331 3047 712 3315 
Q 1094 3584 1881 3584 
Q 2191 3584 2531 3537 
Q 2872 3491 3272 3391 
z
" transform="scale(0.015625)"/>
      <path id="DejaVuSans-Bold-6d" d="M 3781 2919 
Q 3994 3244 4286 3414 
Q 4578 3584 4928 3584 
Q 5531 3584 5847 3212 
Q 6163 2841 6163 2131 
L 6163 0 
L 5038 0 
L 5038 1825 
Q 5041 1866 5042 1909 
Q 5044 1953 5044 2034 
Q 5044 2406 4934 2573 
Q 4825 2741 4581 2741 
Q 4263 2741 4089 2478 
Q 3916 2216 3909 1719 
L 3909 0 
L 2784 0 
L 2784 1825 
Q 2784 2406 2684 2573 
Q 2584 2741 2328 2741 
Q 2006 2741 1831 2477 
Q 1656 2213 1656 1722 
L 1656 0 
L 531 0 
L 531 3500 
L 1656 3500 
L 1656 2988 
Q 1863 3284 2130 3434 
Q 2397 3584 2719 3584 
Q 3081 3584 3359 3409 
Q 3638 3234 3781 2919 
z
" transform="scale(0.015625)"/>
      <path id="DejaVuSans-Bold-20" transform="scale(0.015625)"/>
      <path id="DejaVuSans-Bold-48" d="M 588 4666 
L 1791 4666 
L 1791 2888 
L 3566 2888 
L 3566 4666 
L 4769 4666 
L 4769 0 
L 3566 0 
L 3566 1978 
L 1791 1978 
L 1791 0 
L 588 0 
L 588 4666 
z
" transform="scale(0.015625)"/>
      <path id="DejaVuSans-Bold-33" d="M 2981 2516 
Q 3453 2394 3698 2092 
Q 3944 1791 3944 1325 
Q 3944 631 3412 270 
Q 2881 -91 1863 -91 
Q 1503 -91 1142 -33 
Q 781 25 428 141 
L 428 1069 
Q 766 900 1098 814 
Q 1431 728 1753 728 
Q 2231 728 2486 893 
Q 2741 1059 2741 1369 
Q 2741 1688 2480 1852 
Q 2219 2016 1709 2016 
L 1228 2016 
L 1228 2791 
L 1734 2791 
Q 2188 2791 2409 2933 
Q 2631 3075 2631 3366 
Q 2631 3634 2415 3781 
Q 2200 3928 1806 3928 
Q 1516 3928 1219 3862 
Q 922 3797 628 3669 
L 628 4550 
Q 984 4650 1334 4700 
Q 1684 4750 2022 4750 
Q 2931 4750 3382 4451 
Q 3834 4153 3834 3553 
Q 3834 3144 3618 2883 
Q 3403 2622 2981 2516 
z
" transform="scale(0.015625)"/>
      <path id="DejaVuSans-Bold-4b" d="M 588 4666 
L 1791 4666 
L 1791 2963 
L 3525 4666 
L 4922 4666 
L 2675 2456 
L 5153 0 
L 3647 0 
L 1791 1838 
L 1791 0 
L 588 0 
L 588 4666 
z
" transform="scale(0.015625)"/>
      <path id="DejaVuSans-Bold-34" d="M 2356 3675 
L 1038 1722 
L 2356 1722 
L 2356 3675 
z
M 2156 4666 
L 3494 4666 
L 3494 1722 
L 4159 1722 
L 4159 850 
L 3494 850 
L 3494 0 
L 2356 0 
L 2356 850 
L 288 850 
L 288 1881 
L 2156 4666 
z
" transform="scale(0.015625)"/>
      <path id="DejaVuSans-Bold-31" d="M 750 831 
L 1813 831 
L 1813 3847 
L 722 3622 
L 722 4441 
L 1806 4666 
L 2950 4666 
L 2950 831 
L 4013 831 
L 4013 0 
L 750 0 
L 750 831 
z
" transform="scale(0.015625)"/>
      <path id="DejaVuSans-Bold-2d" d="M 347 2297 
L 2309 2297 
L 2309 1388 
L 347 1388 
L 347 2297 
z
" transform="scale(0.015625)"/>
      <path id="DejaVuSans-Bold-35" d="M 678 4666 
L 3669 4666 
L 3669 3781 
L 1638 3781 
L 1638 3059 
Q 1775 3097 1914 3117 
Q 2053 3138 2203 3138 
Q 3056 3138 3531 2711 
Q 4006 2284 4006 1522 
Q 4006 766 3489 337 
Q 2972 -91 2053 -91 
Q 1656 -91 1267 -14 
Q 878 63 494 219 
L 494 1166 
Q 875 947 1217 837 
Q 1559 728 1863 728 
Q 2300 728 2551 942 
Q 2803 1156 2803 1522 
Q 2803 1891 2551 2103 
Q 2300 2316 1863 2316 
Q 1603 2316 1309 2248 
Q 1016 2181 678 2041 
L 678 4666 
z
" transform="scale(0.015625)"/>
      <path id="DejaVuSans-Bold-46" d="M 588 4666 
L 3834 4666 
L 3834 3756 
L 1791 3756 
L 1791 2888 
L 3713 2888 
L 3713 1978 
L 1791 1978 
L 1791 0 
L 588 0 
L 588 4666 
z
" transform="scale(0.015625)"/>
      <path id="DejaVuSans-Bold-74" d="M 1759 4494 
L 1759 3500 
L 2913 3500 
L 2913 2700 
L 1759 2700 
L 1759 1216 
Q 1759 972 1856 886 
Q 1953 800 2241 800 
L 2816 800 
L 2816 0 
L 1856 0 
Q 1194 0 917 276 
Q 641 553 641 1216 
L 641 2700 
L 84 2700 
L 84 3500 
L 641 3500 
L 641 4494 
L 1759 4494 
z
" transform="scale(0.015625)"/>
      <path id="DejaVuSans-Bold-61" d="M 2106 1575 
Q 1756 1575 1579 1456 
Q 1403 1338 1403 1106 
Q 1403 894 1545 773 
Q 1688 653 1941 653 
Q 2256 653 2472 879 
Q 2688 1106 2688 1447 
L 2688 1575 
L 2106 1575 
z
M 3816 1997 
L 3816 0 
L 2688 0 
L 2688 519 
Q 2463 200 2181 54 
Q 1900 -91 1497 -91 
Q 953 -91 614 226 
Q 275 544 275 1050 
Q 275 1666 698 1953 
Q 1122 2241 2028 2241 
L 2688 2241 
L 2688 2328 
Q 2688 2594 2478 2717 
Q 2269 2841 1825 2841 
Q 1466 2841 1156 2769 
Q 847 2697 581 2553 
L 581 3406 
Q 941 3494 1303 3539 
Q 1666 3584 2028 3584 
Q 2975 3584 3395 3211 
Q 3816 2838 3816 1997 
z
" transform="scale(0.015625)"/>
      <path id="DejaVuSans-Bold-69" d="M 538 3500 
L 1656 3500 
L 1656 0 
L 538 0 
L 538 3500 
z
M 538 4863 
L 1656 4863 
L 1656 3950 
L 538 3950 
L 538 4863 
z
" transform="scale(0.015625)"/>
      <path id="DejaVuSans-Bold-6e" d="M 4056 2131 
L 4056 0 
L 2931 0 
L 2931 347 
L 2931 1631 
Q 2931 2084 2911 2256 
Q 2891 2428 2841 2509 
Q 2775 2619 2662 2680 
Q 2550 2741 2406 2741 
Q 2056 2741 1856 2470 
Q 1656 2200 1656 1722 
L 1656 0 
L 538 0 
L 538 3500 
L 1656 3500 
L 1656 2988 
Q 1909 3294 2193 3439 
Q 2478 3584 2822 3584 
Q 3428 3584 3742 3212 
Q 4056 2841 4056 2131 
z
" transform="scale(0.015625)"/>
     </defs>
     <use xlink:href="#DejaVuSans-Bold-4e"/>
     <use xlink:href="#DejaVuSans-Bold-75" x="83.691406"/>
     <use xlink:href="#DejaVuSans-Bold-63" x="154.882812"/>
     <use xlink:href="#DejaVuSans-Bold-6c" x="214.160156"/>
     <use xlink:href="#DejaVuSans-Bold-65" x="248.4375"/>
     <use xlink:href="#DejaVuSans-Bold-6f" x="316.259766"/>
     <use xlink:href="#DejaVuSans-Bold-73" x="384.960938"/>
     <use xlink:href="#DejaVuSans-Bold-6f" x="444.482422"/>
     <use xlink:href="#DejaVuSans-Bold-6d" x="513.183594"/>
     <use xlink:href="#DejaVuSans-Bold-65" x="617.382812"/>
     <use xlink:href="#DejaVuSans-Bold-20" x="685.205078"/>
     <use xlink:href="#DejaVuSans-Bold-48" x="720.019531"/>
     <use xlink:href="#DejaVuSans-Bold-33" x="803.710938"/>
     <use xlink:href="#DejaVuSans-Bold-4b" x="873.291016"/>
     <use xlink:href="#DejaVuSans-Bold-34" x="950.78125"/>
     <use xlink:href="#DejaVuSans-Bold-6d" x="1020.361328"/>
     <use xlink:href="#DejaVuSans-Bold-65" x="1124.560547"/>
     <use xlink:href="#DejaVuSans-Bold-33" x="1192.382812"/>
     <use xlink:href="#DejaVuSans-Bold-20" x="1261.962891"/>
     <use xlink:href="#DejaVuSans-Bold-31" x="1296.777344"/>
     <use xlink:href="#DejaVuSans-Bold-2d" x="1366.357422"/>
     <use xlink:href="#DejaVuSans-Bold-35" x="1407.861328"/>
     <use xlink:href="#DejaVuSans-Bold-35" x="1477.441406"/>
     <use xlink:href="#DejaVuSans-Bold-20" x="1547.021484"/>
     <use xlink:href="#DejaVuSans-Bold-46" x="1581.835938"/>
     <use xlink:href="#DejaVuSans-Bold-6c" x="1650.146484"/>
     <use xlink:href="#DejaVuSans-Bold-75" x="1684.423828"/>
     <use xlink:href="#DejaVuSans-Bold-63" x="1755.615234"/>
     <use xlink:href="#DejaVuSans-Bold-74" x="1814.892578"/>
     <use xlink:href="#DejaVuSans-Bold-75" x="1862.695312"/>
     <use xlink:href="#DejaVuSans-Bold-61" x="1933.886719"/>
     <use xlink:href="#DejaVuSans-Bold-74" x="2001.367188"/>
     <use xlink:href="#DejaVuSans-Bold-69" x="2049.169922"/>
     <use xlink:href="#DejaVuSans-Bold-6f" x="2083.447266"/>
     <use xlink:href="#DejaVuSans-Bold-6e" x="2152.148438"/>
     <use xlink:href="#DejaVuSans-Bold-73" x="2223.339844"/>
    </g>
   </g>
   <g id="legend_1">
    <g id="patch_9">
     <path d="M 465.215625 52.794375 
L 558.2 52.794375 
Q 560.2 52.794375 560.2 50.794375 
L 560.2 21.76 
Q 560.2 19.76 558.2 19.76 
L 465.215625 19.76 
Q 463.215625 19.76 463.215625 21.76 
L 463.215625 50.794375 
Q 463.215625 52.794375 465.215625 52.794375 
z
" style="fill: #ffffff; opacity: 0.8; stroke: #cccccc; stroke-linejoin: miter"/>
    </g>
    <g id="line2d_77">
     <path d="M 464.215625 24.858437 
L 474.215625 24.858437 
L 484.215625 24.858437 
" style="fill: none; stroke: #000000; stroke-width: 1.5; stroke-linecap: square"/>
    </g>
    <g id="text_78">
     <!-- NCP -->
     <g transform="translate(492.215625 28.358437) scale(0.1 -0.1)">
      <defs>
       <path id="DejaVuSans-Bold-43" d="M 4288 256 
Q 3956 84 3597 -3 
Q 3238 -91 2847 -91 
Q 1681 -91 1000 561 
Q 319 1213 319 2328 
Q 319 3447 1000 4098 
Q 1681 4750 2847 4750 
Q 3238 4750 3597 4662 
Q 3956 4575 4288 4403 
L 4288 3438 
Q 3953 3666 3628 3772 
Q 3303 3878 2944 3878 
Q 2300 3878 1931 3465 
Q 1563 3053 1563 2328 
Q 1563 1606 1931 1193 
Q 2300 781 2944 781 
Q 3303 781 3628 887 
Q 3953 994 4288 1222 
L 4288 256 
z
" transform="scale(0.015625)"/>
       <path id="DejaVuSans-Bold-50" d="M 588 4666 
L 2584 4666 
Q 3475 4666 3951 4270 
Q 4428 3875 4428 3144 
Q 4428 2409 3951 2014 
Q 3475 1619 2584 1619 
L 1791 1619 
L 1791 0 
L 588 0 
L 588 4666 
z
M 1791 3794 
L 1791 2491 
L 2456 2491 
Q 2806 2491 2997 2661 
Q 3188 2831 3188 3144 
Q 3188 3456 2997 3625 
Q 2806 3794 2456 3794 
L 1791 3794 
z
" transform="scale(0.015625)"/>
      </defs>
      <use xlink:href="#DejaVuSans-Bold-4e"/>
      <use xlink:href="#DejaVuSans-Bold-43" x="83.691406"/>
      <use xlink:href="#DejaVuSans-Bold-50" x="157.080078"/>
     </g>
    </g>
    <g id="line2d_78">
     <path d="M 464.215625 35.536562 
L 474.215625 35.536562 
L 484.215625 35.536562 
" style="fill: none; stroke: #ffc0cb; stroke-width: 1.5; stroke-linecap: square"/>
    </g>
    <g id="text_79">
     <!-- PHD + NCP -->
     <g transform="translate(492.215625 39.036562) scale(0.1 -0.1)">
      <defs>
       <path id="DejaVuSans-Bold-44" d="M 1791 3756 
L 1791 909 
L 2222 909 
Q 2959 909 3348 1275 
Q 3738 1641 3738 2338 
Q 3738 3031 3350 3393 
Q 2963 3756 2222 3756 
L 1791 3756 
z
M 588 4666 
L 1856 4666 
Q 2919 4666 3439 4514 
Q 3959 4363 4331 4000 
Q 4659 3684 4818 3271 
Q 4978 2859 4978 2338 
Q 4978 1809 4818 1395 
Q 4659 981 4331 666 
Q 3956 303 3431 151 
Q 2906 0 1856 0 
L 588 0 
L 588 4666 
z
" transform="scale(0.015625)"/>
       <path id="DejaVuSans-Bold-2b" d="M 3053 4013 
L 3053 2375 
L 4684 2375 
L 4684 1638 
L 3053 1638 
L 3053 0 
L 2309 0 
L 2309 1638 
L 678 1638 
L 678 2375 
L 2309 2375 
L 2309 4013 
L 3053 4013 
z
" transform="scale(0.015625)"/>
      </defs>
      <use xlink:href="#DejaVuSans-Bold-50"/>
      <use xlink:href="#DejaVuSans-Bold-48" x="73.291016"/>
      <use xlink:href="#DejaVuSans-Bold-44" x="156.982422"/>
      <use xlink:href="#DejaVuSans-Bold-20" x="239.990234"/>
      <use xlink:href="#DejaVuSans-Bold-2b" x="274.804688"/>
      <use xlink:href="#DejaVuSans-Bold-20" x="358.59375"/>
      <use xlink:href="#DejaVuSans-Bold-4e" x="393.408203"/>
      <use xlink:href="#DejaVuSans-Bold-43" x="477.099609"/>
      <use xlink:href="#DejaVuSans-Bold-50" x="550.488281"/>
     </g>
    </g>
    <g id="line2d_79">
     <path d="M 464.215625 46.214687 
L 474.215625 46.214687 
L 484.215625 46.214687 
" style="fill: none; stroke: #808000; stroke-width: 1.5; stroke-linecap: square"/>
    </g>
    <g id="text_80">
     <!-- BPTF + NCP -->
     <g transform="translate(492.215625 49.714687) scale(0.1 -0.1)">
      <defs>
       <path id="DejaVuSans-Bold-42" d="M 2456 2859 
Q 2741 2859 2887 2984 
Q 3034 3109 3034 3353 
Q 3034 3594 2887 3720 
Q 2741 3847 2456 3847 
L 1791 3847 
L 1791 2859 
L 2456 2859 
z
M 2497 819 
Q 2859 819 3042 972 
Q 3225 1125 3225 1434 
Q 3225 1738 3044 1889 
Q 2863 2041 2497 2041 
L 1791 2041 
L 1791 819 
L 2497 819 
z
M 3616 2497 
Q 4003 2384 4215 2081 
Q 4428 1778 4428 1338 
Q 4428 663 3972 331 
Q 3516 0 2584 0 
L 588 0 
L 588 4666 
L 2394 4666 
Q 3366 4666 3802 4372 
Q 4238 4078 4238 3431 
Q 4238 3091 4078 2852 
Q 3919 2613 3616 2497 
z
" transform="scale(0.015625)"/>
       <path id="DejaVuSans-Bold-54" d="M 31 4666 
L 4331 4666 
L 4331 3756 
L 2784 3756 
L 2784 0 
L 1581 0 
L 1581 3756 
L 31 3756 
L 31 4666 
z
" transform="scale(0.015625)"/>
      </defs>
      <use xlink:href="#DejaVuSans-Bold-42"/>
      <use xlink:href="#DejaVuSans-Bold-50" x="76.220703"/>
      <use xlink:href="#DejaVuSans-Bold-54" x="149.511719"/>
      <use xlink:href="#DejaVuSans-Bold-46" x="217.724609"/>
      <use xlink:href="#DejaVuSans-Bold-20" x="286.035156"/>
      <use xlink:href="#DejaVuSans-Bold-2b" x="320.849609"/>
      <use xlink:href="#DejaVuSans-Bold-20" x="404.638672"/>
      <use xlink:href="#DejaVuSans-Bold-4e" x="439.453125"/>
      <use xlink:href="#DejaVuSans-Bold-43" x="523.144531"/>
      <use xlink:href="#DejaVuSans-Bold-50" x="596.533203"/>
     </g>
    </g>
   </g>
  </g>
 </g>
 <defs>
  <clipPath id="p90bf9049ec">
   <rect x="47.54" y="14.76" width="517.66" height="203.29"/>
  </clipPath>
 </defs>
</svg>
